<svg width="301" height="301" viewBox="0 0 301 301" fill="none" xmlns="http://www.w3.org/2000/svg">
<path d="M192.5 258.5C192.5 281.696 173.696 300.5 150.5 300.5C127.304 300.5 108.5 281.696 108.5 258.5C108.5 235.304 127.304 216.5 150.5 216.5C173.696 216.5 192.5 235.304 192.5 258.5Z" fill="#B563E8"/>
<path d="M192.5 42.5C192.5 65.696 173.696 84.5 150.5 84.5C127.304 84.5 108.5 65.696 108.5 42.5C108.5 19.304 127.304 0.5 150.5 0.5C173.696 0.5 192.5 19.304 192.5 42.5Z" fill="#B563E8"/>
<path d="M300.5 150.5C300.5 173.696 281.696 192.5 258.5 192.5C235.304 192.5 216.5 173.696 216.5 150.5C216.5 127.304 235.304 108.5 258.5 108.5C281.696 108.5 300.5 127.304 300.5 150.5Z" fill="#B563E8"/>
<path d="M84.5 150.5C84.5 173.696 65.696 192.5 42.5 192.5C19.304 192.5 0.5 173.696 0.5 150.5C0.5 127.304 19.304 108.5 42.5 108.5C65.696 108.5 84.5 127.304 84.5 150.5Z" fill="#B563E8"/>
<path fill-rule="evenodd" clip-rule="evenodd" d="M24.5 151.779L151.779 24.5L279.058 151.779L151.779 279.058L24.5 151.779ZM151.779 257.845L257.845 151.779L151.779 45.7132L45.7132 151.779L151.779 257.845Z" fill="#B563E8"/>
</svg>
