<svg width="408" height="156" viewBox="0 0 408 156" fill="none" xmlns="http://www.w3.org/2000/svg">
<path d="M22.2 19.16C20.44 18.6267 18.8 17.8933 17.28 16.96C15.76 16.0267 14.52 14.92 13.56 13.64C12.8133 14.9467 11.6133 16.16 9.96 17.28C8.33333 18.4 6.48 19.2933 4.4 19.96L1.72 16.56C4.28 15.7067 6.36 14.6667 7.96 13.44C9.58667 12.1867 10.5867 10.76 10.96 9.16H4.04V5.08H11.16V1.2H15.72V5.08H22.84V9.16H15.92C16.32 10.6 17.28 11.88 18.8 13C20.3467 14.0933 22.24 14.9333 24.48 15.52L22.2 19.16ZM27 37V1.2H31.56V37H27ZM25.6 24.84C23.0667 25.32 19.6933 25.6 15.48 25.68V36.2H10.76V25.72H1.64V21.64H11.68C17.7333 21.64 22.3733 21.3733 25.6 20.84V24.84ZM55.1569 37.72C52.6502 37.72 50.4635 37.4267 48.5969 36.84C46.7569 36.28 45.3435 35.4933 44.3569 34.48C43.3969 33.4933 42.9169 32.36 42.9169 31.08C42.9169 29.7733 43.3969 28.6267 44.3569 27.64C45.3435 26.6267 46.7569 25.84 48.5969 25.28C50.4369 24.6933 52.6235 24.4 55.1569 24.4C57.6902 24.4 59.8769 24.6933 61.7169 25.28C63.5569 25.84 64.9569 26.6267 65.9169 27.64C66.9035 28.6267 67.3969 29.7733 67.3969 31.08C67.3969 32.36 66.9035 33.4933 65.9169 34.48C64.9569 35.4933 63.5435 36.28 61.6769 36.84C59.8369 37.4267 57.6635 37.72 55.1569 37.72ZM49.1569 22.52C47.3169 22.52 45.6769 22.2267 44.2369 21.64C42.8235 21.0533 41.7169 20.2533 40.9169 19.24C40.1435 18.2 39.7569 17.0533 39.7569 15.8C39.7569 14.5467 40.1435 13.4133 40.9169 12.4C41.7169 11.36 42.8235 10.5467 44.2369 9.96C45.6769 9.37333 47.3169 9.08 49.1569 9.08C50.9969 9.08 52.6235 9.37333 54.0369 9.96C55.4769 10.5467 56.5835 11.36 57.3569 12.4C58.1569 13.4133 58.5569 14.5467 58.5569 15.8C58.5569 17.0533 58.1569 18.2 57.3569 19.24C56.5835 20.2533 55.4769 21.0533 54.0369 21.64C52.6235 22.2267 50.9969 22.52 49.1569 22.52ZM62.1969 1.2H66.7569V6.56H71.3969V10.64H66.7569V14.88H71.3969V18.96H66.7569V24.08H62.1969V1.2ZM38.1969 4.04H46.8769V0.639998H51.4369V4.04H60.0369V7.96H38.1969V4.04ZM55.1569 33.88C57.5569 33.88 59.4102 33.64 60.7169 33.16C62.0235 32.6533 62.6769 31.96 62.6769 31.08C62.6769 30.1733 62.0235 29.48 60.7169 29C59.4102 28.4933 57.5569 28.24 55.1569 28.24C52.7569 28.24 50.9035 28.4933 49.5969 29C48.2902 29.48 47.6369 30.1733 47.6369 31.08C47.6369 31.96 48.2902 32.6533 49.5969 33.16C50.9035 33.64 52.7569 33.88 55.1569 33.88ZM49.1569 12.84C47.6902 12.84 46.5302 13.1067 45.6769 13.64C44.8235 14.1467 44.3969 14.8667 44.3969 15.8C44.3969 16.7333 44.8235 17.4667 45.6769 18C46.5302 18.5067 47.6902 18.76 49.1569 18.76C50.6235 18.76 51.7835 18.5067 52.6369 18C53.4902 17.4667 53.9169 16.7333 53.9169 15.8C53.9169 14.8667 53.4902 14.1467 52.6369 13.64C51.7835 13.1067 50.6235 12.84 49.1569 12.84ZM85.9222 2.8H103.042V18.56H85.9222V2.8ZM104.202 26.88C104.869 28.2667 106.216 29.5467 108.242 30.72C110.296 31.8933 112.656 32.7467 115.322 33.28L113.282 36.92C110.776 36.4133 108.456 35.5733 106.322 34.4C104.189 33.2533 102.576 31.92 101.482 30.4C100.389 31.92 98.7755 33.2533 96.6422 34.4C94.5089 35.5733 92.1889 36.4133 89.6822 36.92L87.6422 33.28C90.3355 32.7467 92.6955 31.8933 94.7222 30.72C96.7489 29.5467 98.0822 28.2667 98.7222 26.88H89.7622V22.92H113.602V26.88H104.202ZM108.642 1.2H113.202V8.32H118.042V12.48H113.202V21.16H108.642V1.2ZM90.4822 6.8V14.56H98.4822V6.8H90.4822ZM139.839 21.8V24.68H149.679V36.6H125.199V24.68H135.039V21.8H120.719V17.8H154.159V21.8H139.839ZM140.239 7.64C140.959 8.78666 142.412 9.85333 144.599 10.84C146.812 11.8 149.359 12.52 152.239 13L149.879 16.64C147.372 16.2667 144.999 15.5867 142.759 14.6C140.546 13.6133 138.772 12.4267 137.439 11.04C136.106 12.4267 134.319 13.6133 132.079 14.6C129.866 15.5867 127.506 16.2667 124.999 16.64L122.639 13C125.519 12.52 128.052 11.8 130.239 10.84C132.452 9.85333 133.906 8.78666 134.599 7.64H124.719V3.72H135.159V0.359999H139.719V3.72H150.159V7.64H140.239ZM145.119 32.6V28.64H129.759V32.6H145.119ZM185.884 26.24H174.804L172.604 33.6H166.684L176.324 4.32H184.324L194.004 33.6H188.084L185.884 26.24ZM184.604 21.96L180.324 7.68L176.084 21.96H184.604ZM199.211 4.32H204.811V33.6H199.211V4.32ZM230.693 30.6C228.933 30.6 227.346 30.08 225.933 29.04C224.546 28 223.44 26.4667 222.613 24.44C221.813 22.3867 221.413 19.9067 221.413 17C221.413 14.0933 221.813 11.6267 222.613 9.6C223.44 7.54667 224.546 6 225.933 4.96C227.346 3.92 228.933 3.4 230.693 3.4C232.346 3.4 233.84 3.85333 235.173 4.76C236.506 5.66667 237.586 6.98667 238.413 8.72H245.653V1.2H250.213V37H245.653V25.48H238.293C237.493 27.16 236.426 28.44 235.093 29.32C233.76 30.1733 232.293 30.6 230.693 30.6ZM230.693 7.48C229.306 7.48 228.173 8.29333 227.293 9.92C226.413 11.5467 225.973 13.9067 225.973 17C225.973 20.0933 226.413 22.4533 227.293 24.08C228.173 25.7067 229.306 26.52 230.693 26.52C232.08 26.52 233.213 25.7067 234.093 24.08C234.973 22.4533 235.413 20.0933 235.413 17C235.413 13.9067 234.973 11.5467 234.093 9.92C233.213 8.29333 232.08 7.48 230.693 7.48ZM239.973 17C239.973 18.4667 239.84 19.9333 239.573 21.4H245.653V12.8H239.613C239.853 14.08 239.973 15.48 239.973 17ZM275.77 37.72C273.13 37.72 270.837 37.4267 268.89 36.84C266.97 36.28 265.49 35.4933 264.45 34.48C263.437 33.4933 262.93 32.3467 262.93 31.04C262.93 29.7333 263.437 28.5867 264.45 27.6C265.49 26.5867 266.97 25.8 268.89 25.24C270.837 24.6533 273.13 24.36 275.77 24.36C278.41 24.36 280.69 24.6533 282.61 25.24C284.557 25.8 286.037 26.5867 287.05 27.6C288.09 28.5867 288.61 29.7333 288.61 31.04C288.61 32.3467 288.09 33.4933 287.05 34.48C286.037 35.4933 284.557 36.28 282.61 36.84C280.69 37.4267 278.41 37.72 275.77 37.72ZM276.05 1.8H280.45V10.6H283.49V1.2H287.97V24.36H283.49V14.84H280.45V22.84H276.05V1.8ZM266.21 22.68C264.717 22.68 263.383 22.3867 262.21 21.8C261.063 21.1867 260.17 20.3733 259.53 19.36C258.89 18.3467 258.57 17.24 258.57 16.04C258.57 14.84 258.89 13.7333 259.53 12.72C260.17 11.7067 261.063 10.9067 262.21 10.32C263.383 9.70667 264.717 9.4 266.21 9.4C267.703 9.4 269.023 9.70667 270.17 10.32C271.343 10.9067 272.25 11.7067 272.89 12.72C273.53 13.7333 273.85 14.84 273.85 16.04C273.85 17.24 273.53 18.3467 272.89 19.36C272.25 20.3733 271.343 21.1867 270.17 21.8C269.023 22.3867 267.703 22.68 266.21 22.68ZM257.73 4.52H263.77V1.2H268.33V4.52H274.37V8.44H257.73V4.52ZM275.77 33.88C278.383 33.88 280.383 33.64 281.77 33.16C283.183 32.6533 283.89 31.9467 283.89 31.04C283.89 30.1333 283.183 29.44 281.77 28.96C280.383 28.4533 278.383 28.2 275.77 28.2C273.157 28.2 271.143 28.4533 269.73 28.96C268.343 29.44 267.65 30.1333 267.65 31.04C267.65 31.9467 268.343 32.6533 269.73 33.16C271.143 33.64 273.157 33.88 275.77 33.88ZM266.21 13.16C265.223 13.16 264.437 13.44 263.85 14C263.263 14.5333 262.97 15.2133 262.97 16.04C262.97 16.8667 263.263 17.56 263.85 18.12C264.437 18.6533 265.223 18.92 266.21 18.92C267.197 18.92 267.983 18.6533 268.57 18.12C269.157 17.56 269.45 16.8667 269.45 16.04C269.45 15.2133 269.157 14.5333 268.57 14C267.983 13.44 267.197 13.16 266.21 13.16ZM303.375 20V16.16H336.815V20H303.375ZM307.855 27.52H327.775V25.84H307.855V22.08H332.335V31.04H312.415V32.8H333.135V36.6H307.855V27.52ZM306.335 10.32H311.495L311.295 5.96H307.135V2.16H333.055V5.96H328.895L328.735 10.32H333.855V14.16H306.335V10.32ZM315.855 5.96L316.015 10.32H324.215L324.335 5.96H315.855ZM358.892 1.8H363.292V14.28H366.732V1.2H371.212V37H366.732V18.6H363.292V35.32H358.892V1.8ZM351.292 8.4H342.412V4.36H355.692V18.52H346.812V25.2H348.212C351.999 25.2 355.092 25.0133 357.492 24.64V28.64C355.012 29.0667 351.919 29.28 348.212 29.28H342.412V14.52H351.292V8.4ZM402.489 11.96V1.2H407.049V37H402.489V16.12H392.729V11.96H402.489ZM384.249 4V24.52H385.169C390.982 24.52 395.889 24.1867 399.889 23.52V27.56C396.236 28.28 391.329 28.64 385.169 28.64H379.689V4H384.249ZM24.28 68.08H15.04V92.6H9.52V68.08H0.28V63.32H24.28V68.08ZM29.0025 70.6H34.1225V75.48C34.4158 73.7467 35.0958 72.4133 36.1625 71.48C37.2292 70.52 38.4958 70.04 39.9625 70.04H40.0025C41.1492 70.04 42.1892 70.3333 43.1225 70.92C44.0558 71.48 44.7892 72.3067 45.3225 73.4C45.8825 74.4933 46.1625 75.8 46.1625 77.32V78.2H41.0825V77.64C41.0825 76.5733 40.7758 75.7467 40.1625 75.16C39.5492 74.5467 38.7758 74.24 37.8425 74.24H37.7625C36.7492 74.24 35.9092 74.5867 35.2425 75.28C34.6025 75.9733 34.2825 77 34.2825 78.36V92.6H29.0025V70.6ZM70.2897 70.56V92.6H65.0897V86.04C64.7164 88.3333 63.8497 90.1067 62.4897 91.36C61.1564 92.5867 59.543 93.2 57.6497 93.2H57.6097C56.0897 93.2 54.6897 92.8267 53.4097 92.08C52.1297 91.3067 51.103 90.1733 50.3297 88.68C49.5564 87.1867 49.1697 85.3867 49.1697 83.28V79.92C49.1697 77.8133 49.5564 76.0133 50.3297 74.52C51.103 73 52.1297 71.8667 53.4097 71.12C54.6897 70.3467 56.0897 69.96 57.6097 69.96H57.6497C59.5697 69.96 61.1964 70.5333 62.5297 71.68C63.863 72.8267 64.7164 74.5333 65.0897 76.8V70.56H70.2897ZM59.6497 88.96C60.583 88.96 61.4497 88.72 62.2497 88.24C63.0764 87.7333 63.743 86.9867 64.2497 86C64.7564 85.0133 65.0097 83.84 65.0097 82.48V80.72C65.0097 79.36 64.7564 78.2 64.2497 77.24C63.743 76.2533 63.0764 75.52 62.2497 75.04C61.4497 74.5333 60.583 74.28 59.6497 74.28H59.6097C58.063 74.28 56.8097 74.8 55.8497 75.84C54.8897 76.88 54.4097 78.4133 54.4097 80.44V82.8C54.4097 84.8 54.8897 86.3333 55.8497 87.4C56.8097 88.44 58.063 88.96 59.6097 88.96H59.6497ZM96.8475 70.56L89.2875 92.6H81.9275L74.3275 70.56H80.0475L85.6075 89L91.1275 70.56H96.8475ZM110.196 93.24C108.302 93.24 106.556 92.84 104.956 92.04C103.382 91.2133 102.116 90.0267 101.156 88.48C100.222 86.9333 99.7556 85.08 99.7556 82.92V80.28C99.7556 78.12 100.222 76.2667 101.156 74.72C102.116 73.1467 103.382 71.96 104.956 71.16C106.556 70.3333 108.302 69.92 110.196 69.92H110.236C112.102 69.92 113.822 70.3333 115.396 71.16C116.996 71.96 118.262 73.1467 119.196 74.72C120.156 76.2667 120.636 78.12 120.636 80.28V82.92C120.636 85.08 120.156 86.9333 119.196 88.48C118.262 90.0267 116.996 91.2133 115.396 92.04C113.822 92.84 112.102 93.24 110.236 93.24H110.196ZM110.236 88.96C111.649 88.96 112.849 88.48 113.836 87.52C114.849 86.5333 115.356 85.1733 115.356 83.44V79.68C115.356 78 114.849 76.68 113.836 75.72C112.849 74.76 111.649 74.28 110.236 74.28H110.196C108.782 74.28 107.556 74.76 106.516 75.72C105.502 76.68 104.996 78 104.996 79.68V83.44C104.996 85.1733 105.502 86.5333 106.516 87.52C107.556 88.48 108.782 88.96 110.196 88.96H110.236ZM147.828 88.72C144.628 89.3067 139.988 89.6 133.908 89.6H124.668V85.52H133.828V80.2C131.561 79.7467 129.721 78.68 128.308 77C126.895 75.2933 126.188 73.32 126.188 71.08C126.188 69.4 126.615 67.8533 127.468 66.44C128.321 65 129.481 63.8667 130.948 63.04C132.441 62.1867 134.108 61.76 135.948 61.76C137.788 61.76 139.441 62.1867 140.908 63.04C142.401 63.8667 143.575 65 144.428 66.44C145.281 67.8533 145.708 69.4 145.708 71.08C145.708 73.24 145.028 75.16 143.668 76.84C142.335 78.4933 140.601 79.5867 138.468 80.12V85.48C142.628 85.3467 145.748 85.0933 147.828 84.72V88.72ZM149.228 60.2H153.788V73.84H158.828V78.08H153.788V96H149.228V60.2ZM135.948 65.84C134.348 65.84 133.081 66.3467 132.148 67.36C131.215 68.3467 130.748 69.5867 130.748 71.08C130.748 72.5733 131.215 73.8267 132.148 74.84C133.081 75.8267 134.348 76.32 135.948 76.32C137.548 76.32 138.815 75.8267 139.748 74.84C140.681 73.8267 141.148 72.5733 141.148 71.08C141.148 69.5867 140.681 68.3467 139.748 67.36C138.815 66.3467 137.548 65.84 135.948 65.84ZM200.153 83.36V95.6H177.273V83.36H200.153ZM182.633 81.12C180.82 81.12 179.193 80.84 177.753 80.28C176.313 79.6933 175.193 78.9067 174.393 77.92C173.62 76.9067 173.233 75.8 173.233 74.6C173.233 73.4 173.62 72.3067 174.393 71.32C175.193 70.3067 176.313 69.52 177.753 68.96C179.193 68.3733 180.82 68.08 182.633 68.08C184.447 68.08 186.073 68.3733 187.513 68.96C188.953 69.52 190.06 70.3067 190.833 71.32C191.633 72.3067 192.033 73.4 192.033 74.6C192.033 75.8 191.633 76.9067 190.833 77.92C190.06 78.9067 188.953 79.6933 187.513 80.28C186.073 80.84 184.447 81.12 182.633 81.12ZM195.673 60.2H200.233V68.92H205.073V73.08H200.233V81.76H195.673V60.2ZM171.673 63.04H180.353V59.64H184.913V63.04H193.513V66.96H171.673V63.04ZM195.593 91.76V87.16H181.833V91.76H195.593ZM182.633 71.84C181.14 71.84 179.967 72.0933 179.113 72.6C178.287 73.08 177.873 73.7467 177.873 74.6C177.873 75.4533 178.287 76.1333 179.113 76.64C179.967 77.12 181.14 77.36 182.633 77.36C184.127 77.36 185.287 77.12 186.113 76.64C186.967 76.1333 187.393 75.4533 187.393 74.6C187.393 73.7467 186.967 73.08 186.113 72.6C185.287 72.0933 184.127 71.84 182.633 71.84ZM215.47 89.12C217.63 86.0267 219.177 82.76 220.11 79.32C221.07 75.8533 221.59 72 221.67 67.76H217.95V63.76H226.07C226.07 67.6267 225.897 71.0267 225.55 73.96H228.75V60.8H233.07V94.32H228.75V78.12H224.87C224.39 80.4933 223.71 82.7333 222.83 84.84C221.95 86.9467 220.817 89.0533 219.43 91.16L215.47 89.12ZM235.03 60.2H239.43V96H235.03V60.2ZM206.63 86.8C208.71 84.08 210.204 81.16 211.11 78.04C212.044 74.92 212.59 71.4933 212.75 67.76H208.99V63.76H217.07C217.044 69.4667 216.537 74.2133 215.55 78C214.59 81.7867 212.91 85.4 210.51 88.84L206.63 86.8ZM11.24 148.6C9.48 148.6 7.89333 148.08 6.48 147.04C5.09333 146 3.98667 144.467 3.16 142.44C2.36 140.387 1.96 137.907 1.96 135C1.96 132.093 2.36 129.627 3.16 127.6C3.98667 125.547 5.09333 124 6.48 122.96C7.89333 121.92 9.48 121.4 11.24 121.4C12.8933 121.4 14.3867 121.853 15.72 122.76C17.0533 123.667 18.1333 124.987 18.96 126.72H26.2V119.2H30.76V155H26.2V143.48H18.84C18.04 145.16 16.9733 146.44 15.64 147.32C14.3067 148.173 12.84 148.6 11.24 148.6ZM11.24 125.48C9.85333 125.48 8.72 126.293 7.84 127.92C6.96 129.547 6.52 131.907 6.52 135C6.52 138.093 6.96 140.453 7.84 142.08C8.72 143.707 9.85333 144.52 11.24 144.52C12.6267 144.52 13.76 143.707 14.64 142.08C15.52 140.453 15.96 138.093 15.96 135C15.96 131.907 15.52 129.547 14.64 127.92C13.76 126.293 12.6267 125.48 11.24 125.48ZM20.52 135C20.52 136.467 20.3867 137.933 20.12 139.4H26.2V130.8H20.16C20.4 132.08 20.52 133.48 20.52 135ZM56.3169 155.72C53.6769 155.72 51.3835 155.427 49.4369 154.84C47.5169 154.28 46.0369 153.493 44.9969 152.48C43.9835 151.493 43.4769 150.347 43.4769 149.04C43.4769 147.733 43.9835 146.587 44.9969 145.6C46.0369 144.587 47.5169 143.8 49.4369 143.24C51.3835 142.653 53.6769 142.36 56.3169 142.36C58.9569 142.36 61.2369 142.653 63.1569 143.24C65.1035 143.8 66.5835 144.587 67.5969 145.6C68.6369 146.587 69.1569 147.733 69.1569 149.04C69.1569 150.347 68.6369 151.493 67.5969 152.48C66.5835 153.493 65.1035 154.28 63.1569 154.84C61.2369 155.427 58.9569 155.72 56.3169 155.72ZM56.5969 119.8H60.9969V128.6H64.0369V119.2H68.5169V142.36H64.0369V132.84H60.9969V140.84H56.5969V119.8ZM46.7569 140.68C45.2635 140.68 43.9302 140.387 42.7569 139.8C41.6102 139.187 40.7169 138.373 40.0769 137.36C39.4369 136.347 39.1169 135.24 39.1169 134.04C39.1169 132.84 39.4369 131.733 40.0769 130.72C40.7169 129.707 41.6102 128.907 42.7569 128.32C43.9302 127.707 45.2635 127.4 46.7569 127.4C48.2502 127.4 49.5702 127.707 50.7169 128.32C51.8902 128.907 52.7969 129.707 53.4369 130.72C54.0769 131.733 54.3969 132.84 54.3969 134.04C54.3969 135.24 54.0769 136.347 53.4369 137.36C52.7969 138.373 51.8902 139.187 50.7169 139.8C49.5702 140.387 48.2502 140.68 46.7569 140.68ZM38.2769 122.52H44.3169V119.2H48.8769V122.52H54.9169V126.44H38.2769V122.52ZM56.3169 151.88C58.9302 151.88 60.9302 151.64 62.3169 151.16C63.7302 150.653 64.4369 149.947 64.4369 149.04C64.4369 148.133 63.7302 147.44 62.3169 146.96C60.9302 146.453 58.9302 146.2 56.3169 146.2C53.7035 146.2 51.6902 146.453 50.2769 146.96C48.8902 147.44 48.1969 148.133 48.1969 149.04C48.1969 149.947 48.8902 150.653 50.2769 151.16C51.6902 151.64 53.7035 151.88 56.3169 151.88ZM46.7569 131.16C45.7702 131.16 44.9835 131.44 44.3969 132C43.8102 132.533 43.5169 133.213 43.5169 134.04C43.5169 134.867 43.8102 135.56 44.3969 136.12C44.9835 136.653 45.7702 136.92 46.7569 136.92C47.7435 136.92 48.5302 136.653 49.1169 136.12C49.7035 135.56 49.9969 134.867 49.9969 134.04C49.9969 133.213 49.7035 132.533 49.1169 132C48.5302 131.44 47.7435 131.16 46.7569 131.16ZM103.642 127.96V119.8H108.042V153.32H103.642V142.32H98.7622V138.24H103.642V132.04H99.9622V127.96H103.642ZM83.2422 145.96C86.9222 143.587 89.6955 140.76 91.5622 137.48C93.4289 134.173 94.5222 130.627 94.8422 126.84H85.6822V122.76H99.4822C99.5355 128.733 98.4155 133.92 96.1222 138.32C93.8555 142.693 90.6155 146.267 86.4022 149.04L83.2422 145.96ZM110.482 119.2H114.962V155H110.482V119.2ZM145.639 141.4C142.332 141.933 137.692 142.2 131.719 142.2H121.679V138.36H131.359V136.44C129.332 136.2 127.732 135.613 126.559 134.68C125.386 133.72 124.799 132.56 124.799 131.2C124.799 129.6 125.586 128.307 127.159 127.32C128.732 126.333 130.839 125.84 133.479 125.84C136.119 125.84 138.226 126.333 139.799 127.32C141.372 128.307 142.159 129.6 142.159 131.2C142.159 132.533 141.612 133.667 140.519 134.6C139.426 135.507 137.919 136.107 135.999 136.4V138.32C139.759 138.24 142.972 138.013 145.639 137.64V141.4ZM146.959 148.12H127.039V144.28H151.519V155.2H146.959V148.12ZM147.039 142.84V119.2H151.599V142.84H147.039ZM123.039 121.2H131.119V118.28H135.679V121.2H143.759V125.04H123.039V121.2ZM133.479 129.52C132.146 129.52 131.119 129.667 130.399 129.96C129.706 130.253 129.359 130.667 129.359 131.2C129.359 131.733 129.706 132.147 130.399 132.44C131.119 132.733 132.146 132.88 133.479 132.88C134.812 132.88 135.826 132.733 136.519 132.44C137.239 132.147 137.599 131.733 137.599 131.2C137.599 130.667 137.239 130.253 136.519 129.96C135.826 129.667 134.812 129.52 133.479 129.52ZM157.516 137.44V133.6H190.956V137.44H157.516ZM161.996 145.32H181.916V143.44H161.996V139.68H186.476V148.84H166.556V150.8H187.276V154.6H161.996V145.32ZM174.236 131.92C171.569 131.92 169.263 131.653 167.316 131.12C165.396 130.56 163.929 129.787 162.916 128.8C161.903 127.813 161.396 126.667 161.396 125.36C161.396 124.053 161.903 122.907 162.916 121.92C163.929 120.933 165.396 120.173 167.316 119.64C169.263 119.08 171.569 118.8 174.236 118.8C176.903 118.8 179.196 119.08 181.116 119.64C183.063 120.173 184.543 120.933 185.556 121.92C186.569 122.907 187.076 124.053 187.076 125.36C187.076 126.667 186.569 127.813 185.556 128.8C184.543 129.787 183.063 130.56 181.116 131.12C179.196 131.653 176.903 131.92 174.236 131.92ZM174.236 128.08C176.876 128.08 178.889 127.853 180.276 127.4C181.663 126.947 182.356 126.267 182.356 125.36C182.356 124.453 181.663 123.773 180.276 123.32C178.889 122.867 176.876 122.64 174.236 122.64C168.823 122.64 166.116 123.547 166.116 125.36C166.116 127.173 168.823 128.08 174.236 128.08ZM220.241 147.36C218.561 146.107 217.121 144.667 215.921 143.04C214.748 141.413 213.855 139.72 213.241 137.96C212.628 139.827 211.655 141.667 210.321 143.48C208.988 145.293 207.375 146.947 205.481 148.44L202.281 145.4C204.868 143.56 206.935 141.147 208.481 138.16C210.055 135.147 210.841 131.853 210.841 128.28V121.96H215.481V128.28C215.481 131.667 216.175 134.787 217.561 137.64C218.948 140.493 220.708 142.68 222.841 144.2L220.241 147.36ZM224.241 130.36V119.8H228.641V153.32H224.241V134.6H219.281V130.36H224.241ZM230.921 119.2H235.401V155H230.921V119.2ZM253.118 136.04C251.331 136.04 249.718 135.693 248.278 135C246.838 134.28 245.705 133.307 244.878 132.08C244.051 130.827 243.638 129.44 243.638 127.92C243.638 126.4 244.051 125.027 244.878 123.8C245.705 122.547 246.838 121.573 248.278 120.88C249.718 120.16 251.331 119.8 253.118 119.8C254.905 119.8 256.518 120.16 257.958 120.88C259.398 121.573 260.531 122.547 261.358 123.8C262.185 125.027 262.598 126.4 262.598 127.92C262.598 129.44 262.185 130.827 261.358 132.08C260.531 133.307 259.398 134.28 257.958 135C256.518 135.693 254.905 136.04 253.118 136.04ZM267.078 155V148.76H259.878V144.76H267.078V119.2H271.638V155H267.078ZM265.678 141.24C263.118 141.72 259.678 142 255.358 142.08V154.2H250.638V142.12H241.718V138.04H251.758C257.811 138.04 262.451 137.773 265.678 137.24V141.24ZM253.118 123.88C251.598 123.88 250.398 124.267 249.518 125.04C248.638 125.787 248.198 126.747 248.198 127.92C248.198 129.093 248.638 130.067 249.518 130.84C250.398 131.587 251.598 131.96 253.118 131.96C254.638 131.96 255.838 131.587 256.718 130.84C257.598 130.067 258.038 129.093 258.038 127.92C258.038 126.747 257.598 125.787 256.718 125.04C255.838 124.267 254.638 123.88 253.118 123.88ZM311.523 127V121.52H316.083V140.96H306.323V147.44H320.643V151.52H287.203V147.44H301.523V140.96H291.763V121.52H296.323V127H311.523ZM311.523 131H296.323V136.88H311.523V131ZM340.28 147.36C338.6 146.107 337.16 144.667 335.96 143.04C334.787 141.413 333.894 139.72 333.28 137.96C332.667 139.827 331.694 141.667 330.36 143.48C329.027 145.293 327.414 146.947 325.52 148.44L322.32 145.4C324.907 143.56 326.974 141.147 328.52 138.16C330.094 135.147 330.88 131.853 330.88 128.28V121.96H335.52V128.28C335.52 131.667 336.214 134.787 337.6 137.64C338.987 140.493 340.747 142.68 342.88 144.2L340.28 147.36ZM344.28 130.36V119.8H348.68V153.32H344.28V134.6H339.32V130.36H344.28ZM350.96 119.2H355.44V155H350.96V119.2ZM377.557 140.48C375.104 140.48 372.904 140.053 370.957 139.2C369.011 138.32 367.477 137.12 366.357 135.6C365.264 134.08 364.717 132.387 364.717 130.52C364.717 128.653 365.264 126.96 366.357 125.44C367.477 123.92 369.011 122.733 370.957 121.88C372.904 121 375.104 120.56 377.557 120.56C380.011 120.56 382.211 121 384.157 121.88C386.104 122.733 387.624 123.92 388.717 125.44C389.837 126.96 390.397 128.653 390.397 130.52C390.397 132.387 389.837 134.08 388.717 135.6C387.624 137.12 386.104 138.32 384.157 139.2C382.211 140.053 380.011 140.48 377.557 140.48ZM360.797 151.52V147.44H367.957V141.16H372.597V147.44H382.437V141.16H387.077V147.44H394.237V151.52H360.797ZM377.557 124.64C375.131 124.64 373.171 125.187 371.677 126.28C370.184 127.347 369.437 128.76 369.437 130.52C369.437 132.28 370.184 133.707 371.677 134.8C373.171 135.867 375.131 136.4 377.557 136.4C379.984 136.4 381.944 135.867 383.437 134.8C384.931 133.707 385.677 132.28 385.677 130.52C385.677 128.76 384.931 127.347 383.437 126.28C381.944 125.187 379.984 124.64 377.557 124.64Z" fill="#030045"/>
</svg>
