<svg width="28" height="7" viewBox="0 0 28 7" fill="none" xmlns="http://www.w3.org/2000/svg">
<path d="M14.1535 4.95834C14.9589 4.95834 15.6118 4.30542 15.6118 3.50001C15.6118 2.69459 14.9589 2.04167 14.1535 2.04167C13.3481 2.04167 12.6951 2.69459 12.6951 3.50001C12.6951 4.30542 13.3481 4.95834 14.1535 4.95834Z" stroke="#B0B0B0" stroke-width="4" stroke-linecap="round" stroke-linejoin="round"/>
<path d="M24.3618 4.95834C25.1672 4.95834 25.8201 4.30542 25.8201 3.50001C25.8201 2.69459 25.1672 2.04167 24.3618 2.04167C23.5564 2.04167 22.9035 2.69459 22.9035 3.50001C22.9035 4.30542 23.5564 4.95834 24.3618 4.95834Z" stroke="#B0B0B0" stroke-width="4" stroke-linecap="round" stroke-linejoin="round"/>
<path d="M3.94515 4.95834C4.75056 4.95834 5.40348 4.30542 5.40348 3.50001C5.40348 2.69459 4.75056 2.04167 3.94515 2.04167C3.13973 2.04167 2.48682 2.69459 2.48682 3.50001C2.48682 4.30542 3.13973 4.95834 3.94515 4.95834Z" stroke="#B0B0B0" stroke-width="4" stroke-linecap="round" stroke-linejoin="round"/>
</svg>
