<svg width="470" height="220" viewBox="0 0 470 220" fill="none" xmlns="http://www.w3.org/2000/svg">
<g filter="url(#filter0_d_514_13660)">
<rect x="13" y="11" width="440" height="190" rx="30" fill="white"/>
<rect x="13.5" y="11.5" width="439" height="189" rx="29.5" stroke="#D9D9D9"/>
<path d="M95.5805 62.9C95.7005 63.5267 96.0671 64.1333 96.6805 64.72C97.2938 65.2933 98.0805 65.8 99.0405 66.24C100 66.68 101.04 67 102.16 67.2L101.24 68.52C99.8538 68.2533 98.5605 67.78 97.3605 67.1C96.1605 66.42 95.2671 65.64 94.6805 64.76C94.0938 65.64 93.2005 66.42 92.0005 67.1C90.8005 67.78 89.5071 68.2533 88.1205 68.52L87.2005 67.2C88.3071 67 89.3405 66.68 90.3005 66.24C91.2605 65.8 92.0471 65.2933 92.6605 64.72C93.2871 64.1333 93.6605 63.5267 93.7805 62.9H88.3605V61.48H93.8405V59.42H95.5205V61.48H101V62.9H95.5805ZM93.8405 71.56H86.3605V70.12H103V71.56H95.5205V77.46H93.8405V71.56ZM117.359 59.64H119.039V66.56H121.739V68.08H119.039V77.46H117.359V59.64ZM105.079 73.28C106.506 72.56 107.746 71.64 108.799 70.52C109.852 69.4 110.672 68.18 111.259 66.86C111.859 65.5267 112.212 64.18 112.319 62.82H105.999V61.38H114.079C114.052 63.3667 113.692 65.2133 112.999 66.92C112.306 68.6133 111.366 70.1 110.179 71.38C109.006 72.6467 107.672 73.6733 106.179 74.46L105.079 73.28ZM128.817 74.48C127.897 74.48 127.077 74.2733 126.357 73.86C125.651 73.4467 125.104 72.8933 124.717 72.2C124.331 71.5067 124.137 70.7533 124.137 69.94C124.137 69.1267 124.331 68.3733 124.717 67.68C125.104 66.9867 125.651 66.4333 126.357 66.02C127.077 65.6067 127.897 65.4 128.817 65.4C129.737 65.4 130.551 65.6067 131.257 66.02C131.977 66.4333 132.531 66.9867 132.917 67.68C133.304 68.3733 133.497 69.1267 133.497 69.94C133.497 70.7533 133.304 71.5067 132.917 72.2C132.531 72.8933 131.977 73.4467 131.257 73.86C130.551 74.2733 129.737 74.48 128.817 74.48ZM135.757 59.64H137.437V67.06H140.137V68.58H137.437V77.46H135.757V59.64ZM128.817 66.8C127.897 66.8 127.164 67.1 126.617 67.7C126.084 68.2867 125.817 69.0333 125.817 69.94C125.817 70.8467 126.084 71.6 126.617 72.2C127.164 72.7867 127.897 73.08 128.817 73.08C129.737 73.08 130.464 72.7867 130.997 72.2C131.544 71.6 131.817 70.8467 131.817 69.94C131.817 69.0333 131.544 68.2867 130.997 67.7C130.464 67.1 129.737 66.8 128.817 66.8ZM123.377 62.8H127.977V60.26H129.657V62.8H134.257V64.24H123.377V62.8ZM149.616 74.08H158.196V75.52H141.556V74.08H147.896V67.46H149.616V74.08ZM153.296 71.52C153.642 70.2 153.902 68.7467 154.076 67.16C154.262 65.56 154.369 64.0267 154.396 62.56H143.556V61.12H156.116C156.116 62.9333 156.016 64.7667 155.816 66.62C155.616 68.4733 155.322 70.1067 154.936 71.52H153.296ZM178.12 59.64H179.8V69.58H178.12V59.64ZM171.66 71.94L171.8 75.82H176.22L176.34 71.94H171.66ZM167.6 75.82H170.14L170.02 71.94H167.82V70.54H180.1V71.94H178L177.86 75.82H180.34V77.24H167.6V75.82ZM175 68.7C174.04 68.3267 173.133 67.7867 172.28 67.08C171.427 66.36 170.76 65.5867 170.28 64.76C169.907 65.64 169.287 66.48 168.42 67.28C167.553 68.0667 166.553 68.7267 165.42 69.26L164.36 68.04C165.84 67.3867 167.04 66.5067 167.96 65.4C168.893 64.28 169.36 63.0533 169.36 61.72V60.08H171.12V61.7C171.12 62.9933 171.567 64.14 172.46 65.14C173.367 66.1267 174.507 66.8867 175.88 67.42L175 68.7ZM183.118 68.72H199.758V70.14H183.118V68.72ZM185.438 71.74H187.138V75.72H198.038V77.16H185.438V71.74ZM185.138 63.32C185.138 62.5733 185.392 61.9133 185.898 61.34C186.405 60.7533 187.132 60.3 188.078 59.98C189.038 59.6467 190.158 59.48 191.438 59.48C192.718 59.48 193.832 59.6467 194.778 59.98C195.738 60.3 196.472 60.7533 196.978 61.34C197.485 61.9133 197.738 62.5733 197.738 63.32C197.738 64.0667 197.485 64.7333 196.978 65.32C196.472 65.8933 195.738 66.3467 194.778 66.68C193.832 67 192.718 67.16 191.438 67.16C190.158 67.16 189.038 67 188.078 66.68C187.132 66.3467 186.405 65.8933 185.898 65.32C185.392 64.7333 185.138 64.0667 185.138 63.32ZM196.058 63.32C196.058 62.56 195.632 61.9667 194.778 61.54C193.938 61.1133 192.825 60.9 191.438 60.9C190.052 60.9 188.932 61.1133 188.078 61.54C187.238 61.9667 186.818 62.56 186.818 63.32C186.818 64.08 187.238 64.6733 188.078 65.1C188.932 65.5267 190.052 65.74 191.438 65.74C192.825 65.74 193.938 65.5267 194.778 65.1C195.632 64.6733 196.058 64.08 196.058 63.32ZM215.082 77.82C213.869 77.82 212.809 77.66 211.902 77.34C210.996 77.02 210.296 76.5867 209.802 76.04C209.322 75.4933 209.082 74.8733 209.082 74.18C209.082 73.4867 209.322 72.8667 209.802 72.32C210.296 71.7733 210.996 71.34 211.902 71.02C212.809 70.7 213.869 70.54 215.082 70.54C216.296 70.54 217.356 70.7 218.262 71.02C219.169 71.34 219.862 71.7733 220.342 72.32C220.836 72.8667 221.082 73.4867 221.082 74.18C221.082 74.8733 220.836 75.4933 220.342 76.04C219.862 76.5867 219.169 77.02 218.262 77.34C217.356 77.66 216.296 77.82 215.082 77.82ZM216.482 69.1C215.509 68.7267 214.596 68.1933 213.742 67.5C212.902 66.8067 212.256 66.0533 211.802 65.24C211.416 66.0667 210.789 66.88 209.922 67.68C209.069 68.48 208.089 69.14 206.982 69.66L205.922 68.44C207.376 67.7867 208.562 66.9133 209.482 65.82C210.416 64.7133 210.882 63.52 210.882 62.24V61.9H207.042V60.48H216.482V61.9H212.642V62.22C212.642 63.46 213.096 64.58 214.002 65.58C214.909 66.5667 216.029 67.3133 217.362 67.82L216.482 69.1ZM215.082 71.98C213.722 71.98 212.662 72.18 211.902 72.58C211.142 72.9667 210.762 73.5 210.762 74.18C210.762 74.86 211.142 75.4 211.902 75.8C212.662 76.1867 213.722 76.38 215.082 76.38C216.442 76.38 217.502 76.1867 218.262 75.8C219.022 75.4 219.402 74.86 219.402 74.18C219.402 73.5 219.022 72.9667 218.262 72.58C217.502 72.18 216.442 71.98 215.082 71.98ZM219.082 59.64H220.762V63.66H223.262V65.14H220.762V70.24H219.082V59.64ZM233.861 74.08H241.321V75.52H224.681V74.08H232.141V69.9H233.861V74.08ZM233.001 65.12C232.414 66.24 231.534 67.2467 230.361 68.14C229.187 69.02 227.887 69.6933 226.461 70.16L225.501 68.84C226.687 68.48 227.787 67.9533 228.801 67.26C229.814 66.5667 230.621 65.7733 231.221 64.88C231.834 63.9867 232.141 63.0667 232.141 62.12V60.64H233.861V62.12C233.861 63.0667 234.161 63.9867 234.761 64.88C235.374 65.7733 236.187 66.5667 237.201 67.26C238.214 67.9533 239.314 68.48 240.501 68.84L239.541 70.16C238.114 69.6933 236.814 69.02 235.641 68.14C234.467 67.2467 233.587 66.24 233.001 65.12ZM245.399 73.22H255.719V72H245.399V70.64H257.399V74.54H247.079V75.88H257.799V77.26H245.399V73.22ZM245.399 62.64H255.619V61.4H245.399V60.04H257.299V63.96H247.079V65.22H257.699V66.6H245.399V62.64ZM243.079 67.9H259.719V69.26H243.079V67.9ZM269.883 70.66H281.283V77.26H269.883V70.66ZM279.603 75.84V72.08H271.563V75.84H279.603ZM266.503 68.5C268.65 67.9133 270.397 67.04 271.743 65.88C273.09 64.7067 273.897 63.3867 274.163 61.92H267.723V60.48H276.083C276.017 62.0933 275.563 63.5333 274.723 64.8C273.897 66.0667 272.843 67.1133 271.563 67.94C270.283 68.7533 268.917 69.3667 267.463 69.78L266.503 68.5ZM279.643 65.72H276.003V64.28H279.643V59.64H281.323V69.78H279.643V65.72ZM298.382 72.5H287.862V71.06H300.062V77.56H298.382V72.5ZM298.442 65.4H296.302V70.18H294.662V59.94H296.302V63.92H298.442V59.64H300.102V70.18H298.442V65.4ZM293.022 69.1C292.222 68.66 291.502 68.1067 290.862 67.44C290.222 66.76 289.715 66.04 289.342 65.28C289.062 66.0933 288.575 66.8933 287.882 67.68C287.202 68.4533 286.408 69.1133 285.502 69.66L284.422 68.54C285.648 67.8333 286.628 66.8867 287.362 65.7C288.095 64.5133 288.462 63.2267 288.462 61.84V60.22H290.182V61.84C290.182 63.24 290.528 64.4667 291.222 65.52C291.928 66.56 292.835 67.3533 293.942 67.9L293.022 69.1ZM316.94 68.42H314.72V76.62H313.08V59.94H314.72V66.86H316.94V59.64H318.6V77.46H316.94V68.42ZM307.7 73.98C306.953 73.98 306.287 73.7933 305.7 73.42C305.113 73.0333 304.653 72.5067 304.32 71.84C304 71.1733 303.84 70.4267 303.84 69.6C303.84 68.7733 304 68.0267 304.32 67.36C304.653 66.6933 305.113 66.1733 305.7 65.8C306.287 65.4133 306.953 65.22 307.7 65.22C308.447 65.22 309.113 65.4133 309.7 65.8C310.287 66.1733 310.74 66.6933 311.06 67.36C311.393 68.0267 311.56 68.7733 311.56 69.6C311.56 70.4267 311.393 71.1733 311.06 71.84C310.74 72.5067 310.287 73.0333 309.7 73.42C309.113 73.7933 308.447 73.98 307.7 73.98ZM307.7 66.62C306.967 66.62 306.407 66.8933 306.02 67.44C305.633 67.9733 305.44 68.6933 305.44 69.6C305.44 70.5067 305.633 71.2333 306.02 71.78C306.407 72.3133 306.967 72.58 307.7 72.58C308.433 72.58 308.993 72.3133 309.38 71.78C309.767 71.2333 309.96 70.5067 309.96 69.6C309.96 68.6933 309.767 67.9733 309.38 67.44C308.993 66.8933 308.433 66.62 307.7 66.62ZM303.3 62.78H306.86V60.42H308.5V62.78H312.06V64.22H303.3V62.78ZM340.484 70.28H335.384V74.08H342.844V75.52H326.204V74.08H333.664V70.28H328.564V60.84H330.244V63.98H338.804V60.84H340.484V70.28ZM338.804 65.4H330.244V68.84H338.804V65.4ZM352.983 73.46C352.116 72.7933 351.356 72.02 350.703 71.14C350.063 70.26 349.563 69.3267 349.203 68.34C348.896 69.3533 348.389 70.3667 347.683 71.38C346.976 72.3933 346.129 73.2733 345.143 74.02L343.963 72.92C344.776 72.36 345.509 71.6333 346.163 70.74C346.829 69.8333 347.349 68.8267 347.723 67.72C348.109 66.6133 348.303 65.4867 348.303 64.34V61.06H350.023V64.34C350.023 65.9933 350.403 67.5333 351.163 68.96C351.923 70.3733 352.856 71.48 353.963 72.28L352.983 73.46ZM355.143 76.62V66.96H352.223V65.48H355.143V59.94H356.783V76.62H355.143ZM360.163 59.64V77.46H358.503V59.64H360.163ZM371.341 70C370.141 70 369.061 69.7867 368.101 69.36C367.141 68.9333 366.388 68.3533 365.841 67.62C365.308 66.8867 365.041 66.0733 365.041 65.18C365.041 64.2867 365.308 63.4733 365.841 62.74C366.388 62.0067 367.141 61.4267 368.101 61C369.061 60.5733 370.141 60.36 371.341 60.36C372.541 60.36 373.621 60.5733 374.581 61C375.541 61.4267 376.288 62.0067 376.821 62.74C377.368 63.4733 377.641 64.2867 377.641 65.18C377.641 66.0733 377.368 66.8867 376.821 67.62C376.288 68.3533 375.541 68.9333 374.581 69.36C373.621 69.7867 372.541 70 371.341 70ZM371.341 61.8C370.448 61.8 369.648 61.9467 368.941 62.24C368.248 62.5333 367.701 62.94 367.301 63.46C366.914 63.9667 366.721 64.54 366.721 65.18C366.721 65.82 366.914 66.4 367.301 66.92C367.701 67.4267 368.248 67.8267 368.941 68.12C369.648 68.4133 370.448 68.56 371.341 68.56C372.234 68.56 373.028 68.4133 373.721 68.12C374.428 67.8267 374.974 67.4267 375.361 66.92C375.761 66.4 375.961 65.82 375.961 65.18C375.961 64.54 375.761 63.9667 375.361 63.46C374.974 62.94 374.428 62.5333 373.721 62.24C373.028 61.9467 372.234 61.8 371.341 61.8ZM366.921 70.58H368.561V74.08H374.081V70.58H375.721V74.08H379.641V75.52H363.001V74.08H366.921V70.58Z" fill="black"/>
<rect x="43.5" y="113.5" width="379" height="49" rx="14.5" fill="#EFEFEF"/>
<rect x="43.5" y="113.5" width="379" height="49" rx="14.5" stroke="#D9D9D9"/>
<path d="M399.25 149.25L393.812 143.812M396.75 136.75C396.75 142.273 392.273 146.75 386.75 146.75C381.227 146.75 376.75 142.273 376.75 136.75C376.75 131.227 381.227 126.75 386.75 126.75C392.273 126.75 396.75 131.227 396.75 136.75Z" stroke="#1E1E1E" stroke-width="3" stroke-linecap="round" stroke-linejoin="round"/>
</g>
<defs>
<filter id="filter0_d_514_13660" x="0" y="0" width="470" height="220" filterUnits="userSpaceOnUse" color-interpolation-filters="sRGB">
<feFlood flood-opacity="0" result="BackgroundImageFix"/>
<feColorMatrix in="SourceAlpha" type="matrix" values="0 0 0 0 0 0 0 0 0 0 0 0 0 0 0 0 0 0 127 0" result="hardAlpha"/>
<feOffset dx="2" dy="4"/>
<feGaussianBlur stdDeviation="7.5"/>
<feComposite in2="hardAlpha" operator="out"/>
<feColorMatrix type="matrix" values="0 0 0 0 0 0 0 0 0 0 0 0 0 0 0 0 0 0 0.1 0"/>
<feBlend mode="normal" in2="BackgroundImageFix" result="effect1_dropShadow_514_13660"/>
<feBlend mode="normal" in="SourceGraphic" in2="effect1_dropShadow_514_13660" result="shape"/>
</filter>
</defs>
</svg>
