<svg width="460" height="191" viewBox="0 0 460 191" fill="none" xmlns="http://www.w3.org/2000/svg">
<path d="M12.24 42.6C10.48 42.6 8.89333 42.08 7.48 41.04C6.09333 40 4.98667 38.4667 4.16 36.44C3.36 34.3867 2.96 31.9067 2.96 29C2.96 26.0933 3.36 23.6267 4.16 21.6C4.98667 19.5467 6.09333 18 7.48 16.96C8.89333 15.92 10.48 15.4 12.24 15.4C13.8133 15.4 15.24 15.8133 16.52 16.64C17.8267 17.4667 18.9067 18.7067 19.76 20.36C20.6133 22.0133 21.16 24.0133 21.4 26.36H27.2V13.2H31.76V49H27.2V30.52H21.48C21.3467 33.1067 20.8533 35.3067 20 37.12C19.1733 38.9333 18.08 40.3067 16.72 41.24C15.3867 42.1467 13.8933 42.6 12.24 42.6ZM12.24 19.48C10.8533 19.48 9.72 20.2933 8.84 21.92C7.96 23.5467 7.52 25.9067 7.52 29C7.52 32.0933 7.96 34.4533 8.84 36.08C9.72 37.7067 10.8533 38.52 12.24 38.52C13.6267 38.52 14.76 37.7067 15.64 36.08C16.52 34.4533 16.96 32.0933 16.96 29C16.96 25.9067 16.52 23.5467 15.64 21.92C14.76 20.2933 13.6267 19.48 12.24 19.48ZM64.8769 21.6V13.2H69.3569V39.32H64.8769V25.6H59.5169V21.6H64.8769ZM46.1569 36.48H50.7969V44.4H70.1569V48.4H46.1569V36.48ZM62.8769 32.48C61.1169 32.8533 59.0102 33.04 56.5569 33.04H51.4369V14.8H61.5569V18.72H55.9169V29.04H56.5169C59.1035 29.04 61.2235 28.88 62.8769 28.56V32.48ZM50.3969 32.64C48.9302 32.9067 47.3435 33.04 45.6369 33.04H40.6369V14.8H50.0769V18.72H45.1169V29.04H45.7169C47.3702 29.04 48.9302 28.9333 50.3969 28.72V32.64ZM95.4822 42.6C93.7222 42.6 92.1355 42.08 90.7222 41.04C89.3355 40 88.2289 38.4667 87.4022 36.44C86.6022 34.3867 86.2022 31.9067 86.2022 29C86.2022 26.0933 86.6022 23.6267 87.4022 21.6C88.2289 19.5467 89.3355 18 90.7222 16.96C92.1355 15.92 93.7222 15.4 95.4822 15.4C97.1355 15.4 98.6289 15.8533 99.9622 16.76C101.296 17.6667 102.376 18.9867 103.202 20.72H110.442V13.2H115.002V49H110.442V37.48H103.082C102.282 39.16 101.216 40.44 99.8822 41.32C98.5489 42.1733 97.0822 42.6 95.4822 42.6ZM95.4822 19.48C94.0955 19.48 92.9622 20.2933 92.0822 21.92C91.2022 23.5467 90.7622 25.9067 90.7622 29C90.7622 32.0933 91.2022 34.4533 92.0822 36.08C92.9622 37.7067 94.0955 38.52 95.4822 38.52C96.8689 38.52 98.0022 37.7067 98.8822 36.08C99.7622 34.4533 100.202 32.0933 100.202 29C100.202 25.9067 99.7622 23.5467 98.8822 21.92C98.0022 20.2933 96.8689 19.48 95.4822 19.48ZM104.762 29C104.762 30.4667 104.629 31.9333 104.362 33.4H110.442V24.8H104.402C104.642 26.08 104.762 27.48 104.762 29ZM140.559 49.72C137.919 49.72 135.626 49.4267 133.679 48.84C131.759 48.28 130.279 47.4933 129.239 46.48C128.226 45.4933 127.719 44.3467 127.719 43.04C127.719 41.7333 128.226 40.5867 129.239 39.6C130.279 38.5867 131.759 37.8 133.679 37.24C135.626 36.6533 137.919 36.36 140.559 36.36C143.199 36.36 145.479 36.6533 147.399 37.24C149.346 37.8 150.826 38.5867 151.839 39.6C152.879 40.5867 153.399 41.7333 153.399 43.04C153.399 44.3467 152.879 45.4933 151.839 46.48C150.826 47.4933 149.346 48.28 147.399 48.84C145.479 49.4267 143.199 49.72 140.559 49.72ZM140.839 13.8H145.239V22.6H148.279V13.2H152.759V36.36H148.279V26.84H145.239V34.84H140.839V13.8ZM130.999 34.68C129.506 34.68 128.172 34.3867 126.999 33.8C125.852 33.1867 124.959 32.3733 124.319 31.36C123.679 30.3467 123.359 29.24 123.359 28.04C123.359 26.84 123.679 25.7333 124.319 24.72C124.959 23.7067 125.852 22.9067 126.999 22.32C128.172 21.7067 129.506 21.4 130.999 21.4C132.492 21.4 133.812 21.7067 134.959 22.32C136.132 22.9067 137.039 23.7067 137.679 24.72C138.319 25.7333 138.639 26.84 138.639 28.04C138.639 29.24 138.319 30.3467 137.679 31.36C137.039 32.3733 136.132 33.1867 134.959 33.8C133.812 34.3867 132.492 34.68 130.999 34.68ZM122.519 16.52H128.559V13.2H133.119V16.52H139.159V20.44H122.519V16.52ZM140.559 45.88C143.172 45.88 145.172 45.64 146.559 45.16C147.972 44.6533 148.679 43.9467 148.679 43.04C148.679 42.1333 147.972 41.44 146.559 40.96C145.172 40.4533 143.172 40.2 140.559 40.2C137.946 40.2 135.932 40.4533 134.519 40.96C133.132 41.44 132.439 42.1333 132.439 43.04C132.439 43.9467 133.132 44.6533 134.519 45.16C135.932 45.64 137.946 45.88 140.559 45.88ZM130.999 25.16C130.012 25.16 129.226 25.44 128.639 26C128.052 26.5333 127.759 27.2133 127.759 28.04C127.759 28.8667 128.052 29.56 128.639 30.12C129.226 30.6533 130.012 30.92 130.999 30.92C131.986 30.92 132.772 30.6533 133.359 30.12C133.946 29.56 134.239 28.8667 134.239 28.04C134.239 27.2133 133.946 26.5333 133.359 26C132.772 25.44 131.986 25.16 130.999 25.16ZM158.516 31.44V27.6H191.956V31.44H158.516ZM162.996 39.32H182.916V37.44H162.996V33.68H187.476V42.84H167.556V44.8H188.276V48.6H162.996V39.32ZM175.236 25.92C172.569 25.92 170.263 25.6533 168.316 25.12C166.396 24.56 164.929 23.7867 163.916 22.8C162.903 21.8133 162.396 20.6667 162.396 19.36C162.396 18.0533 162.903 16.9067 163.916 15.92C164.929 14.9333 166.396 14.1733 168.316 13.64C170.263 13.08 172.569 12.8 175.236 12.8C177.903 12.8 180.196 13.08 182.116 13.64C184.063 14.1733 185.543 14.9333 186.556 15.92C187.569 16.9067 188.076 18.0533 188.076 19.36C188.076 20.6667 187.569 21.8133 186.556 22.8C185.543 23.7867 184.063 24.56 182.116 25.12C180.196 25.6533 177.903 25.92 175.236 25.92ZM175.236 22.08C177.876 22.08 179.889 21.8533 181.276 21.4C182.663 20.9467 183.356 20.2667 183.356 19.36C183.356 18.4533 182.663 17.7733 181.276 17.32C179.889 16.8667 177.876 16.64 175.236 16.64C169.823 16.64 167.116 17.5467 167.116 19.36C167.116 21.1733 169.823 22.08 175.236 22.08ZM230.961 25.8V13.2H235.441V49H230.961V29.96H225.641V25.8H230.961ZM228.961 40.32C227.121 40.7733 225.015 41 222.641 41H217.721V16.6H227.641V20.6H222.201V36.92H222.601C225.241 36.92 227.361 36.72 228.961 36.32V40.32ZM216.681 40.52C215.108 40.84 213.521 41 211.921 41H207.121V16.6H216.361V20.6H211.601V36.92H212.001C213.655 36.92 215.215 36.7867 216.681 36.52V40.52ZM266.078 13.2H270.638V25.32H275.878V29.56H270.638V49H266.078V13.2ZM248.638 16V36.52H249.758C255.571 36.52 260.478 36.1867 264.478 35.52V39.56C260.825 40.28 255.918 40.64 249.758 40.64H244.078V16H248.638ZM278.555 45.52V41.44H290.675V28.92H295.475V41.44H311.995V45.52H278.555ZM301.155 37.16C301.848 34.36 302.368 31.4933 302.715 28.56C303.088 25.6267 303.302 22.8267 303.355 20.16H282.395V16.08H307.995C307.995 24.7733 307.235 31.8 305.715 37.16H301.155ZM350.92 13.2H355.48V33.16H350.92V13.2ZM339.84 38.84L340.08 44.56H347.24L347.44 38.84H339.84ZM330.6 44.56H335.48L335.28 38.84H331.04V34.92H356.08V38.84H352.04L351.8 44.56H356.56V48.56H330.6V44.56ZM345.12 31.8C343.227 31 341.494 29.96 339.92 28.68C338.347 27.4 337.12 25.9867 336.24 24.44C335.547 26.0133 334.36 27.56 332.68 29.08C331.027 30.5733 329.094 31.8533 326.88 32.92L324 29.64C327.067 28.3067 329.454 26.5733 331.16 24.44C332.894 22.28 333.76 19.8267 333.76 17.08V14H338.48V17.08C338.48 19.56 339.307 21.7733 340.96 23.72C342.64 25.64 344.84 27.1467 347.56 28.24L345.12 31.8ZM386.117 13.2H390.677V25.32H395.917V29.56H390.677V49H386.117V13.2ZM368.677 16V36.52H369.797C375.611 36.52 380.517 36.1867 384.517 35.52V39.56C380.864 40.28 375.957 40.64 369.797 40.64H364.117V16H368.677ZM415.354 34.48C412.901 34.48 410.701 34.0533 408.754 33.2C406.807 32.32 405.274 31.12 404.154 29.6C403.061 28.08 402.514 26.3867 402.514 24.52C402.514 22.6533 403.061 20.96 404.154 19.44C405.274 17.92 406.807 16.7333 408.754 15.88C410.701 15 412.901 14.56 415.354 14.56C417.807 14.56 420.007 15 421.954 15.88C423.901 16.7333 425.421 17.92 426.514 19.44C427.634 20.96 428.194 22.6533 428.194 24.52C428.194 26.3867 427.634 28.08 426.514 29.6C425.421 31.12 423.901 32.32 421.954 33.2C420.007 34.0533 417.807 34.48 415.354 34.48ZM398.594 45.52V41.44H405.754V35.16H410.394V41.44H420.234V35.16H424.874V41.44H432.034V45.52H398.594ZM415.354 18.64C412.927 18.64 410.967 19.1867 409.474 20.28C407.981 21.3467 407.234 22.76 407.234 24.52C407.234 26.28 407.981 27.7067 409.474 28.8C410.967 29.8667 412.927 30.4 415.354 30.4C417.781 30.4 419.741 29.8667 421.234 28.8C422.727 27.7067 423.474 26.28 423.474 24.52C423.474 22.76 422.727 21.3467 421.234 20.28C419.741 19.1867 417.781 18.64 415.354 18.64ZM442.951 36.08C442.871 35.6267 442.831 35.2 442.831 34.8C442.831 33.6 443.178 32.5333 443.871 31.6C444.591 30.6667 445.671 29.7733 447.111 28.92C448.551 28.0933 449.631 27.32 450.351 26.6C451.098 25.8533 451.471 25 451.471 24.04C451.471 22.8933 450.978 21.9467 449.991 21.2C449.031 20.4267 447.844 20.04 446.431 20.04C445.018 20.04 443.818 20.4667 442.831 21.32C441.844 22.1733 441.351 23.2133 441.351 24.44H436.271C436.271 22.7333 436.724 21.2267 437.631 19.92C438.538 18.5867 439.764 17.5467 441.311 16.8C442.884 16.0533 444.604 15.68 446.471 15.68C448.338 15.68 450.044 16.0267 451.591 16.72C453.164 17.4133 454.404 18.3867 455.311 19.64C456.218 20.8667 456.671 22.2667 456.671 23.84C456.671 25.2267 456.404 26.4 455.871 27.36C455.338 28.32 454.604 29.1733 453.671 29.92C452.738 30.64 451.404 31.52 449.671 32.56C449.031 32.96 448.551 33.36 448.231 33.76C447.938 34.1333 447.791 34.56 447.791 35.04C447.791 35.3333 447.858 35.68 447.991 36.08H442.951ZM446.391 46.04C445.431 46.04 444.618 45.72 443.951 45.08C443.311 44.4133 442.991 43.6 442.991 42.64C442.991 41.7067 443.311 40.92 443.951 40.28C444.618 39.6133 445.431 39.28 446.391 39.28C447.324 39.28 448.111 39.6133 448.751 40.28C449.418 40.92 449.751 41.7067 449.751 42.64C449.751 43.6 449.418 44.4133 448.751 45.08C448.111 45.72 447.324 46.04 446.391 46.04Z" fill="black"/>
<path d="M18.304 100.76H12.844C12.3587 101.991 11.6827 102.927 10.816 103.568C9.96667 104.209 9.00467 104.53 7.93 104.53C6.838 104.53 5.85867 104.201 4.992 103.542C4.12533 102.883 3.44067 101.904 2.938 100.604C2.43533 99.2867 2.184 97.7093 2.184 95.872C2.184 94.0347 2.43533 92.466 2.938 91.166C3.44067 89.8487 4.12533 88.8607 4.992 88.202C5.85867 87.5433 6.838 87.214 7.93 87.214C8.98733 87.214 9.94067 87.526 10.79 88.15C11.6393 88.774 12.3067 89.6753 12.792 90.854H18.304V85.732H20.488V108.898H18.304V100.76ZM7.93 89.086C6.85533 89.086 5.98 89.6667 5.304 90.828C4.64533 91.9893 4.316 93.6707 4.316 95.872C4.316 98.0733 4.64533 99.7547 5.304 100.916C5.98 102.077 6.85533 102.658 7.93 102.658C9.00467 102.658 9.87133 102.077 10.53 100.916C11.206 99.7547 11.544 98.0733 11.544 95.872C11.544 93.6707 11.206 91.9893 10.53 90.828C9.87133 89.6667 9.00467 89.086 7.93 89.086ZM13.676 95.872C13.676 96.964 13.5807 97.9693 13.39 98.888H18.304V92.726H13.364C13.572 93.662 13.676 94.7107 13.676 95.872ZM37.256 109.366C35.5746 109.366 34.11 109.184 32.862 108.82C31.6313 108.456 30.6866 107.953 30.028 107.312C29.3866 106.688 29.066 105.969 29.066 105.154C29.066 104.339 29.3866 103.62 30.028 102.996C30.6866 102.355 31.6313 101.852 32.862 101.488C34.11 101.124 35.5746 100.942 37.256 100.942C38.9373 100.942 40.3933 101.124 41.624 101.488C42.872 101.852 43.8166 102.355 44.458 102.996C45.1166 103.62 45.446 104.339 45.446 105.154C45.446 105.969 45.1166 106.688 44.458 107.312C43.8166 107.953 42.872 108.456 41.624 108.82C40.3933 109.184 38.9373 109.366 37.256 109.366ZM42.872 94.13H39.986V99.694H37.854V86.122H39.986V92.206H42.872V85.732H45.03V100.734H42.872V94.13ZM31.146 99.59C30.2273 99.59 29.3953 99.408 28.65 99.044C27.9046 98.6627 27.3153 98.1427 26.882 97.484C26.466 96.8253 26.258 96.106 26.258 95.326C26.258 94.546 26.466 93.8267 26.882 93.168C27.3153 92.5093 27.9046 91.998 28.65 91.634C29.3953 91.2527 30.2273 91.062 31.146 91.062C32.0646 91.062 32.8966 91.2527 33.642 91.634C34.3873 91.998 34.968 92.5093 35.384 93.168C35.8173 93.8267 36.034 94.546 36.034 95.326C36.034 96.106 35.8173 96.8253 35.384 97.484C34.968 98.1427 34.3873 98.6627 33.642 99.044C32.8966 99.408 32.0646 99.59 31.146 99.59ZM37.256 102.762C35.3493 102.762 33.8673 102.979 32.81 103.412C31.77 103.828 31.25 104.409 31.25 105.154C31.25 105.899 31.77 106.489 32.81 106.922C33.8673 107.338 35.3493 107.546 37.256 107.546C39.1626 107.546 40.636 107.338 41.676 106.922C42.7333 106.489 43.262 105.899 43.262 105.154C43.262 104.409 42.7333 103.828 41.676 103.412C40.636 102.979 39.1626 102.762 37.256 102.762ZM25.634 88.332H30.002V85.888H32.186V88.332H36.45V90.152H25.634V88.332ZM31.146 92.83C30.2966 92.83 29.612 93.064 29.092 93.532C28.5893 94 28.338 94.598 28.338 95.326C28.338 96.054 28.5893 96.652 29.092 97.12C29.612 97.588 30.2966 97.822 31.146 97.822C31.9953 97.822 32.6713 97.588 33.174 97.12C33.694 96.652 33.954 96.054 33.954 95.326C33.954 94.598 33.694 94 33.174 93.532C32.6713 93.064 31.9953 92.83 31.146 92.83ZM59.3873 102.554H71.7633V100.214H59.3873V98.394H73.9473V104.322H61.5713V106.792H74.4673V108.638H59.3873V102.554ZM73.9993 85.732V89.58H77.2493V91.452H73.9993V97.25H71.8153V85.732H73.9993ZM56.7873 86.434H58.9713V94.052H60.8952C64.8299 94.052 68.0366 93.844 70.5153 93.428V95.248C68.2446 95.6987 65.0379 95.924 60.8952 95.924H56.7873V86.434ZM90.2732 98.81C89.9959 99.9367 89.5452 101.02 88.9212 102.06C88.3146 103.083 87.6472 103.923 86.9192 104.582C86.1912 103.923 85.5152 103.083 84.8912 102.06C84.2846 101.02 83.8426 99.9367 83.5652 98.81C83.3226 99.7633 82.8892 100.751 82.2652 101.774C81.6586 102.797 80.9392 103.707 80.1072 104.504L78.5212 103.23C79.7172 102.155 80.6792 100.725 81.4072 98.94C82.1352 97.1373 82.4992 95.0573 82.4992 92.7V89.84H79.8992V87.994H86.4772V89.84H84.6312V92.7C84.6312 94.6933 84.8479 96.4873 85.2812 98.082C85.7319 99.6593 86.2779 100.873 86.9192 101.722C87.5606 100.873 88.0979 99.6593 88.5312 98.082C88.9819 96.4873 89.2072 94.6933 89.2072 92.7V89.84H87.3612V87.994H93.9392V89.84H91.3392V92.7C91.3392 97.068 92.5439 100.439 94.9532 102.814L93.5752 104.192C92.8472 103.464 92.1886 102.632 91.5992 101.696C91.0272 100.76 90.5852 99.798 90.2732 98.81ZM96.3052 85.732H98.4372V94.468H101.687V96.444H98.4372V108.898H96.3052V85.732ZM116.687 92.648C116.687 93.584 116.471 94.4593 116.037 95.274C115.621 96.0713 115.032 96.7473 114.269 97.302C113.524 97.8393 112.675 98.1947 111.721 98.368V102.606C114.547 102.554 116.843 102.355 118.611 102.008V103.828C116.497 104.261 113.567 104.478 109.823 104.478H103.167V102.606H109.485V98.42C108.48 98.2813 107.579 97.9433 106.781 97.406C106.001 96.8513 105.386 96.158 104.935 95.326C104.485 94.494 104.259 93.6013 104.259 92.648C104.259 91.5907 104.528 90.6113 105.065 89.71C105.62 88.8087 106.365 88.098 107.301 87.578C108.255 87.058 109.312 86.798 110.473 86.798C111.635 86.798 112.683 87.058 113.619 87.578C114.573 88.098 115.318 88.8087 115.855 89.71C116.41 90.6113 116.687 91.5907 116.687 92.648ZM119.651 85.732H121.835V94.936H125.215V96.912H121.835V108.898H119.651V85.732ZM110.473 96.6C111.288 96.6 111.999 96.4267 112.605 96.08C113.212 95.716 113.68 95.2307 114.009 94.624C114.339 94.0173 114.503 93.3587 114.503 92.648C114.503 91.92 114.339 91.2527 114.009 90.646C113.68 90.0393 113.212 89.5627 112.605 89.216C111.999 88.852 111.288 88.67 110.473 88.67C109.659 88.67 108.948 88.852 108.341 89.216C107.735 89.5627 107.267 90.0393 106.937 90.646C106.608 91.2527 106.443 91.92 106.443 92.648C106.443 93.3587 106.608 94.0173 106.937 94.624C107.267 95.2307 107.735 95.716 108.341 96.08C108.948 96.4267 109.659 96.6 110.473 96.6ZM150.544 85.732H152.728V102.528H150.544V85.732ZM137.96 100.708H140.17V106.636H153.248V108.508H137.96V100.708ZM140.196 98.368C139 98.368 137.934 98.0993 136.998 97.562C136.062 97.0073 135.334 96.2707 134.814 95.352C134.294 94.416 134.034 93.402 134.034 92.31C134.034 91.218 134.294 90.2127 134.814 89.294C135.334 88.358 136.062 87.6213 136.998 87.084C137.934 86.5293 139 86.252 140.196 86.252C141.392 86.252 142.458 86.5293 143.394 87.084C144.33 87.6213 145.058 88.358 145.578 89.294C146.098 90.2127 146.358 91.218 146.358 92.31C146.358 93.402 146.098 94.416 145.578 95.352C145.058 96.2707 144.33 97.0073 143.394 97.562C142.458 98.0993 141.392 98.368 140.196 98.368ZM140.196 88.124C139.382 88.124 138.671 88.3147 138.064 88.696C137.475 89.06 137.016 89.5627 136.686 90.204C136.374 90.8453 136.218 91.5473 136.218 92.31C136.218 93.0727 136.374 93.7747 136.686 94.416C137.016 95.0573 137.475 95.5687 138.064 95.95C138.671 96.314 139.382 96.496 140.196 96.496C141.011 96.496 141.713 96.314 142.302 95.95C142.909 95.5687 143.368 95.0573 143.68 94.416C144.01 93.7747 144.174 93.0727 144.174 92.31C144.174 91.5473 144.01 90.8453 143.68 90.204C143.368 89.5627 142.909 89.06 142.302 88.696C141.713 88.3147 141.011 88.124 140.196 88.124ZM165.258 94.624C164.097 94.624 163.066 94.4333 162.164 94.052C161.28 93.6533 160.587 93.116 160.084 92.44C159.599 91.7467 159.356 90.9753 159.356 90.126C159.356 89.2767 159.599 88.514 160.084 87.838C160.587 87.1447 161.28 86.6073 162.164 86.226C163.066 85.8273 164.097 85.628 165.258 85.628C166.42 85.628 167.442 85.8273 168.326 86.226C169.228 86.6073 169.921 87.1447 170.406 87.838C170.909 88.514 171.16 89.2767 171.16 90.126C171.16 90.9753 170.909 91.7467 170.406 92.44C169.921 93.116 169.228 93.6533 168.326 94.052C167.442 94.4333 166.42 94.624 165.258 94.624ZM174.722 103.36V101.15H169.756V99.382H174.722V85.732H176.906V103.36H174.722ZM161.878 102.554H164.088V106.636H177.426V108.508H161.878V102.554ZM173.552 97.328C171.68 97.6747 169.193 97.8653 166.09 97.9V101.514H163.854V97.9H157.718V96.08H164.556C168.526 96.08 171.524 95.9067 173.552 95.56V97.328ZM165.258 87.448C164.062 87.448 163.144 87.708 162.502 88.228C161.861 88.7307 161.54 89.3633 161.54 90.126C161.54 90.8887 161.861 91.53 162.502 92.05C163.144 92.5527 164.062 92.804 165.258 92.804C166.454 92.804 167.373 92.5527 168.014 92.05C168.656 91.53 168.976 90.8887 168.976 90.126C168.976 89.3633 168.656 88.7307 168.014 88.228C167.373 87.708 166.454 87.448 165.258 87.448ZM182.208 103.516H184.704V111.654H182.208V103.516ZM203.855 94.702V96.522H198.213V101.904H199.253C202.182 101.904 204.453 101.765 206.065 101.488V103.334C204.279 103.629 202.009 103.776 199.253 103.776H196.133V87.838H204.375V89.684H198.239V94.702H203.855ZM207.755 107.806V96.132H204.895V94.208H207.755V86.122H209.887V107.806H207.755ZM214.411 85.732V108.898H212.253V85.732H214.411ZM234.741 85.732H236.925V94.468H240.435V96.444H236.925V108.898H234.741V85.732ZM221.949 89.866V101.618H228.293V89.866H221.949ZM219.765 87.994H230.477V103.49H219.765V87.994ZM245.295 103.386H258.711V101.8H245.295V100.032H260.895V105.102H247.479V106.844H261.415V108.638H245.295V103.386ZM245.295 89.632H258.581V88.02H245.295V86.252H260.765V91.348H247.479V92.986H261.285V94.78H245.295V89.632ZM242.279 96.47H263.911V98.238H242.279V96.47ZM279.308 103.854V106.766H289.76V103.854H279.308ZM277.124 99.226H279.308V102.06H289.76V99.226H291.944V108.612H277.124V99.226ZM289.812 98.082V85.732H291.996V98.082H289.812ZM279.49 97.484C278.311 97.484 277.254 97.2327 276.318 96.73C275.399 96.21 274.68 95.5167 274.16 94.65C273.657 93.7833 273.406 92.8387 273.406 91.816C273.406 90.7933 273.657 89.8487 274.16 88.982C274.68 88.1153 275.399 87.4307 276.318 86.928C277.254 86.408 278.311 86.148 279.49 86.148C280.669 86.148 281.717 86.408 282.636 86.928C283.572 87.4307 284.291 88.1153 284.794 88.982C285.314 89.8487 285.574 90.7933 285.574 91.816C285.574 92.8387 285.314 93.7833 284.794 94.65C284.291 95.5167 283.572 96.21 282.636 96.73C281.717 97.2327 280.669 97.484 279.49 97.484ZM279.49 87.968C278.693 87.968 277.999 88.1413 277.41 88.488C276.821 88.8347 276.37 89.3027 276.058 89.892C275.746 90.4813 275.59 91.1227 275.59 91.816C275.59 92.5093 275.746 93.1507 276.058 93.74C276.37 94.3293 276.821 94.7973 277.41 95.144C277.999 95.4907 278.693 95.664 279.49 95.664C280.287 95.664 280.981 95.4907 281.57 95.144C282.159 94.7973 282.61 94.3293 282.922 93.74C283.234 93.1507 283.39 92.5093 283.39 91.816C283.39 91.1227 283.234 90.4813 282.922 89.892C282.61 89.3027 282.159 88.8347 281.57 88.488C280.981 88.1413 280.287 87.968 279.49 87.968ZM311.78 98.212C309.509 98.6627 306.303 98.888 302.16 98.888H297.974V91.79H305.878V88.514H297.974V86.668H308.062V93.584H300.158V97.016H302.16C306.095 97.016 309.301 96.808 311.78 96.392V98.212ZM313.73 94.832H309.492V92.96H313.73V90.36H309.492V88.488H313.73V85.732H315.914V99.954H313.73V94.832ZM313.678 102.944H300.522V101.098H315.862V109.028H313.678V102.944ZM327.586 105.024C326.39 105.024 325.324 104.755 324.388 104.218C323.469 103.681 322.759 102.961 322.256 102.06C321.753 101.159 321.502 100.179 321.502 99.122C321.502 98.0647 321.753 97.0853 322.256 96.184C322.759 95.2827 323.469 94.5633 324.388 94.026C325.324 93.4887 326.39 93.22 327.586 93.22C328.782 93.22 329.839 93.4887 330.758 94.026C331.694 94.5633 332.413 95.2827 332.916 96.184C333.419 97.0853 333.67 98.0647 333.67 99.122C333.67 100.179 333.419 101.159 332.916 102.06C332.413 102.961 331.694 103.681 330.758 104.218C329.839 104.755 328.782 105.024 327.586 105.024ZM336.608 85.732H338.792V95.378H342.302V97.354H338.792V108.898H336.608V85.732ZM327.586 95.04C326.39 95.04 325.437 95.43 324.726 96.21C324.033 96.9727 323.686 97.9433 323.686 99.122C323.686 100.301 324.033 101.28 324.726 102.06C325.437 102.823 326.39 103.204 327.586 103.204C328.782 103.204 329.727 102.823 330.42 102.06C331.131 101.28 331.486 100.301 331.486 99.122C331.486 97.9433 331.131 96.9727 330.42 96.21C329.727 95.43 328.782 95.04 327.586 95.04ZM320.514 89.84H326.494V86.538H328.678V89.84H334.658V91.712H320.514V89.84ZM345.81 86.824H356.574V89.034H361.566V85.732H363.75V102.528H361.566V95.82H356.574V98.16H345.81V86.824ZM347.994 88.696V96.288H354.39V88.696H347.994ZM348.982 100.708H351.192V106.636H364.27V108.508H348.982V100.708ZM361.566 93.974V90.88H356.574V93.974H361.566ZM16.172 127.97H9.75V144.74H7.228V127.97H0.806V125.786H16.172V127.97ZM19.3783 130.57H21.7963V133.482C22.039 132.442 22.507 131.636 23.2003 131.064C23.8937 130.492 24.717 130.206 25.6703 130.206H25.6963C26.4417 130.206 27.1177 130.397 27.7243 130.778C28.3483 131.142 28.8423 131.662 29.2063 132.338C29.5703 133.014 29.7523 133.803 29.7523 134.704L29.7783 135.12H27.3863V134.834C27.369 134.019 27.109 133.369 26.6063 132.884C26.121 132.381 25.497 132.13 24.7343 132.13H24.7083C23.859 132.13 23.157 132.425 22.6023 133.014C22.065 133.603 21.7963 134.453 21.7963 135.562V144.74H19.3783V130.57ZM45.0336 130.57V144.74H42.6416V140.658C42.347 142.097 41.7403 143.206 40.8216 143.986C39.9203 144.749 38.837 145.13 37.5716 145.13H37.5456C36.523 145.13 35.5783 144.879 34.7116 144.376C33.8623 143.856 33.1776 143.102 32.6576 142.114C32.1376 141.126 31.8776 139.947 31.8776 138.578V136.732C31.8776 135.363 32.1376 134.184 32.6576 133.196C33.1776 132.208 33.8623 131.463 34.7116 130.96C35.5783 130.44 36.523 130.18 37.5456 130.18H37.5716C38.8543 130.18 39.9463 130.544 40.8476 131.272C41.749 131.983 42.347 133.04 42.6416 134.444V130.57H45.0336ZM38.4036 143.05C39.149 143.05 39.8423 142.859 40.4836 142.478C41.125 142.097 41.645 141.533 42.0436 140.788C42.4423 140.043 42.6416 139.141 42.6416 138.084V137.226C42.6416 136.169 42.4423 135.267 42.0436 134.522C41.645 133.759 41.125 133.196 40.4836 132.832C39.8423 132.451 39.149 132.26 38.4036 132.26H38.3776C37.1816 132.26 36.1936 132.667 35.4136 133.482C34.651 134.297 34.2696 135.475 34.2696 137.018V138.266C34.2696 139.826 34.651 141.013 35.4136 141.828C36.1936 142.643 37.1816 143.05 38.3776 143.05H38.4036ZM61.7545 130.57L56.4765 144.74H53.2785L48.0265 130.57H50.6525L54.8905 143.128L59.1025 130.57H61.7545ZM70.4206 145.13C69.2419 145.13 68.1586 144.879 67.1706 144.376C66.1826 143.856 65.3939 143.093 64.8046 142.088C64.2153 141.083 63.9206 139.878 63.9206 138.474V136.836C63.9206 135.432 64.2153 134.227 64.8046 133.222C65.3939 132.217 66.1826 131.463 67.1706 130.96C68.1586 130.44 69.2419 130.18 70.4206 130.18H70.4466C71.6079 130.18 72.6826 130.44 73.6706 130.96C74.6586 131.463 75.4473 132.217 76.0366 133.222C76.6433 134.227 76.9466 135.432 76.9466 136.836V138.474C76.9466 139.878 76.6433 141.083 76.0366 142.088C75.4473 143.093 74.6586 143.856 73.6706 144.376C72.6826 144.879 71.6079 145.13 70.4466 145.13H70.4206ZM70.4466 143.05C71.1573 143.05 71.8246 142.885 72.4486 142.556C73.0726 142.209 73.5753 141.707 73.9566 141.048C74.3379 140.389 74.5286 139.609 74.5286 138.708V136.602C74.5286 135.701 74.3379 134.921 73.9566 134.262C73.5753 133.603 73.0726 133.109 72.4486 132.78C71.8246 132.433 71.1573 132.26 70.4466 132.26H70.4206C69.6926 132.26 69.0166 132.433 68.3926 132.78C67.7686 133.109 67.2659 133.603 66.8846 134.262C66.5033 134.921 66.3126 135.701 66.3126 136.602V138.708C66.3126 139.609 66.5033 140.389 66.8846 141.048C67.2659 141.707 67.7686 142.209 68.3926 142.556C69.0166 142.885 69.6926 143.05 70.4206 143.05H70.4466ZM96.0572 123.732H98.2412V132.728H101.751V134.704H98.2412V146.898H96.0572V123.732ZM80.0932 141.464C81.9479 140.528 83.5599 139.332 84.9292 137.876C86.2985 136.42 87.3645 134.834 88.1272 133.118C88.9072 131.385 89.3665 129.634 89.5052 127.866H81.2892V125.994H91.7932C91.7585 128.577 91.2905 130.977 90.3892 133.196C89.4879 135.397 88.2659 137.33 86.7232 138.994C85.1979 140.641 83.4645 141.975 81.5232 142.998L80.0932 141.464ZM126.95 123.732H129.134V146.898H126.95V123.732ZM125.52 140.918C124.22 141.213 122.686 141.429 120.918 141.568C119.168 141.689 117.391 141.75 115.588 141.75H111.454V132.598H120.138V127.58H111.454V125.734H122.322V134.418H113.638V139.878H115.588C119.523 139.878 122.834 139.618 125.52 139.098V140.918ZM152.272 134.756H136.776V124.46H138.96V127.684H150.088V124.46H152.272V134.756ZM147.54 139.332H141.508V146.69H139.35V139.332H133.708V137.46H155.34V139.332H149.698V146.898H147.54V139.332ZM150.088 129.53H138.96V132.884H150.088V129.53ZM160.642 141.386H174.058V139.8H160.642V138.032H176.242V143.102H162.826V144.844H176.762V146.638H160.642V141.386ZM160.642 127.632H173.928V126.02H160.642V124.252H176.112V129.348H162.826V130.986H176.632V132.78H160.642V127.632ZM157.626 134.47H179.258V136.238H157.626V134.47ZM189.144 125.734H191.328V131.74H197.672V125.734H199.856V141.646H189.144V125.734ZM191.328 133.586V139.774H197.672V133.586H191.328ZM204.12 123.732H206.304V132.728H209.814V134.704H206.304V146.898H204.12V123.732ZM228.298 123.732H230.482V129.218H233.732V131.142H230.482V138.032H228.298V123.732ZM223.098 147.366C221.52 147.366 220.142 147.167 218.964 146.768C217.785 146.387 216.875 145.858 216.234 145.182C215.61 144.506 215.298 143.743 215.298 142.894C215.298 142.045 215.61 141.282 216.234 140.606C216.875 139.93 217.785 139.401 218.964 139.02C220.142 138.621 221.52 138.422 223.098 138.422C224.675 138.422 226.053 138.621 227.232 139.02C228.41 139.401 229.312 139.93 229.936 140.606C230.577 141.282 230.898 142.045 230.898 142.894C230.898 143.743 230.577 144.506 229.936 145.182C229.312 145.858 228.41 146.387 227.232 146.768C226.053 147.167 224.675 147.366 223.098 147.366ZM223.098 140.268C221.312 140.268 219.926 140.502 218.938 140.97C217.967 141.438 217.482 142.079 217.482 142.894C217.482 143.709 217.967 144.35 218.938 144.818C219.926 145.286 221.312 145.52 223.098 145.52C224.883 145.52 226.261 145.286 227.232 144.818C228.22 144.35 228.714 143.709 228.714 142.894C228.714 142.079 228.22 141.438 227.232 140.97C226.261 140.502 224.883 140.268 223.098 140.268ZM217.378 134.444C221.312 134.444 224.519 134.236 226.998 133.82V135.64C224.727 136.091 221.52 136.316 217.378 136.316H213.192V124.668H224.086V126.514H215.376V129.504H223.826V131.298H215.376V134.444H217.378ZM257.208 144.116H235.576V142.244H257.208V144.116ZM246.418 137.564C244.858 137.564 243.454 137.278 242.206 136.706C240.958 136.134 239.978 135.363 239.268 134.392C238.574 133.404 238.228 132.312 238.228 131.116C238.228 129.92 238.574 128.837 239.268 127.866C239.978 126.878 240.958 126.098 242.206 125.526C243.454 124.954 244.858 124.668 246.418 124.668C247.978 124.668 249.382 124.954 250.63 125.526C251.878 126.098 252.848 126.878 253.542 127.866C254.252 128.837 254.608 129.92 254.608 131.116C254.608 132.312 254.252 133.404 253.542 134.392C252.848 135.363 251.878 136.134 250.63 136.706C249.382 137.278 247.978 137.564 246.418 137.564ZM246.418 126.54C245.256 126.54 244.216 126.739 243.298 127.138C242.396 127.519 241.686 128.065 241.166 128.776C240.663 129.469 240.412 130.249 240.412 131.116C240.412 131.983 240.663 132.771 241.166 133.482C241.686 134.175 242.396 134.721 243.298 135.12C244.216 135.501 245.256 135.692 246.418 135.692C247.579 135.692 248.61 135.501 249.512 135.12C250.43 134.721 251.141 134.175 251.644 133.482C252.164 132.771 252.424 131.983 252.424 131.116C252.424 130.249 252.164 129.469 251.644 128.776C251.141 128.065 250.43 127.519 249.512 127.138C248.61 126.739 247.579 126.54 246.418 126.54ZM271.558 142.504H281.126V144.376H259.494V142.504H269.322V138.344H262.562V130.882H275.744V127.242H262.562V125.396H277.928V132.702H264.746V136.472H278.448V138.344H271.558V142.504ZM22.776 174.446H13.078V177.306H19.76V185.028H17.576V179.178H3.796V177.306H10.842V174.446H1.144V172.6H22.776V174.446ZM13.078 161.888V162.928C13.078 163.76 13.4593 164.592 14.222 165.424C15.002 166.256 16.0247 167.001 17.29 167.66C18.5727 168.301 19.9507 168.787 21.424 169.116L20.306 170.806C18.5727 170.425 16.9347 169.792 15.392 168.908C13.8667 168.007 12.7227 166.984 11.96 165.84C11.1973 166.984 10.0447 168.007 8.502 168.908C6.97667 169.792 5.34733 170.425 3.614 170.806L2.496 169.116C3.96933 168.787 5.33867 168.301 6.604 167.66C7.88667 167.001 8.90933 166.256 9.672 165.424C10.452 164.592 10.842 163.76 10.842 162.928V161.888H13.078ZM36.996 180.504H46.694V182.376H25.062V180.504H34.76V175.07H36.996V180.504ZM35.878 168.856C35.1153 170.312 33.9713 171.621 32.446 172.782C30.9206 173.926 29.2306 174.801 27.376 175.408L26.128 173.692C27.6706 173.224 29.1006 172.539 30.418 171.638C31.7353 170.737 32.784 169.705 33.564 168.544C34.3613 167.383 34.76 166.187 34.76 164.956V163.032H36.996V164.956C36.996 166.187 37.386 167.383 38.166 168.544C38.9633 169.705 40.0206 170.737 41.338 171.638C42.6553 172.539 44.0853 173.224 45.628 173.692L44.38 175.408C42.5253 174.801 40.8353 173.926 39.31 172.782C37.7846 171.621 36.6406 170.312 35.878 168.856ZM62.6559 168.648C62.6559 169.584 62.4393 170.459 62.0059 171.274C61.5899 172.071 61.0006 172.747 60.2379 173.302C59.4926 173.839 58.6433 174.195 57.6899 174.368V178.606C60.5153 178.554 62.8119 178.355 64.5799 178.008V179.828C62.4653 180.261 59.5359 180.478 55.7919 180.478H49.1359V178.606H55.4539V174.42C54.4486 174.281 53.5473 173.943 52.7499 173.406C51.9699 172.851 51.3546 172.158 50.9039 171.326C50.4533 170.494 50.2279 169.601 50.2279 168.648C50.2279 167.591 50.4966 166.611 51.0339 165.71C51.5886 164.809 52.3339 164.098 53.2699 163.578C54.2233 163.058 55.2806 162.798 56.4419 162.798C57.6033 162.798 58.6519 163.058 59.5879 163.578C60.5413 164.098 61.2866 164.809 61.8239 165.71C62.3786 166.611 62.6559 167.591 62.6559 168.648ZM65.6199 161.732H67.8039V170.936H71.1839V172.912H67.8039V184.898H65.6199V161.732ZM56.4419 172.6C57.2566 172.6 57.9673 172.427 58.5739 172.08C59.1806 171.716 59.6486 171.231 59.9779 170.624C60.3073 170.017 60.4719 169.359 60.4719 168.648C60.4719 167.92 60.3073 167.253 59.9779 166.646C59.6486 166.039 59.1806 165.563 58.5739 165.216C57.9673 164.852 57.2566 164.67 56.4419 164.67C55.6273 164.67 54.9166 164.852 54.3099 165.216C53.7033 165.563 53.2353 166.039 52.9059 166.646C52.5766 167.253 52.4119 167.92 52.4119 168.648C52.4119 169.359 52.5766 170.017 52.9059 170.624C53.2353 171.231 53.7033 171.716 54.3099 172.08C54.9166 172.427 55.6273 172.6 56.4419 172.6ZM83.8252 178.762H96.4612V176.63H83.8252V174.81H98.6452V180.53H86.0092V182.792H99.1652V184.638H83.8252V178.762ZM98.6972 161.732V173.666H96.5132V161.732H98.6972ZM86.1912 173.068C85.0126 173.068 83.9552 172.825 83.0192 172.34C82.1006 171.837 81.3812 171.17 80.8612 170.338C80.3586 169.489 80.1072 168.57 80.1072 167.582C80.1072 166.594 80.3586 165.684 80.8612 164.852C81.3812 164.003 82.1006 163.335 83.0192 162.85C83.9552 162.347 85.0126 162.096 86.1912 162.096C87.3699 162.096 88.4186 162.347 89.3372 162.85C90.2732 163.335 90.9926 164.003 91.4952 164.852C92.0152 165.684 92.2752 166.594 92.2752 167.582C92.2752 168.57 92.0152 169.489 91.4952 170.338C90.9926 171.17 90.2732 171.837 89.3372 172.34C88.4186 172.825 87.3699 173.068 86.1912 173.068ZM86.1912 163.916C85.3939 163.916 84.7006 164.081 84.1112 164.41C83.5219 164.739 83.0712 165.19 82.7592 165.762C82.4472 166.317 82.2912 166.923 82.2912 167.582C82.2912 168.241 82.4472 168.856 82.7592 169.428C83.0712 169.983 83.5219 170.425 84.1112 170.754C84.7006 171.083 85.3939 171.248 86.1912 171.248C86.9886 171.248 87.6819 171.083 88.2712 170.754C88.8606 170.425 89.3112 169.983 89.6232 169.428C89.9352 168.856 90.0912 168.241 90.0912 167.582C90.0912 166.923 89.9352 166.317 89.6232 165.762C89.3112 165.19 88.8606 164.739 88.2712 164.41C87.6819 164.081 86.9886 163.916 86.1912 163.916ZM115.101 185.366C113.507 185.366 112.103 185.158 110.889 184.742C109.693 184.343 108.775 183.789 108.133 183.078C107.492 182.367 107.171 181.57 107.171 180.686C107.171 179.802 107.492 179.005 108.133 178.294C108.775 177.583 109.693 177.029 110.889 176.63C112.103 176.214 113.507 176.006 115.101 176.006C116.696 176.006 118.091 176.214 119.287 176.63C120.501 177.029 121.428 177.583 122.069 178.294C122.711 179.005 123.031 179.802 123.031 180.686C123.031 181.57 122.711 182.367 122.069 183.078C121.428 183.789 120.501 184.343 119.287 184.742C118.091 185.158 116.696 185.366 115.101 185.366ZM116.531 174.29C115.266 173.805 114.079 173.111 112.969 172.21C111.877 171.309 111.037 170.329 110.447 169.272C109.945 170.347 109.13 171.404 108.003 172.444C106.894 173.484 105.62 174.342 104.181 175.018L102.803 173.432C104.693 172.583 106.235 171.447 107.431 170.026C108.645 168.587 109.251 167.036 109.251 165.372V164.67H104.259V162.824H116.531V164.67H111.539V165.346C111.539 166.958 112.129 168.414 113.307 169.714C114.486 170.997 115.942 171.967 117.675 172.626L116.531 174.29ZM115.101 177.878C113.281 177.878 111.869 178.129 110.863 178.632C109.858 179.135 109.355 179.819 109.355 180.686C109.355 181.553 109.858 182.237 110.863 182.74C111.869 183.243 113.281 183.494 115.101 183.494C116.921 183.494 118.334 183.243 119.339 182.74C120.345 182.237 120.847 181.553 120.847 180.686C120.847 179.819 120.345 179.135 119.339 178.632C118.334 178.129 116.921 177.878 115.101 177.878ZM120.431 169.012H116.141V167.14H120.431V161.732H122.615V175.616H120.431V169.012ZM137.745 170.052C136.081 170.052 134.625 169.87 133.377 169.506C132.146 169.142 131.202 168.639 130.543 167.998C129.884 167.357 129.555 166.62 129.555 165.788C129.555 164.956 129.884 164.219 130.543 163.578C131.202 162.937 132.146 162.434 133.377 162.07C134.625 161.706 136.081 161.524 137.745 161.524C139.409 161.524 140.856 161.706 142.087 162.07C143.335 162.434 144.288 162.937 144.947 163.578C145.606 164.219 145.935 164.956 145.935 165.788C145.935 166.62 145.606 167.357 144.947 167.998C144.288 168.639 143.335 169.142 142.087 169.506C140.856 169.87 139.409 170.052 137.745 170.052ZM137.745 163.318C135.942 163.318 134.486 163.535 133.377 163.968C132.285 164.401 131.739 165.008 131.739 165.788C131.739 166.568 132.285 167.175 133.377 167.608C134.486 168.041 135.942 168.258 137.745 168.258C139.548 168.258 140.995 168.041 142.087 167.608C143.196 167.175 143.751 166.568 143.751 165.788C143.751 165.008 143.196 164.401 142.087 163.968C140.995 163.535 139.548 163.318 137.745 163.318ZM126.929 171.56H148.561V173.354H126.929V171.56ZM129.945 179.048H143.361V177.15H129.945V175.356H145.545V180.79H132.129V182.818H146.065V184.638H129.945V179.048ZM169.028 165.97C169.184 166.785 169.661 167.573 170.458 168.336C171.256 169.081 172.278 169.74 173.526 170.312C174.774 170.884 176.126 171.3 177.582 171.56L176.386 173.276C174.584 172.929 172.902 172.314 171.342 171.43C169.782 170.546 168.621 169.532 167.858 168.388C167.096 169.532 165.934 170.546 164.374 171.43C162.814 172.314 161.133 172.929 159.33 173.276L158.134 171.56C159.573 171.3 160.916 170.884 162.164 170.312C163.412 169.74 164.435 169.081 165.232 168.336C166.047 167.573 166.532 166.785 166.688 165.97H159.642V164.124H166.766V161.446H168.95V164.124H176.074V165.97H169.028ZM166.766 177.228H157.042V175.356H178.674V177.228H168.95V184.898H166.766V177.228ZM194.506 175.538C193.258 175.053 192.088 174.359 190.996 173.458C189.922 172.539 189.081 171.543 188.474 170.468C187.989 171.595 187.183 172.678 186.056 173.718C184.947 174.741 183.682 175.573 182.26 176.214L180.882 174.628C182.789 173.779 184.332 172.643 185.51 171.222C186.689 169.801 187.278 168.319 187.278 166.776V166.256H182.208V164.436H187.33V161.524H189.514V164.436H194.636V166.256H189.566V166.75C189.566 167.755 189.835 168.726 190.372 169.662C190.91 170.598 191.638 171.43 192.556 172.158C193.492 172.886 194.524 173.458 195.65 173.874L194.506 175.538ZM198.38 170.182H194.246V168.31H198.38V161.732H200.564V179.048H198.38V170.182ZM185.796 177.228H188.006V182.636H201.084V184.508H185.796V177.228ZM222.948 173.146H220.062V183.806H217.93V162.122H220.062V171.118H222.948V161.732H225.106V184.898H222.948V173.146ZM210.936 180.374C209.966 180.374 209.099 180.131 208.336 179.646C207.574 179.143 206.976 178.459 206.542 177.592C206.126 176.725 205.918 175.755 205.918 174.68C205.918 173.605 206.126 172.635 206.542 171.768C206.976 170.901 207.574 170.225 208.336 169.74C209.099 169.237 209.966 168.986 210.936 168.986C211.907 168.986 212.774 169.237 213.536 169.74C214.299 170.225 214.888 170.901 215.304 171.768C215.738 172.635 215.954 173.605 215.954 174.68C215.954 175.755 215.738 176.725 215.304 177.592C214.888 178.459 214.299 179.143 213.536 179.646C212.774 180.131 211.907 180.374 210.936 180.374ZM210.936 170.806C209.983 170.806 209.255 171.161 208.752 171.872C208.25 172.565 207.998 173.501 207.998 174.68C207.998 175.859 208.25 176.803 208.752 177.514C209.255 178.207 209.983 178.554 210.936 178.554C211.89 178.554 212.618 178.207 213.12 177.514C213.623 176.803 213.874 175.859 213.874 174.68C213.874 173.501 213.623 172.565 213.12 171.872C212.618 171.161 211.89 170.806 210.936 170.806ZM205.216 165.814H209.844V162.746H211.976V165.814H216.604V167.686H205.216V165.814ZM256.624 182.116H234.992V180.244H256.624V182.116ZM238.06 163.552H253.816V165.424H240.244V172.912H254.076V174.784H238.06V163.552ZM274.12 178.918C272.82 179.213 271.286 179.429 269.518 179.568C267.767 179.689 265.99 179.75 264.188 179.75H260.574V170.598H268.322V165.58H260.574V163.734H270.506V172.418H262.758V177.878H264.188C268.122 177.878 271.433 177.618 274.12 177.098V178.918ZM276.07 174.68H271.936V172.808H276.07V168.648H271.936V166.776H276.07V161.732H278.254V184.898H276.07V174.68ZM293.67 175.2C292.11 175.2 290.706 174.923 289.458 174.368C288.21 173.813 287.23 173.059 286.52 172.106C285.826 171.153 285.48 170.095 285.48 168.934C285.48 167.773 285.826 166.715 286.52 165.762C287.23 164.809 288.21 164.055 289.458 163.5C290.706 162.945 292.11 162.668 293.67 162.668C295.23 162.668 296.634 162.945 297.882 163.5C299.13 164.055 300.1 164.809 300.794 165.762C301.504 166.715 301.86 167.773 301.86 168.934C301.86 170.095 301.504 171.153 300.794 172.106C300.1 173.059 299.13 173.813 297.882 174.368C296.634 174.923 295.23 175.2 293.67 175.2ZM293.67 164.54C292.508 164.54 291.468 164.731 290.55 165.112C289.648 165.493 288.938 166.022 288.418 166.698C287.915 167.357 287.664 168.102 287.664 168.934C287.664 169.766 287.915 170.52 288.418 171.196C288.938 171.855 289.648 172.375 290.55 172.756C291.468 173.137 292.508 173.328 293.67 173.328C294.831 173.328 295.862 173.137 296.764 172.756C297.682 172.375 298.393 171.855 298.896 171.196C299.416 170.52 299.676 169.766 299.676 168.934C299.676 168.102 299.416 167.357 298.896 166.698C298.393 166.022 297.682 165.493 296.764 165.112C295.862 164.731 294.831 164.54 293.67 164.54ZM287.924 175.954H290.056V180.504H297.232V175.954H299.364V180.504H304.46V182.376H282.828V180.504H287.924V175.954ZM309.424 183.026C308.921 183.026 308.496 182.853 308.15 182.506C307.803 182.159 307.63 181.735 307.63 181.232C307.63 180.729 307.803 180.305 308.15 179.958C308.496 179.611 308.921 179.438 309.424 179.438C309.926 179.438 310.351 179.611 310.698 179.958C311.062 180.305 311.244 180.729 311.244 181.232C311.244 181.735 311.062 182.159 310.698 182.506C310.351 182.853 309.926 183.026 309.424 183.026Z" fill="#818181"/>
</svg>
