<svg width="309" height="37" viewBox="0 0 309 37" fill="none" xmlns="http://www.w3.org/2000/svg">
<path d="M24.6 0.199998H29.16V18.4H24.6V0.199998ZM9.6 17.8C7.73333 17.8 6.06667 17.4267 4.6 16.68C3.16 15.9067 2.04 14.8667 1.24 13.56C0.466667 12.2533 0.0800003 10.8133 0.0800003 9.24C0.0800003 7.66666 0.466667 6.22666 1.24 4.92C2.04 3.61333 3.16 2.58666 4.6 1.84C6.06667 1.06667 7.73333 0.679999 9.6 0.679999C11.4667 0.679999 13.12 1.06667 14.56 1.84C16.0267 2.58666 17.1467 3.61333 17.92 4.92C18.72 6.22666 19.12 7.66666 19.12 9.24C19.12 10.8133 18.72 12.2533 17.92 13.56C17.1467 14.8667 16.0267 15.9067 14.56 16.68C13.12 17.4267 11.4667 17.8 9.6 17.8ZM9.6 4.52C8.02667 4.52 6.8 4.97333 5.92 5.88C5.06667 6.76 4.64 7.88 4.64 9.24C4.64 10.6 5.06667 11.7333 5.92 12.64C6.8 13.52 8.02667 13.96 9.6 13.96C11.1733 13.96 12.3867 13.52 13.24 12.64C14.12 11.7333 14.56 10.6 14.56 9.24C14.56 7.88 14.12 6.76 13.24 5.88C12.3867 4.97333 11.1733 4.52 9.6 4.52ZM5.8 25.92H24.52V23.84H5.8V20H29.08V29.52H10.36V31.72H29.88V35.6H5.8V25.92ZM54.1569 36.72C51.5969 36.72 49.3702 36.4133 47.4769 35.8C45.6102 35.1867 44.1835 34.32 43.1969 33.2C42.2102 32.1067 41.7169 30.84 41.7169 29.4C41.7169 27.96 42.2102 26.6933 43.1969 25.6C44.1835 24.48 45.6102 23.6133 47.4769 23C49.3702 22.3867 51.5969 22.08 54.1569 22.08C56.7169 22.08 58.9302 22.3867 60.7969 23C62.6902 23.6133 64.1302 24.48 65.1169 25.6C66.1035 26.6933 66.5969 27.96 66.5969 29.4C66.5969 30.84 66.1035 32.1067 65.1169 33.2C64.1302 34.32 62.6902 35.1867 60.7969 35.8C58.9302 36.4133 56.7169 36.72 54.1569 36.72ZM55.6769 20C53.8635 19.2533 52.1969 18.2667 50.6769 17.04C49.1835 15.8133 47.9702 14.4533 47.0369 12.96C46.2902 14.5333 45.1169 16.0533 43.5169 17.52C41.9169 18.96 40.0502 20.16 37.9169 21.12L35.0369 17.84C38.0502 16.56 40.3835 14.8667 42.0369 12.76C43.7169 10.6267 44.5569 8.34667 44.5569 5.92V5.8H37.2369V1.8H56.5969V5.8H49.2769V5.92C49.2769 8.24 50.0769 10.32 51.6769 12.16C53.2769 13.9733 55.4235 15.4 58.1169 16.44L55.6769 20ZM61.3969 8.2V0.199998H65.9569V21.64H61.3969V12.28H55.5969V8.2H61.3969ZM54.1569 32.72C56.6369 32.72 58.5435 32.44 59.8769 31.88C61.2102 31.2933 61.8769 30.4667 61.8769 29.4C61.8769 28.3333 61.2102 27.52 59.8769 26.96C58.5435 26.3733 56.6369 26.08 54.1569 26.08C51.6769 26.08 49.7702 26.3733 48.4369 26.96C47.1035 27.52 46.4369 28.3333 46.4369 29.4C46.4369 30.4667 47.1035 31.2933 48.4369 31.88C49.7702 32.44 51.6769 32.72 54.1569 32.72ZM96.2822 24.28H81.9222V20.2H115.362V24.28H101.002V36H96.2822V24.28ZM100.962 2.44C100.962 4.01333 101.536 5.54666 102.682 7.04C103.829 8.53333 105.402 9.85333 107.402 11C109.402 12.1467 111.642 12.9867 114.122 13.52L111.562 17.2C108.842 16.56 106.322 15.5067 104.002 14.04C101.682 12.5467 99.8955 10.8133 98.6422 8.84C97.3889 10.8133 95.6022 12.5467 93.2822 14.04C90.9622 15.5067 88.4422 16.56 85.7222 17.2L83.1622 13.52C85.6422 12.9867 87.8822 12.1467 89.8822 11C91.8822 9.85333 93.4555 8.53333 94.6022 7.04C95.7489 5.54666 96.3222 4.01333 96.3222 2.44V0.839999H100.962V2.44ZM137.399 36.72C134.839 36.72 132.612 36.4133 130.719 35.8C128.852 35.1867 127.426 34.32 126.439 33.2C125.452 32.1067 124.959 30.84 124.959 29.4C124.959 27.96 125.452 26.6933 126.439 25.6C127.426 24.48 128.852 23.6133 130.719 23C132.612 22.3867 134.839 22.08 137.399 22.08C139.959 22.08 142.172 22.3867 144.039 23C145.932 23.6133 147.372 24.48 148.359 25.6C149.346 26.6933 149.839 27.96 149.839 29.4C149.839 30.84 149.346 32.1067 148.359 33.2C147.372 34.32 145.932 35.1867 144.039 35.8C142.172 36.4133 139.959 36.72 137.399 36.72ZM138.919 20C137.106 19.2533 135.439 18.2667 133.919 17.04C132.426 15.8133 131.212 14.4533 130.279 12.96C129.532 14.5333 128.359 16.0533 126.759 17.52C125.159 18.96 123.292 20.16 121.159 21.12L118.279 17.84C121.292 16.56 123.626 14.8667 125.279 12.76C126.959 10.6267 127.799 8.34667 127.799 5.92V5.8H120.479V1.8H139.839V5.8H132.519V5.92C132.519 8.24 133.319 10.32 134.919 12.16C136.519 13.9733 138.666 15.4 141.359 16.44L138.919 20ZM144.639 8.2V0.199998H149.199V21.64H144.639V12.28H138.839V8.2H144.639ZM137.399 32.72C139.879 32.72 141.786 32.44 143.119 31.88C144.452 31.2933 145.119 30.4667 145.119 29.4C145.119 28.3333 144.452 27.52 143.119 26.96C141.786 26.3733 139.879 26.08 137.399 26.08C134.919 26.08 133.012 26.3733 131.679 26.96C130.346 27.52 129.679 28.3333 129.679 29.4C129.679 30.4667 130.346 31.2933 131.679 31.88C133.012 32.44 134.919 32.72 137.399 32.72ZM175.036 28.44H188.956V32.52H155.516V28.44H170.236V20.84H160.076V2.92H184.596V6.96H164.636V16.76H185.196V20.84H175.036V28.44ZM228.281 36V0.199998H232.841V36H228.281ZM226.881 22.48C224.348 22.96 220.975 23.24 216.761 23.32V35.2H212.041V23.36H202.921V19.28H212.961C219.015 19.28 223.655 19.0133 226.881 18.48V22.48ZM223.641 16.48C221.801 15.84 220.095 14.9067 218.521 13.68C216.975 12.4533 215.748 11.0667 214.841 9.52C213.935 11.12 212.641 12.6 210.961 13.96C209.308 15.2933 207.441 16.4 205.361 17.28L202.681 13.88C204.575 13.16 206.255 12.2133 207.721 11.04C209.188 9.86666 210.335 8.57333 211.161 7.16C211.988 5.74666 212.401 4.34666 212.401 2.96V1.16H217.041V2.96C217.041 5.04 217.881 6.98667 219.561 8.8C221.268 10.5867 223.415 11.9333 226.001 12.84L223.641 16.48ZM251.118 17.04C249.331 17.04 247.718 16.6933 246.278 16C244.838 15.28 243.705 14.3067 242.878 13.08C242.051 11.8267 241.638 10.44 241.638 8.92C241.638 7.4 242.051 6.02667 242.878 4.8C243.705 3.54667 244.838 2.57333 246.278 1.88C247.718 1.16 249.331 0.799997 251.118 0.799997C252.905 0.799997 254.518 1.16 255.958 1.88C257.398 2.57333 258.531 3.54667 259.358 4.8C260.185 6.02667 260.598 7.4 260.598 8.92C260.598 10.44 260.185 11.8267 259.358 13.08C258.531 14.3067 257.398 15.28 255.958 16C254.518 16.6933 252.905 17.04 251.118 17.04ZM265.078 36V29.76H257.878V25.76H265.078V0.199998H269.638V36H265.078ZM263.678 22.24C261.118 22.72 257.678 23 253.358 23.08V35.2H248.638V23.12H239.718V19.04H249.758C255.811 19.04 260.451 18.7733 263.678 18.24V22.24ZM251.118 4.88C249.598 4.88 248.398 5.26667 247.518 6.04C246.638 6.78667 246.198 7.74667 246.198 8.92C246.198 10.0933 246.638 11.0667 247.518 11.84C248.398 12.5867 249.598 12.96 251.118 12.96C252.638 12.96 253.838 12.5867 254.718 11.84C255.598 11.0667 256.038 10.0933 256.038 8.92C256.038 7.74667 255.598 6.78667 254.718 6.04C253.838 5.26667 252.638 4.88 251.118 4.88ZM292.315 21.48C289.862 21.48 287.662 21.0533 285.715 20.2C283.768 19.32 282.235 18.12 281.115 16.6C280.022 15.08 279.475 13.3867 279.475 11.52C279.475 9.65333 280.022 7.96 281.115 6.44C282.235 4.92 283.768 3.73333 285.715 2.88C287.662 2 289.862 1.56 292.315 1.56C294.768 1.56 296.968 2 298.915 2.88C300.862 3.73333 302.382 4.92 303.475 6.44C304.595 7.96 305.155 9.65333 305.155 11.52C305.155 13.3867 304.595 15.08 303.475 16.6C302.382 18.12 300.862 19.32 298.915 20.2C296.968 21.0533 294.768 21.48 292.315 21.48ZM275.555 32.52V28.44H282.715V22.16H287.355V28.44H297.195V22.16H301.835V28.44H308.995V32.52H275.555ZM292.315 5.64C289.888 5.64 287.928 6.18667 286.435 7.28C284.942 8.34667 284.195 9.76 284.195 11.52C284.195 13.28 284.942 14.7067 286.435 15.8C287.928 16.8667 289.888 17.4 292.315 17.4C294.742 17.4 296.702 16.8667 298.195 15.8C299.688 14.7067 300.435 13.28 300.435 11.52C300.435 9.76 299.688 8.34667 298.195 7.28C296.702 6.18667 294.742 5.64 292.315 5.64Z" fill="black"/>
</svg>
