<svg width="422" height="224" viewBox="0 0 422 224" fill="none" xmlns="http://www.w3.org/2000/svg">
<path d="M110.92 42.6C109.16 42.6 107.573 42.08 106.16 41.04C104.773 40 103.666 38.4667 102.84 36.44C102.04 34.3867 101.64 31.9067 101.64 29C101.64 26.0933 102.04 23.6267 102.84 21.6C103.666 19.5467 104.773 18 106.16 16.96C107.573 15.92 109.16 15.4 110.92 15.4C112.573 15.4 114.066 15.8533 115.4 16.76C116.733 17.6667 117.813 18.9867 118.64 20.72H125.88V13.2H130.44V49H125.88V37.48H118.52C117.72 39.16 116.653 40.44 115.32 41.32C113.986 42.1733 112.52 42.6 110.92 42.6ZM110.92 19.48C109.533 19.48 108.4 20.2933 107.52 21.92C106.64 23.5467 106.2 25.9067 106.2 29C106.2 32.0933 106.64 34.4533 107.52 36.08C108.4 37.7067 109.533 38.52 110.92 38.52C112.306 38.52 113.44 37.7067 114.32 36.08C115.2 34.4533 115.64 32.0933 115.64 29C115.64 25.9067 115.2 23.5467 114.32 21.92C113.44 20.2933 112.306 19.48 110.92 19.48ZM120.2 29C120.2 30.4667 120.066 31.9333 119.8 33.4H125.88V24.8H119.84C120.08 26.08 120.2 27.48 120.2 29ZM155.997 49.72C153.357 49.72 151.063 49.4267 149.117 48.84C147.197 48.28 145.717 47.4933 144.677 46.48C143.663 45.4933 143.157 44.3467 143.157 43.04C143.157 41.7333 143.663 40.5867 144.677 39.6C145.717 38.5867 147.197 37.8 149.117 37.24C151.063 36.6533 153.357 36.36 155.997 36.36C158.637 36.36 160.917 36.6533 162.837 37.24C164.783 37.8 166.263 38.5867 167.277 39.6C168.317 40.5867 168.837 41.7333 168.837 43.04C168.837 44.3467 168.317 45.4933 167.277 46.48C166.263 47.4933 164.783 48.28 162.837 48.84C160.917 49.4267 158.637 49.72 155.997 49.72ZM156.277 13.8H160.677V22.6H163.717V13.2H168.197V36.36H163.717V26.84H160.677V34.84H156.277V13.8ZM146.437 34.68C144.943 34.68 143.61 34.3867 142.437 33.8C141.29 33.1867 140.397 32.3733 139.757 31.36C139.117 30.3467 138.797 29.24 138.797 28.04C138.797 26.84 139.117 25.7333 139.757 24.72C140.397 23.7067 141.29 22.9067 142.437 22.32C143.61 21.7067 144.943 21.4 146.437 21.4C147.93 21.4 149.25 21.7067 150.397 22.32C151.57 22.9067 152.477 23.7067 153.117 24.72C153.757 25.7333 154.077 26.84 154.077 28.04C154.077 29.24 153.757 30.3467 153.117 31.36C152.477 32.3733 151.57 33.1867 150.397 33.8C149.25 34.3867 147.93 34.68 146.437 34.68ZM137.957 16.52H143.997V13.2H148.557V16.52H154.597V20.44H137.957V16.52ZM155.997 45.88C158.61 45.88 160.61 45.64 161.997 45.16C163.41 44.6533 164.117 43.9467 164.117 43.04C164.117 42.1333 163.41 41.44 161.997 40.96C160.61 40.4533 158.61 40.2 155.997 40.2C153.383 40.2 151.37 40.4533 149.957 40.96C148.57 41.44 147.877 42.1333 147.877 43.04C147.877 43.9467 148.57 44.6533 149.957 45.16C151.37 45.64 153.383 45.88 155.997 45.88ZM146.437 25.16C145.45 25.16 144.663 25.44 144.077 26C143.49 26.5333 143.197 27.2133 143.197 28.04C143.197 28.8667 143.49 29.56 144.077 30.12C144.663 30.6533 145.45 30.92 146.437 30.92C147.423 30.92 148.21 30.6533 148.797 30.12C149.383 29.56 149.677 28.8667 149.677 28.04C149.677 27.2133 149.383 26.5333 148.797 26C148.21 25.44 147.423 25.16 146.437 25.16ZM202.922 29.76H217.042V33.76H183.602V29.76H198.122V26.24H188.082V14.16H212.562V18.12H192.642V22.24H212.962V26.24H202.922V29.76ZM200.322 49.72C197.602 49.72 195.255 49.4267 193.282 48.84C191.309 48.2533 189.802 47.4267 188.762 46.36C187.722 45.32 187.202 44.12 187.202 42.76C187.202 41.4 187.722 40.2 188.762 39.16C189.802 38.0933 191.309 37.2667 193.282 36.68C195.255 36.0933 197.602 35.8 200.322 35.8C203.042 35.8 205.389 36.0933 207.362 36.68C209.335 37.2667 210.842 38.0933 211.882 39.16C212.922 40.2 213.442 41.4 213.442 42.76C213.442 44.12 212.922 45.32 211.882 46.36C210.842 47.4267 209.335 48.2533 207.362 48.84C205.389 49.4267 203.042 49.72 200.322 49.72ZM200.322 45.72C203.015 45.72 205.082 45.4667 206.522 44.96C207.989 44.4267 208.722 43.6933 208.722 42.76C208.722 41.8267 207.989 41.1067 206.522 40.6C205.082 40.0667 203.015 39.8 200.322 39.8C197.629 39.8 195.549 40.0667 194.082 40.6C192.642 41.1067 191.922 41.8267 191.922 42.76C191.922 43.6933 192.642 44.4267 194.082 44.96C195.549 45.4667 197.629 45.72 200.322 45.72ZM240.359 33.64C238.492 32.8667 236.785 31.8 235.239 30.44C233.692 29.08 232.465 27.5867 231.559 25.96C230.839 27.6133 229.652 29.24 227.999 30.84C226.372 32.4133 224.465 33.72 222.279 34.76L219.399 31.48C222.412 30.1733 224.772 28.3733 226.479 26.08C228.212 23.7867 229.079 21.24 229.079 18.44V14H233.799V18.44C233.799 21 234.625 23.32 236.279 25.4C237.932 27.4533 240.105 29.0133 242.799 30.08L240.359 33.64ZM246.319 19.92V13.2H250.879V39.16H246.319V24H239.199V19.92H246.319ZM227.679 36.32H232.319V44.4H251.679V48.4H227.679V36.32ZM257.196 31.44V27.6H290.636V31.44H257.196ZM261.676 39.32H281.596V37.44H261.676V33.68H286.156V42.84H266.236V44.8H286.956V48.6H261.676V39.32ZM273.916 25.92C271.249 25.92 268.942 25.6533 266.996 25.12C265.076 24.56 263.609 23.7867 262.596 22.8C261.582 21.8133 261.076 20.6667 261.076 19.36C261.076 18.0533 261.582 16.9067 262.596 15.92C263.609 14.9333 265.076 14.1733 266.996 13.64C268.942 13.08 271.249 12.8 273.916 12.8C276.582 12.8 278.876 13.08 280.796 13.64C282.742 14.1733 284.222 14.9333 285.236 15.92C286.249 16.9067 286.756 18.0533 286.756 19.36C286.756 20.6667 286.249 21.8133 285.236 22.8C284.222 23.7867 282.742 24.56 280.796 25.12C278.876 25.6533 276.582 25.92 273.916 25.92ZM273.916 22.08C276.556 22.08 278.569 21.8533 279.956 21.4C281.342 20.9467 282.036 20.2667 282.036 19.36C282.036 18.4533 281.342 17.7733 279.956 17.32C278.569 16.8667 276.556 16.64 273.916 16.64C268.502 16.64 265.796 17.5467 265.796 19.36C265.796 21.1733 268.502 22.08 273.916 22.08ZM315.321 35.48C313.481 35.48 311.841 35.1733 310.401 34.56C308.988 33.9467 307.881 33.12 307.081 32.08C306.308 31.0133 305.921 29.84 305.921 28.56C305.921 27.28 306.308 26.12 307.081 25.08C307.881 24.0133 308.988 23.1733 310.401 22.56C311.841 21.9467 313.481 21.64 315.321 21.64C317.161 21.64 318.788 21.9467 320.201 22.56C321.641 23.1733 322.748 24.0133 323.521 25.08C324.321 26.12 324.721 27.28 324.721 28.56C324.721 29.84 324.321 31.0133 323.521 32.08C322.748 33.12 321.641 33.9467 320.201 34.56C318.788 35.1733 317.161 35.48 315.321 35.48ZM328.361 13.2H332.921V23.12H337.761V27.28H332.921V40.36H328.361V13.2ZM310.121 37.92H314.761V44.44H334.121V48.4H310.121V37.92ZM304.361 16.44H313.041V12.64H317.601V16.44H326.201V20.44H304.361V16.44ZM315.321 25.48C313.828 25.48 312.654 25.76 311.801 26.32C310.974 26.8533 310.561 27.6 310.561 28.56C310.561 29.52 310.974 30.28 311.801 30.84C312.654 31.3733 313.828 31.64 315.321 31.64C316.814 31.64 317.974 31.3733 318.801 30.84C319.654 30.28 320.081 29.52 320.081 28.56C320.081 27.6 319.654 26.8533 318.801 26.32C317.974 25.76 316.814 25.48 315.321 25.48ZM365.246 34H350.086V30H383.526V34H369.966V40.84H365.246V34ZM354.566 13.56H359.126V22.4H379.646V26.4H354.566V13.56ZM354.566 37.08H359.206V44.4H380.246V48.4H354.566V37.08ZM406.803 30.64H403.323C403.19 33.0667 402.776 35.1733 402.083 36.96C401.416 38.72 400.523 40.0667 399.403 41C398.283 41.9333 397.016 42.4 395.603 42.4C394.083 42.4 392.736 41.8667 391.563 40.8C390.39 39.7067 389.47 38.16 388.803 36.16C388.163 34.1333 387.843 31.7467 387.843 29C387.843 26.2533 388.163 23.88 388.803 21.88C389.47 19.8533 390.39 18.3067 391.563 17.24C392.736 16.1467 394.083 15.6 395.603 15.6C397.683 15.6 399.403 16.5733 400.763 18.52C402.15 20.44 402.976 23.0933 403.243 26.48H406.803V13.8H411.203V47.32H406.803V30.64ZM413.643 13.2H418.123V49H413.643V13.2ZM395.603 19.68C394.51 19.68 393.67 20.5067 393.083 22.16C392.523 23.7867 392.243 26.0667 392.243 29C392.243 31.9333 392.523 34.2267 393.083 35.88C393.67 37.5067 394.51 38.32 395.603 38.32C396.696 38.32 397.523 37.5067 398.083 35.88C398.67 34.2267 398.963 31.9333 398.963 29C398.963 26.0667 398.67 23.7867 398.083 22.16C397.523 20.5067 396.696 19.68 395.603 19.68ZM244.799 75.16V72.36H249.359V85.08H239.519V87.56H253.839V91.4H220.399V87.56H234.719V85.08H224.879V72.36H229.439V75.16H244.799ZM224.879 98.6H244.799V97H224.879V93.24H249.359V102.12H229.439V103.8H250.159V107.6H224.879V98.6ZM244.799 78.76H229.439V81.32H244.799V78.76ZM281.204 96.28H266.844V92.2H300.284V96.28H285.924V108H281.204V96.28ZM285.884 74.44C285.884 76.0133 286.457 77.5467 287.604 79.04C288.751 80.5333 290.324 81.8533 292.324 83C294.324 84.1467 296.564 84.9867 299.044 85.52L296.484 89.2C293.764 88.56 291.244 87.5067 288.924 86.04C286.604 84.5467 284.817 82.8133 283.564 80.84C282.311 82.8133 280.524 84.5467 278.204 86.04C275.884 87.5067 273.364 88.56 270.644 89.2L268.084 85.52C270.564 84.9867 272.804 84.1467 274.804 83C276.804 81.8533 278.377 80.5333 279.524 79.04C280.671 77.5467 281.244 76.0133 281.244 74.44V72.84H285.884V74.44ZM339.209 72.2H343.769V92.56H339.209V72.2ZM324.209 91.4C322.316 91.4 320.636 90.9867 319.169 90.16C317.703 89.3333 316.556 88.2267 315.729 86.84C314.929 85.4267 314.529 83.8667 314.529 82.16C314.529 80.4533 314.929 78.9067 315.729 77.52C316.556 76.1067 317.703 74.9867 319.169 74.16C320.636 73.3333 322.316 72.92 324.209 72.92C326.103 72.92 327.783 73.3333 329.249 74.16C330.716 74.9867 331.849 76.1067 332.649 77.52C333.476 78.9067 333.889 80.4533 333.889 82.16C333.889 83.8667 333.476 85.4267 332.649 86.84C331.849 88.2267 330.716 89.3333 329.249 90.16C327.783 90.9867 326.103 91.4 324.209 91.4ZM324.209 76.92C322.609 76.92 321.356 77.4267 320.449 78.44C319.543 79.4267 319.089 80.6667 319.089 82.16C319.089 83.6533 319.543 84.9067 320.449 85.92C321.356 86.9067 322.609 87.4 324.209 87.4C325.809 87.4 327.063 86.9067 327.969 85.92C328.876 84.9067 329.329 83.6533 329.329 82.16C329.329 80.6667 328.876 79.4267 327.969 78.44C327.063 77.4267 325.809 76.92 324.209 76.92ZM331.529 108.08C330.143 107.36 328.889 106.427 327.769 105.28C326.676 104.16 325.876 102.96 325.369 101.68C324.756 102.907 323.876 104.067 322.729 105.16C321.609 106.253 320.329 107.227 318.889 108.08L316.169 105.04C318.223 104.027 319.889 102.68 321.169 101C322.449 99.2933 323.089 97.6 323.089 95.92V94.16H327.649V95.92C327.649 97.3333 328.023 98.72 328.769 100.08C329.516 101.413 330.436 102.507 331.529 103.36C332.623 102.507 333.543 101.413 334.289 100.08C335.036 98.72 335.409 97.3333 335.409 95.92V94.16H339.969V95.92C339.969 97.6 340.609 99.2933 341.889 101C343.169 102.68 344.836 104.027 346.889 105.04L344.169 108.08C342.729 107.227 341.436 106.253 340.289 105.16C339.169 104.067 338.303 102.907 337.689 101.68C337.183 102.96 336.369 104.16 335.249 105.28C334.156 106.427 332.916 107.36 331.529 108.08ZM360.646 101.6C358.886 101.6 357.3 101.08 355.886 100.04C354.5 99 353.393 97.4667 352.566 95.44C351.766 93.3867 351.366 90.9067 351.366 88C351.366 85.0933 351.766 82.6267 352.566 80.6C353.393 78.5467 354.5 77 355.886 75.96C357.3 74.92 358.886 74.4 360.646 74.4C362.22 74.4 363.646 74.8133 364.926 75.64C366.233 76.4667 367.313 77.7067 368.166 79.36C369.02 81.0133 369.566 83.0133 369.806 85.36H375.606V72.2H380.166V108H375.606V89.52H369.886C369.753 92.1067 369.26 94.3067 368.406 96.12C367.58 97.9333 366.486 99.3067 365.126 100.24C363.793 101.147 362.3 101.6 360.646 101.6ZM360.646 78.48C359.26 78.48 358.126 79.2933 357.246 80.92C356.366 82.5467 355.926 84.9067 355.926 88C355.926 91.0933 356.366 93.4533 357.246 95.08C358.126 96.7067 359.26 97.52 360.646 97.52C362.033 97.52 363.166 96.7067 364.046 95.08C364.926 93.4533 365.366 91.0933 365.366 88C365.366 84.9067 364.926 82.5467 364.046 80.92C363.166 79.2933 362.033 78.48 360.646 78.48ZM403.643 93.48C401.19 93.48 398.99 93.0533 397.043 92.2C395.096 91.32 393.563 90.12 392.443 88.6C391.35 87.08 390.803 85.3867 390.803 83.52C390.803 81.6533 391.35 79.96 392.443 78.44C393.563 76.92 395.096 75.7333 397.043 74.88C398.99 74 401.19 73.56 403.643 73.56C406.096 73.56 408.296 74 410.243 74.88C412.19 75.7333 413.71 76.92 414.803 78.44C415.923 79.96 416.483 81.6533 416.483 83.52C416.483 85.3867 415.923 87.08 414.803 88.6C413.71 90.12 412.19 91.32 410.243 92.2C408.296 93.0533 406.096 93.48 403.643 93.48ZM386.883 104.52V100.44H394.043V94.16H398.683V100.44H408.523V94.16H413.163V100.44H420.323V104.52H386.883ZM403.643 77.64C401.216 77.64 399.256 78.1867 397.763 79.28C396.27 80.3467 395.523 81.76 395.523 83.52C395.523 85.28 396.27 86.7067 397.763 87.8C399.256 88.8667 401.216 89.4 403.643 89.4C406.07 89.4 408.03 88.8667 409.523 87.8C411.016 86.7067 411.763 85.28 411.763 83.52C411.763 81.76 411.016 80.3467 409.523 79.28C408.03 78.1867 406.07 77.64 403.643 77.64Z" fill="black"/>
<path d="M21.8381 174.88C20.4687 174.135 19.2034 173.138 18.0421 171.89C16.8807 170.642 16.0141 169.359 15.4421 168.042C14.8874 169.463 14.0467 170.824 12.9201 172.124C11.7934 173.424 10.4587 174.551 8.91606 175.504L7.43406 173.97C9.41006 172.809 11.0394 171.257 12.3221 169.316C13.6047 167.375 14.2461 165.234 14.2461 162.894V160.866H9.20206V158.994H21.5781V160.866H16.5341V162.946C16.5341 165.251 17.1581 167.305 18.4061 169.108C19.6714 170.911 21.2314 172.297 23.0861 173.268L21.8381 174.88ZM25.2181 156.732H27.4021V179.898H25.2181V156.732ZM35.044 158.552H50.67V160.424H37.228V167.912H51.06V169.784H44.17V175.504H53.608V177.376H31.976V175.504H41.934V169.784H35.044V158.552ZM69.336 178.806V167.496H66.554C66.502 169.143 66.2593 170.573 65.826 171.786C65.41 172.982 64.838 173.901 64.11 174.542C63.382 175.183 62.55 175.504 61.614 175.504C60.6433 175.504 59.7853 175.166 59.04 174.49C58.2947 173.797 57.714 172.8 57.298 171.5C56.882 170.2 56.674 168.675 56.674 166.924C56.674 165.173 56.882 163.648 57.298 162.348C57.714 161.048 58.2947 160.06 59.04 159.384C59.7853 158.691 60.6433 158.344 61.614 158.344C62.966 158.344 64.0753 158.985 64.942 160.268C65.826 161.551 66.346 163.319 66.502 165.572H69.336V157.122H71.468V178.806H69.336ZM61.614 160.216C60.678 160.216 59.9673 160.814 59.482 162.01C58.9967 163.189 58.754 164.827 58.754 166.924C58.754 169.021 58.9967 170.668 59.482 171.864C59.9673 173.043 60.678 173.632 61.614 173.632C62.55 173.632 63.2607 173.043 63.746 171.864C64.2313 170.668 64.474 169.021 64.474 166.924C64.474 164.827 64.2313 163.189 63.746 162.01C63.2607 160.814 62.55 160.216 61.614 160.216ZM75.992 156.732V179.898H73.834V156.732H75.992ZM93.228 174.724C91.8586 173.944 90.602 172.93 89.458 171.682C88.314 170.434 87.456 169.151 86.884 167.834C86.3466 169.255 85.506 170.633 84.362 171.968C83.2353 173.303 81.9093 174.429 80.384 175.348L78.928 173.84C80.904 172.713 82.5246 171.171 83.79 169.212C85.0553 167.253 85.688 165.095 85.688 162.738V158.474H87.976V162.79C87.976 165.13 88.6 167.193 89.848 168.978C91.096 170.746 92.6386 172.124 94.476 173.112L93.228 174.724ZM96.972 165.832H92.032V163.908H96.972V156.732H99.156V179.898H96.972V165.832ZM114.657 173.762H127.293V171.63H114.657V169.81H129.477V175.53H116.841V177.792H129.997V179.638H114.657V173.762ZM129.529 156.732V168.666H127.345V156.732H129.529ZM117.023 168.068C115.845 168.068 114.787 167.825 113.851 167.34C112.933 166.837 112.213 166.17 111.693 165.338C111.191 164.489 110.939 163.57 110.939 162.582C110.939 161.594 111.191 160.684 111.693 159.852C112.213 159.003 112.933 158.335 113.851 157.85C114.787 157.347 115.845 157.096 117.023 157.096C118.202 157.096 119.251 157.347 120.169 157.85C121.105 158.335 121.825 159.003 122.327 159.852C122.847 160.684 123.107 161.594 123.107 162.582C123.107 163.57 122.847 164.489 122.327 165.338C121.825 166.17 121.105 166.837 120.169 167.34C119.251 167.825 118.202 168.068 117.023 168.068ZM117.023 158.916C116.226 158.916 115.533 159.081 114.943 159.41C114.354 159.739 113.903 160.19 113.591 160.762C113.279 161.317 113.123 161.923 113.123 162.582C113.123 163.241 113.279 163.856 113.591 164.428C113.903 164.983 114.354 165.425 114.943 165.754C115.533 166.083 116.226 166.248 117.023 166.248C117.821 166.248 118.514 166.083 119.103 165.754C119.693 165.425 120.143 164.983 120.455 164.428C120.767 163.856 120.923 163.241 120.923 162.582C120.923 161.923 120.767 161.317 120.455 160.762C120.143 160.19 119.693 159.739 119.103 159.41C118.514 159.081 117.821 158.916 117.023 158.916ZM147.285 174.88C145.968 174.169 144.737 173.259 143.593 172.15C142.467 171.023 141.6 169.845 140.993 168.614C140.508 169.862 139.685 171.11 138.523 172.358C137.379 173.589 136.062 174.637 134.571 175.504L133.089 173.97C134.355 173.277 135.49 172.427 136.495 171.422C137.518 170.399 138.324 169.29 138.913 168.094C139.503 166.881 139.797 165.667 139.797 164.454V162.972H134.675V161.1H139.849V157.538H142.033V161.1H147.207V162.972H142.085V164.506C142.085 165.667 142.38 166.82 142.969 167.964C143.576 169.091 144.373 170.113 145.361 171.032C146.349 171.951 147.407 172.696 148.533 173.268L147.285 174.88ZM150.223 156.732H152.407V165.728H155.917V167.704H152.407V179.898H150.223V156.732ZM168.005 160.866V157.564H170.189V159.774H175.181V156.732H177.365V168.666H175.181V165.754H170.189V167.86H159.425V157.564H161.609V160.866H168.005ZM162.493 173.762H175.129V171.63H162.493V169.81H177.313V175.53H164.677V177.792H177.833V179.638H162.493V173.762ZM168.005 162.66H161.609V166.04H168.005V162.66ZM175.181 163.96V161.568H170.189V163.96H175.181ZM198.69 180.366C196.957 180.366 195.458 180.175 194.192 179.794C192.944 179.413 191.982 178.884 191.306 178.208C190.648 177.532 190.318 176.769 190.318 175.92C190.318 175.071 190.648 174.308 191.306 173.632C191.982 172.956 192.944 172.427 194.192 172.046C195.458 171.665 196.957 171.474 198.69 171.474C200.424 171.474 201.914 171.665 203.162 172.046C204.428 172.427 205.39 172.956 206.048 173.632C206.724 174.308 207.062 175.071 207.062 175.92C207.062 176.769 206.724 177.532 206.048 178.208C205.39 178.884 204.428 179.413 203.162 179.794C201.914 180.175 200.424 180.366 198.69 180.366ZM199.938 167.86H209.506V169.706H187.874V167.86H197.702V165.052H190.89V157.408H206.49V159.254H193.074V163.206H206.75V165.052H199.938V167.86ZM198.69 173.32C196.749 173.32 195.232 173.554 194.14 174.022C193.048 174.473 192.502 175.105 192.502 175.92C192.502 176.735 193.048 177.376 194.14 177.844C195.232 178.295 196.749 178.52 198.69 178.52C200.632 178.52 202.148 178.295 203.24 177.844C204.332 177.376 204.878 176.735 204.878 175.92C204.878 175.105 204.332 174.473 203.24 174.022C202.148 173.554 200.632 173.32 198.69 173.32ZM225.052 169.706C223.77 169.151 222.582 168.389 221.49 167.418C220.398 166.43 219.558 165.381 218.968 164.272C218.5 165.399 217.694 166.525 216.55 167.652C215.424 168.779 214.141 169.706 212.702 170.434L211.324 168.848C213.231 167.929 214.782 166.707 215.978 165.182C217.174 163.639 217.772 161.984 217.772 160.216V157.304H220.06V160.19C220.06 161.871 220.641 163.423 221.802 164.844C222.981 166.248 224.446 167.314 226.196 168.042L225.052 169.706ZM229.212 163.31H223.96V161.438H229.212V156.732H231.396V173.788H229.212V163.31ZM216.628 171.968H218.838V177.636H231.916V179.508H216.628V171.968ZM246.526 165.052C244.862 165.052 243.406 164.87 242.158 164.506C240.928 164.142 239.983 163.639 239.324 162.998C238.666 162.357 238.336 161.62 238.336 160.788C238.336 159.956 238.666 159.219 239.324 158.578C239.983 157.937 240.928 157.434 242.158 157.07C243.406 156.706 244.862 156.524 246.526 156.524C248.19 156.524 249.638 156.706 250.868 157.07C252.116 157.434 253.07 157.937 253.728 158.578C254.387 159.219 254.716 159.956 254.716 160.788C254.716 161.62 254.387 162.357 253.728 162.998C253.07 163.639 252.116 164.142 250.868 164.506C249.638 164.87 248.19 165.052 246.526 165.052ZM246.526 158.318C244.724 158.318 243.268 158.535 242.158 158.968C241.066 159.401 240.52 160.008 240.52 160.788C240.52 161.568 241.066 162.175 242.158 162.608C243.268 163.041 244.724 163.258 246.526 163.258C248.329 163.258 249.776 163.041 250.868 162.608C251.978 162.175 252.532 161.568 252.532 160.788C252.532 160.008 251.978 159.401 250.868 158.968C249.776 158.535 248.329 158.318 246.526 158.318ZM235.71 166.56H257.342V168.354H235.71V166.56ZM238.726 174.048H252.142V172.15H238.726V170.356H254.326V175.79H240.91V177.818H254.846V179.638H238.726V174.048ZM281.424 170.746C279.309 171.127 276.31 171.318 272.428 171.318H265.98V169.524H272.298V167.86C270.946 167.721 269.862 167.331 269.048 166.69C268.25 166.049 267.852 165.277 267.852 164.376C267.852 163.717 268.077 163.119 268.528 162.582C268.978 162.045 269.62 161.62 270.452 161.308C271.301 160.996 272.272 160.84 273.364 160.84C274.456 160.84 275.418 160.996 276.25 161.308C277.099 161.62 277.749 162.045 278.2 162.582C278.65 163.119 278.876 163.717 278.876 164.376C278.876 165.26 278.477 166.023 277.68 166.664C276.9 167.305 275.851 167.704 274.534 167.86V169.524C277.532 169.455 279.829 169.281 281.424 169.004V170.746ZM282.464 156.732H284.648V163.102H288.028V165.026H284.648V172.046H282.464V156.732ZM282.412 174.906H269.256V173.086H284.596V180.028H282.412V174.906ZM266.708 158.214H272.272V156.238H274.456V158.214H279.916V160.008H266.708V158.214ZM273.364 162.582C272.306 162.582 271.483 162.738 270.894 163.05C270.322 163.362 270.036 163.804 270.036 164.376C270.036 164.948 270.322 165.39 270.894 165.702C271.483 166.014 272.306 166.17 273.364 166.17C274.421 166.17 275.236 166.014 275.808 165.702C276.397 165.39 276.692 164.948 276.692 164.376C276.692 163.804 276.397 163.362 275.808 163.05C275.236 162.738 274.421 162.582 273.364 162.582ZM307.162 156.732H309.346V173.528H307.162V156.732ZM294.578 171.708H296.788V177.636H309.866V179.508H294.578V171.708ZM296.814 169.368C295.618 169.368 294.552 169.099 293.616 168.562C292.68 168.007 291.952 167.271 291.432 166.352C290.912 165.416 290.652 164.402 290.652 163.31C290.652 162.218 290.912 161.213 291.432 160.294C291.952 159.358 292.68 158.621 293.616 158.084C294.552 157.529 295.618 157.252 296.814 157.252C298.01 157.252 299.076 157.529 300.012 158.084C300.948 158.621 301.676 159.358 302.196 160.294C302.716 161.213 302.976 162.218 302.976 163.31C302.976 164.402 302.716 165.416 302.196 166.352C301.676 167.271 300.948 168.007 300.012 168.562C299.076 169.099 298.01 169.368 296.814 169.368ZM296.814 159.124C295.999 159.124 295.288 159.315 294.682 159.696C294.092 160.06 293.633 160.563 293.304 161.204C292.992 161.845 292.836 162.547 292.836 163.31C292.836 164.073 292.992 164.775 293.304 165.416C293.633 166.057 294.092 166.569 294.682 166.95C295.288 167.314 295.999 167.496 296.814 167.496C297.628 167.496 298.33 167.314 298.92 166.95C299.526 166.569 299.986 166.057 300.298 165.416C300.627 164.775 300.792 164.073 300.792 163.31C300.792 162.547 300.627 161.845 300.298 161.204C299.986 160.563 299.526 160.06 298.92 159.696C298.33 159.315 297.628 159.124 296.814 159.124ZM331.73 168.146H328.844V178.806H326.712V157.122H328.844V166.118H331.73V156.732H333.888V179.898H331.73V168.146ZM319.718 175.374C318.747 175.374 317.88 175.131 317.118 174.646C316.355 174.143 315.757 173.459 315.324 172.592C314.908 171.725 314.7 170.755 314.7 169.68C314.7 168.605 314.908 167.635 315.324 166.768C315.757 165.901 316.355 165.225 317.118 164.74C317.88 164.237 318.747 163.986 319.718 163.986C320.688 163.986 321.555 164.237 322.318 164.74C323.08 165.225 323.67 165.901 324.086 166.768C324.519 167.635 324.736 168.605 324.736 169.68C324.736 170.755 324.519 171.725 324.086 172.592C323.67 173.459 323.08 174.143 322.318 174.646C321.555 175.131 320.688 175.374 319.718 175.374ZM319.718 165.806C318.764 165.806 318.036 166.161 317.534 166.872C317.031 167.565 316.78 168.501 316.78 169.68C316.78 170.859 317.031 171.803 317.534 172.514C318.036 173.207 318.764 173.554 319.718 173.554C320.671 173.554 321.399 173.207 321.902 172.514C322.404 171.803 322.656 170.859 322.656 169.68C322.656 168.501 322.404 167.565 321.902 166.872C321.399 166.161 320.671 165.806 319.718 165.806ZM313.998 160.814H318.626V157.746H320.758V160.814H325.386V162.686H313.998V160.814ZM362.337 170.564H355.707V175.504H365.405V177.376H343.773V175.504H353.471V170.564H346.841V158.292H349.025V162.374H360.153V158.292H362.337V170.564ZM360.153 164.22H349.025V168.692H360.153V164.22ZM378.585 174.698C377.458 173.831 376.47 172.826 375.621 171.682C374.789 170.538 374.139 169.325 373.671 168.042C373.272 169.359 372.614 170.677 371.695 171.994C370.776 173.311 369.676 174.455 368.393 175.426L366.859 173.996C367.916 173.268 368.87 172.323 369.719 171.162C370.586 169.983 371.262 168.675 371.747 167.236C372.25 165.797 372.501 164.333 372.501 162.842V158.578H374.737V162.842C374.737 164.991 375.231 166.993 376.219 168.848C377.207 170.685 378.42 172.124 379.859 173.164L378.585 174.698ZM381.393 178.806V166.248H377.597V164.324H381.393V157.122H383.525V178.806H381.393ZM387.919 156.732V179.898H385.761V156.732H387.919ZM402.451 170.2C400.891 170.2 399.487 169.923 398.239 169.368C396.991 168.813 396.012 168.059 395.301 167.106C394.608 166.153 394.261 165.095 394.261 163.934C394.261 162.773 394.608 161.715 395.301 160.762C396.012 159.809 396.991 159.055 398.239 158.5C399.487 157.945 400.891 157.668 402.451 157.668C404.011 157.668 405.415 157.945 406.663 158.5C407.911 159.055 408.882 159.809 409.575 160.762C410.286 161.715 410.641 162.773 410.641 163.934C410.641 165.095 410.286 166.153 409.575 167.106C408.882 168.059 407.911 168.813 406.663 169.368C405.415 169.923 404.011 170.2 402.451 170.2ZM402.451 159.54C401.29 159.54 400.25 159.731 399.331 160.112C398.43 160.493 397.719 161.022 397.199 161.698C396.696 162.357 396.445 163.102 396.445 163.934C396.445 164.766 396.696 165.52 397.199 166.196C397.719 166.855 398.43 167.375 399.331 167.756C400.25 168.137 401.29 168.328 402.451 168.328C403.612 168.328 404.644 168.137 405.545 167.756C406.464 167.375 407.174 166.855 407.677 166.196C408.197 165.52 408.457 164.766 408.457 163.934C408.457 163.102 408.197 162.357 407.677 161.698C407.174 161.022 406.464 160.493 405.545 160.112C404.644 159.731 403.612 159.54 402.451 159.54ZM396.705 170.954H398.837V175.504H406.013V170.954H408.145V175.504H413.241V177.376H391.609V175.504H396.705V170.954ZM418.205 178.026C417.702 178.026 417.277 177.853 416.931 177.506C416.584 177.159 416.411 176.735 416.411 176.232C416.411 175.729 416.584 175.305 416.931 174.958C417.277 174.611 417.702 174.438 418.205 174.438C418.707 174.438 419.132 174.611 419.479 174.958C419.843 175.305 420.025 175.729 420.025 176.232C420.025 176.735 419.843 177.159 419.479 177.506C419.132 177.853 418.707 178.026 418.205 178.026ZM19.6728 205.106H16.5268V216.806H14.3948V195.122H16.5268V203.078H19.6728V194.732H21.8308V217.898H19.6728V205.106ZM5.60675 198.97V210.644H6.41275C9.34208 210.644 11.6128 210.505 13.2248 210.228V212.1C11.4394 212.395 9.16875 212.542 6.41275 212.542H3.52675V197.098H11.7168V198.97H5.60675ZM37.7147 209.5C39.2227 209.587 40.5227 209.829 41.6147 210.228C42.7067 210.627 43.5387 211.147 44.1107 211.788C44.6827 212.412 44.9687 213.123 44.9687 213.92C44.9687 214.769 44.6307 215.532 43.9547 216.208C43.2961 216.884 42.3341 217.413 41.0687 217.794C39.8207 218.175 38.3301 218.366 36.5967 218.366C34.8634 218.366 33.3641 218.175 32.0987 217.794C30.8507 217.413 29.8887 216.884 29.2127 216.208C28.5541 215.532 28.2247 214.769 28.2247 213.92C28.2247 213.123 28.5107 212.412 29.0827 211.788C29.6547 211.147 30.4867 210.627 31.5787 210.228C32.6707 209.829 33.9707 209.587 35.4787 209.5V207.108H25.7807V205.262H47.4127V207.108H37.7147V209.5ZM37.8447 197.254C38.0181 197.913 38.4947 198.571 39.2747 199.23C40.0721 199.889 41.0687 200.469 42.2647 200.972C43.4607 201.457 44.7261 201.804 46.0607 202.012L44.9427 203.702C43.2441 203.477 41.6234 202.974 40.0807 202.194C38.5554 201.397 37.3941 200.452 36.5967 199.36C35.7994 200.452 34.6294 201.397 33.0867 202.194C31.5614 202.974 29.9494 203.477 28.2507 203.702L27.1327 202.012C28.4674 201.804 29.7327 201.457 30.9287 200.972C32.1247 200.469 33.1127 199.889 33.8927 199.23C34.6727 198.571 35.1494 197.913 35.3227 197.254H28.5887V195.408H44.6047V197.254H37.8447ZM36.5967 211.32C34.6554 211.32 33.1387 211.554 32.0467 212.022C30.9547 212.473 30.4087 213.105 30.4087 213.92C30.4087 214.735 30.9547 215.376 32.0467 215.844C33.1387 216.295 34.6554 216.52 36.5967 216.52C38.5381 216.52 40.0547 216.295 41.1467 215.844C42.2387 215.376 42.7847 214.735 42.7847 213.92C42.7847 213.105 42.2387 212.473 41.1467 212.022C40.0547 211.554 38.5381 211.32 36.5967 211.32ZM65.0907 210.176C65.4894 208.443 65.7927 206.536 66.0007 204.456C66.226 202.376 66.356 200.4 66.3907 198.528H52.2987V196.656H68.6267C68.6267 198.996 68.5054 201.371 68.2627 203.78C68.02 206.172 67.6734 208.304 67.2227 210.176H65.0907ZM55.1847 205.028H57.3687V213.504H60.9047V205.028H63.0887V213.504H71.3307V215.376H49.6987V213.504H55.1847V205.028ZM73.6167 206.718H83.4447V204.508H76.6327V195.252H92.2327V197.072H78.8167V198.944H92.1027V200.712H78.8167V202.662H92.4927V204.508H85.6807V206.718H95.2487V208.538H73.6167V206.718ZM84.4327 218.366C82.6993 218.366 81.2 218.184 79.9347 217.82C78.6867 217.473 77.7247 216.988 77.0487 216.364C76.39 215.74 76.0607 215.029 76.0607 214.232C76.0607 213.435 76.39 212.724 77.0487 212.1C77.7247 211.476 78.6867 210.991 79.9347 210.644C81.2 210.28 82.6993 210.098 84.4327 210.098C86.166 210.098 87.6567 210.28 88.9047 210.644C90.17 210.991 91.132 211.476 91.7907 212.1C92.4667 212.724 92.8047 213.435 92.8047 214.232C92.8047 215.029 92.4667 215.74 91.7907 216.364C91.132 216.988 90.17 217.473 88.9047 217.82C87.6567 218.184 86.166 218.366 84.4327 218.366ZM84.4327 211.918C82.4913 211.918 80.9747 212.126 79.8827 212.542C78.7907 212.958 78.2447 213.521 78.2447 214.232C78.2447 214.943 78.7907 215.506 79.8827 215.922C80.9747 216.338 82.4913 216.546 84.4327 216.546C86.374 216.546 87.8907 216.338 88.9827 215.922C90.0747 215.506 90.6207 214.943 90.6207 214.232C90.6207 213.521 90.0747 212.958 88.9827 212.542C87.8907 212.126 86.374 211.918 84.4327 211.918ZM120.89 194.732H123.074V217.898H120.89V194.732ZM110.646 213.53C109.519 213.53 108.514 213.201 107.63 212.542C106.746 211.883 106.044 210.904 105.524 209.604C105.021 208.287 104.77 206.709 104.77 204.872C104.77 203.035 105.021 201.466 105.524 200.166C106.044 198.849 106.746 197.861 107.63 197.202C108.514 196.543 109.519 196.214 110.646 196.214C111.773 196.214 112.778 196.543 113.662 197.202C114.546 197.861 115.239 198.849 115.742 200.166C116.262 201.466 116.522 203.035 116.522 204.872C116.522 206.709 116.262 208.287 115.742 209.604C115.239 210.904 114.546 211.883 113.662 212.542C112.778 213.201 111.773 213.53 110.646 213.53ZM110.646 198.086C109.537 198.086 108.635 198.667 107.942 199.828C107.249 200.972 106.902 202.653 106.902 204.872C106.902 207.073 107.249 208.755 107.942 209.916C108.635 211.077 109.537 211.658 110.646 211.658C111.755 211.658 112.657 211.077 113.35 209.916C114.043 208.755 114.39 207.073 114.39 204.872C114.39 202.653 114.043 200.972 113.35 199.828C112.657 198.667 111.755 198.086 110.646 198.086ZM138.464 218.366C136.731 218.366 135.231 218.175 133.966 217.794C132.718 217.413 131.756 216.884 131.08 216.208C130.421 215.532 130.092 214.769 130.092 213.92C130.092 213.071 130.421 212.308 131.08 211.632C131.756 210.956 132.718 210.427 133.966 210.046C135.231 209.665 136.731 209.474 138.464 209.474C140.197 209.474 141.688 209.665 142.936 210.046C144.201 210.427 145.163 210.956 145.822 211.632C146.498 212.308 146.836 213.071 146.836 213.92C146.836 214.769 146.498 215.532 145.822 216.208C145.163 216.884 144.201 217.413 142.936 217.794C141.688 218.175 140.197 218.366 138.464 218.366ZM139.712 205.86H149.28V207.706H127.648V205.86H137.476V203.052H130.664V195.408H146.264V197.254H132.848V201.206H146.524V203.052H139.712V205.86ZM138.464 211.32C136.523 211.32 135.006 211.554 133.914 212.022C132.822 212.473 132.276 213.105 132.276 213.92C132.276 214.735 132.822 215.376 133.914 215.844C135.006 216.295 136.523 216.52 138.464 216.52C140.405 216.52 141.922 216.295 143.014 215.844C144.106 215.376 144.652 214.735 144.652 213.92C144.652 213.105 144.106 212.473 143.014 212.022C141.922 211.554 140.405 211.32 138.464 211.32ZM174.921 194.732H177.105V217.898H174.921V194.732ZM171.281 212.724C169.912 211.944 168.647 210.93 167.485 209.682C166.324 208.434 165.457 207.151 164.885 205.834C164.348 207.238 163.499 208.616 162.337 209.968C161.193 211.303 159.859 212.429 158.333 213.348L156.877 211.84C158.853 210.713 160.483 209.171 161.765 207.212C163.048 205.236 163.689 203.078 163.689 200.738V196.474H165.977V200.79C165.977 203.113 166.61 205.167 167.875 206.952C169.141 208.737 170.692 210.124 172.529 211.112L171.281 212.724ZM181.757 206.874C183.577 206.354 185.198 205.626 186.619 204.69C188.058 203.737 189.21 202.653 190.077 201.44C190.961 200.227 191.507 198.979 191.715 197.696H183.343V195.824H194.211C194.124 197.973 193.535 199.923 192.443 201.674C191.351 203.407 189.964 204.855 188.283 206.016C186.619 207.177 184.86 208.018 183.005 208.538L181.757 206.874ZM198.319 194.732H200.503V200.738H203.753V202.662H200.503V211.528H198.319V194.732ZM185.995 209.708H188.205V215.636H201.283V217.508H185.995V209.708ZM208.665 196.552H224.291V198.424H210.849V205.912H224.681V207.784H217.791V213.504H227.229V215.376H205.597V213.504H215.555V207.784H208.665V196.552ZM239.922 209.318H254.482V217.638H239.922V209.318ZM248.996 207.342C247.731 206.891 246.561 206.25 245.486 205.418C244.412 204.569 243.571 203.624 242.964 202.584C242.462 203.659 241.664 204.673 240.572 205.626C239.48 206.579 238.206 207.377 236.75 208.018L235.372 206.432C237.314 205.635 238.856 204.577 240 203.26C241.162 201.925 241.751 200.521 241.768 199.048H236.698V197.228H241.82V194.524H244.004V197.228H249.126V199.048H244.056C244.074 200.521 244.654 201.856 245.798 203.052C246.942 204.231 248.39 205.106 250.14 205.678L248.996 207.342ZM252.298 215.818V211.138H242.106V215.818H252.298ZM252.35 194.732H254.534V200.218H257.784V202.142H254.534V208.174H252.35V194.732ZM270.106 213.504H281.26V215.376H259.628V213.504H267.87V204.898H270.106V213.504ZM274.89 210.176C275.341 208.46 275.679 206.571 275.904 204.508C276.147 202.428 276.286 200.435 276.32 198.528H262.228V196.656H278.556C278.556 199.013 278.426 201.397 278.166 203.806C277.906 206.215 277.525 208.339 277.022 210.176H274.89ZM287.758 212.152H300.134V210.358H287.758V208.59H302.318V213.868H289.942V215.844H302.838V217.638H287.758V212.152ZM291.164 207.082C290.02 207.082 288.998 206.917 288.096 206.588C287.195 206.241 286.493 205.773 285.99 205.184C285.488 204.595 285.236 203.945 285.236 203.234C285.236 202.523 285.488 201.873 285.99 201.284C286.493 200.695 287.195 200.235 288.096 199.906C288.998 199.559 290.02 199.386 291.164 199.386C292.308 199.386 293.331 199.559 294.232 199.906C295.134 200.235 295.836 200.695 296.338 201.284C296.841 201.873 297.092 202.523 297.092 203.234C297.092 203.945 296.841 204.595 296.338 205.184C295.836 205.773 295.134 206.241 294.232 206.588C293.331 206.917 292.308 207.082 291.164 207.082ZM302.37 194.732V200.27H305.62V202.142H302.37V207.446H300.186V194.732H302.37ZM284.118 196.63H290.046V194.42H292.23V196.63H298.158V198.424H284.118V196.63ZM291.164 201.128C290.003 201.128 289.084 201.327 288.408 201.726C287.75 202.107 287.42 202.61 287.42 203.234C287.42 203.858 287.75 204.369 288.408 204.768C289.084 205.149 290.003 205.34 291.164 205.34C292.326 205.34 293.236 205.149 293.894 204.768C294.57 204.369 294.908 203.858 294.908 203.234C294.908 202.61 294.57 202.107 293.894 201.726C293.236 201.327 292.326 201.128 291.164 201.128ZM323.384 209.864H313.66V207.992H335.292V209.864H325.568V217.898H323.384V209.864ZM325.594 195.2V196.448C325.594 197.505 325.984 198.537 326.764 199.542C327.544 200.547 328.592 201.431 329.91 202.194C331.244 202.939 332.7 203.485 334.278 203.832L333.082 205.6C331.262 205.167 329.554 204.439 327.96 203.416C326.365 202.376 325.204 201.197 324.476 199.88C323.748 201.197 322.586 202.376 320.992 203.416C319.397 204.439 317.69 205.167 315.87 205.6L314.674 203.832C316.251 203.485 317.698 202.939 319.016 202.194C320.35 201.431 321.408 200.547 322.188 199.542C322.968 198.537 323.358 197.505 323.358 196.448V195.2H325.594ZM361.193 194.732H363.377V207.914H361.193V194.732ZM355.577 217.95C354.71 217.43 353.904 216.754 353.159 215.922C352.414 215.09 351.842 214.215 351.443 213.296C351.114 214.163 350.55 215.021 349.753 215.87C348.956 216.702 348.046 217.395 347.023 217.95L345.775 216.494C347.075 215.87 348.167 214.969 349.051 213.79C349.935 212.611 350.377 211.424 350.377 210.228V209.058H352.509V210.228C352.509 210.869 352.656 211.554 352.951 212.282C353.263 213.01 353.653 213.686 354.121 214.31C354.606 214.917 355.092 215.385 355.577 215.714C356.062 215.385 356.539 214.917 357.007 214.31C357.492 213.686 357.882 213.01 358.177 212.282C358.489 211.554 358.645 210.869 358.645 210.228V209.058H360.777V210.228C360.777 211.424 361.219 212.611 362.103 213.79C362.987 214.969 364.079 215.87 365.379 216.494L364.131 217.95C363.108 217.395 362.198 216.702 361.401 215.87C360.604 215.021 360.04 214.163 359.711 213.296C359.312 214.215 358.74 215.09 357.995 215.922C357.25 216.754 356.444 217.43 355.577 217.95ZM350.845 207.004C349.649 207.004 348.583 206.744 347.647 206.224C346.711 205.687 345.983 204.967 345.463 204.066C344.943 203.165 344.683 202.185 344.683 201.128C344.683 200.071 344.943 199.091 345.463 198.19C345.983 197.289 346.711 196.578 347.647 196.058C348.583 195.521 349.649 195.252 350.845 195.252C352.041 195.252 353.107 195.521 354.043 196.058C354.979 196.578 355.707 197.289 356.227 198.19C356.747 199.091 357.007 200.071 357.007 201.128C357.007 202.185 356.747 203.165 356.227 204.066C355.707 204.967 354.979 205.687 354.043 206.224C353.107 206.744 352.041 207.004 350.845 207.004ZM350.845 197.124C349.632 197.124 348.661 197.514 347.933 198.294C347.222 199.057 346.867 200.001 346.867 201.128C346.867 201.856 347.023 202.523 347.335 203.13C347.664 203.737 348.124 204.222 348.713 204.586C349.32 204.95 350.03 205.132 350.845 205.132C351.66 205.132 352.362 204.95 352.951 204.586C353.558 204.222 354.017 203.737 354.329 203.13C354.658 202.523 354.823 201.856 354.823 201.128C354.823 200.001 354.459 199.057 353.731 198.294C353.02 197.514 352.058 197.124 350.845 197.124ZM384.851 205.418H380.223C380.171 207.151 379.885 208.625 379.365 209.838C378.862 211.051 378.186 211.97 377.337 212.594C376.488 213.218 375.534 213.53 374.477 213.53C373.385 213.53 372.406 213.201 371.539 212.542C370.672 211.883 369.988 210.904 369.485 209.604C368.982 208.287 368.731 206.709 368.731 204.872C368.731 203.035 368.982 201.466 369.485 200.166C369.988 198.849 370.672 197.861 371.539 197.202C372.406 196.543 373.385 196.214 374.477 196.214C375.465 196.214 376.366 196.491 377.181 197.046C377.996 197.601 378.663 198.424 379.183 199.516C379.72 200.608 380.05 201.934 380.171 203.494H384.851V194.732H387.035V217.898H384.851V205.418ZM374.477 198.086C373.402 198.086 372.527 198.667 371.851 199.828C371.192 200.989 370.863 202.671 370.863 204.872C370.863 207.073 371.192 208.755 371.851 209.916C372.527 211.077 373.402 211.658 374.477 211.658C375.552 211.658 376.418 211.077 377.077 209.916C377.753 208.755 378.091 207.073 378.091 204.872C378.091 202.671 377.753 200.989 377.077 199.828C376.418 198.667 375.552 198.086 374.477 198.086ZM402.451 208.2C400.891 208.2 399.487 207.923 398.239 207.368C396.991 206.813 396.012 206.059 395.301 205.106C394.608 204.153 394.261 203.095 394.261 201.934C394.261 200.773 394.608 199.715 395.301 198.762C396.012 197.809 396.991 197.055 398.239 196.5C399.487 195.945 400.891 195.668 402.451 195.668C404.011 195.668 405.415 195.945 406.663 196.5C407.911 197.055 408.882 197.809 409.575 198.762C410.286 199.715 410.641 200.773 410.641 201.934C410.641 203.095 410.286 204.153 409.575 205.106C408.882 206.059 407.911 206.813 406.663 207.368C405.415 207.923 404.011 208.2 402.451 208.2ZM402.451 197.54C401.29 197.54 400.25 197.731 399.331 198.112C398.43 198.493 397.719 199.022 397.199 199.698C396.696 200.357 396.445 201.102 396.445 201.934C396.445 202.766 396.696 203.52 397.199 204.196C397.719 204.855 398.43 205.375 399.331 205.756C400.25 206.137 401.29 206.328 402.451 206.328C403.612 206.328 404.644 206.137 405.545 205.756C406.464 205.375 407.174 204.855 407.677 204.196C408.197 203.52 408.457 202.766 408.457 201.934C408.457 201.102 408.197 200.357 407.677 199.698C407.174 199.022 406.464 198.493 405.545 198.112C404.644 197.731 403.612 197.54 402.451 197.54ZM396.705 208.954H398.837V213.504H406.013V208.954H408.145V213.504H413.241V215.376H391.609V213.504H396.705V208.954ZM418.205 216.026C417.702 216.026 417.277 215.853 416.931 215.506C416.584 215.159 416.411 214.735 416.411 214.232C416.411 213.729 416.584 213.305 416.931 212.958C417.277 212.611 417.702 212.438 418.205 212.438C418.707 212.438 419.132 212.611 419.479 212.958C419.843 213.305 420.025 213.729 420.025 214.232C420.025 214.735 419.843 215.159 419.479 215.506C419.132 215.853 418.707 216.026 418.205 216.026Z" fill="#818181"/>
</svg>
