<svg width="318" height="100" viewBox="0 0 318 100" fill="none" xmlns="http://www.w3.org/2000/svg">
<path d="M16.172 4.97H9.75V21.74H7.228V4.97H0.806V2.786H16.172V4.97ZM19.3783 7.57H21.7963V10.482C22.039 9.442 22.507 8.636 23.2003 8.064C23.8937 7.492 24.717 7.206 25.6703 7.206H25.6963C26.4417 7.206 27.1177 7.39667 27.7243 7.778C28.3483 8.142 28.8423 8.662 29.2063 9.338C29.5703 10.014 29.7523 10.8027 29.7523 11.704L29.7783 12.12H27.3863V11.834C27.369 11.0193 27.109 10.3693 26.6063 9.884C26.121 9.38133 25.497 9.13 24.7343 9.13H24.7083C23.859 9.13 23.157 9.42467 22.6023 10.014C22.065 10.6033 21.7963 11.4527 21.7963 12.562V21.74H19.3783V7.57ZM45.0336 7.57V21.74H42.6416V17.658C42.347 19.0967 41.7403 20.206 40.8216 20.986C39.9203 21.7487 38.837 22.13 37.5716 22.13H37.5456C36.523 22.13 35.5783 21.8787 34.7116 21.376C33.8623 20.856 33.1776 20.102 32.6576 19.114C32.1376 18.126 31.8776 16.9473 31.8776 15.578V13.732C31.8776 12.3627 32.1376 11.184 32.6576 10.196C33.1776 9.208 33.8623 8.46267 34.7116 7.96C35.5783 7.44 36.523 7.18 37.5456 7.18H37.5716C38.8543 7.18 39.9463 7.544 40.8476 8.272C41.749 8.98267 42.347 10.04 42.6416 11.444V7.57H45.0336ZM38.4036 20.05C39.149 20.05 39.8423 19.8593 40.4836 19.478C41.125 19.0967 41.645 18.5333 42.0436 17.788C42.4423 17.0427 42.6416 16.1413 42.6416 15.084V14.226C42.6416 13.1687 42.4423 12.2673 42.0436 11.522C41.645 10.7593 41.125 10.196 40.4836 9.832C39.8423 9.45067 39.149 9.26 38.4036 9.26H38.3776C37.1816 9.26 36.1936 9.66733 35.4136 10.482C34.651 11.2967 34.2696 12.4753 34.2696 14.018V15.266C34.2696 16.826 34.651 18.0133 35.4136 18.828C36.1936 19.6427 37.1816 20.05 38.3776 20.05H38.4036ZM61.7545 7.57L56.4765 21.74H53.2785L48.0265 7.57H50.6525L54.8905 20.128L59.1025 7.57H61.7545ZM70.4206 22.13C69.2419 22.13 68.1586 21.8787 67.1706 21.376C66.1826 20.856 65.3939 20.0933 64.8046 19.088C64.2153 18.0827 63.9206 16.878 63.9206 15.474V13.836C63.9206 12.432 64.2153 11.2273 64.8046 10.222C65.3939 9.21667 66.1826 8.46267 67.1706 7.96C68.1586 7.44 69.2419 7.18 70.4206 7.18H70.4466C71.6079 7.18 72.6826 7.44 73.6706 7.96C74.6586 8.46267 75.4473 9.21667 76.0366 10.222C76.6433 11.2273 76.9466 12.432 76.9466 13.836V15.474C76.9466 16.878 76.6433 18.0827 76.0366 19.088C75.4473 20.0933 74.6586 20.856 73.6706 21.376C72.6826 21.8787 71.6079 22.13 70.4466 22.13H70.4206ZM70.4466 20.05C71.1573 20.05 71.8246 19.8853 72.4486 19.556C73.0726 19.2093 73.5753 18.7067 73.9566 18.048C74.3379 17.3893 74.5286 16.6093 74.5286 15.708V13.602C74.5286 12.7007 74.3379 11.9207 73.9566 11.262C73.5753 10.6033 73.0726 10.1093 72.4486 9.78C71.8246 9.43333 71.1573 9.26 70.4466 9.26H70.4206C69.6926 9.26 69.0166 9.43333 68.3926 9.78C67.7686 10.1093 67.2659 10.6033 66.8846 11.262C66.5033 11.9207 66.3126 12.7007 66.3126 13.602V15.708C66.3126 16.6093 66.5033 17.3893 66.8846 18.048C67.2659 18.7067 67.7686 19.2093 68.3926 19.556C69.0166 19.8853 69.6926 20.05 70.4206 20.05H70.4466ZM96.0572 0.732H98.2412V9.728H101.751V11.704H98.2412V23.898H96.0572V0.732ZM80.0932 18.464C81.9479 17.528 83.5599 16.332 84.9292 14.876C86.2985 13.42 87.3645 11.834 88.1272 10.118C88.9072 8.38467 89.3665 6.634 89.5052 4.866H81.2892V2.994H91.7932C91.7585 5.57667 91.2905 7.97733 90.3892 10.196C89.4879 12.3973 88.2659 14.33 86.7232 15.994C85.1979 17.6407 83.4645 18.9753 81.5232 19.998L80.0932 18.464ZM121.776 4.97C121.932 5.78467 122.409 6.57333 123.206 7.336C124.004 8.08133 125.026 8.74 126.274 9.312C127.522 9.884 128.874 10.3 130.33 10.56L129.134 12.276C127.332 11.9293 125.65 11.314 124.09 10.43C122.53 9.546 121.369 8.532 120.606 7.388C119.844 8.532 118.682 9.546 117.122 10.43C115.562 11.314 113.881 11.9293 112.078 12.276L110.882 10.56C112.321 10.3 113.664 9.884 114.912 9.312C116.16 8.74 117.183 8.08133 117.98 7.336C118.795 6.57333 119.28 5.78467 119.436 4.97H112.39V3.124H119.514V0.445999H121.698V3.124H128.822V4.97H121.776ZM119.514 16.228H109.79V14.356H131.422V16.228H121.698V23.898H119.514V16.228ZM147.254 14.538C146.006 14.0527 144.836 13.3593 143.744 12.458C142.67 11.5393 141.829 10.5427 141.222 9.468C140.737 10.5947 139.931 11.678 138.804 12.718C137.695 13.7407 136.43 14.5727 135.008 15.214L133.63 13.628C135.537 12.7787 137.08 11.6433 138.258 10.222C139.437 8.80067 140.026 7.31867 140.026 5.776V5.256H134.956V3.436H140.078V0.523999H142.262V3.436H147.384V5.256H142.314V5.75C142.314 6.75533 142.583 7.726 143.12 8.662C143.658 9.598 144.386 10.43 145.304 11.158C146.24 11.886 147.272 12.458 148.398 12.874L147.254 14.538ZM151.128 9.182H146.994V7.31H151.128V0.732H153.312V18.048H151.128V9.182ZM138.544 16.228H140.754V21.636H153.832V23.508H138.544V16.228ZM165.244 15.11C164.1 15.11 163.078 14.9107 162.176 14.512C161.275 14.1133 160.573 13.576 160.07 12.9C159.568 12.2067 159.316 11.444 159.316 10.612C159.316 9.78 159.568 9.026 160.07 8.35C160.573 7.65667 161.275 7.11067 162.176 6.712C163.078 6.31333 164.1 6.114 165.244 6.114C166.388 6.114 167.411 6.31333 168.312 6.712C169.214 7.11067 169.916 7.65667 170.418 8.35C170.921 9.026 171.172 9.78 171.172 10.612C171.172 11.444 170.921 12.2067 170.418 12.9C169.916 13.576 169.214 14.1133 168.312 14.512C167.411 14.9107 166.388 15.11 165.244 15.11ZM174.266 0.732H176.45V7.518H179.7V9.442H176.45V18.308H174.266V0.732ZM161.942 16.748H164.152V21.636H177.23V23.508H161.942V16.748ZM165.244 7.882C164.083 7.882 163.164 8.13333 162.488 8.636C161.83 9.13867 161.5 9.79733 161.5 10.612C161.5 11.4267 161.83 12.0853 162.488 12.588C163.164 13.0907 164.083 13.342 165.244 13.342C166.406 13.342 167.316 13.0907 167.974 12.588C168.65 12.0853 168.988 11.4267 168.988 10.612C168.988 9.79733 168.65 9.13867 167.974 8.636C167.316 8.13333 166.406 7.882 165.244 7.882ZM158.198 3.176H164.126V0.523999H166.31V3.176H172.238V4.996H158.198V3.176ZM199.18 24.366C197.602 24.366 196.224 24.158 195.046 23.742C193.867 23.326 192.957 22.7627 192.316 22.052C191.692 21.3413 191.38 20.5353 191.38 19.634C191.38 18.7327 191.692 17.9267 192.316 17.216C192.957 16.5053 193.867 15.942 195.046 15.526C196.224 15.11 197.602 14.902 199.18 14.902C200.757 14.902 202.135 15.11 203.314 15.526C204.492 15.942 205.394 16.5053 206.018 17.216C206.659 17.9267 206.98 18.7327 206.98 19.634C206.98 20.5353 206.659 21.3413 206.018 22.052C205.394 22.7627 204.492 23.326 203.314 23.742C202.135 24.158 200.757 24.366 199.18 24.366ZM201 13.03C199.734 12.5447 198.547 11.8513 197.438 10.95C196.346 10.0487 195.505 9.06933 194.916 8.012C194.413 9.08667 193.598 10.144 192.472 11.184C191.362 12.224 190.088 13.082 188.65 13.758L187.272 12.172C189.161 11.3227 190.704 10.1873 191.9 8.766C193.113 7.32733 193.72 5.776 193.72 4.112V3.67H188.728V1.824H201V3.67H196.008V4.086C196.008 5.698 196.597 7.154 197.776 8.454C198.954 9.73667 200.41 10.7073 202.144 11.366L201 13.03ZM199.18 16.774C197.412 16.774 196.034 17.034 195.046 17.554C194.058 18.0567 193.564 18.75 193.564 19.634C193.564 20.518 194.058 21.22 195.046 21.74C196.034 22.2427 197.412 22.494 199.18 22.494C200.948 22.494 202.326 22.2427 203.314 21.74C204.302 21.22 204.796 20.518 204.796 19.634C204.796 18.75 204.302 18.0567 203.314 17.554C202.326 17.034 200.948 16.774 199.18 16.774ZM204.38 0.732H206.564V5.958H209.814V7.882H206.564V14.512H204.38V0.732ZM223.592 19.504H233.29V21.376H211.658V19.504H221.356V14.07H223.592V19.504ZM222.474 7.856C221.711 9.312 220.567 10.6207 219.042 11.782C217.516 12.926 215.826 13.8013 213.972 14.408L212.724 12.692C214.266 12.224 215.696 11.5393 217.014 10.638C218.331 9.73667 219.38 8.70533 220.16 7.544C220.957 6.38267 221.356 5.18667 221.356 3.956V2.032H223.592V3.956C223.592 5.18667 223.982 6.38267 224.762 7.544C225.559 8.70533 226.616 9.73667 227.934 10.638C229.251 11.5393 230.681 12.224 232.224 12.692L230.976 14.408C229.121 13.8013 227.431 12.926 225.906 11.782C224.38 10.6207 223.236 9.312 222.474 7.856ZM251.956 0.732H254.14V9.728H257.65V11.704H254.14V23.898H251.956V0.732ZM235.992 18.464C237.846 17.528 239.458 16.332 240.828 14.876C242.197 13.42 243.263 11.834 244.026 10.118C244.806 8.38467 245.265 6.634 245.404 4.866H237.188V2.994H247.692C247.657 5.57667 247.189 7.97733 246.288 10.196C245.386 12.3973 244.164 14.33 242.622 15.994C241.096 17.6407 239.363 18.9753 237.422 19.998L235.992 18.464ZM17.524 38.732H19.708V47.468H23.218V49.444H19.708V61.898H17.524V38.732ZM4.732 42.866V54.618H11.076V42.866H4.732ZM2.548 40.994H13.26V56.49H2.548V40.994ZM25.062 49.392H46.694V51.238H25.062V49.392ZM28.078 53.682H43.678V61.638H28.078V53.682ZM41.494 59.792V55.528H30.262V59.792H41.494ZM27.688 43.1C27.688 42.216 28.0173 41.4273 28.676 40.734C29.3346 40.0407 30.2793 39.5033 31.51 39.122C32.758 38.7233 34.214 38.524 35.878 38.524C37.542 38.524 38.9893 38.7233 40.22 39.122C41.468 39.5033 42.4213 40.0407 43.08 40.734C43.7386 41.4273 44.068 42.216 44.068 43.1C44.068 43.984 43.7386 44.7727 43.08 45.466C42.4213 46.1593 41.468 46.7053 40.22 47.104C38.9893 47.4853 37.542 47.676 35.878 47.676C34.214 47.676 32.758 47.4853 31.51 47.104C30.2793 46.7053 29.3346 46.1593 28.676 45.466C28.0173 44.7727 27.688 43.984 27.688 43.1ZM41.884 43.1C41.884 42.2333 41.338 41.566 40.246 41.098C39.154 40.6127 37.698 40.37 35.878 40.37C34.058 40.37 32.602 40.6127 31.51 41.098C30.418 41.566 29.872 42.2333 29.872 43.1C29.872 43.9667 30.418 44.6427 31.51 45.128C32.602 45.596 34.058 45.83 35.878 45.83C37.698 45.83 39.154 45.596 40.246 45.128C41.338 44.6427 41.884 43.9667 41.884 43.1ZM62.4219 60.806V49.496H59.6399C59.5879 51.1427 59.3453 52.5727 58.9119 53.786C58.4959 54.982 57.9239 55.9007 57.1959 56.542C56.4679 57.1833 55.6359 57.504 54.6999 57.504C53.7293 57.504 52.8713 57.166 52.1259 56.49C51.3806 55.7967 50.7999 54.8 50.3839 53.5C49.9679 52.2 49.7599 50.6747 49.7599 48.924C49.7599 47.1733 49.9679 45.648 50.3839 44.348C50.7999 43.048 51.3806 42.06 52.1259 41.384C52.8713 40.6907 53.7293 40.344 54.6999 40.344C56.0519 40.344 57.1613 40.9853 58.0279 42.268C58.9119 43.5507 59.4319 45.3187 59.5879 47.572H62.4219V39.122H64.5539V60.806H62.4219ZM54.6999 42.216C53.7639 42.216 53.0533 42.814 52.5679 44.01C52.0826 45.1887 51.8399 46.8267 51.8399 48.924C51.8399 51.0213 52.0826 52.668 52.5679 53.864C53.0533 55.0427 53.7639 55.632 54.6999 55.632C55.6359 55.632 56.3466 55.0427 56.8319 53.864C57.3173 52.668 57.5599 51.0213 57.5599 48.924C57.5599 46.8267 57.3173 45.1887 56.8319 44.01C56.3466 42.814 55.6359 42.216 54.6999 42.216ZM69.0779 38.732V61.898H66.9199V38.732H69.0779ZM82.1092 56.048H95.5252V54.15H82.1092V52.356H97.7092V57.79H84.2932V59.818H98.2292V61.638H82.1092V56.048ZM79.0932 48.456H100.725V50.25H79.0932V48.456ZM82.1092 39.408H97.7092V41.202H84.2932V44.686H97.9692V46.48H82.1092V39.408ZM116.791 56.88C115.422 56.1347 114.157 55.138 112.995 53.89C111.834 52.642 110.967 51.3593 110.395 50.042C109.841 51.4633 109 52.824 107.873 54.124C106.747 55.424 105.412 56.5507 103.869 57.504L102.387 55.97C104.363 54.8087 105.993 53.2573 107.275 51.316C108.558 49.3747 109.199 47.234 109.199 44.894V42.866H104.155V40.994H116.531V42.866H111.487V44.946C111.487 47.2513 112.111 49.3053 113.359 51.108C114.625 52.9107 116.185 54.2973 118.039 55.268L116.791 56.88ZM120.171 38.732H122.355V61.898H120.171V38.732ZM139.884 50.276C138.723 50.276 137.683 50.0247 136.764 49.522C135.863 49.0193 135.152 48.3433 134.632 47.494C134.13 46.6447 133.878 45.7173 133.878 44.712C133.878 43.7067 134.13 42.7793 134.632 41.93C135.152 41.0807 135.863 40.4047 136.764 39.902C137.683 39.3993 138.723 39.148 139.884 39.148C141.046 39.148 142.077 39.3993 142.978 39.902C143.897 40.4047 144.608 41.0807 145.11 41.93C145.63 42.7793 145.89 43.7067 145.89 44.712C145.89 45.7173 145.63 46.6447 145.11 47.494C144.608 48.3433 143.897 49.0193 142.978 49.522C142.077 50.0247 141.046 50.276 139.884 50.276ZM139.884 40.968C138.723 40.968 137.796 41.332 137.102 42.06C136.409 42.7707 136.062 43.6547 136.062 44.712C136.062 45.7693 136.409 46.662 137.102 47.39C137.796 48.1007 138.723 48.456 139.884 48.456C141.046 48.456 141.973 48.1007 142.666 47.39C143.36 46.662 143.706 45.7693 143.706 44.712C143.706 43.6547 143.36 42.7707 142.666 42.06C141.973 41.332 141.046 40.968 139.884 40.968ZM148.334 62.366C147.485 62.366 146.722 62.2187 146.046 61.924C145.388 61.6467 144.868 61.2653 144.486 60.78C144.122 60.312 143.94 59.792 143.94 59.22C143.94 58.648 144.122 58.128 144.486 57.66C144.868 57.1747 145.388 56.7933 146.046 56.516C146.722 56.2213 147.485 56.074 148.334 56.074C149.184 56.074 149.938 56.2213 150.596 56.516C151.272 56.7933 151.792 57.1747 152.156 57.66C152.538 58.128 152.728 58.648 152.728 59.22C152.728 59.792 152.538 60.312 152.156 60.78C151.792 61.2653 151.272 61.6467 150.596 61.924C149.938 62.2187 149.184 62.366 148.334 62.366ZM149.764 38.732H151.948V43.334H155.198V45.232H151.948V50.432H149.764V38.732ZM143.342 61.248C142.753 61.3693 142.06 61.4647 141.262 61.534C140.482 61.6033 139.746 61.638 139.052 61.638H136.374V52.07H138.506V59.792H139.052C140.82 59.792 142.25 59.6793 143.342 59.454V61.248ZM149.322 53.526H153.248V55.242H143.264V53.526H147.19V51.394H149.322V53.526ZM148.334 57.686C147.572 57.686 146.982 57.8333 146.566 58.128C146.168 58.4227 145.968 58.7867 145.968 59.22C145.968 59.6533 146.168 60.0173 146.566 60.312C146.982 60.6067 147.572 60.754 148.334 60.754C149.097 60.754 149.678 60.6067 150.076 60.312C150.492 60.0173 150.7 59.6533 150.7 59.22C150.7 58.7867 150.492 58.4227 150.076 58.128C149.678 57.8333 149.097 57.686 148.334 57.686ZM173.422 38.732H175.606V46.948H179.116V48.924H175.606V61.898H173.422V38.732ZM160.734 42.866V54.592H162.19C166.125 54.592 169.436 54.332 172.122 53.812V55.658C170.822 55.9527 169.288 56.1693 167.52 56.308C165.77 56.4293 163.993 56.49 162.19 56.49H158.55V40.994H169.392V42.866H160.734ZM182.624 39.824H193.388V42.034H198.38V38.732H200.564V55.528H198.38V48.82H193.388V51.16H182.624V39.824ZM184.808 41.696V49.288H191.204V41.696H184.808ZM185.796 53.708H188.006V59.636H201.084V61.508H185.796V53.708ZM198.38 46.974V43.88H193.388V46.974H198.38ZM17.524 76.732H19.708V84.948H23.218V86.924H19.708V99.898H17.524V76.732ZM4.836 80.866V92.592H6.292C10.2267 92.592 13.5373 92.332 16.224 91.812V93.658C14.924 93.9527 13.39 94.1693 11.622 94.308C9.87133 94.4293 8.09467 94.49 6.292 94.49H2.652V78.994H13.494V80.866H4.836ZM42.222 76.732H44.406V99.898H42.222V76.732ZM38.582 94.724C37.2126 93.944 35.9473 92.93 34.786 91.682C33.6246 90.434 32.758 89.1513 32.186 87.834C31.6486 89.238 30.7993 90.616 29.638 91.968C28.494 93.3027 27.1593 94.4293 25.634 95.348L24.178 93.84C26.154 92.7133 27.7833 91.1707 29.066 89.212C30.3486 87.236 30.99 85.078 30.99 82.738V78.474H33.278V82.79C33.278 85.1127 33.9106 87.1667 35.176 88.952C36.4413 90.7373 37.9926 92.124 39.83 93.112L38.582 94.724ZM67.1612 80.97C67.3172 81.7847 67.7939 82.5733 68.5913 83.336C69.3886 84.0813 70.4113 84.74 71.6593 85.312C72.9073 85.884 74.2593 86.3 75.7153 86.56L74.5193 88.276C72.7166 87.9293 71.0353 87.314 69.4753 86.43C67.9153 85.546 66.7539 84.532 65.9913 83.388C65.2286 84.532 64.0673 85.546 62.5073 86.43C60.9473 87.314 59.2659 87.9293 57.4632 88.276L56.2673 86.56C57.7059 86.3 59.0493 85.884 60.2973 85.312C61.5453 84.74 62.5679 84.0813 63.3653 83.336C64.1799 82.5733 64.6653 81.7847 64.8213 80.97H57.7753V79.124H64.8993V76.446H67.0833V79.124H74.2073V80.97H67.1612ZM64.8993 92.228H55.1753V90.356H76.8073V92.228H67.0833V99.898H64.8993V92.228ZM92.6392 90.538C91.3912 90.0527 90.2212 89.3593 89.1292 88.458C88.0546 87.5393 87.2139 86.5427 86.6072 85.468C86.1219 86.5947 85.3159 87.678 84.1892 88.718C83.0799 89.7407 81.8146 90.5727 80.3932 91.214L79.0152 89.628C80.9219 88.7787 82.4646 87.6433 83.6432 86.222C84.8219 84.8007 85.4112 83.3187 85.4112 81.776V81.256H80.3412V79.436H85.4632V76.524H87.6472V79.436H92.7692V81.256H87.6992V81.75C87.6992 82.7553 87.9679 83.726 88.5052 84.662C89.0426 85.598 89.7706 86.43 90.6892 87.158C91.6252 87.886 92.6566 88.458 93.7832 88.874L92.6392 90.538ZM96.5132 85.182H92.3792V83.31H96.5132V76.732H98.6972V94.048H96.5132V85.182ZM83.9292 92.228H86.1392V97.636H99.2172V99.508H83.9292V92.228ZM121.081 88.146H118.195V98.806H116.063V77.122H118.195V86.118H121.081V76.732H123.239V99.898H121.081V88.146ZM109.069 95.374C108.099 95.374 107.232 95.1313 106.469 94.646C105.707 94.1433 105.109 93.4587 104.675 92.592C104.259 91.7253 104.051 90.7547 104.051 89.68C104.051 88.6053 104.259 87.6347 104.675 86.768C105.109 85.9013 105.707 85.2253 106.469 84.74C107.232 84.2373 108.099 83.986 109.069 83.986C110.04 83.986 110.907 84.2373 111.669 84.74C112.432 85.2253 113.021 85.9013 113.437 86.768C113.871 87.6347 114.087 88.6053 114.087 89.68C114.087 90.7547 113.871 91.7253 113.437 92.592C113.021 93.4587 112.432 94.1433 111.669 94.646C110.907 95.1313 110.04 95.374 109.069 95.374ZM109.069 85.806C108.116 85.806 107.388 86.1613 106.885 86.872C106.383 87.5653 106.131 88.5013 106.131 89.68C106.131 90.8587 106.383 91.8033 106.885 92.514C107.388 93.2073 108.116 93.554 109.069 93.554C110.023 93.554 110.751 93.2073 111.253 92.514C111.756 91.8033 112.007 90.8587 112.007 89.68C112.007 88.5013 111.756 87.5653 111.253 86.872C110.751 86.1613 110.023 85.806 109.069 85.806ZM103.349 80.814H107.977V77.746H110.109V80.814H114.737V82.686H103.349V80.814ZM137.336 93.632H149.712V91.37H137.336V89.55H151.896V95.4H139.52V97.792H152.416V99.638H137.336V93.632ZM151.948 76.732V81.23H155.198V83.102H151.948V88.406H149.764V76.732H151.948ZM145.604 77.824V79.644H136.816V85.286H138.844C142.779 85.286 145.986 85.078 148.464 84.662V86.456C146.194 86.9067 142.987 87.132 138.844 87.132H134.632V77.824H145.604ZM173.422 76.732H175.606V85.598H179.116V87.574H175.606V99.898H173.422V76.732ZM172.122 93.918C170.822 94.2127 169.288 94.4293 167.52 94.568C165.77 94.6893 163.993 94.75 162.19 94.75H158.446V85.598H166.714V80.58H158.446V78.734H168.898V87.418H160.63V92.878H162.19C166.125 92.878 169.436 92.618 172.122 92.098V93.918ZM191.438 95.504H202.592V97.376H180.96V95.504H189.202V86.898H191.438V95.504ZM196.222 92.176C196.673 90.46 197.011 88.5707 197.236 86.508C197.479 84.428 197.618 82.4347 197.652 80.528H183.56V78.656H199.888C199.888 81.0133 199.758 83.3967 199.498 85.806C199.238 88.2153 198.857 90.3387 198.354 92.176H196.222ZM229.144 88.146H226.258V98.806H224.126V77.122H226.258V86.118H229.144V76.732H231.302V99.898H229.144V88.146ZM217.132 95.374C216.161 95.374 215.294 95.1313 214.532 94.646C213.769 94.1433 213.171 93.4587 212.738 92.592C212.322 91.7253 212.114 90.7547 212.114 89.68C212.114 88.6053 212.322 87.6347 212.738 86.768C213.171 85.9013 213.769 85.2253 214.532 84.74C215.294 84.2373 216.161 83.986 217.132 83.986C218.102 83.986 218.969 84.2373 219.732 84.74C220.494 85.2253 221.084 85.9013 221.5 86.768C221.933 87.6347 222.15 88.6053 222.15 89.68C222.15 90.7547 221.933 91.7253 221.5 92.592C221.084 93.4587 220.494 94.1433 219.732 94.646C218.969 95.1313 218.102 95.374 217.132 95.374ZM217.132 85.806C216.178 85.806 215.45 86.1613 214.948 86.872C214.445 87.5653 214.194 88.5013 214.194 89.68C214.194 90.8587 214.445 91.8033 214.948 92.514C215.45 93.2073 216.178 93.554 217.132 93.554C218.085 93.554 218.813 93.2073 219.316 92.514C219.818 91.8033 220.07 90.8587 220.07 89.68C220.07 88.5013 219.818 87.5653 219.316 86.872C218.813 86.1613 218.085 85.806 217.132 85.806ZM211.412 80.814H216.04V77.746H218.172V80.814H222.8V82.686H211.412V80.814ZM259.751 90.564H253.121V95.504H262.819V97.376H241.187V95.504H250.885V90.564H244.255V78.292H246.439V82.374H257.567V78.292H259.751V90.564ZM257.567 84.22H246.439V88.692H257.567V84.22ZM275.999 94.698C274.872 93.8313 273.884 92.826 273.035 91.682C272.203 90.538 271.553 89.3247 271.085 88.042C270.686 89.3593 270.028 90.6767 269.109 91.994C268.19 93.3113 267.09 94.4553 265.807 95.426L264.273 93.996C265.33 93.268 266.284 92.3233 267.133 91.162C268 89.9833 268.676 88.6747 269.161 87.236C269.664 85.7973 269.915 84.3327 269.915 82.842V78.578H272.151V82.842C272.151 84.9913 272.645 86.9933 273.633 88.848C274.621 90.6853 275.834 92.124 277.273 93.164L275.999 94.698ZM278.807 98.806V86.248H275.011V84.324H278.807V77.122H280.939V98.806H278.807ZM285.333 76.732V99.898H283.175V76.732H285.333ZM299.865 90.2C298.305 90.2 296.901 89.9227 295.653 89.368C294.405 88.8133 293.426 88.0593 292.715 87.106C292.022 86.1527 291.675 85.0953 291.675 83.934C291.675 82.7727 292.022 81.7153 292.715 80.762C293.426 79.8087 294.405 79.0547 295.653 78.5C296.901 77.9453 298.305 77.668 299.865 77.668C301.425 77.668 302.829 77.9453 304.077 78.5C305.325 79.0547 306.296 79.8087 306.989 80.762C307.7 81.7153 308.055 82.7727 308.055 83.934C308.055 85.0953 307.7 86.1527 306.989 87.106C306.296 88.0593 305.325 88.8133 304.077 89.368C302.829 89.9227 301.425 90.2 299.865 90.2ZM299.865 79.54C298.704 79.54 297.664 79.7307 296.745 80.112C295.844 80.4933 295.133 81.022 294.613 81.698C294.11 82.3567 293.859 83.102 293.859 83.934C293.859 84.766 294.11 85.52 294.613 86.196C295.133 86.8547 295.844 87.3747 296.745 87.756C297.664 88.1373 298.704 88.328 299.865 88.328C301.026 88.328 302.058 88.1373 302.959 87.756C303.878 87.3747 304.588 86.8547 305.091 86.196C305.611 85.52 305.871 84.766 305.871 83.934C305.871 83.102 305.611 82.3567 305.091 81.698C304.588 81.022 303.878 80.4933 302.959 80.112C302.058 79.7307 301.026 79.54 299.865 79.54ZM294.119 90.954H296.251V95.504H303.427V90.954H305.559V95.504H310.655V97.376H289.023V95.504H294.119V90.954ZM315.619 98.026C315.116 98.026 314.692 97.8527 314.345 97.506C313.998 97.1593 313.825 96.7347 313.825 96.232C313.825 95.7293 313.998 95.3047 314.345 94.958C314.692 94.6113 315.116 94.438 315.619 94.438C316.122 94.438 316.546 94.6113 316.893 94.958C317.257 95.3047 317.439 95.7293 317.439 96.232C317.439 96.7347 317.257 97.1593 316.893 97.506C316.546 97.8527 316.122 98.026 315.619 98.026Z" fill="#818181"/>
</svg>
