<svg width="500" height="354" viewBox="0 0 500 354" fill="none" xmlns="http://www.w3.org/2000/svg">
<g filter="url(#filter0_d_526_409)">
<rect x="13" y="11" width="470" height="324" rx="20" fill="white"/>
<rect x="13.5" y="11.5" width="469" height="323" rx="19.5" stroke="#D9D9D9"/>
<rect x="28.6536" y="61.5" width="438.846" height="60" rx="9.5" fill="white"/>
<rect x="28.6536" y="61.5" width="438.846" height="60" rx="9.5" stroke="#D9D9D9"/>
<path d="M432.654 92.9584C433.459 92.9584 434.112 92.3055 434.112 91.5001C434.112 90.6947 433.459 90.0417 432.654 90.0417C431.848 90.0417 431.195 90.6947 431.195 91.5001C431.195 92.3055 431.848 92.9584 432.654 92.9584Z" stroke="#B0B0B0" stroke-width="4" stroke-linecap="round" stroke-linejoin="round"/>
<path d="M442.862 92.9584C443.667 92.9584 444.32 92.3055 444.32 91.5001C444.32 90.6947 443.667 90.0417 442.862 90.0417C442.056 90.0417 441.404 90.6947 441.404 91.5001C441.404 92.3055 442.056 92.9584 442.862 92.9584Z" stroke="#B0B0B0" stroke-width="4" stroke-linecap="round" stroke-linejoin="round"/>
<path d="M422.445 92.9584C423.251 92.9584 423.904 92.3055 423.904 91.5001C423.904 90.6947 423.251 90.0417 422.445 90.0417C421.64 90.0417 420.987 90.6947 420.987 91.5001C420.987 92.3055 421.64 92.9584 422.445 92.9584Z" stroke="#B0B0B0" stroke-width="4" stroke-linecap="round" stroke-linejoin="round"/>
<path d="M98.334 87.822C97.554 87.222 96.87 86.526 96.282 85.734C95.706 84.942 95.256 84.102 94.932 83.214C94.668 84.138 94.212 85.056 93.564 85.968C92.928 86.868 92.166 87.654 91.278 88.326L90.216 87.336C90.948 86.832 91.608 86.172 92.196 85.356C92.796 84.54 93.264 83.634 93.6 82.638C93.948 81.642 94.122 80.634 94.122 79.614V78.138H91.422V76.842H98.37V78.138H95.67V79.614C95.67 81.102 96.012 82.488 96.696 83.772C97.38 85.044 98.22 86.04 99.216 86.76L98.334 87.822ZM100.278 90.558V82.26H97.92V80.928H100.278V75.546H101.754V90.558H100.278ZM104.796 75.276V91.314H103.302V75.276H104.796ZM109.223 75.96H120.455V77.256H115.667C115.667 77.856 115.937 78.468 116.477 79.092C117.017 79.716 117.743 80.274 118.655 80.766C119.579 81.246 120.569 81.6 121.625 81.828L120.797 83.052C119.549 82.776 118.373 82.302 117.269 81.63C116.165 80.946 115.355 80.16 114.839 79.272C114.323 80.16 113.513 80.946 112.409 81.63C111.305 82.302 110.129 82.776 108.881 83.052L108.053 81.828C109.109 81.6 110.093 81.246 111.005 80.766C111.929 80.274 112.661 79.716 113.201 79.092C113.741 78.468 114.011 77.856 114.011 77.256H109.223V75.96ZM114.083 85.932H107.351V84.636H122.327V85.932H115.595V91.314H114.083V85.932ZM132.081 85.698H136.797V91.404H135.285V86.994H125.745V85.698H130.533V82.818H123.909V81.54H134.871C135.027 80.844 135.159 80.088 135.267 79.272C135.387 78.444 135.465 77.694 135.501 77.022H125.673V75.744H137.049C136.989 77.7 136.755 79.632 136.347 81.54H138.885V82.818H132.081V85.698ZM148.01 87.822C147.23 87.222 146.546 86.526 145.958 85.734C145.382 84.942 144.932 84.102 144.608 83.214C144.344 84.138 143.888 85.056 143.24 85.968C142.604 86.868 141.842 87.654 140.954 88.326L139.892 87.336C140.624 86.832 141.284 86.172 141.872 85.356C142.472 84.54 142.94 83.634 143.276 82.638C143.624 81.642 143.798 80.634 143.798 79.614V78.138H141.098V76.842H148.046V78.138H145.346V79.614C145.346 81.102 145.688 82.488 146.372 83.772C147.056 85.044 147.896 86.04 148.892 86.76L148.01 87.822ZM149.954 90.558V82.26H147.596V80.928H149.954V75.546H151.43V90.558H149.954ZM154.472 75.276V91.314H152.978V75.276H154.472ZM164.514 91.638C163.314 91.638 162.276 91.494 161.4 91.206C160.536 90.93 159.87 90.546 159.402 90.054C158.946 89.562 158.718 89.004 158.718 88.38C158.718 87.756 158.946 87.198 159.402 86.706C159.87 86.214 160.536 85.83 161.4 85.554C162.276 85.266 163.314 85.122 164.514 85.122C165.714 85.122 166.746 85.266 167.61 85.554C168.486 85.83 169.152 86.214 169.608 86.706C170.076 87.198 170.31 87.756 170.31 88.38C170.31 89.004 170.076 89.562 169.608 90.054C169.152 90.546 168.486 90.93 167.61 91.206C166.746 91.494 165.714 91.638 164.514 91.638ZM164.514 86.4C163.17 86.4 162.12 86.58 161.364 86.94C160.608 87.288 160.23 87.768 160.23 88.38C160.23 88.992 160.608 89.478 161.364 89.838C162.12 90.186 163.17 90.36 164.514 90.36C165.858 90.36 166.908 90.186 167.664 89.838C168.42 89.478 168.798 88.992 168.798 88.38C168.798 87.768 168.42 87.288 167.664 86.94C166.908 86.58 165.858 86.4 164.514 86.4ZM157.026 82.26H162.966V79.002H164.514V82.26H172.002V83.538H157.026V82.26ZM168.078 81.216C168.39 79.992 168.57 78.594 168.618 77.022H158.79V75.744H170.166C170.13 78.012 169.926 79.836 169.554 81.216H168.078ZM181.505 91.638C180.413 91.638 179.459 91.506 178.643 91.242C177.827 90.99 177.197 90.642 176.753 90.198C176.321 89.766 176.105 89.274 176.105 88.722C176.105 88.17 176.321 87.678 176.753 87.246C177.197 86.802 177.827 86.454 178.643 86.202C179.459 85.938 180.413 85.806 181.505 85.806C182.597 85.806 183.551 85.938 184.367 86.202C185.183 86.454 185.807 86.802 186.239 87.246C186.683 87.678 186.905 88.17 186.905 88.722C186.905 89.274 186.683 89.766 186.239 90.198C185.807 90.642 185.183 90.99 184.367 91.242C183.551 91.506 182.597 91.638 181.505 91.638ZM182.981 81.81C182.981 82.362 182.807 82.866 182.459 83.322C182.111 83.778 181.625 84.138 181.001 84.402C180.377 84.666 179.663 84.798 178.859 84.798C178.055 84.798 177.341 84.666 176.717 84.402C176.105 84.138 175.625 83.778 175.277 83.322C174.929 82.866 174.755 82.362 174.755 81.81C174.755 81.258 174.929 80.754 175.277 80.298C175.625 79.842 176.111 79.482 176.735 79.218C177.359 78.954 178.067 78.822 178.859 78.822C179.663 78.822 180.377 78.954 181.001 79.218C181.625 79.482 182.111 79.842 182.459 80.298C182.807 80.754 182.981 81.258 182.981 81.81ZM181.505 87.066C180.281 87.066 179.327 87.216 178.643 87.516C177.959 87.804 177.617 88.206 177.617 88.722C177.617 89.238 177.959 89.646 178.643 89.946C179.327 90.234 180.281 90.378 181.505 90.378C182.729 90.378 183.683 90.234 184.367 89.946C185.051 89.646 185.393 89.238 185.393 88.722C185.393 88.206 185.051 87.804 184.367 87.516C183.683 87.216 182.729 87.066 181.505 87.066ZM185.105 75.276H186.617V79.614H188.867V80.946H186.617V85.536H185.105V75.276ZM181.469 81.81C181.469 81.282 181.235 80.856 180.767 80.532C180.299 80.208 179.663 80.046 178.859 80.046C178.055 80.046 177.419 80.208 176.951 80.532C176.495 80.856 176.267 81.282 176.267 81.81C176.267 82.338 176.495 82.764 176.951 83.088C177.419 83.412 178.055 83.574 178.859 83.574C179.663 83.574 180.299 83.412 180.767 83.088C181.235 82.764 181.469 82.338 181.469 81.81ZM173.981 76.86H178.085V75.132H179.597V76.86H183.701V78.12H173.981V76.86Z" fill="black"/>
<path d="M95.7096 109.548C95.1896 109.148 94.7336 108.684 94.3416 108.156C93.9576 107.628 93.6576 107.068 93.4416 106.476C93.2656 107.092 92.9616 107.704 92.5296 108.312C92.1056 108.912 91.5976 109.436 91.0056 109.884L90.2976 109.224C90.7856 108.888 91.2256 108.448 91.6176 107.904C92.0176 107.36 92.3296 106.756 92.5536 106.092C92.7856 105.428 92.9016 104.756 92.9016 104.076V103.092H91.1016V102.228H95.7336V103.092H93.9336V104.076C93.9336 105.068 94.1616 105.992 94.6176 106.848C95.0736 107.696 95.6336 108.36 96.2976 108.84L95.7096 109.548ZM97.0056 111.372V105.84H95.4336V104.952H97.0056V101.364H97.9896V111.372H97.0056ZM100.018 101.184V111.876H99.0216V101.184H100.018ZM102.969 101.64H110.457V102.504H107.265C107.265 102.904 107.445 103.312 107.805 103.728C108.165 104.144 108.649 104.516 109.257 104.844C109.873 105.164 110.533 105.4 111.237 105.552L110.685 106.368C109.853 106.184 109.069 105.868 108.333 105.42C107.597 104.964 107.057 104.44 106.713 103.848C106.369 104.44 105.829 104.964 105.093 105.42C104.357 105.868 103.573 106.184 102.741 106.368L102.189 105.552C102.893 105.4 103.549 105.164 104.157 104.844C104.773 104.516 105.261 104.144 105.621 103.728C105.981 103.312 106.161 102.904 106.161 102.504H102.969V101.64ZM106.209 108.288H101.721V107.424H111.705V108.288H107.217V111.876H106.209V108.288ZM120.68 101.184H121.688V111.876H120.68V101.184ZM119 109.488C118.368 109.128 117.784 108.66 117.248 108.084C116.712 107.508 116.312 106.916 116.048 106.308C115.8 106.956 115.408 107.592 114.872 108.216C114.344 108.832 113.728 109.352 113.024 109.776L112.352 109.08C113.264 108.56 114.016 107.848 114.608 106.944C115.2 106.032 115.496 105.036 115.496 103.956V101.988H116.552V103.98C116.552 105.052 116.844 106 117.428 106.824C118.012 107.648 118.728 108.288 119.576 108.744L119 109.488ZM131.65 112.092C130.85 112.092 130.158 111.996 129.574 111.804C128.998 111.62 128.554 111.364 128.242 111.036C127.938 110.708 127.786 110.336 127.786 109.92C127.786 109.504 127.938 109.132 128.242 108.804C128.554 108.476 128.998 108.22 129.574 108.036C130.158 107.844 130.85 107.748 131.65 107.748C132.45 107.748 133.138 107.844 133.714 108.036C134.298 108.22 134.742 108.476 135.046 108.804C135.358 109.132 135.514 109.504 135.514 109.92C135.514 110.336 135.358 110.708 135.046 111.036C134.742 111.364 134.298 111.62 133.714 111.804C133.138 111.996 132.45 112.092 131.65 112.092ZM131.65 108.6C130.754 108.6 130.054 108.72 129.55 108.96C129.046 109.192 128.794 109.512 128.794 109.92C128.794 110.328 129.046 110.652 129.55 110.892C130.054 111.124 130.754 111.24 131.65 111.24C132.546 111.24 133.246 111.124 133.75 110.892C134.254 110.652 134.506 110.328 134.506 109.92C134.506 109.512 134.254 109.192 133.75 108.96C133.246 108.72 132.546 108.6 131.65 108.6ZM126.658 105.84H130.618V103.668H131.65V105.84H136.642V106.692H126.658V105.84ZM134.026 105.144C134.234 104.328 134.354 103.396 134.386 102.348H127.834V101.496H135.418C135.394 103.008 135.258 104.224 135.01 105.144H134.026ZM142.977 112.092C142.249 112.092 141.613 112.004 141.069 111.828C140.525 111.66 140.105 111.428 139.809 111.132C139.521 110.844 139.377 110.516 139.377 110.148C139.377 109.78 139.521 109.452 139.809 109.164C140.105 108.868 140.525 108.636 141.069 108.468C141.613 108.292 142.249 108.204 142.977 108.204C143.705 108.204 144.341 108.292 144.885 108.468C145.429 108.636 145.845 108.868 146.133 109.164C146.429 109.452 146.577 109.78 146.577 110.148C146.577 110.516 146.429 110.844 146.133 111.132C145.845 111.428 145.429 111.66 144.885 111.828C144.341 112.004 143.705 112.092 142.977 112.092ZM143.961 105.54C143.961 105.908 143.845 106.244 143.613 106.548C143.381 106.852 143.057 107.092 142.641 107.268C142.225 107.444 141.749 107.532 141.213 107.532C140.677 107.532 140.201 107.444 139.785 107.268C139.377 107.092 139.057 106.852 138.825 106.548C138.593 106.244 138.477 105.908 138.477 105.54C138.477 105.172 138.593 104.836 138.825 104.532C139.057 104.228 139.381 103.988 139.797 103.812C140.213 103.636 140.685 103.548 141.213 103.548C141.749 103.548 142.225 103.636 142.641 103.812C143.057 103.988 143.381 104.228 143.613 104.532C143.845 104.836 143.961 105.172 143.961 105.54ZM142.977 109.044C142.161 109.044 141.525 109.144 141.069 109.344C140.613 109.536 140.385 109.804 140.385 110.148C140.385 110.492 140.613 110.764 141.069 110.964C141.525 111.156 142.161 111.252 142.977 111.252C143.793 111.252 144.429 111.156 144.885 110.964C145.341 110.764 145.569 110.492 145.569 110.148C145.569 109.804 145.341 109.536 144.885 109.344C144.429 109.144 143.793 109.044 142.977 109.044ZM145.377 101.184H146.385V104.076H147.885V104.964H146.385V108.024H145.377V101.184ZM142.953 105.54C142.953 105.188 142.797 104.904 142.485 104.688C142.173 104.472 141.749 104.364 141.213 104.364C140.677 104.364 140.253 104.472 139.941 104.688C139.637 104.904 139.485 105.188 139.485 105.54C139.485 105.892 139.637 106.176 139.941 106.392C140.253 106.608 140.677 106.716 141.213 106.716C141.749 106.716 142.173 106.608 142.485 106.392C142.797 106.176 142.953 105.892 142.953 105.54ZM137.961 102.24H140.697V101.088H141.705V102.24H144.441V103.08H137.961V102.24ZM154.304 109.848H158.72V110.712H148.736V109.848H153.272V107.928H150.152V104.484H156.236V102.804H150.152V101.952H157.244V105.324H151.16V107.064H157.484V107.928H154.304V109.848ZM163.283 110.292C163.283 109.468 163.451 108.8 163.787 108.288C164.123 107.776 164.675 107.316 165.443 106.908L166.475 106.368C166.995 106.088 167.395 105.804 167.675 105.516C167.963 105.22 168.107 104.86 168.107 104.436C168.107 103.996 167.939 103.64 167.603 103.368C167.267 103.096 166.847 102.96 166.343 102.96C165.767 102.96 165.295 103.12 164.927 103.44C164.567 103.76 164.387 104.188 164.387 104.724H163.295C163.295 104.156 163.427 103.664 163.691 103.248C163.955 102.832 164.319 102.512 164.783 102.288C165.247 102.064 165.767 101.952 166.343 101.952C166.879 101.952 167.367 102.06 167.807 102.276C168.247 102.484 168.591 102.776 168.839 103.152C169.095 103.528 169.223 103.948 169.223 104.412C169.223 104.868 169.123 105.264 168.923 105.6C168.723 105.936 168.459 106.224 168.131 106.464C167.811 106.704 167.403 106.96 166.907 107.232L165.887 107.772C165.359 108.044 164.979 108.348 164.747 108.684C164.515 109.012 164.387 109.408 164.363 109.872H169.223V110.88H163.283V110.292Z" fill="#B0B0B0"/>
<path d="M67.3098 77.2812H51.9973C50.837 77.2812 49.7242 77.7422 48.9038 78.5627C48.0833 79.3831 47.6223 80.4959 47.6223 81.6562V99.1562C47.6223 100.317 48.0833 101.429 48.9038 102.25C49.7242 103.07 50.837 103.531 51.9973 103.531H53.0911L51.1223 106.156C51.0362 106.271 50.9735 106.402 50.9378 106.541C50.9022 106.68 50.8943 106.825 50.9146 106.967C50.9349 107.109 50.983 107.246 51.0562 107.37C51.1294 107.493 51.2262 107.601 51.3411 107.688C51.456 107.774 51.5868 107.836 51.7259 107.872C51.865 107.908 52.0098 107.916 52.152 107.895C52.2942 107.875 52.431 107.827 52.5546 107.754C52.6782 107.68 52.7862 107.584 52.8723 107.469L55.8255 103.531H63.4817L66.4348 107.469C66.6089 107.701 66.868 107.854 67.1552 107.895C67.4423 107.936 67.734 107.862 67.9661 107.688C68.1982 107.513 68.3516 107.254 68.3926 106.967C68.4336 106.68 68.3589 106.388 68.1848 106.156L66.2161 103.531H67.3098C68.4702 103.531 69.583 103.07 70.4034 102.25C71.2239 101.429 71.6848 100.317 71.6848 99.1562V81.6562C71.6848 80.4959 71.2239 79.3831 70.4034 78.5627C69.583 77.7422 68.4702 77.2812 67.3098 77.2812ZM49.8098 90.4062V84.9375H58.5598V90.4062H49.8098ZM60.7473 84.9375H69.4973V90.4062H60.7473V84.9375ZM51.9973 79.4688H67.3098C67.89 79.4688 68.4464 79.6992 68.8566 80.1095C69.2669 80.5197 69.4973 81.0761 69.4973 81.6562V82.75H49.8098V81.6562C49.8098 81.0761 50.0403 80.5197 50.4505 80.1095C50.8608 79.6992 51.4172 79.4688 51.9973 79.4688ZM67.3098 101.344H51.9973C51.4172 101.344 50.8608 101.113 50.4505 100.703C50.0403 100.293 49.8098 99.7364 49.8098 99.1562V92.5938H69.4973V99.1562C69.4973 99.7364 69.2669 100.293 68.8566 100.703C68.4464 101.113 67.89 101.344 67.3098 101.344ZM55.2786 97.5156C55.2786 97.8401 55.1824 98.1573 55.0021 98.4271C54.8218 98.6969 54.5656 98.9072 54.2658 99.0314C53.966 99.1555 53.6361 99.188 53.3179 99.1247C52.9996 99.0614 52.7073 98.9052 52.4779 98.6757C52.2484 98.4463 52.0922 98.1539 52.0289 97.8357C51.9656 97.5174 51.9981 97.1876 52.1222 96.8878C52.2464 96.588 52.4567 96.3318 52.7265 96.1515C52.9963 95.9712 53.3135 95.875 53.638 95.875C54.0731 95.875 54.4904 96.0479 54.7981 96.3555C55.1057 96.6632 55.2786 97.0805 55.2786 97.5156ZM67.3098 97.5156C67.3098 97.8401 67.2136 98.1573 67.0333 98.4271C66.8531 98.6969 66.5968 98.9072 66.2971 99.0314C65.9973 99.1555 65.6674 99.188 65.3491 99.1247C65.0309 99.0614 64.7386 98.9052 64.5091 98.6757C64.2797 98.4463 64.1234 98.1539 64.0601 97.8357C63.9968 97.5174 64.0293 97.1876 64.1535 96.8878C64.2777 96.588 64.4879 96.3318 64.7577 96.1515C65.0275 95.9712 65.3447 95.875 65.6692 95.875C66.1043 95.875 66.5216 96.0479 66.8293 96.3555C67.137 96.6632 67.3098 97.0805 67.3098 97.5156Z" fill="#B0B0B0"/>
<line x1="60.6536" y1="122" x2="60.6536" y2="152" stroke="#D9D9D9"/>
<path d="M79.9689 142.149C79.2658 142.149 78.639 142.028 78.0886 141.787C77.5417 141.545 77.1067 141.21 76.7836 140.78C76.464 140.347 76.29 139.844 76.2615 139.273H77.6039C77.6323 139.624 77.753 139.928 77.9661 140.184C78.1792 140.436 78.4579 140.631 78.8024 140.77C79.1468 140.908 79.5286 140.977 79.9476 140.977C80.4164 140.977 80.8319 140.896 81.1941 140.732C81.5563 140.569 81.8404 140.342 82.0464 140.05C82.2523 139.759 82.3553 139.422 82.3553 139.038C82.3553 138.637 82.2559 138.284 82.057 137.978C81.8581 137.669 81.5669 137.428 81.1834 137.254C80.7999 137.08 80.3312 136.993 79.7772 136.993H78.9036V135.821H79.7772C80.2104 135.821 80.5904 135.743 80.9171 135.587C81.2473 135.43 81.5048 135.21 81.6895 134.926C81.8777 134.642 81.9718 134.308 81.9718 133.925C81.9718 133.555 81.8901 133.234 81.7267 132.961C81.5634 132.687 81.3326 132.474 81.0343 132.321C80.7395 132.169 80.3915 132.092 79.9902 132.092C79.6138 132.092 79.2587 132.162 78.9249 132.3C78.5946 132.435 78.3248 132.632 78.1152 132.891C77.9057 133.147 77.7921 133.456 77.7743 133.818H76.4959C76.5172 133.246 76.6895 132.746 77.0126 132.316C77.3358 131.883 77.7584 131.545 78.2804 131.304C78.8059 131.062 79.383 130.942 80.0115 130.942C80.6863 130.942 81.2651 131.078 81.7481 131.352C82.231 131.622 82.6021 131.979 82.8613 132.423C83.1206 132.866 83.2502 133.346 83.2502 133.861C83.2502 134.475 83.0886 134.999 82.7655 135.432C82.4459 135.865 82.0108 136.165 81.4604 136.332V136.418C82.1493 136.531 82.6873 136.824 83.0744 137.297C83.4615 137.765 83.655 138.346 83.655 139.038C83.655 139.631 83.4934 140.164 83.1703 140.636C82.8507 141.105 82.4139 141.474 81.8599 141.744C81.3059 142.014 80.6756 142.149 79.9689 142.149ZM89.5197 142.149C88.8166 142.149 88.1898 142.028 87.6394 141.787C87.0925 141.545 86.6575 141.21 86.3343 140.78C86.0147 140.347 85.8407 139.844 85.8123 139.273H87.1547C87.1831 139.624 87.3038 139.928 87.5169 140.184C87.7299 140.436 88.0087 140.631 88.3532 140.77C88.6976 140.908 89.0794 140.977 89.4984 140.977C89.9672 140.977 90.3826 140.896 90.7449 140.732C91.1071 140.569 91.3912 140.342 91.5971 140.05C91.8031 139.759 91.9061 139.422 91.9061 139.038C91.9061 138.637 91.8066 138.284 91.6078 137.978C91.4089 137.669 91.1177 137.428 90.7342 137.254C90.3507 137.08 89.8819 136.993 89.328 136.993H88.4544V135.821H89.328C89.7612 135.821 90.1412 135.743 90.4679 135.587C90.7981 135.43 91.0556 135.21 91.2402 134.926C91.4285 134.642 91.5226 134.308 91.5226 133.925C91.5226 133.555 91.4409 133.234 91.2775 132.961C91.1142 132.687 90.8834 132.474 90.5851 132.321C90.2903 132.169 89.9423 132.092 89.541 132.092C89.1646 132.092 88.8095 132.162 88.4757 132.3C88.1454 132.435 87.8755 132.632 87.666 132.891C87.4565 133.147 87.3429 133.456 87.3251 133.818H86.0467C86.068 133.246 86.2402 132.746 86.5634 132.316C86.8865 131.883 87.3091 131.545 87.8312 131.304C88.3567 131.062 88.9338 130.942 89.5623 130.942C90.237 130.942 90.8159 131.078 91.2988 131.352C91.7818 131.622 92.1529 131.979 92.4121 132.423C92.6714 132.866 92.801 133.346 92.801 133.861C92.801 134.475 92.6394 134.999 92.3162 135.432C91.9966 135.865 91.5616 136.165 91.0112 136.332V136.418C91.7001 136.531 92.2381 136.824 92.6252 137.297C93.0123 137.765 93.2058 138.346 93.2058 139.038C93.2058 139.631 93.0442 140.164 92.7211 140.636C92.4015 141.105 91.9647 141.474 91.4107 141.744C90.8567 142.014 90.2264 142.149 89.5197 142.149ZM94.9902 136.765H107.29V137.77H94.9902V136.765ZM100.6 137.275H101.845V140.395H100.6V137.275ZM96.5502 141.85H105.925V142.87H96.5502V141.85ZM96.5502 139.18H97.7802V142.225H96.5502V139.18ZM96.6252 130.03H97.8552V131.755H104.425V130.03H105.655V135.46H96.6252V130.03ZM97.8552 132.715V134.455H104.425V132.715H97.8552Z" fill="#B0B0B0"/>
<rect x="28.6536" y="153.5" width="438.846" height="60" rx="9.5" fill="white"/>
<rect x="28.6536" y="153.5" width="438.846" height="60" rx="9.5" stroke="#D9D9D9"/>
<path d="M432.654 184.958C433.459 184.958 434.112 184.305 434.112 183.5C434.112 182.695 433.459 182.042 432.654 182.042C431.848 182.042 431.195 182.695 431.195 183.5C431.195 184.305 431.848 184.958 432.654 184.958Z" stroke="#B0B0B0" stroke-width="4" stroke-linecap="round" stroke-linejoin="round"/>
<path d="M442.862 184.958C443.667 184.958 444.32 184.305 444.32 183.5C444.32 182.695 443.667 182.042 442.862 182.042C442.056 182.042 441.404 182.695 441.404 183.5C441.404 184.305 442.056 184.958 442.862 184.958Z" stroke="#B0B0B0" stroke-width="4" stroke-linecap="round" stroke-linejoin="round"/>
<path d="M422.445 184.958C423.251 184.958 423.904 184.305 423.904 183.5C423.904 182.695 423.251 182.042 422.445 182.042C421.64 182.042 420.987 182.695 420.987 183.5C420.987 184.305 421.64 184.958 422.445 184.958Z" stroke="#B0B0B0" stroke-width="4" stroke-linecap="round" stroke-linejoin="round"/>
<path d="M100.08 179.84C99.132 179.324 98.262 178.64 97.47 177.788C96.678 176.924 96.084 176.03 95.688 175.106C95.304 176.102 94.722 177.05 93.942 177.95C93.174 178.838 92.262 179.612 91.206 180.272L90.18 179.21C91.548 178.418 92.67 177.35 93.546 176.006C94.422 174.65 94.86 173.162 94.86 171.542V170.138H91.404V168.842H99.9V170.138H96.444V171.578C96.444 173.174 96.87 174.596 97.722 175.844C98.586 177.092 99.66 178.052 100.944 178.724L100.08 179.84ZM102.132 167.276H103.644V173.324H106.074V174.692H103.644V183.314H102.132V167.276ZM109.871 170.21V178.31H112.967V170.21H109.871ZM108.431 168.914H114.407V179.606H108.431V168.914ZM119.681 174.728H117.593V182.558H116.117V167.546H117.593V173.324H119.681V167.276H121.175V183.314H119.681V174.728ZM132.081 177.698H136.797V183.404H135.285V178.994H125.745V177.698H130.533V174.818H123.909V173.54H134.871C135.027 172.844 135.159 172.088 135.267 171.272C135.387 170.444 135.465 169.694 135.501 169.022H125.673V167.744H137.049C136.989 169.7 136.755 171.632 136.347 173.54H138.885V174.818H132.081V177.698ZM147.2 177.752H140.468V176.456H155.444V177.752H148.712V183.314H147.2V177.752ZM148.73 167.6V168.464C148.73 169.196 149 169.91 149.54 170.606C150.08 171.302 150.806 171.914 151.718 172.442C152.642 172.958 153.65 173.336 154.742 173.576L153.914 174.8C152.654 174.5 151.472 173.996 150.368 173.288C149.264 172.568 148.46 171.752 147.956 170.84C147.452 171.752 146.648 172.568 145.544 173.288C144.44 173.996 143.258 174.5 141.998 174.8L141.17 173.576C142.262 173.336 143.264 172.958 144.176 172.442C145.1 171.914 145.832 171.302 146.372 170.606C146.912 169.91 147.182 169.196 147.182 168.464V167.6H148.73Z" fill="black"/>
<path d="M95.7096 201.548C95.1896 201.148 94.7336 200.684 94.3416 200.156C93.9576 199.628 93.6576 199.068 93.4416 198.476C93.2656 199.092 92.9616 199.704 92.5296 200.312C92.1056 200.912 91.5976 201.436 91.0056 201.884L90.2976 201.224C90.7856 200.888 91.2256 200.448 91.6176 199.904C92.0176 199.36 92.3296 198.756 92.5536 198.092C92.7856 197.428 92.9016 196.756 92.9016 196.076V195.092H91.1016V194.228H95.7336V195.092H93.9336V196.076C93.9336 197.068 94.1616 197.992 94.6176 198.848C95.0736 199.696 95.6336 200.36 96.2976 200.84L95.7096 201.548ZM97.0056 203.372V197.84H95.4336V196.952H97.0056V193.364H97.9896V203.372H97.0056ZM100.018 193.184V203.876H99.0216V193.184H100.018ZM102.969 193.64H110.457V194.504H107.265C107.265 194.904 107.445 195.312 107.805 195.728C108.165 196.144 108.649 196.516 109.257 196.844C109.873 197.164 110.533 197.4 111.237 197.552L110.685 198.368C109.853 198.184 109.069 197.868 108.333 197.42C107.597 196.964 107.057 196.44 106.713 195.848C106.369 196.44 105.829 196.964 105.093 197.42C104.357 197.868 103.573 198.184 102.741 198.368L102.189 197.552C102.893 197.4 103.549 197.164 104.157 196.844C104.773 196.516 105.261 196.144 105.621 195.728C105.981 195.312 106.161 194.904 106.161 194.504H102.969V193.64ZM106.209 200.288H101.721V199.424H111.705V200.288H107.217V203.876H106.209V200.288ZM120.68 193.184H121.688V203.876H120.68V193.184ZM119 201.488C118.368 201.128 117.784 200.66 117.248 200.084C116.712 199.508 116.312 198.916 116.048 198.308C115.8 198.956 115.408 199.592 114.872 200.216C114.344 200.832 113.728 201.352 113.024 201.776L112.352 201.08C113.264 200.56 114.016 199.848 114.608 198.944C115.2 198.032 115.496 197.036 115.496 195.956V193.988H116.552V195.98C116.552 197.052 116.844 198 117.428 198.824C118.012 199.648 118.728 200.288 119.576 200.744L119 201.488ZM131.938 204.092C131.21 204.092 130.574 204.004 130.03 203.828C129.486 203.66 129.066 203.428 128.77 203.132C128.482 202.844 128.338 202.516 128.338 202.148C128.338 201.78 128.482 201.452 128.77 201.164C129.066 200.868 129.486 200.636 130.03 200.468C130.574 200.292 131.21 200.204 131.938 200.204C132.666 200.204 133.302 200.292 133.846 200.468C134.39 200.636 134.806 200.868 135.094 201.164C135.39 201.452 135.538 201.78 135.538 202.148C135.538 202.516 135.39 202.844 135.094 203.132C134.806 203.428 134.39 203.66 133.846 203.828C133.302 204.004 132.666 204.092 131.938 204.092ZM132.922 197.54C132.922 197.908 132.806 198.244 132.574 198.548C132.342 198.852 132.018 199.092 131.602 199.268C131.186 199.444 130.71 199.532 130.174 199.532C129.638 199.532 129.162 199.444 128.746 199.268C128.338 199.092 128.018 198.852 127.786 198.548C127.554 198.244 127.438 197.908 127.438 197.54C127.438 197.172 127.554 196.836 127.786 196.532C128.018 196.228 128.342 195.988 128.758 195.812C129.174 195.636 129.646 195.548 130.174 195.548C130.71 195.548 131.186 195.636 131.602 195.812C132.018 195.988 132.342 196.228 132.574 196.532C132.806 196.836 132.922 197.172 132.922 197.54ZM131.938 201.044C131.122 201.044 130.486 201.144 130.03 201.344C129.574 201.536 129.346 201.804 129.346 202.148C129.346 202.492 129.574 202.764 130.03 202.964C130.486 203.156 131.122 203.252 131.938 203.252C132.754 203.252 133.39 203.156 133.846 202.964C134.302 202.764 134.53 202.492 134.53 202.148C134.53 201.804 134.302 201.536 133.846 201.344C133.39 201.144 132.754 201.044 131.938 201.044ZM134.338 193.184H135.346V196.076H136.846V196.964H135.346V200.024H134.338V193.184ZM131.914 197.54C131.914 197.188 131.758 196.904 131.446 196.688C131.134 196.472 130.71 196.364 130.174 196.364C129.638 196.364 129.214 196.472 128.902 196.688C128.598 196.904 128.446 197.188 128.446 197.54C128.446 197.892 128.598 198.176 128.902 198.392C129.214 198.608 129.638 198.716 130.174 198.716C130.71 198.716 131.134 198.608 131.446 198.392C131.758 198.176 131.914 197.892 131.914 197.54ZM126.922 194.24H129.658V193.088H130.666V194.24H133.402V195.08H126.922V194.24ZM139.089 201.044H145.281V200.036H139.089V199.208H146.289V201.848H140.097V202.916H146.529V203.756H139.089V201.044ZM137.697 197.324H141.657V195.404H142.689V197.324H147.681V198.152H137.697V197.324ZM145.089 196.664C145.281 196 145.393 195.22 145.425 194.324H138.873V193.496H146.457C146.433 194.752 146.305 195.808 146.073 196.664H145.089ZM156.416 193.184H157.424V195.176H158.924V196.064H157.424V199.076H156.416V193.184ZM150.68 199.604H157.4V203.756H150.68V199.604ZM156.392 202.904V200.456H151.688V202.904H156.392ZM149.48 193.508H150.488V197.276H151.376C153.192 197.276 154.672 197.18 155.816 196.988V197.84C154.768 198.048 153.288 198.152 151.376 198.152H149.48V193.508ZM161.959 201.044H167.791V200.06H161.959V199.22H168.799V201.86H162.967V202.904H169.039V203.756H161.959V201.044ZM168.823 193.184V198.692H167.815V193.184H168.823ZM159.931 198.032C160.723 197.864 161.455 197.608 162.127 197.264C162.807 196.912 163.363 196.5 163.795 196.028C164.235 195.556 164.503 195.06 164.599 194.54H160.663V193.688H165.751C165.735 194.6 165.459 195.412 164.923 196.124C164.387 196.836 163.719 197.416 162.919 197.864C162.127 198.304 161.311 198.62 160.471 198.812L159.931 198.032ZM180.706 201.14H179.494V202.88H178.438V201.14H173.89V200.708C173.89 200.404 173.926 200.148 173.998 199.94C174.07 199.732 174.186 199.5 174.346 199.244L177.274 194.828C177.45 194.564 177.638 194.384 177.838 194.288C178.038 194.184 178.282 194.132 178.57 194.132H179.494V200.18H180.706V201.14ZM178.438 195.164C178.286 195.172 178.166 195.252 178.078 195.404L175.486 199.316C175.238 199.692 175.082 199.98 175.018 200.18H178.438V195.164ZM185.694 197.192C186.182 197.192 186.642 197.312 187.074 197.552C187.506 197.784 187.854 198.124 188.118 198.572C188.382 199.012 188.514 199.528 188.514 200.12V200.132C188.514 200.716 188.378 201.232 188.106 201.68C187.834 202.12 187.462 202.46 186.99 202.7C186.526 202.94 186.01 203.06 185.442 203.06H185.43C184.494 203.06 183.726 202.76 183.126 202.16C182.534 201.552 182.238 200.612 182.238 199.34V197.84C182.238 196.504 182.554 195.524 183.186 194.9C183.818 194.268 184.622 193.952 185.598 193.952H185.61C186.146 193.952 186.638 194.064 187.086 194.288C187.534 194.504 187.894 194.808 188.166 195.2C188.446 195.584 188.61 196.02 188.658 196.508H187.578C187.482 196.06 187.25 195.692 186.882 195.404C186.522 195.108 186.078 194.96 185.55 194.96H185.538C184.89 194.96 184.362 195.172 183.954 195.596C183.546 196.02 183.342 196.66 183.342 197.516V198.896C183.486 198.352 183.77 197.932 184.194 197.636C184.618 197.34 185.114 197.192 185.682 197.192H185.694ZM185.394 202.064C185.746 202.064 186.074 201.984 186.378 201.824C186.69 201.656 186.938 201.424 187.122 201.128C187.314 200.824 187.41 200.484 187.41 200.108C187.41 199.732 187.314 199.396 187.122 199.1C186.938 198.804 186.69 198.576 186.378 198.416C186.074 198.248 185.746 198.164 185.394 198.164H185.382C185.022 198.164 184.686 198.244 184.374 198.404C184.062 198.556 183.81 198.78 183.618 199.076C183.434 199.364 183.342 199.7 183.342 200.084C183.342 200.468 183.434 200.812 183.618 201.116C183.802 201.412 184.05 201.644 184.362 201.812C184.674 201.98 185.014 202.064 185.382 202.064H185.394Z" fill="#B0B0B0"/>
<path d="M51.9974 181.031V174.469C51.9974 174.179 52.1126 173.9 52.3177 173.695C52.5228 173.49 52.801 173.375 53.0911 173.375C53.3812 173.375 53.6594 173.49 53.8645 173.695C54.0696 173.9 54.1849 174.179 54.1849 174.469V181.031C54.1849 181.321 54.0696 181.599 53.8645 181.805C53.6594 182.01 53.3812 182.125 53.0911 182.125C52.801 182.125 52.5228 182.01 52.3177 181.805C52.1126 181.599 51.9974 181.321 51.9974 181.031ZM71.6849 174.469V199.625C71.6849 199.915 71.5696 200.193 71.3645 200.398C71.1594 200.603 70.8812 200.719 70.5911 200.719C70.301 200.719 70.0228 200.603 69.8177 200.398C69.6126 200.193 69.4974 199.915 69.4974 199.625V193.062H62.9349C62.6448 193.062 62.3666 192.947 62.1615 192.742C61.9563 192.537 61.8411 192.259 61.8411 191.969C61.8919 189.349 62.2228 186.742 62.8282 184.192C64.1653 178.656 66.7001 174.946 70.1604 173.464C70.3268 173.393 70.5082 173.364 70.6884 173.38C70.8686 173.396 71.042 173.456 71.1931 173.556C71.3441 173.656 71.4681 173.791 71.554 173.95C71.6398 174.11 71.6848 174.288 71.6849 174.469ZM69.4974 176.369C65.0991 179.728 64.2378 187.911 64.0696 190.875H69.4974V176.369ZM58.5448 174.29C58.5234 174.146 58.4736 174.008 58.3983 173.884C58.323 173.76 58.2238 173.652 58.1063 173.566C57.9889 173.481 57.8556 173.42 57.7143 173.386C57.573 173.353 57.4265 173.348 57.2832 173.372C57.14 173.396 57.0029 173.448 56.8801 173.525C56.7572 173.603 56.651 173.704 56.5676 173.823C56.4842 173.942 56.4253 174.076 56.3944 174.218C56.3635 174.36 56.3611 174.506 56.3874 174.649L57.4661 181.117C57.4661 182.278 57.0052 183.39 56.1847 184.211C55.3642 185.031 54.2514 185.492 53.0911 185.492C51.9308 185.492 50.818 185.031 49.9975 184.211C49.177 183.39 48.7161 182.278 48.7161 181.117L49.7934 174.649C49.8198 174.506 49.8174 174.36 49.7864 174.218C49.7555 174.076 49.6966 173.942 49.6132 173.823C49.5298 173.704 49.4236 173.603 49.3008 173.525C49.1779 173.448 49.0409 173.396 48.8976 173.372C48.7544 173.348 48.6078 173.353 48.4665 173.386C48.3252 173.42 48.1919 173.481 48.0745 173.566C47.9571 173.652 47.8578 173.76 47.7825 173.884C47.7073 174.008 47.6574 174.146 47.636 174.29L46.5423 180.852C46.5329 180.911 46.5283 180.971 46.5286 181.031C46.5308 182.581 47.0808 184.081 48.0815 185.265C49.0823 186.448 50.4692 187.24 51.9974 187.501V199.625C51.9974 199.915 52.1126 200.193 52.3177 200.398C52.5228 200.603 52.801 200.719 53.0911 200.719C53.3812 200.719 53.6594 200.603 53.8645 200.398C54.0696 200.193 54.1849 199.915 54.1849 199.625V187.501C55.713 187.24 57.0999 186.448 58.1007 185.265C59.1014 184.081 59.6514 182.581 59.6536 181.031C59.6534 180.971 59.6484 180.911 59.6386 180.852L58.5448 174.29Z" fill="#B0B0B0"/>
<line x1="60.6536" y1="214" x2="60.6536" y2="244" stroke="#D9D9D9"/>
<path d="M76.2829 234V233.041L79.8837 229.099C80.3063 228.638 80.6543 228.237 80.9277 227.896C81.2012 227.551 81.4036 227.228 81.535 226.926C81.6699 226.621 81.7374 226.301 81.7374 225.967C81.7374 225.584 81.6451 225.252 81.4604 224.971C81.2793 224.691 81.0307 224.474 80.7147 224.321C80.3986 224.169 80.0435 224.092 79.6493 224.092C79.2303 224.092 78.8645 224.179 78.552 224.353C78.2431 224.524 78.0034 224.763 77.8329 225.072C77.666 225.381 77.5826 225.744 77.5826 226.159H76.3255C76.3255 225.52 76.4728 224.959 76.7676 224.476C77.0623 223.993 77.4636 223.616 77.9714 223.347C78.4828 223.077 79.0563 222.942 79.6919 222.942C80.3312 222.942 80.8976 223.077 81.3912 223.347C81.8848 223.616 82.2718 223.98 82.5524 224.439C82.8329 224.897 82.9732 225.406 82.9732 225.967C82.9732 226.369 82.9004 226.761 82.7548 227.145C82.6128 227.525 82.3642 227.949 82.0091 228.418C81.6575 228.883 81.1692 229.451 80.5442 230.122L78.0939 232.743V232.828H83.165V234H76.2829ZM85.7058 234L90.5851 224.348V224.263H84.9601V223.091H91.9487V224.327L87.0907 234H85.7058ZM93.54 228.765H105.84V229.77H93.54V228.765ZM99.15 229.275H100.395V232.395H99.15V229.275ZM95.1 233.85H104.475V234.87H95.1V233.85ZM95.1 231.18H96.33V234.225H95.1V231.18ZM95.175 222.03H96.405V223.755H102.975V222.03H104.205V227.46H95.175V222.03ZM96.405 224.715V226.455H102.975V224.715H96.405Z" fill="#B0B0B0"/>
<rect x="28.6536" y="245.5" width="438.846" height="60" rx="9.5" fill="white"/>
<rect x="28.6536" y="245.5" width="438.846" height="60" rx="9.5" stroke="#D9D9D9"/>
<path d="M432.654 276.958C433.459 276.958 434.112 276.305 434.112 275.5C434.112 274.695 433.459 274.042 432.654 274.042C431.848 274.042 431.195 274.695 431.195 275.5C431.195 276.305 431.848 276.958 432.654 276.958Z" stroke="#B0B0B0" stroke-width="4" stroke-linecap="round" stroke-linejoin="round"/>
<path d="M442.862 276.958C443.667 276.958 444.32 276.305 444.32 275.5C444.32 274.695 443.667 274.042 442.862 274.042C442.056 274.042 441.404 274.695 441.404 275.5C441.404 276.305 442.056 276.958 442.862 276.958Z" stroke="#B0B0B0" stroke-width="4" stroke-linecap="round" stroke-linejoin="round"/>
<path d="M422.445 276.958C423.251 276.958 423.904 276.305 423.904 275.5C423.904 274.695 423.251 274.042 422.445 274.042C421.64 274.042 420.987 274.695 420.987 275.5C420.987 276.305 421.64 276.958 422.445 276.958Z" stroke="#B0B0B0" stroke-width="4" stroke-linecap="round" stroke-linejoin="round"/>
<path d="M94.572 264.766C93.936 264.49 93.45 264.136 93.114 263.704C92.778 263.272 92.61 262.798 92.61 262.282C92.61 261.67 92.838 261.13 93.294 260.662C93.75 260.182 94.404 259.81 95.256 259.546C96.12 259.27 97.128 259.132 98.28 259.132C99.432 259.132 100.434 259.27 101.286 259.546C102.15 259.81 102.81 260.182 103.266 260.662C103.722 261.13 103.95 261.67 103.95 262.282C103.95 262.798 103.782 263.272 103.446 263.704C103.11 264.136 102.624 264.49 101.988 264.766V267.052H105.768V268.33H90.792V267.052H94.572V264.766ZM98.28 275.638C97.08 275.638 96.042 275.506 95.166 275.242C94.302 274.978 93.636 274.612 93.168 274.144C92.712 273.676 92.484 273.148 92.484 272.56C92.484 271.972 92.712 271.444 93.168 270.976C93.636 270.508 94.302 270.142 95.166 269.878C96.042 269.614 97.08 269.482 98.28 269.482C99.48 269.482 100.512 269.614 101.376 269.878C102.252 270.142 102.918 270.508 103.374 270.976C103.842 271.444 104.076 271.972 104.076 272.56C104.076 273.148 103.842 273.676 103.374 274.144C102.918 274.612 102.252 274.978 101.376 275.242C100.512 275.506 99.48 275.638 98.28 275.638ZM102.438 262.282C102.438 261.694 102.054 261.238 101.286 260.914C100.53 260.578 99.528 260.41 98.28 260.41C97.032 260.41 96.024 260.578 95.256 260.914C94.5 261.238 94.122 261.694 94.122 262.282C94.122 262.87 94.5 263.332 95.256 263.668C96.024 263.992 97.032 264.154 98.28 264.154C99.528 264.154 100.53 263.992 101.286 263.668C102.054 263.332 102.438 262.87 102.438 262.282ZM98.28 270.76C96.936 270.76 95.886 270.922 95.13 271.246C94.374 271.558 93.996 271.996 93.996 272.56C93.996 273.124 94.374 273.568 95.13 273.892C95.886 274.204 96.936 274.36 98.28 274.36C99.624 274.36 100.674 274.204 101.43 273.892C102.186 273.568 102.564 273.124 102.564 272.56C102.564 271.996 102.186 271.558 101.43 271.246C100.674 270.922 99.624 270.76 98.28 270.76ZM98.28 265.432C97.488 265.432 96.744 265.366 96.048 265.234V267.052H100.512V265.234C99.816 265.366 99.072 265.432 98.28 265.432ZM109.475 259.96H120.293V261.256H110.987V264.928H120.563V266.224H109.475V259.96ZM114.083 269.752H107.351V268.456H122.327V269.752H115.595V275.314H114.083V269.752ZM135.429 259.276H136.941V262.804H139.191V264.136H136.941V268.402H135.429V259.276ZM126.825 269.194H136.905V275.134H126.825V269.194ZM135.393 273.856V270.472H128.337V273.856H135.393ZM128.571 267.484C127.755 267.484 127.023 267.31 126.375 266.962C125.739 266.602 125.241 266.122 124.881 265.522C124.533 264.91 124.359 264.25 124.359 263.542C124.359 262.822 124.533 262.162 124.881 261.562C125.241 260.962 125.739 260.488 126.375 260.14C127.023 259.78 127.755 259.6 128.571 259.6C129.387 259.6 130.113 259.78 130.749 260.14C131.397 260.488 131.895 260.962 132.243 261.562C132.603 262.162 132.783 262.822 132.783 263.542C132.783 264.25 132.603 264.91 132.243 265.522C131.895 266.122 131.397 266.602 130.749 266.962C130.113 267.31 129.387 267.484 128.571 267.484ZM128.571 260.896C127.743 260.896 127.083 261.154 126.591 261.67C126.111 262.174 125.871 262.798 125.871 263.542C125.871 264.286 126.111 264.916 126.591 265.432C127.083 265.936 127.743 266.188 128.571 266.188C129.399 266.188 130.053 265.936 130.533 265.432C131.025 264.916 131.271 264.286 131.271 263.542C131.271 262.798 131.025 262.174 130.533 261.67C130.053 261.154 129.399 260.896 128.571 260.896Z" fill="black"/>
<path d="M95.7096 293.548C95.1896 293.148 94.7336 292.684 94.3416 292.156C93.9576 291.628 93.6576 291.068 93.4416 290.476C93.2656 291.092 92.9616 291.704 92.5296 292.312C92.1056 292.912 91.5976 293.436 91.0056 293.884L90.2976 293.224C90.7856 292.888 91.2256 292.448 91.6176 291.904C92.0176 291.36 92.3296 290.756 92.5536 290.092C92.7856 289.428 92.9016 288.756 92.9016 288.076V287.092H91.1016V286.228H95.7336V287.092H93.9336V288.076C93.9336 289.068 94.1616 289.992 94.6176 290.848C95.0736 291.696 95.6336 292.36 96.2976 292.84L95.7096 293.548ZM97.0056 295.372V289.84H95.4336V288.952H97.0056V285.364H97.9896V295.372H97.0056ZM100.018 285.184V295.876H99.0216V285.184H100.018ZM102.969 285.64H110.457V286.504H107.265C107.265 286.904 107.445 287.312 107.805 287.728C108.165 288.144 108.649 288.516 109.257 288.844C109.873 289.164 110.533 289.4 111.237 289.552L110.685 290.368C109.853 290.184 109.069 289.868 108.333 289.42C107.597 288.964 107.057 288.44 106.713 287.848C106.369 288.44 105.829 288.964 105.093 289.42C104.357 289.868 103.573 290.184 102.741 290.368L102.189 289.552C102.893 289.4 103.549 289.164 104.157 288.844C104.773 288.516 105.261 288.144 105.621 287.728C105.981 287.312 106.161 286.904 106.161 286.504H102.969V285.64ZM106.209 292.288H101.721V291.424H111.705V292.288H107.217V295.876H106.209V292.288ZM120.68 285.184H121.688V295.876H120.68V285.184ZM119 293.488C118.368 293.128 117.784 292.66 117.248 292.084C116.712 291.508 116.312 290.916 116.048 290.308C115.8 290.956 115.408 291.592 114.872 292.216C114.344 292.832 113.728 293.352 113.024 293.776L112.352 293.08C113.264 292.56 114.016 291.848 114.608 290.944C115.2 290.032 115.496 289.036 115.496 287.956V285.988H116.552V287.98C116.552 289.052 116.844 290 117.428 290.824C118.012 291.648 118.728 292.288 119.576 292.744L119 293.488ZM131.938 296.092C131.21 296.092 130.574 296.004 130.03 295.828C129.486 295.66 129.066 295.428 128.77 295.132C128.482 294.844 128.338 294.516 128.338 294.148C128.338 293.78 128.482 293.452 128.77 293.164C129.066 292.868 129.486 292.636 130.03 292.468C130.574 292.292 131.21 292.204 131.938 292.204C132.666 292.204 133.302 292.292 133.846 292.468C134.39 292.636 134.806 292.868 135.094 293.164C135.39 293.452 135.538 293.78 135.538 294.148C135.538 294.516 135.39 294.844 135.094 295.132C134.806 295.428 134.39 295.66 133.846 295.828C133.302 296.004 132.666 296.092 131.938 296.092ZM132.922 289.54C132.922 289.908 132.806 290.244 132.574 290.548C132.342 290.852 132.018 291.092 131.602 291.268C131.186 291.444 130.71 291.532 130.174 291.532C129.638 291.532 129.162 291.444 128.746 291.268C128.338 291.092 128.018 290.852 127.786 290.548C127.554 290.244 127.438 289.908 127.438 289.54C127.438 289.172 127.554 288.836 127.786 288.532C128.018 288.228 128.342 287.988 128.758 287.812C129.174 287.636 129.646 287.548 130.174 287.548C130.71 287.548 131.186 287.636 131.602 287.812C132.018 287.988 132.342 288.228 132.574 288.532C132.806 288.836 132.922 289.172 132.922 289.54ZM131.938 293.044C131.122 293.044 130.486 293.144 130.03 293.344C129.574 293.536 129.346 293.804 129.346 294.148C129.346 294.492 129.574 294.764 130.03 294.964C130.486 295.156 131.122 295.252 131.938 295.252C132.754 295.252 133.39 295.156 133.846 294.964C134.302 294.764 134.53 294.492 134.53 294.148C134.53 293.804 134.302 293.536 133.846 293.344C133.39 293.144 132.754 293.044 131.938 293.044ZM134.338 285.184H135.346V288.076H136.846V288.964H135.346V292.024H134.338V285.184ZM131.914 289.54C131.914 289.188 131.758 288.904 131.446 288.688C131.134 288.472 130.71 288.364 130.174 288.364C129.638 288.364 129.214 288.472 128.902 288.688C128.598 288.904 128.446 289.188 128.446 289.54C128.446 289.892 128.598 290.176 128.902 290.392C129.214 290.608 129.638 290.716 130.174 290.716C130.71 290.716 131.134 290.608 131.446 290.392C131.758 290.176 131.914 289.892 131.914 289.54ZM126.922 286.24H129.658V285.088H130.666V286.24H133.402V287.08H126.922V286.24ZM139.089 293.044H145.281V292.036H139.089V291.208H146.289V293.848H140.097V294.916H146.529V295.756H139.089V293.044ZM137.697 289.324H141.657V287.404H142.689V289.324H147.681V290.152H137.697V289.324ZM145.089 288.664C145.281 288 145.393 287.22 145.425 286.324H138.873V285.496H146.457C146.433 286.752 146.305 287.808 146.073 288.664H145.089ZM156.416 285.184H157.424V287.176H158.924V288.064H157.424V291.076H156.416V285.184ZM150.68 291.604H157.4V295.756H150.68V291.604ZM156.392 294.904V292.456H151.688V294.904H156.392ZM149.48 285.508H150.488V289.276H151.376C153.192 289.276 154.672 289.18 155.816 288.988V289.84C154.768 290.048 153.288 290.152 151.376 290.152H149.48V285.508ZM161.959 293.044H167.791V292.06H161.959V291.22H168.799V293.86H162.967V294.904H169.039V295.756H161.959V293.044ZM168.823 285.184V290.692H167.815V285.184H168.823ZM159.931 290.032C160.723 289.864 161.455 289.608 162.127 289.264C162.807 288.912 163.363 288.5 163.795 288.028C164.235 287.556 164.503 287.06 164.599 286.54H160.663V285.688H165.751C165.735 286.6 165.459 287.412 164.923 288.124C164.387 288.836 163.719 289.416 162.919 289.864C162.127 290.304 161.311 290.62 160.471 290.812L159.931 290.032ZM180.706 293.14H179.494V294.88H178.438V293.14H173.89V292.708C173.89 292.404 173.926 292.148 173.998 291.94C174.07 291.732 174.186 291.5 174.346 291.244L177.274 286.828C177.45 286.564 177.638 286.384 177.838 286.288C178.038 286.184 178.282 286.132 178.57 286.132H179.494V292.18H180.706V293.14ZM178.438 287.164C178.286 287.172 178.166 287.252 178.078 287.404L175.486 291.316C175.238 291.692 175.082 291.98 175.018 292.18H178.438V287.164ZM185.694 289.192C186.182 289.192 186.642 289.312 187.074 289.552C187.506 289.784 187.854 290.124 188.118 290.572C188.382 291.012 188.514 291.528 188.514 292.12V292.132C188.514 292.716 188.378 293.232 188.106 293.68C187.834 294.12 187.462 294.46 186.99 294.7C186.526 294.94 186.01 295.06 185.442 295.06H185.43C184.494 295.06 183.726 294.76 183.126 294.16C182.534 293.552 182.238 292.612 182.238 291.34V289.84C182.238 288.504 182.554 287.524 183.186 286.9C183.818 286.268 184.622 285.952 185.598 285.952H185.61C186.146 285.952 186.638 286.064 187.086 286.288C187.534 286.504 187.894 286.808 188.166 287.2C188.446 287.584 188.61 288.02 188.658 288.508H187.578C187.482 288.06 187.25 287.692 186.882 287.404C186.522 287.108 186.078 286.96 185.55 286.96H185.538C184.89 286.96 184.362 287.172 183.954 287.596C183.546 288.02 183.342 288.66 183.342 289.516V290.896C183.486 290.352 183.77 289.932 184.194 289.636C184.618 289.34 185.114 289.192 185.682 289.192H185.694ZM185.394 294.064C185.746 294.064 186.074 293.984 186.378 293.824C186.69 293.656 186.938 293.424 187.122 293.128C187.314 292.824 187.41 292.484 187.41 292.108C187.41 291.732 187.314 291.396 187.122 291.1C186.938 290.804 186.69 290.576 186.378 290.416C186.074 290.248 185.746 290.164 185.394 290.164H185.382C185.022 290.164 184.686 290.244 184.374 290.404C184.062 290.556 183.81 290.78 183.618 291.076C183.434 291.364 183.342 291.7 183.342 292.084C183.342 292.468 183.434 292.812 183.618 293.116C183.802 293.412 184.05 293.644 184.362 293.812C184.674 293.98 185.014 294.064 185.382 294.064H185.394Z" fill="#B0B0B0"/>
<path d="M46.5286 265.375V267.563M46.5286 267.563L50.5682 266.552C53.6079 265.792 56.8192 266.145 59.6215 267.546L59.779 267.625C62.5247 268.998 65.6647 269.365 68.653 268.662L73.1884 267.595C72.637 272.684 72.6395 277.817 73.1957 282.906L68.6544 283.973C65.6659 284.677 62.5253 284.31 59.779 282.938L59.6215 282.859C56.8192 281.457 53.6079 281.105 50.5682 281.864L46.5286 282.875M46.5286 267.563V282.875M46.5286 291.625V282.875" stroke="#B0B0B0" stroke-width="2.1875" stroke-linecap="round" stroke-linejoin="round"/>
<path d="M376.501 40.175H371.201V45.6H368.901V40.175H363.601V38.125H368.901V32.7H371.201V38.125H376.501V40.175ZM393.189 48.638C392.097 48.638 391.143 48.494 390.327 48.206C389.511 47.918 388.881 47.528 388.437 47.036C388.005 46.544 387.789 45.986 387.789 45.362C387.789 44.738 388.005 44.18 388.437 43.688C388.881 43.196 389.511 42.806 390.327 42.518C391.143 42.23 392.097 42.086 393.189 42.086C394.281 42.086 395.235 42.23 396.051 42.518C396.867 42.806 397.491 43.196 397.923 43.688C398.367 44.18 398.589 44.738 398.589 45.362C398.589 45.986 398.367 46.544 397.923 47.036C397.491 47.528 396.867 47.918 396.051 48.206C395.235 48.494 394.281 48.638 393.189 48.638ZM394.449 40.79C393.573 40.454 392.751 39.974 391.983 39.35C391.227 38.726 390.645 38.048 390.237 37.316C389.889 38.06 389.325 38.792 388.545 39.512C387.777 40.232 386.895 40.826 385.899 41.294L384.945 40.196C386.253 39.608 387.321 38.822 388.149 37.838C388.989 36.842 389.409 35.768 389.409 34.616V34.31H385.953V33.032H394.449V34.31H390.993V34.598C390.993 35.714 391.401 36.722 392.217 37.622C393.033 38.51 394.041 39.182 395.241 39.638L394.449 40.79ZM393.189 43.382C391.965 43.382 391.011 43.562 390.327 43.922C389.643 44.27 389.301 44.75 389.301 45.362C389.301 45.974 389.643 46.46 390.327 46.82C391.011 47.168 391.965 47.342 393.189 47.342C394.413 47.342 395.367 47.168 396.051 46.82C396.735 46.46 397.077 45.974 397.077 45.362C397.077 44.75 396.735 44.27 396.051 43.922C395.367 43.562 394.413 43.382 393.189 43.382ZM396.789 32.276H398.301V35.894H400.551V37.226H398.301V41.816H396.789V32.276ZM410.089 45.272H416.803V46.568H401.827V45.272H408.541V41.51H410.089V45.272ZM409.315 37.208C408.787 38.216 407.995 39.122 406.939 39.926C405.883 40.718 404.713 41.324 403.429 41.744L402.565 40.556C403.633 40.232 404.623 39.758 405.535 39.134C406.447 38.51 407.173 37.796 407.713 36.992C408.265 36.188 408.541 35.36 408.541 34.508V33.176H410.089V34.508C410.089 35.36 410.359 36.188 410.899 36.992C411.451 37.796 412.183 38.51 413.095 39.134C414.007 39.758 414.997 40.232 416.065 40.556L415.201 41.744C413.917 41.324 412.747 40.718 411.691 39.926C410.635 39.122 409.843 38.216 409.315 37.208ZM430.973 35.21C431.081 35.774 431.411 36.32 431.963 36.848C432.515 37.364 433.223 37.82 434.087 38.216C434.951 38.612 435.887 38.9 436.895 39.08L436.067 40.268C434.819 40.028 433.655 39.602 432.575 38.99C431.495 38.378 430.691 37.676 430.163 36.884C429.635 37.676 428.831 38.378 427.751 38.99C426.671 39.602 425.507 40.028 424.259 40.268L423.431 39.08C424.427 38.9 425.357 38.612 426.221 38.216C427.085 37.82 427.793 37.364 428.345 36.848C428.909 36.32 429.245 35.774 429.353 35.21H424.475V33.932H429.407V32.078H430.919V33.932H435.851V35.21H430.973ZM429.407 43.004H422.675V41.708H437.651V43.004H430.919V48.314H429.407V43.004ZM450.573 32.276H452.085V38.504H454.515V39.872H452.085V48.314H450.573V32.276ZM439.521 44.552C440.805 43.904 441.921 43.076 442.869 42.068C443.817 41.06 444.555 39.962 445.083 38.774C445.623 37.574 445.941 36.362 446.037 35.138H440.349V33.842H447.621C447.597 35.63 447.273 37.292 446.649 38.828C446.025 40.352 445.179 41.69 444.111 42.842C443.055 43.982 441.855 44.906 440.511 45.614L439.521 44.552Z" fill="#B0B0B0"/>
<path d="M47.75 34.65L47.675 34.7C47.4583 34.7 47.2417 34.7417 47.025 34.825L42.85 36.9L42.4 34L46.325 32.05C46.8417 31.8 47.325 31.6417 47.775 31.575C48.2417 31.4917 48.8333 31.45 49.55 31.45H51.225V49.75H47.75V34.65ZM72.2402 29.5H75.0902V40.875H72.2402V29.5ZM62.8652 40.5C61.6986 40.5 60.6569 40.2667 59.7402 39.8C58.8402 39.3167 58.1402 38.6667 57.6402 37.85C57.1569 37.0333 56.9152 36.1333 56.9152 35.15C56.9152 34.1667 57.1569 33.2667 57.6402 32.45C58.1402 31.6333 58.8402 30.9917 59.7402 30.525C60.6569 30.0417 61.6986 29.8 62.8652 29.8C64.0319 29.8 65.0652 30.0417 65.9652 30.525C66.8819 30.9917 67.5819 31.6333 68.0652 32.45C68.5652 33.2667 68.8152 34.1667 68.8152 35.15C68.8152 36.1333 68.5652 37.0333 68.0652 37.85C67.5819 38.6667 66.8819 39.3167 65.9652 39.8C65.0652 40.2667 64.0319 40.5 62.8652 40.5ZM62.8652 32.2C61.8819 32.2 61.1152 32.4833 60.5652 33.05C60.0319 33.6 59.7652 34.3 59.7652 35.15C59.7652 36 60.0319 36.7083 60.5652 37.275C61.1152 37.825 61.8819 38.1 62.8652 38.1C63.8486 38.1 64.6069 37.825 65.1402 37.275C65.6902 36.7083 65.9652 36 65.9652 35.15C65.9652 34.3 65.6902 33.6 65.1402 33.05C64.6069 32.4833 63.8486 32.2 62.8652 32.2ZM60.4902 45.575H72.1902V44.275H60.4902V41.875H75.0402V47.825H63.3402V49.2H75.5402V51.625H60.4902V45.575ZM87.3883 36.1C87.3883 38.15 87.9299 39.9417 89.0133 41.475C90.1133 43.0083 91.5549 44.225 93.3383 45.125L91.6633 47.3C90.3966 46.6167 89.2799 45.8 88.3133 44.85C87.3466 43.8833 86.5716 42.8083 85.9883 41.625C85.5216 42.8083 84.7799 43.9417 83.7633 45.025C82.7633 46.0917 81.5383 47.05 80.0883 47.9L78.1633 45.875C80.1133 44.8083 81.6466 43.45 82.7633 41.8C83.8799 40.15 84.4383 38.2333 84.4383 36.05V35.95H79.7383V33.4H84.4883V30.225H87.3383V33.4H92.0883V35.95H87.3883V36.1ZM94.2383 29.5H97.0883V37.825H100.363V40.475H97.0883V51.875H94.2383V29.5Z" fill="#B563E8"/>
</g>
<defs>
<filter id="filter0_d_526_409" x="0" y="0" width="500" height="354" filterUnits="userSpaceOnUse" color-interpolation-filters="sRGB">
<feFlood flood-opacity="0" result="BackgroundImageFix"/>
<feColorMatrix in="SourceAlpha" type="matrix" values="0 0 0 0 0 0 0 0 0 0 0 0 0 0 0 0 0 0 127 0" result="hardAlpha"/>
<feOffset dx="2" dy="4"/>
<feGaussianBlur stdDeviation="7.5"/>
<feComposite in2="hardAlpha" operator="out"/>
<feColorMatrix type="matrix" values="0 0 0 0 0 0 0 0 0 0 0 0 0 0 0 0 0 0 0.1 0"/>
<feBlend mode="normal" in2="BackgroundImageFix" result="effect1_dropShadow_526_409"/>
<feBlend mode="normal" in="SourceGraphic" in2="effect1_dropShadow_526_409" result="shape"/>
</filter>
</defs>
</svg>
