<svg width="470" height="220" viewBox="0 0 470 220" fill="none" xmlns="http://www.w3.org/2000/svg">
<g filter="url(#filter0_d_514_13666)">
<rect x="13" y="11" width="440" height="190" rx="30" fill="white"/>
<rect x="13.5" y="11.5" width="439" height="189" rx="29.5" stroke="#D9D9D9"/>
<path d="M110.377 75.82C109.151 75.82 108.071 75.66 107.137 75.34C106.217 75.02 105.511 74.58 105.017 74.02C104.524 73.46 104.277 72.8267 104.277 72.12C104.277 71.4133 104.524 70.78 105.017 70.22C105.511 69.66 106.217 69.22 107.137 68.9C108.071 68.58 109.151 68.42 110.377 68.42C111.604 68.42 112.677 68.58 113.597 68.9C114.531 69.22 115.244 69.66 115.737 70.22C116.231 70.78 116.477 71.4133 116.477 72.12C116.477 72.8267 116.231 73.46 115.737 74.02C115.244 74.58 114.531 75.02 113.597 75.34C112.677 75.66 111.604 75.82 110.377 75.82ZM110.377 69.86C108.977 69.86 107.891 70.0667 107.117 70.48C106.344 70.88 105.957 71.4267 105.957 72.12C105.957 72.8133 106.344 73.3667 107.117 73.78C107.891 74.18 108.977 74.38 110.377 74.38C111.777 74.38 112.864 74.18 113.637 73.78C114.411 73.3667 114.797 72.8133 114.797 72.12C114.797 71.4267 114.411 70.88 113.637 70.48C112.864 70.0667 111.777 69.86 110.377 69.86ZM101.337 66.7C103.484 66.1267 105.224 65.2333 106.557 64.02C107.891 62.7933 108.704 61.4267 108.997 59.92H102.557V58.48H110.917C110.851 60.1333 110.404 61.6067 109.577 62.9C108.751 64.1933 107.697 65.26 106.417 66.1C105.137 66.94 103.764 67.5667 102.297 67.98L101.337 66.7ZM114.477 65.72H110.837V64.3H114.477V61.9H111.337V60.48H114.477V57.64H116.157V68.12H114.477V65.72ZM132.116 60.02V57.76H133.796V64.84H128.656V66.8H136.116V68.22H119.476V66.8H126.936V64.84H121.796V57.76H123.476V60.02H132.116ZM132.116 71.26H121.516V69.82H133.796V75.56H132.116V71.26ZM132.116 61.38H123.476V63.42H132.116V61.38ZM146.954 68.6C148.127 68.6533 149.141 68.8467 149.994 69.18C150.861 69.5 151.514 69.92 151.954 70.44C152.407 70.96 152.634 71.5467 152.634 72.2C152.634 72.8933 152.374 73.5133 151.854 74.06C151.347 74.6067 150.607 75.0333 149.634 75.34C148.674 75.66 147.527 75.82 146.194 75.82C144.861 75.82 143.707 75.66 142.734 75.34C141.774 75.0333 141.034 74.6067 140.514 74.06C140.007 73.5133 139.754 72.8933 139.754 72.2C139.754 71.56 139.967 70.9867 140.394 70.48C140.834 69.96 141.461 69.54 142.274 69.22C143.101 68.8867 144.087 68.6867 145.234 68.62V66.02H137.874V64.6H150.054C150.227 63.8267 150.374 62.9867 150.494 62.08C150.627 61.16 150.714 60.3267 150.754 59.58H139.834V58.16H152.474C152.407 60.3333 152.147 62.48 151.694 64.6H154.514V66.02H146.954V68.6ZM146.194 70C144.701 70 143.534 70.2 142.694 70.6C141.854 70.9867 141.434 71.52 141.434 72.2C141.434 72.88 141.854 73.42 142.694 73.82C143.534 74.2067 144.701 74.4 146.194 74.4C147.687 74.4 148.854 74.2067 149.694 73.82C150.534 73.42 150.954 72.88 150.954 72.2C150.954 71.52 150.534 70.9867 149.694 70.6C148.854 70.2 147.687 70 146.194 70Z" fill="#A14CD7"/>
<path d="M164.593 64.04C163.313 64.04 162.193 63.9 161.233 63.62C160.286 63.34 159.559 62.9533 159.053 62.46C158.546 61.9667 158.293 61.4 158.293 60.76C158.293 60.12 158.546 59.5533 159.053 59.06C159.559 58.5667 160.286 58.18 161.233 57.9C162.193 57.62 163.313 57.48 164.593 57.48C165.873 57.48 166.986 57.62 167.933 57.9C168.893 58.18 169.626 58.5667 170.133 59.06C170.639 59.5533 170.893 60.12 170.893 60.76C170.893 61.4 170.639 61.9667 170.133 62.46C169.626 62.9533 168.893 63.34 167.933 63.62C166.986 63.9 165.873 64.04 164.593 64.04ZM164.593 58.86C163.206 58.86 162.086 59.0267 161.233 59.36C160.393 59.6933 159.973 60.16 159.973 60.76C159.973 61.36 160.393 61.8267 161.233 62.16C162.086 62.4933 163.206 62.66 164.593 62.66C165.979 62.66 167.093 62.4933 167.933 62.16C168.786 61.8267 169.213 61.36 169.213 60.76C169.213 60.16 168.786 59.6933 167.933 59.36C167.093 59.0267 165.979 58.86 164.593 58.86ZM156.273 65.2H172.913V66.58H156.273V65.2ZM158.593 70.96H168.913V69.5H158.593V68.12H170.593V72.3H160.273V73.86H170.993V75.26H158.593V70.96ZM192.637 65.86H189.077C189.037 67.1933 188.817 68.3267 188.417 69.26C188.03 70.1933 187.51 70.9 186.857 71.38C186.203 71.86 185.47 72.1 184.657 72.1C183.817 72.1 183.063 71.8467 182.397 71.34C181.73 70.8333 181.203 70.08 180.817 69.08C180.43 68.0667 180.237 66.8533 180.237 65.44C180.237 64.0267 180.43 62.82 180.817 61.82C181.203 60.8067 181.73 60.0467 182.397 59.54C183.063 59.0333 183.817 58.78 184.657 58.78C185.417 58.78 186.11 58.9933 186.737 59.42C187.363 59.8467 187.877 60.48 188.277 61.32C188.69 62.16 188.943 63.18 189.037 64.38H192.637V57.64H194.317V75.46H192.637V65.86ZM184.657 60.22C183.83 60.22 183.157 60.6667 182.637 61.56C182.13 62.4533 181.877 63.7467 181.877 65.44C181.877 67.1333 182.13 68.4267 182.637 69.32C183.157 70.2133 183.83 70.66 184.657 70.66C185.483 70.66 186.15 70.2133 186.657 69.32C187.177 68.4267 187.437 67.1333 187.437 65.44C187.437 63.7467 187.177 62.4533 186.657 61.56C186.15 60.6667 185.483 60.22 184.657 60.22ZM211.475 63.4H208.315V61.98H211.475V57.64H213.115V70.64H211.475V63.4ZM210.175 67.02C209.308 67.22 208.148 67.32 206.695 67.32H204.395V58.48H209.215V59.9H206.055V65.88H206.735C208.242 65.88 209.388 65.7933 210.175 65.62V67.02ZM201.755 69.24H203.455V73.72H213.515V75.16H201.755V69.24ZM203.795 67.1C203.048 67.2467 202.082 67.32 200.895 67.32H198.995V58.48H203.595V59.9H200.635V65.88H200.915C202.142 65.88 203.102 65.8133 203.795 65.68V67.1ZM229.799 75.82C228.586 75.82 227.526 75.66 226.619 75.34C225.712 75.02 225.012 74.5867 224.519 74.04C224.039 73.4933 223.799 72.8733 223.799 72.18C223.799 71.4867 224.039 70.8667 224.519 70.32C225.012 69.7733 225.712 69.34 226.619 69.02C227.526 68.7 228.586 68.54 229.799 68.54C231.012 68.54 232.072 68.7 232.979 69.02C233.886 69.34 234.579 69.7733 235.059 70.32C235.552 70.8667 235.799 71.4867 235.799 72.18C235.799 72.8733 235.552 73.4933 235.059 74.04C234.579 74.5867 233.886 75.02 232.979 75.34C232.072 75.66 231.012 75.82 229.799 75.82ZM231.199 67.1C230.226 66.7267 229.312 66.1933 228.459 65.5C227.619 64.8067 226.972 64.0533 226.519 63.24C226.132 64.0667 225.506 64.88 224.639 65.68C223.786 66.48 222.806 67.14 221.699 67.66L220.639 66.44C222.092 65.7867 223.279 64.9133 224.199 63.82C225.132 62.7133 225.599 61.52 225.599 60.24V59.9H221.759V58.48H231.199V59.9H227.359V60.22C227.359 61.46 227.812 62.58 228.719 63.58C229.626 64.5667 230.746 65.3133 232.079 65.82L231.199 67.1ZM229.799 69.98C228.439 69.98 227.379 70.18 226.619 70.58C225.859 70.9667 225.479 71.5 225.479 72.18C225.479 72.86 225.859 73.4 226.619 73.8C227.379 74.1867 228.439 74.38 229.799 74.38C231.159 74.38 232.219 74.1867 232.979 73.8C233.739 73.4 234.119 72.86 234.119 72.18C234.119 71.5 233.739 70.9667 232.979 70.58C232.219 70.18 231.159 69.98 229.799 69.98ZM233.799 57.64H235.479V61.66H237.979V63.14H235.479V68.24H233.799V57.64ZM248.578 72.08H256.038V73.52H239.398V72.08H246.858V67.9H248.578V72.08ZM247.718 63.12C247.131 64.24 246.251 65.2467 245.078 66.14C243.904 67.02 242.604 67.6933 241.178 68.16L240.218 66.84C241.404 66.48 242.504 65.9533 243.518 65.26C244.531 64.5667 245.338 63.7733 245.938 62.88C246.551 61.9867 246.858 61.0667 246.858 60.12V58.64H248.578V60.12C248.578 61.0667 248.878 61.9867 249.478 62.88C250.091 63.7733 250.904 64.5667 251.918 65.26C252.931 65.9533 254.031 66.48 255.218 66.84L254.258 68.16C252.831 67.6933 251.531 67.02 250.358 66.14C249.184 65.2467 248.304 64.24 247.718 63.12ZM267.076 72.08H274.436V73.52H257.796V72.08H265.356V68.88H260.156V63.14H270.296V60.34H260.156V58.92H271.976V64.54H261.836V67.44H272.376V68.88H267.076V72.08ZM282.04 59.18H283.72V63.8H288.6V59.18H290.28V71.42H282.04V59.18ZM283.72 65.22V69.98H288.6V65.22H283.72ZM293.56 57.64H295.24V64.56H297.94V66.08H295.24V75.46H293.56V57.64ZM308.539 67.48H313.679V71.98H303.359V73.86H314.079V75.26H301.679V70.64H311.999V68.86H301.679V67.48H306.819V65.12H299.359V63.74H304.479C304.852 62.2467 305.079 60.8467 305.159 59.54H301.119V58.16H306.879C306.812 59.9867 306.559 61.8467 306.119 63.74H311.679C311.972 62.54 312.172 61.14 312.279 59.54H307.519V58.16H313.999C313.919 60.2667 313.692 62.1267 313.319 63.74H315.999V65.12H308.539V67.48ZM330.797 57.64H332.437V64.46H335.037V65.98H332.437V75.46H330.797V57.64ZM323.117 72.12C324.53 70.5867 325.524 68.9133 326.097 67.1C326.684 65.2867 327.01 63.1867 327.077 60.8H323.997V59.38H328.797C328.784 61.4867 328.644 63.32 328.377 64.88C328.11 66.44 327.664 67.88 327.037 69.2C326.41 70.52 325.557 71.8 324.477 73.04L323.117 72.12ZM317.597 70.98C318.957 69.58 319.95 68.0333 320.577 66.34C321.204 64.6467 321.57 62.8 321.677 60.8H318.797V59.38H323.397C323.357 62.1133 322.997 64.46 322.317 66.42C321.637 68.3667 320.53 70.1667 318.997 71.82L317.597 70.98ZM344.495 68C343.295 68 342.215 67.7867 341.255 67.36C340.295 66.9333 339.542 66.3533 338.995 65.62C338.462 64.8867 338.195 64.0733 338.195 63.18C338.195 62.2867 338.462 61.4733 338.995 60.74C339.542 60.0067 340.295 59.4267 341.255 59C342.215 58.5733 343.295 58.36 344.495 58.36C345.695 58.36 346.775 58.5733 347.735 59C348.695 59.4267 349.442 60.0067 349.975 60.74C350.522 61.4733 350.795 62.2867 350.795 63.18C350.795 64.0733 350.522 64.8867 349.975 65.62C349.442 66.3533 348.695 66.9333 347.735 67.36C346.775 67.7867 345.695 68 344.495 68ZM344.495 59.8C343.602 59.8 342.802 59.9467 342.095 60.24C341.402 60.5333 340.855 60.94 340.455 61.46C340.069 61.9667 339.875 62.54 339.875 63.18C339.875 63.82 340.069 64.4 340.455 64.92C340.855 65.4267 341.402 65.8267 342.095 66.12C342.802 66.4133 343.602 66.56 344.495 66.56C345.389 66.56 346.182 66.4133 346.875 66.12C347.582 65.8267 348.129 65.4267 348.515 64.92C348.915 64.4 349.115 63.82 349.115 63.18C349.115 62.54 348.915 61.9667 348.515 61.46C348.129 60.94 347.582 60.5333 346.875 60.24C346.182 59.9467 345.389 59.8 344.495 59.8ZM340.075 68.58H341.715V72.08H347.235V68.58H348.875V72.08H352.795V73.52H336.155V72.08H340.075V68.58ZM358.314 69.26C358.247 68.9267 358.214 68.6533 358.214 68.44C358.214 67.84 358.38 67.3133 358.714 66.86C359.06 66.4067 359.58 65.9867 360.274 65.6C361.074 65.1333 361.667 64.7 362.054 64.3C362.454 63.8867 362.654 63.4 362.654 62.84C362.654 62.4133 362.52 62.0267 362.254 61.68C362 61.32 361.647 61.04 361.194 60.84C360.754 60.6267 360.267 60.52 359.734 60.52C359.187 60.52 358.687 60.6333 358.234 60.86C357.794 61.0867 357.44 61.4 357.174 61.8C356.92 62.1867 356.794 62.62 356.794 63.1H354.954C354.954 62.2867 355.16 61.5667 355.574 60.94C356 60.3 356.574 59.8067 357.294 59.46C358.027 59.1 358.84 58.92 359.734 58.92C360.614 58.92 361.414 59.0867 362.134 59.42C362.867 59.74 363.447 60.1933 363.874 60.78C364.3 61.3667 364.514 62.0267 364.514 62.76C364.514 63.4133 364.387 63.9733 364.134 64.44C363.88 64.8933 363.514 65.3067 363.034 65.68C362.567 66.04 361.887 66.4933 360.994 67.04C360.647 67.2533 360.387 67.48 360.214 67.72C360.04 67.9467 359.954 68.2133 359.954 68.52C359.954 68.7467 360 68.9933 360.094 69.26H358.314ZM359.634 74.02C359.234 74.02 358.9 73.8867 358.634 73.62C358.38 73.3533 358.254 73.0267 358.254 72.64C358.254 72.2533 358.38 71.9267 358.634 71.66C358.9 71.3933 359.234 71.26 359.634 71.26C360.02 71.26 360.34 71.3933 360.594 71.66C360.86 71.9267 360.994 72.2533 360.994 72.64C360.994 73.0267 360.86 73.3533 360.594 73.62C360.327 73.8867 360.007 74.02 359.634 74.02Z" fill="black"/>
<rect x="43.5" y="111.5" width="379" height="49" rx="14.5" fill="#EFEFEF"/>
<rect x="43.5" y="111.5" width="379" height="49" rx="14.5" stroke="#D9D9D9"/>
<path d="M400.5 123.5L386.75 137.25M400.5 123.5L391.75 148.5L386.75 137.25M400.5 123.5L375.5 132.25L386.75 137.25" stroke="#1E1E1E" stroke-width="3" stroke-linecap="round" stroke-linejoin="round"/>
</g>
<defs>
<filter id="filter0_d_514_13666" x="0" y="0" width="470" height="220" filterUnits="userSpaceOnUse" color-interpolation-filters="sRGB">
<feFlood flood-opacity="0" result="BackgroundImageFix"/>
<feColorMatrix in="SourceAlpha" type="matrix" values="0 0 0 0 0 0 0 0 0 0 0 0 0 0 0 0 0 0 127 0" result="hardAlpha"/>
<feOffset dx="2" dy="4"/>
<feGaussianBlur stdDeviation="7.5"/>
<feComposite in2="hardAlpha" operator="out"/>
<feColorMatrix type="matrix" values="0 0 0 0 0 0 0 0 0 0 0 0 0 0 0 0 0 0 0.1 0"/>
<feBlend mode="normal" in2="BackgroundImageFix" result="effect1_dropShadow_514_13666"/>
<feBlend mode="normal" in="SourceGraphic" in2="effect1_dropShadow_514_13666" result="shape"/>
</filter>
</defs>
</svg>
