<svg width="550" height="550" viewBox="0 0 550 550" fill="none" xmlns="http://www.w3.org/2000/svg">
<g clip-path="url(#clip0_669_355)">
<g filter="url(#filter0_f_669_355)">
<circle cx="260" cy="275" r="165" fill="#F6E6FF"/>
</g>
<g filter="url(#filter1_d_669_355)">
<rect x="97" y="340" width="359" height="80" rx="25" fill="white"/>
<rect x="97.5" y="340.5" width="358" height="79" rx="24.5" stroke="#D9D9D9"/>
<path d="M143.916 372.114H145.41V388.386H143.916V372.114ZM145.014 378.72H148.002V379.962H145.014V378.72ZM139.758 373.86H141.216C141.216 375.408 140.964 376.89 140.46 378.306C139.956 379.71 139.164 381.012 138.084 382.212C137.004 383.4 135.582 384.432 133.818 385.308L132.99 384.156C134.502 383.4 135.756 382.518 136.752 381.51C137.76 380.49 138.51 379.362 139.002 378.126C139.506 376.878 139.758 375.534 139.758 374.094V373.86ZM133.746 373.86H140.514V375.102H133.746V373.86ZM155.849 373.41H157.163V373.914C157.163 374.43 157.049 374.922 156.821 375.39C156.605 375.846 156.299 376.266 155.903 376.65C155.507 377.022 155.039 377.352 154.499 377.64C153.971 377.916 153.395 378.15 152.771 378.342C152.147 378.534 151.499 378.672 150.827 378.756L150.269 377.568C150.857 377.508 151.421 377.4 151.961 377.244C152.513 377.088 153.023 376.902 153.491 376.686C153.971 376.458 154.385 376.2 154.733 375.912C155.081 375.624 155.351 375.312 155.543 374.976C155.747 374.64 155.849 374.286 155.849 373.914V373.41ZM156.461 373.41H157.775V373.914C157.775 374.274 157.871 374.628 158.063 374.976C158.267 375.312 158.543 375.624 158.891 375.912C159.251 376.188 159.665 376.44 160.133 376.668C160.601 376.896 161.105 377.088 161.645 377.244C162.197 377.4 162.767 377.508 163.355 377.568L162.797 378.756C162.125 378.672 161.477 378.534 160.853 378.342C160.229 378.15 159.647 377.91 159.107 377.622C158.579 377.334 158.117 377.004 157.721 376.632C157.325 376.248 157.013 375.828 156.785 375.372C156.569 374.916 156.461 374.43 156.461 373.914V373.41ZM150.809 372.78H162.833V373.986H150.809V372.78ZM149.459 380.286H164.201V381.51H149.459V380.286ZM156.065 377.838H157.541V380.88H156.065V377.838ZM151.097 383.112H162.347V388.404H160.853V384.318H151.097V383.112ZM166.755 373.896H174.099V375.12H166.755V373.896ZM169.293 378.558H170.769V384.066H169.293V378.558ZM173.487 373.896H174.963V374.778C174.963 375.438 174.939 376.302 174.891 377.37C174.855 378.438 174.723 379.728 174.495 381.24L173.019 381.114C173.259 379.638 173.397 378.378 173.433 377.334C173.469 376.29 173.487 375.438 173.487 374.778V373.896ZM176.997 372.114H178.491V388.404H176.997V372.114ZM178.077 378.918H181.083V380.196H178.077V378.918ZM166.035 384.84L165.855 383.598C166.827 383.586 167.889 383.574 169.041 383.562C170.205 383.538 171.381 383.49 172.569 383.418C173.769 383.346 174.915 383.244 176.007 383.112L176.097 384.228C174.969 384.408 173.811 384.54 172.623 384.624C171.447 384.708 170.295 384.768 169.167 384.804C168.039 384.828 166.995 384.84 166.035 384.84ZM189.211 379.728H200.389V380.934H189.211V379.728ZM187.339 385.11H202.099V386.352H187.339V385.11ZM193.945 380.25H195.421V385.596H193.945V380.25ZM189.211 373.41H200.227V374.652H190.705V380.268H189.211V373.41ZM215.742 372.132H217.236V381.366H215.742V372.132ZM206.724 382.302H217.236V388.188H206.724V382.302ZM215.778 383.508H208.182V386.964H215.778V383.508ZM208.128 372.762H209.37V374.346C209.37 375.354 209.178 376.302 208.794 377.19C208.41 378.066 207.87 378.828 207.174 379.476C206.49 380.124 205.686 380.622 204.762 380.97L204.024 379.782C204.636 379.566 205.194 379.272 205.698 378.9C206.202 378.528 206.634 378.102 206.994 377.622C207.366 377.142 207.648 376.626 207.84 376.074C208.032 375.51 208.128 374.934 208.128 374.346V372.762ZM208.398 372.762H209.64V374.346C209.64 374.922 209.736 375.474 209.928 376.002C210.132 376.53 210.414 377.022 210.774 377.478C211.146 377.922 211.578 378.318 212.07 378.666C212.574 379.014 213.126 379.29 213.726 379.494L212.988 380.646C212.316 380.418 211.698 380.1 211.134 379.692C210.57 379.284 210.084 378.804 209.676 378.252C209.268 377.7 208.95 377.094 208.722 376.434C208.506 375.774 208.398 375.078 208.398 374.346V372.762ZM225.22 380.286H239.962V381.51H225.22V380.286ZM231.826 377.802H233.302V380.844H231.826V377.802ZM231.808 372.366H233.086V373.104C233.086 373.68 232.972 374.226 232.744 374.742C232.516 375.258 232.192 375.732 231.772 376.164C231.364 376.596 230.89 376.98 230.35 377.316C229.81 377.64 229.228 377.922 228.604 378.162C227.98 378.39 227.332 378.558 226.66 378.666L226.102 377.478C226.678 377.394 227.242 377.262 227.794 377.082C228.358 376.89 228.88 376.662 229.36 376.398C229.84 376.122 230.26 375.81 230.62 375.462C230.992 375.114 231.28 374.742 231.484 374.346C231.7 373.95 231.808 373.536 231.808 373.104V372.366ZM232.042 372.366H233.32V373.104C233.32 373.536 233.422 373.95 233.626 374.346C233.83 374.742 234.118 375.114 234.49 375.462C234.862 375.798 235.288 376.104 235.768 376.38C236.248 376.656 236.764 376.89 237.316 377.082C237.88 377.262 238.45 377.394 239.026 377.478L238.45 378.666C237.79 378.558 237.148 378.39 236.524 378.162C235.912 377.922 235.33 377.634 234.778 377.298C234.238 376.962 233.758 376.584 233.338 376.164C232.93 375.732 232.612 375.264 232.384 374.76C232.156 374.244 232.042 373.692 232.042 373.104V372.366ZM226.858 383.094H238.108V388.404H236.614V384.282H226.858V383.094ZM250.557 374.454H251.763V377.082C251.763 377.934 251.643 378.78 251.403 379.62C251.163 380.448 250.827 381.234 250.395 381.978C249.975 382.71 249.489 383.364 248.937 383.94C248.385 384.504 247.791 384.948 247.155 385.272L246.273 384.084C246.861 383.796 247.407 383.406 247.911 382.914C248.427 382.41 248.883 381.84 249.279 381.204C249.675 380.556 249.987 379.884 250.215 379.188C250.443 378.48 250.557 377.778 250.557 377.082V374.454ZM250.845 374.454H252.033V377.082C252.033 377.73 252.135 378.384 252.339 379.044C252.555 379.704 252.855 380.334 253.239 380.934C253.623 381.534 254.067 382.074 254.571 382.554C255.087 383.022 255.633 383.4 256.209 383.688L255.363 384.876C254.727 384.552 254.133 384.12 253.581 383.58C253.029 383.028 252.549 382.404 252.141 381.708C251.733 381.012 251.415 380.268 251.187 379.476C250.959 378.684 250.845 377.886 250.845 377.082V374.454ZM246.849 373.788H255.633V375.03H246.849V373.788ZM257.559 372.114H259.053V388.404H257.559V372.114ZM258.711 378.684H261.717V379.944H258.711V378.684ZM270.625 374.67H275.521V375.894H270.625V374.67ZM270.625 378.558H275.521V379.782H270.625V378.558ZM274.999 372.132H276.493V384.156H274.999V372.132ZM266.107 386.82H276.943V388.044H266.107V386.82ZM266.107 382.914H267.583V387.342H266.107V382.914ZM267.547 373.158C268.339 373.158 269.047 373.332 269.671 373.68C270.307 374.028 270.805 374.508 271.165 375.12C271.537 375.732 271.723 376.434 271.723 377.226C271.723 378.03 271.537 378.738 271.165 379.35C270.805 379.962 270.307 380.442 269.671 380.79C269.047 381.138 268.339 381.312 267.547 381.312C266.743 381.312 266.023 381.138 265.387 380.79C264.763 380.442 264.265 379.962 263.893 379.35C263.533 378.738 263.353 378.03 263.353 377.226C263.353 376.434 263.533 375.732 263.893 375.12C264.265 374.508 264.763 374.028 265.387 373.68C266.023 373.332 266.743 373.158 267.547 373.158ZM267.547 374.49C267.019 374.49 266.545 374.61 266.125 374.85C265.705 375.078 265.375 375.402 265.135 375.822C264.895 376.23 264.775 376.704 264.775 377.244C264.775 377.772 264.895 378.246 265.135 378.666C265.375 379.086 265.705 379.416 266.125 379.656C266.545 379.884 267.019 379.998 267.547 379.998C268.063 379.998 268.531 379.884 268.951 379.656C269.371 379.416 269.701 379.086 269.941 378.666C270.181 378.246 270.301 377.772 270.301 377.244C270.301 376.704 270.181 376.23 269.941 375.822C269.701 375.402 269.371 375.078 268.951 374.85C268.531 374.61 268.063 374.49 267.547 374.49ZM286.266 378.45H289.326V379.674H286.266V378.45ZM292.062 372.114H293.502V388.404H292.062V372.114ZM288.822 372.456H290.244V387.576H288.822V372.456ZM283.314 373.482C284.022 373.482 284.634 373.71 285.15 374.166C285.678 374.622 286.086 375.276 286.374 376.128C286.662 376.98 286.806 377.982 286.806 379.134C286.806 380.298 286.662 381.306 286.374 382.158C286.086 383.01 285.678 383.67 285.15 384.138C284.634 384.594 284.022 384.822 283.314 384.822C282.63 384.822 282.024 384.594 281.496 384.138C280.98 383.67 280.578 383.01 280.29 382.158C280.002 381.306 279.858 380.298 279.858 379.134C279.858 377.982 280.002 376.98 280.29 376.128C280.578 375.276 280.98 374.622 281.496 374.166C282.024 373.71 282.63 373.482 283.314 373.482ZM283.314 374.868C282.894 374.868 282.528 375.042 282.216 375.39C281.904 375.738 281.664 376.23 281.496 376.866C281.328 377.502 281.244 378.258 281.244 379.134C281.244 380.01 281.328 380.772 281.496 381.42C281.664 382.056 281.904 382.548 282.216 382.896C282.528 383.244 282.894 383.418 283.314 383.418C283.746 383.418 284.118 383.244 284.43 382.896C284.754 382.548 285 382.056 285.168 381.42C285.336 380.772 285.42 380.01 285.42 379.134C285.42 378.258 285.336 377.502 285.168 376.866C285 376.23 284.754 375.738 284.43 375.39C284.118 375.042 283.746 374.868 283.314 374.868ZM304.354 377.64H308.872V378.864H304.354V377.64ZM300.412 373.518H301.636V376.434C301.636 377.334 301.522 378.222 301.294 379.098C301.078 379.974 300.766 380.79 300.358 381.546C299.95 382.302 299.47 382.974 298.918 383.562C298.378 384.15 297.784 384.618 297.136 384.966L296.2 383.76C296.8 383.472 297.352 383.07 297.856 382.554C298.372 382.038 298.822 381.45 299.206 380.79C299.59 380.118 299.884 379.416 300.088 378.684C300.304 377.94 300.412 377.19 300.412 376.434V373.518ZM300.718 373.518H301.924V376.434C301.924 377.166 302.026 377.892 302.23 378.612C302.446 379.332 302.746 380.01 303.13 380.646C303.514 381.27 303.958 381.828 304.462 382.32C304.978 382.812 305.53 383.196 306.118 383.472L305.218 384.678C304.57 384.342 303.97 383.892 303.418 383.328C302.866 382.764 302.386 382.116 301.978 381.384C301.582 380.652 301.27 379.866 301.042 379.026C300.826 378.186 300.718 377.322 300.718 376.434V373.518ZM308.134 372.114H309.61V388.422H308.134V372.114ZM329.385 372.06H330.879V381.06H329.385V372.06ZM320.349 381.87H330.879V385.506H321.843V387.378H320.385V384.426H329.403V383.004H320.349V381.87ZM320.385 387.072H331.419V388.224H320.385V387.072ZM317.775 373.572H327.657V374.742H317.775V373.572ZM322.725 375.498C323.925 375.498 324.885 375.738 325.605 376.218C326.325 376.686 326.685 377.334 326.685 378.162C326.685 378.978 326.325 379.626 325.605 380.106C324.885 380.586 323.925 380.826 322.725 380.826C321.513 380.826 320.547 380.586 319.827 380.106C319.107 379.626 318.747 378.978 318.747 378.162C318.747 377.334 319.107 376.686 319.827 376.218C320.547 375.738 321.513 375.498 322.725 375.498ZM322.725 376.596C321.957 376.596 321.339 376.74 320.871 377.028C320.403 377.304 320.169 377.682 320.169 378.162C320.169 378.642 320.403 379.026 320.871 379.314C321.339 379.59 321.957 379.728 322.725 379.728C323.493 379.728 324.105 379.59 324.561 379.314C325.029 379.026 325.263 378.642 325.263 378.162C325.263 377.682 325.029 377.304 324.561 377.028C324.105 376.74 323.493 376.596 322.725 376.596ZM321.969 371.934H323.481V374.184H321.969V371.934ZM345.943 372.132H347.437V382.14H345.943V372.132ZM334.945 379.908H336.259C337.243 379.908 338.155 379.896 338.995 379.872C339.847 379.848 340.675 379.8 341.479 379.728C342.283 379.644 343.117 379.536 343.981 379.404L344.161 380.628C343.261 380.76 342.397 380.868 341.569 380.952C340.753 381.036 339.913 381.09 339.049 381.114C338.197 381.138 337.267 381.15 336.259 381.15H334.945V379.908ZM334.909 373.158H342.289V377.64H336.403V380.61H334.945V376.488H340.831V374.382H334.909V373.158ZM342.073 382.482C343.777 382.482 345.115 382.74 346.087 383.256C347.059 383.76 347.545 384.48 347.545 385.416C347.545 386.352 347.059 387.078 346.087 387.594C345.115 388.11 343.777 388.368 342.073 388.368C340.381 388.368 339.049 388.11 338.077 387.594C337.105 387.078 336.619 386.352 336.619 385.416C336.619 384.48 337.105 383.76 338.077 383.256C339.049 382.74 340.381 382.482 342.073 382.482ZM342.073 383.67C341.257 383.67 340.549 383.742 339.949 383.886C339.349 384.018 338.887 384.216 338.563 384.48C338.251 384.732 338.095 385.044 338.095 385.416C338.095 385.788 338.251 386.106 338.563 386.37C338.887 386.634 339.349 386.838 339.949 386.982C340.549 387.114 341.257 387.18 342.073 387.18C342.901 387.18 343.609 387.114 344.197 386.982C344.797 386.838 345.253 386.634 345.565 386.37C345.889 386.106 346.051 385.788 346.051 385.416C346.051 385.044 345.889 384.732 345.565 384.48C345.253 384.216 344.797 384.018 344.197 383.886C343.609 383.742 342.901 383.67 342.073 383.67ZM361.692 372.114H363.168V388.404H361.692V372.114ZM362.826 378.81H365.832V380.07H362.826V378.81ZM350.568 374.724H360.162V375.948H350.568V374.724ZM355.446 377.28C356.214 377.28 356.892 377.442 357.48 377.766C358.08 378.09 358.548 378.534 358.884 379.098C359.232 379.65 359.406 380.292 359.406 381.024C359.406 381.756 359.232 382.404 358.884 382.968C358.548 383.532 358.08 383.976 357.48 384.3C356.892 384.612 356.214 384.768 355.446 384.768C354.678 384.768 353.994 384.612 353.394 384.3C352.806 383.976 352.338 383.532 351.99 382.968C351.642 382.404 351.468 381.756 351.468 381.024C351.468 380.292 351.642 379.65 351.99 379.098C352.338 378.534 352.806 378.09 353.394 377.766C353.994 377.442 354.678 377.28 355.446 377.28ZM355.446 378.522C354.954 378.522 354.516 378.63 354.132 378.846C353.748 379.062 353.442 379.356 353.214 379.728C352.998 380.1 352.89 380.532 352.89 381.024C352.89 381.516 352.998 381.954 353.214 382.338C353.442 382.71 353.748 383.004 354.132 383.22C354.516 383.424 354.954 383.526 355.446 383.526C355.926 383.526 356.358 383.424 356.742 383.22C357.126 383.004 357.426 382.71 357.642 382.338C357.87 381.954 357.984 381.516 357.984 381.024C357.984 380.532 357.87 380.1 357.642 379.728C357.426 379.356 357.126 379.062 356.742 378.846C356.358 378.63 355.926 378.522 355.446 378.522ZM354.672 372.312H356.166V375.264H354.672V372.312ZM368.782 373.752H379.258V374.976H368.782V373.752ZM367.216 384.876H381.922V386.118H367.216V384.876ZM372.94 379.062H374.416V385.506H372.94V379.062ZM378.682 373.752H380.176V375.354C380.176 376.026 380.164 376.734 380.14 377.478C380.128 378.222 380.08 379.038 379.996 379.926C379.924 380.814 379.786 381.804 379.582 382.896L378.07 382.716C378.382 381.156 378.562 379.788 378.61 378.612C378.658 377.424 378.682 376.338 378.682 375.354V373.752ZM400.383 372.132H401.877V381.168H400.383V372.132ZM392.769 372.726H394.011V374.31C394.011 375.306 393.819 376.242 393.435 377.118C393.051 377.982 392.511 378.738 391.815 379.386C391.119 380.022 390.309 380.508 389.385 380.844L388.629 379.656C389.253 379.44 389.817 379.152 390.321 378.792C390.825 378.432 391.257 378.018 391.617 377.55C391.989 377.07 392.271 376.554 392.463 376.002C392.667 375.45 392.769 374.886 392.769 374.31V372.726ZM393.039 372.726H394.281V374.31C394.281 374.874 394.377 375.42 394.569 375.948C394.773 376.464 395.055 376.944 395.415 377.388C395.787 377.832 396.225 378.222 396.729 378.558C397.233 378.894 397.785 379.158 398.385 379.35L397.665 380.538C396.981 380.31 396.357 379.992 395.793 379.584C395.229 379.176 394.743 378.702 394.335 378.162C393.927 377.622 393.609 377.028 393.381 376.38C393.153 375.72 393.039 375.03 393.039 374.31V372.726ZM391.113 382.14H401.985V383.346H391.113V382.14ZM390.969 386.964H402.147V388.188H390.969V386.964ZM393.345 382.644H394.821V387.684H393.345V382.644ZM398.295 382.644H399.771V387.684H398.295V382.644ZM409.435 373.374C410.227 373.374 410.929 373.608 411.541 374.076C412.153 374.532 412.627 375.186 412.963 376.038C413.311 376.89 413.485 377.892 413.485 379.044C413.485 380.196 413.311 381.198 412.963 382.05C412.627 382.902 412.153 383.562 411.541 384.03C410.929 384.498 410.227 384.732 409.435 384.732C408.655 384.732 407.953 384.498 407.329 384.03C406.717 383.562 406.237 382.902 405.889 382.05C405.553 381.198 405.385 380.196 405.385 379.044C405.385 377.892 405.553 376.89 405.889 376.038C406.237 375.186 406.717 374.532 407.329 374.076C407.953 373.608 408.655 373.374 409.435 373.374ZM409.435 374.706C408.919 374.706 408.463 374.886 408.067 375.246C407.671 375.594 407.359 376.098 407.131 376.758C406.915 377.406 406.807 378.168 406.807 379.044C406.807 379.92 406.915 380.688 407.131 381.348C407.359 381.996 407.671 382.5 408.067 382.86C408.463 383.22 408.919 383.4 409.435 383.4C409.963 383.4 410.425 383.22 410.821 382.86C411.217 382.5 411.523 381.996 411.739 381.348C411.967 380.688 412.081 379.92 412.081 379.044C412.081 378.168 411.967 377.406 411.739 376.758C411.523 376.098 411.217 375.594 410.821 375.246C410.425 374.886 409.963 374.706 409.435 374.706ZM417.013 372.114H418.489V388.422H417.013V372.114ZM412.999 378.324H417.679V379.53H412.999V378.324Z" fill="#818181"/>
</g>
<g filter="url(#filter2_d_669_355)">
<rect x="94" y="120" width="362" height="80" rx="25" fill="white"/>
<rect x="94.5" y="120.5" width="361" height="79" rx="24.5" stroke="#D9D9D9"/>
<path d="M141.312 152.776H142.824V155.764H145.074V157.096H142.824V161.614H141.312V152.776ZM132.708 162.406H142.788V168.634H132.708V162.406ZM141.276 167.356V163.684H134.22V167.356H141.276ZM130.908 153.262H132.42V158.914H133.752C136.476 158.914 138.696 158.77 140.412 158.482V159.76C138.84 160.072 136.62 160.228 133.752 160.228H130.908V153.262ZM155.639 165.34C154.691 164.824 153.821 164.14 153.029 163.288C152.237 162.424 151.643 161.53 151.247 160.606C150.863 161.602 150.281 162.55 149.501 163.45C148.733 164.338 147.821 165.112 146.765 165.772L145.739 164.71C147.107 163.918 148.229 162.85 149.105 161.506C149.981 160.15 150.419 158.662 150.419 157.042V155.638H146.963V154.342H155.459V155.638H152.003V157.078C152.003 158.674 152.429 160.096 153.281 161.344C154.145 162.592 155.219 163.552 156.503 164.224L155.639 165.34ZM157.691 152.776H159.203V158.824H161.633V160.192H159.203V168.814H157.691V152.776ZM172.359 162.298C171.495 161.962 170.679 161.482 169.911 160.858C169.155 160.222 168.567 159.532 168.147 158.788C167.811 159.568 167.247 160.318 166.455 161.038C165.675 161.746 164.793 162.322 163.809 162.766L162.855 161.668C164.175 161.08 165.249 160.294 166.077 159.31C166.905 158.326 167.319 157.3 167.319 156.232V155.908H163.773V154.648H167.355V152.632H168.867V154.648H172.449V155.908H168.903V156.214C168.903 156.91 169.089 157.582 169.461 158.23C169.845 158.878 170.361 159.454 171.009 159.958C171.657 160.462 172.371 160.858 173.151 161.146L172.359 162.298ZM166.257 163.504H167.787V167.248H176.841V168.544H166.257V163.504ZM174.969 152.776H176.481V164.764H174.969V152.776ZM186.11 161.992H179.468V160.696H190.286C190.49 159.808 190.652 158.836 190.772 157.78C190.904 156.724 190.976 155.728 190.988 154.792H181.268V153.496H192.572C192.548 154.72 192.464 155.986 192.32 157.294C192.188 158.59 192.014 159.724 191.798 160.696H194.444V161.992H187.622V168.814H186.11V161.992ZM205.494 157.564C205.494 158.212 205.344 158.818 205.044 159.382C204.756 159.934 204.348 160.402 203.82 160.786C203.304 161.158 202.716 161.404 202.056 161.524V164.458C204.012 164.422 205.602 164.284 206.826 164.044V165.304C205.362 165.604 203.334 165.754 200.742 165.754H196.134V164.458H200.508V161.56C199.812 161.464 199.188 161.23 198.636 160.858C198.096 160.474 197.67 159.994 197.358 159.418C197.046 158.842 196.89 158.224 196.89 157.564C196.89 156.832 197.076 156.154 197.448 155.53C197.832 154.906 198.348 154.414 198.996 154.054C199.656 153.694 200.388 153.514 201.192 153.514C201.996 153.514 202.722 153.694 203.37 154.054C204.03 154.414 204.546 154.906 204.918 155.53C205.302 156.154 205.494 156.832 205.494 157.564ZM207.546 152.776H209.058V159.148H211.398V160.516H209.058V168.814H207.546V152.776ZM201.192 160.3C201.756 160.3 202.248 160.18 202.668 159.94C203.088 159.688 203.412 159.352 203.64 158.932C203.868 158.512 203.982 158.056 203.982 157.564C203.982 157.06 203.868 156.598 203.64 156.178C203.412 155.758 203.088 155.428 202.668 155.188C202.248 154.936 201.756 154.81 201.192 154.81C200.628 154.81 200.136 154.936 199.716 155.188C199.296 155.428 198.972 155.758 198.744 156.178C198.516 156.598 198.402 157.06 198.402 157.564C198.402 158.056 198.516 158.512 198.744 158.932C198.972 159.352 199.296 159.688 199.716 159.94C200.136 160.18 200.628 160.3 201.192 160.3ZM228.214 152.776H229.726V158.824H232.156V160.192H229.726V168.814H228.214V152.776ZM219.358 155.638V163.774H223.75V155.638H219.358ZM217.846 154.342H225.262V165.07H217.846V154.342ZM241.695 165.772H248.409V167.068H233.433V165.772H240.147V161.992H234.801V160.696H237.159L237.033 155.314H235.161V154.036H246.681V155.314H244.809L244.665 160.696H247.041V161.992H241.695V165.772ZM238.527 155.314L238.653 160.696H243.171L243.315 155.314H238.527ZM256.633 161.992H249.991V160.696H260.809C261.013 159.808 261.175 158.836 261.295 157.78C261.427 156.724 261.499 155.728 261.511 154.792H251.791V153.496H263.095C263.071 154.72 262.987 155.986 262.843 157.294C262.711 158.59 262.537 159.724 262.321 160.696H264.967V161.992H258.145V168.814H256.633V161.992ZM282.359 152.776H283.871V156.574H286.121V157.906H283.871V163.432H282.359V152.776ZM273.323 154.828V159.436H277.823V154.828H273.323ZM271.811 153.532H279.335V160.732H271.811V153.532ZM279.515 163.036C279.515 163.684 279.761 164.32 280.253 164.944C280.745 165.568 281.393 166.114 282.197 166.582C283.013 167.05 283.883 167.398 284.807 167.626L284.141 168.796C282.917 168.46 281.825 167.974 280.865 167.338C279.905 166.69 279.191 165.928 278.723 165.052C278.255 165.928 277.541 166.69 276.581 167.338C275.621 167.974 274.529 168.46 273.305 168.796L272.639 167.626C273.563 167.398 274.427 167.05 275.231 166.582C276.047 166.114 276.701 165.568 277.193 164.944C277.685 164.32 277.931 163.684 277.931 163.036V162.424H279.515V163.036ZM290.673 162.118H292.185V164.08H299.421V162.118H300.933V168.616H290.673V162.118ZM296.847 160.75C296.007 160.486 295.191 160.066 294.399 159.49C293.619 158.902 293.013 158.26 292.581 157.564C292.257 158.248 291.687 158.938 290.871 159.634C290.067 160.318 289.173 160.858 288.189 161.254L287.253 160.138C288.561 159.646 289.635 158.944 290.475 158.032C291.327 157.108 291.753 156.124 291.753 155.08V154.792H288.261V153.532H296.829V154.792H293.337V155.062C293.337 155.734 293.529 156.376 293.913 156.988C294.309 157.588 294.831 158.116 295.479 158.572C296.127 159.016 296.841 159.352 297.621 159.58L296.847 160.75ZM292.185 165.322V167.338H299.421V165.322H292.185ZM299.457 161.326V152.776H300.969V161.326H299.457ZM319.765 152.776H321.277V156.394H323.527V157.726H321.277V162.082H319.765V152.776ZM311.161 162.874H321.241V168.634H311.161V162.874ZM319.729 167.374V164.134H312.673V167.374H319.729ZM316.669 156.592V157.834H310.819V159.832H312.205C314.929 159.832 317.149 159.688 318.865 159.4V160.66C317.293 160.972 315.073 161.128 312.205 161.128H309.307V153.424H316.849V154.702H310.819V156.592H316.669ZM336.324 152.776H337.836V156.484H340.086V157.816H337.836V162.496H336.324V152.776ZM325.776 153.352H327.288V155.962H331.788V153.352H333.3V161.092H325.776V153.352ZM327.288 157.222V159.814H331.788V157.222H327.288ZM332.724 169.138C331.632 169.138 330.678 169 329.862 168.724C329.046 168.448 328.416 168.064 327.972 167.572C327.54 167.092 327.324 166.552 327.324 165.952C327.324 165.352 327.54 164.812 327.972 164.332C328.416 163.84 329.046 163.456 329.862 163.18C330.678 162.904 331.632 162.766 332.724 162.766C333.816 162.766 334.77 162.904 335.586 163.18C336.402 163.456 337.026 163.84 337.458 164.332C337.902 164.812 338.124 165.352 338.124 165.952C338.124 166.552 337.902 167.092 337.458 167.572C337.026 168.064 336.402 168.448 335.586 168.724C334.77 169 333.816 169.138 332.724 169.138ZM332.724 164.062C331.5 164.062 330.546 164.23 329.862 164.566C329.178 164.902 328.836 165.364 328.836 165.952C328.836 166.54 329.178 167.002 329.862 167.338C330.546 167.674 331.5 167.842 332.724 167.842C333.948 167.842 334.902 167.674 335.586 167.338C336.27 167.002 336.612 166.54 336.612 165.952C336.612 165.364 336.27 164.902 335.586 164.566C334.902 164.23 333.948 164.062 332.724 164.062ZM348.85 158.536C347.698 158.536 346.69 158.41 345.826 158.158C344.974 157.906 344.32 157.558 343.864 157.114C343.408 156.67 343.18 156.16 343.18 155.584C343.18 155.008 343.408 154.498 343.864 154.054C344.32 153.61 344.974 153.262 345.826 153.01C346.69 152.758 347.698 152.632 348.85 152.632C350.002 152.632 351.004 152.758 351.856 153.01C352.72 153.262 353.38 153.61 353.836 154.054C354.292 154.498 354.52 155.008 354.52 155.584C354.52 156.16 354.292 156.67 353.836 157.114C353.38 157.558 352.72 157.906 351.856 158.158C351.004 158.41 350.002 158.536 348.85 158.536ZM348.85 153.874C347.602 153.874 346.594 154.024 345.826 154.324C345.07 154.624 344.692 155.044 344.692 155.584C344.692 156.124 345.07 156.544 345.826 156.844C346.594 157.144 347.602 157.294 348.85 157.294C350.098 157.294 351.1 157.144 351.856 156.844C352.624 156.544 353.008 156.124 353.008 155.584C353.008 155.044 352.624 154.624 351.856 154.324C351.1 154.024 350.098 153.874 348.85 153.874ZM341.362 159.58H356.338V160.822H341.362V159.58ZM343.45 164.764H352.738V163.45H343.45V162.208H354.25V165.97H344.962V167.374H354.61V168.634H343.45V164.764ZM365.126 164.836H373.694V163.594H365.126V162.37H375.206V166.024H366.638V167.392H375.566V168.634H365.126V164.836ZM367.484 161.326C366.692 161.326 365.984 161.212 365.36 160.984C364.736 160.744 364.25 160.42 363.902 160.012C363.554 159.604 363.38 159.154 363.38 158.662C363.38 158.17 363.554 157.72 363.902 157.312C364.25 156.904 364.736 156.586 365.36 156.358C365.984 156.118 366.692 155.998 367.484 155.998C368.276 155.998 368.984 156.118 369.608 156.358C370.232 156.586 370.718 156.904 371.066 157.312C371.414 157.72 371.588 158.17 371.588 158.662C371.588 159.154 371.414 159.604 371.066 160.012C370.718 160.42 370.232 160.744 369.608 160.984C368.984 161.212 368.276 161.326 367.484 161.326ZM375.242 152.776V156.61H377.492V157.906H375.242V161.578H373.73V152.776H375.242ZM362.606 154.09H366.71V152.56H368.222V154.09H372.326V155.332H362.606V154.09ZM367.484 157.204C366.68 157.204 366.044 157.342 365.576 157.618C365.12 157.882 364.892 158.23 364.892 158.662C364.892 159.094 365.12 159.448 365.576 159.724C366.044 159.988 366.68 160.12 367.484 160.12C368.288 160.12 368.918 159.988 369.374 159.724C369.842 159.448 370.076 159.094 370.076 158.662C370.076 158.23 369.842 157.882 369.374 157.618C368.918 157.342 368.288 157.204 367.484 157.204ZM394.938 160.624H391.554V159.292H394.938V152.776H396.45V168.814H394.938V160.624ZM383.526 165.052C384.81 164.404 385.926 163.576 386.874 162.568C387.822 161.56 388.56 160.462 389.088 159.274C389.628 158.074 389.946 156.862 390.042 155.638H384.354V154.342H391.626C391.602 156.13 391.278 157.792 390.654 159.328C390.03 160.852 389.184 162.19 388.116 163.342C387.06 164.482 385.86 165.406 384.516 166.114L383.526 165.052ZM410.956 152.776H412.468V156.484H414.808V157.816H412.468V162.046H414.808V163.378H412.468V168.814H410.956V152.776ZM404.17 165.79C403.402 165.79 402.712 165.562 402.1 165.106C401.5 164.638 401.026 163.954 400.678 163.054C400.33 162.154 400.156 161.068 400.156 159.796C400.156 158.524 400.33 157.438 400.678 156.538C401.026 155.638 401.5 154.96 402.1 154.504C402.712 154.036 403.402 153.802 404.17 153.802C404.938 153.802 405.622 154.036 406.222 154.504C406.834 154.96 407.314 155.638 407.662 156.538C408.01 157.438 408.184 158.524 408.184 159.796C408.184 161.068 408.01 162.154 407.662 163.054C407.314 163.954 406.834 164.638 406.222 165.106C405.622 165.562 404.938 165.79 404.17 165.79ZM404.17 155.098C403.426 155.098 402.814 155.5 402.334 156.304C401.866 157.108 401.632 158.272 401.632 159.796C401.632 161.32 401.866 162.484 402.334 163.288C402.814 164.092 403.426 164.494 404.17 164.494C404.914 164.494 405.52 164.092 405.988 163.288C406.468 162.484 406.708 161.32 406.708 159.796C406.708 158.272 406.468 157.108 405.988 156.304C405.52 155.5 404.914 155.098 404.17 155.098ZM416.841 154.198H418.803L418.569 163.198H417.093L416.841 154.198ZM417.813 167.518C417.465 167.518 417.171 167.398 416.931 167.158C416.691 166.918 416.571 166.624 416.571 166.276C416.571 165.928 416.691 165.634 416.931 165.394C417.171 165.154 417.465 165.034 417.813 165.034C418.161 165.034 418.455 165.154 418.695 165.394C418.947 165.634 419.073 165.928 419.073 166.276C419.073 166.624 418.947 166.918 418.695 167.158C418.455 167.398 418.161 167.518 417.813 167.518Z" fill="#818181"/>
</g>
<g filter="url(#filter3_d_669_355)">
<rect x="186" y="230" width="270" height="80" rx="25" fill="white"/>
<rect x="186.5" y="230.5" width="269" height="79" rx="24.5" stroke="#D9D9D9"/>
<path d="M231.152 271.83C230.276 271.482 229.466 270.984 228.722 270.336C227.99 269.676 227.396 268.944 226.94 268.14C226.616 268.932 226.064 269.7 225.284 270.444C224.516 271.188 223.622 271.818 222.602 272.334L221.648 271.236C222.5 270.852 223.262 270.354 223.934 269.742C224.618 269.13 225.152 268.452 225.536 267.708C225.92 266.964 226.112 266.208 226.112 265.44V264.81H222.656V263.532H231.152V264.81H227.696V265.422C227.696 266.154 227.888 266.868 228.272 267.564C228.656 268.26 229.172 268.878 229.82 269.418C230.468 269.958 231.176 270.378 231.944 270.678L231.152 271.83ZM233.852 267.906H230.882V266.61H233.852V262.776H235.364V274.584H233.852V267.906ZM225.14 273.324H226.67V277.248H235.724V278.544H225.14V273.324ZM238.351 271.074H245.155V269.544H240.439V263.136H251.239V264.396H241.951V265.692H251.149V266.916H241.951V268.266H251.419V269.544H246.703V271.074H253.327V272.334H238.351V271.074ZM245.839 279.138C244.639 279.138 243.601 279.012 242.725 278.76C241.861 278.52 241.195 278.184 240.727 277.752C240.271 277.32 240.043 276.828 240.043 276.276C240.043 275.724 240.271 275.232 240.727 274.8C241.195 274.368 241.861 274.032 242.725 273.792C243.601 273.54 244.639 273.414 245.839 273.414C247.039 273.414 248.071 273.54 248.935 273.792C249.811 274.032 250.477 274.368 250.933 274.8C251.401 275.232 251.635 275.724 251.635 276.276C251.635 276.828 251.401 277.32 250.933 277.752C250.477 278.184 249.811 278.52 248.935 278.76C248.071 279.012 247.039 279.138 245.839 279.138ZM245.839 274.674C244.495 274.674 243.445 274.818 242.689 275.106C241.933 275.394 241.555 275.784 241.555 276.276C241.555 276.768 241.933 277.158 242.689 277.446C243.445 277.734 244.495 277.878 245.839 277.878C247.183 277.878 248.233 277.734 248.989 277.446C249.745 277.158 250.123 276.768 250.123 276.276C250.123 275.784 249.745 275.394 248.989 275.106C248.233 274.818 247.183 274.674 245.839 274.674ZM267.712 275.448H266.2V272.154H259.198V270.876H274.174V272.154H267.712V275.448ZM261.286 263.244H272.086V269.076H261.286V263.244ZM262.798 264.522V267.798H270.574V264.522H262.798ZM261.286 273.666H262.816V277.248H272.626V278.544H261.286V273.666ZM286.557 275.664C285.093 275.964 283.065 276.114 280.473 276.114H275.865V274.818H280.239V272.91C279.315 272.79 278.571 272.46 278.007 271.92C277.443 271.368 277.161 270.72 277.161 269.976C277.161 269.424 277.323 268.926 277.647 268.482C277.971 268.026 278.421 267.666 278.997 267.402C279.573 267.138 280.233 267.006 280.977 267.006C281.721 267.006 282.381 267.138 282.957 267.402C283.533 267.666 283.983 268.026 284.307 268.482C284.631 268.926 284.793 269.424 284.793 269.976C284.793 270.708 284.517 271.344 283.965 271.884C283.413 272.424 282.687 272.76 281.787 272.892V274.818C283.743 274.782 285.333 274.644 286.557 274.404V275.664ZM287.277 262.776H288.789V269.508H291.129V270.876H288.789V278.814H287.277V262.776ZM276.369 265.098H280.221V263.37H281.733V265.098H285.513V266.376H276.369V265.098ZM280.977 268.248C280.269 268.248 279.705 268.41 279.285 268.734C278.877 269.046 278.673 269.46 278.673 269.976C278.673 270.492 278.877 270.912 279.285 271.236C279.705 271.548 280.269 271.704 280.977 271.704C281.685 271.704 282.243 271.548 282.651 271.236C283.071 270.912 283.281 270.492 283.281 269.976C283.281 269.46 283.071 269.046 282.651 268.734C282.243 268.41 281.685 268.248 280.977 268.248ZM304.111 275.502C303.343 274.938 302.671 274.278 302.095 273.522C301.519 272.754 301.069 271.95 300.745 271.11C300.493 271.974 300.049 272.844 299.413 273.72C298.777 274.596 298.015 275.358 297.127 276.006L296.065 275.016C296.809 274.524 297.475 273.894 298.062 273.126C298.651 272.358 299.107 271.512 299.431 270.588C299.767 269.664 299.935 268.746 299.935 267.834V267.078H297.091V265.782H299.971V263.478H301.447V265.782H304.327V267.078H301.483V267.834C301.483 269.166 301.819 270.426 302.491 271.614C303.163 272.802 303.997 273.744 304.993 274.44L304.111 275.502ZM306.091 278.058V270.48H303.823V269.148H306.091V263.046H307.567V278.058H306.091ZM310.609 262.776V278.814H309.115V262.776H310.609ZM316.529 273.234H326.789V278.634H316.529V273.234ZM318.545 272.19C317.765 272.19 317.069 272.064 316.457 271.812C315.845 271.548 315.365 271.194 315.017 270.75C314.681 270.294 314.513 269.796 314.513 269.256C314.513 268.716 314.681 268.224 315.017 267.78C315.365 267.324 315.845 266.97 316.457 266.718C317.069 266.454 317.765 266.322 318.545 266.322C319.325 266.322 320.021 266.454 320.633 266.718C321.245 266.97 321.719 267.324 322.055 267.78C322.403 268.224 322.577 268.716 322.577 269.256C322.577 269.796 322.403 270.294 322.055 270.75C321.719 271.194 321.245 271.548 320.633 271.812C320.021 272.064 319.325 272.19 318.545 272.19ZM325.277 277.392V274.476H318.041V277.392H325.277ZM325.313 268.932H323.027V267.636H325.313V262.776H326.825V272.442H325.313V268.932ZM313.739 264.324H317.789V262.632H319.301V264.324H323.351V265.584H313.739V264.324ZM318.545 267.546C317.765 267.546 317.147 267.708 316.691 268.032C316.247 268.344 316.025 268.752 316.025 269.256C316.025 269.76 316.247 270.174 316.691 270.498C317.147 270.81 317.765 270.966 318.545 270.966C319.325 270.966 319.937 270.81 320.381 270.498C320.837 270.174 321.065 269.76 321.065 269.256C321.065 268.752 320.837 268.344 320.381 268.032C319.937 267.708 319.325 267.546 318.545 267.546ZM337.21 268.536C336.058 268.536 335.05 268.41 334.186 268.158C333.334 267.906 332.68 267.558 332.224 267.114C331.768 266.67 331.54 266.16 331.54 265.584C331.54 265.008 331.768 264.498 332.224 264.054C332.68 263.61 333.334 263.262 334.186 263.01C335.05 262.758 336.058 262.632 337.21 262.632C338.362 262.632 339.364 262.758 340.216 263.01C341.08 263.262 341.74 263.61 342.196 264.054C342.652 264.498 342.88 265.008 342.88 265.584C342.88 266.16 342.652 266.67 342.196 267.114C341.74 267.558 341.08 267.906 340.216 268.158C339.364 268.41 338.362 268.536 337.21 268.536ZM337.21 263.874C335.962 263.874 334.954 264.024 334.186 264.324C333.43 264.624 333.052 265.044 333.052 265.584C333.052 266.124 333.43 266.544 334.186 266.844C334.954 267.144 335.962 267.294 337.21 267.294C338.458 267.294 339.46 267.144 340.216 266.844C340.984 266.544 341.368 266.124 341.368 265.584C341.368 265.044 340.984 264.624 340.216 264.324C339.46 264.024 338.458 263.874 337.21 263.874ZM329.722 269.58H344.698V270.822H329.722V269.58ZM331.81 274.764H341.098V273.45H331.81V272.208H342.61V275.97H333.322V277.374H342.97V278.634H331.81V274.764ZM355.663 276.132C354.835 276.132 354.097 275.946 353.449 275.574C352.813 275.202 352.321 274.704 351.973 274.08C351.625 273.456 351.451 272.778 351.451 272.046C351.451 271.314 351.625 270.636 351.973 270.012C352.321 269.388 352.813 268.89 353.449 268.518C354.097 268.146 354.835 267.96 355.663 267.96C356.491 267.96 357.223 268.146 357.859 268.518C358.507 268.89 359.005 269.388 359.353 270.012C359.701 270.636 359.875 271.314 359.875 272.046C359.875 272.778 359.701 273.456 359.353 274.08C359.005 274.704 358.507 275.202 357.859 275.574C357.223 275.946 356.491 276.132 355.663 276.132ZM361.909 262.776H363.421V269.454H365.851V270.822H363.421V278.814H361.909V262.776ZM355.663 269.22C354.835 269.22 354.175 269.49 353.683 270.03C353.203 270.558 352.963 271.23 352.963 272.046C352.963 272.862 353.203 273.54 353.683 274.08C354.175 274.608 354.835 274.872 355.663 274.872C356.491 274.872 357.145 274.608 357.625 274.08C358.117 273.54 358.363 272.862 358.363 272.046C358.363 271.23 358.117 270.558 357.625 270.03C357.145 269.49 356.491 269.22 355.663 269.22ZM350.767 265.62H354.907V263.334H356.419V265.62H360.559V266.916H350.767V265.62ZM374.382 275.772H382.104V277.068H367.128V275.772H372.834V269.814H374.382V275.772ZM377.694 273.468C378.006 272.28 378.24 270.972 378.396 269.544C378.564 268.104 378.66 266.724 378.684 265.404H368.928V264.108H380.232C380.232 265.74 380.142 267.39 379.962 269.058C379.782 270.726 379.518 272.196 379.17 273.468H377.694ZM400.036 262.776H401.548V271.722H400.036V262.776ZM394.222 273.846L394.348 277.338H398.326L398.434 273.846H394.222ZM390.568 277.338H392.854L392.746 273.846H390.766V272.586H401.818V273.846H399.928L399.802 277.338H402.034V278.616H390.568V277.338ZM397.228 270.93C396.364 270.594 395.548 270.108 394.78 269.472C394.012 268.824 393.412 268.128 392.98 267.384C392.644 268.176 392.086 268.932 391.306 269.652C390.526 270.36 389.626 270.954 388.606 271.434L387.652 270.336C388.984 269.748 390.064 268.956 390.892 267.96C391.732 266.952 392.152 265.848 392.152 264.648V263.172H393.736V264.63C393.736 265.794 394.138 266.826 394.942 267.726C395.758 268.614 396.784 269.298 398.02 269.778L397.228 270.93ZM416.414 270.174H413.21C413.174 271.374 412.976 272.394 412.616 273.234C412.268 274.074 411.8 274.71 411.212 275.142C410.624 275.574 409.964 275.79 409.232 275.79C408.476 275.79 407.798 275.562 407.198 275.106C406.598 274.65 406.124 273.972 405.776 273.072C405.428 272.16 405.254 271.068 405.254 269.796C405.254 268.524 405.428 267.438 405.776 266.538C406.124 265.626 406.598 264.942 407.198 264.486C407.798 264.03 408.476 263.802 409.232 263.802C409.916 263.802 410.54 263.994 411.104 264.378C411.668 264.762 412.13 265.332 412.49 266.088C412.862 266.844 413.09 267.762 413.174 268.842H416.414V262.776H417.926V278.814H416.414V270.174ZM409.232 265.098C408.488 265.098 407.882 265.5 407.414 266.304C406.958 267.108 406.73 268.272 406.73 269.796C406.73 271.32 406.958 272.484 407.414 273.288C407.882 274.092 408.488 274.494 409.232 274.494C409.976 274.494 410.576 274.092 411.032 273.288C411.5 272.484 411.734 271.32 411.734 269.796C411.734 268.272 411.5 267.108 411.032 266.304C410.576 265.5 409.976 265.098 409.232 265.098Z" fill="#818181"/>
</g>
</g>
<defs>
<filter id="filter0_f_669_355" x="-105" y="-90" width="730" height="730" filterUnits="userSpaceOnUse" color-interpolation-filters="sRGB">
<feFlood flood-opacity="0" result="BackgroundImageFix"/>
<feBlend mode="normal" in="SourceGraphic" in2="BackgroundImageFix" result="shape"/>
<feGaussianBlur stdDeviation="100" result="effect1_foregroundBlur_669_355"/>
</filter>
<filter id="filter1_d_669_355" x="84" y="329" width="389" height="110" filterUnits="userSpaceOnUse" color-interpolation-filters="sRGB">
<feFlood flood-opacity="0" result="BackgroundImageFix"/>
<feColorMatrix in="SourceAlpha" type="matrix" values="0 0 0 0 0 0 0 0 0 0 0 0 0 0 0 0 0 0 127 0" result="hardAlpha"/>
<feOffset dx="2" dy="4"/>
<feGaussianBlur stdDeviation="7.5"/>
<feComposite in2="hardAlpha" operator="out"/>
<feColorMatrix type="matrix" values="0 0 0 0 0 0 0 0 0 0 0 0 0 0 0 0 0 0 0.1 0"/>
<feBlend mode="normal" in2="BackgroundImageFix" result="effect1_dropShadow_669_355"/>
<feBlend mode="normal" in="SourceGraphic" in2="effect1_dropShadow_669_355" result="shape"/>
</filter>
<filter id="filter2_d_669_355" x="81" y="109" width="392" height="110" filterUnits="userSpaceOnUse" color-interpolation-filters="sRGB">
<feFlood flood-opacity="0" result="BackgroundImageFix"/>
<feColorMatrix in="SourceAlpha" type="matrix" values="0 0 0 0 0 0 0 0 0 0 0 0 0 0 0 0 0 0 127 0" result="hardAlpha"/>
<feOffset dx="2" dy="4"/>
<feGaussianBlur stdDeviation="7.5"/>
<feComposite in2="hardAlpha" operator="out"/>
<feColorMatrix type="matrix" values="0 0 0 0 0 0 0 0 0 0 0 0 0 0 0 0 0 0 0.1 0"/>
<feBlend mode="normal" in2="BackgroundImageFix" result="effect1_dropShadow_669_355"/>
<feBlend mode="normal" in="SourceGraphic" in2="effect1_dropShadow_669_355" result="shape"/>
</filter>
<filter id="filter3_d_669_355" x="173" y="219" width="300" height="110" filterUnits="userSpaceOnUse" color-interpolation-filters="sRGB">
<feFlood flood-opacity="0" result="BackgroundImageFix"/>
<feColorMatrix in="SourceAlpha" type="matrix" values="0 0 0 0 0 0 0 0 0 0 0 0 0 0 0 0 0 0 127 0" result="hardAlpha"/>
<feOffset dx="2" dy="4"/>
<feGaussianBlur stdDeviation="7.5"/>
<feComposite in2="hardAlpha" operator="out"/>
<feColorMatrix type="matrix" values="0 0 0 0 0 0 0 0 0 0 0 0 0 0 0 0 0 0 0.1 0"/>
<feBlend mode="normal" in2="BackgroundImageFix" result="effect1_dropShadow_669_355"/>
<feBlend mode="normal" in="SourceGraphic" in2="effect1_dropShadow_669_355" result="shape"/>
</filter>
<clipPath id="clip0_669_355">
<rect width="550" height="550" fill="white"/>
</clipPath>
</defs>
</svg>
