<svg width="318" height="63" viewBox="0 0 318 63" fill="none" xmlns="http://www.w3.org/2000/svg">
<path d="M76.1537 4.19C76.1537 5.802 76.743 7.258 77.9217 8.558C79.1177 9.84067 80.591 10.8113 82.3417 11.47L81.1977 13.134C79.9324 12.6487 78.7364 11.9553 77.6097 11.054C76.5004 10.1527 75.651 9.17333 75.0617 8.116C74.559 9.19067 73.7357 10.248 72.5917 11.288C71.465 12.3107 70.1824 13.1687 68.7437 13.862L67.3657 12.276C69.255 11.4267 70.8064 10.2913 72.0197 8.87C73.2504 7.43133 73.8657 5.88 73.8657 4.216V3.67H68.8217V1.824H81.1977V3.67H76.1537V4.19ZM84.9417 17.45H71.7857V15.578H87.1257V24.028H84.9417V17.45ZM84.9937 0.732H87.1777V14.434H84.9937V0.732ZM96.2237 14.33H98.4077V17.112H108.86V14.33H111.044V23.612H96.2237V14.33ZM105.038 12.406C103.824 12.0247 102.654 11.418 101.528 10.586C100.418 9.73667 99.5517 8.80933 98.9277 7.804C98.4597 8.80933 97.645 9.806 96.4837 10.794C95.3223 11.782 94.0397 12.562 92.6357 13.134L91.2837 11.522C93.173 10.8113 94.7157 9.79733 95.9117 8.48C97.125 7.14533 97.7317 5.724 97.7317 4.216V3.644H92.7397V1.824H105.012V3.644H100.02V4.19C100.02 5.178 100.297 6.10533 100.852 6.972C101.406 7.83867 102.143 8.60133 103.062 9.26C103.998 9.90133 105.029 10.3867 106.156 10.716L105.038 12.406ZM108.912 13.186V7.518H104.622V5.698H108.912V0.732H111.096V13.186H108.912ZM98.4077 18.906V21.766H108.86V18.906H98.4077ZM133.045 24.366C131.468 24.366 130.09 24.158 128.911 23.742C127.732 23.326 126.822 22.7627 126.181 22.052C125.557 21.3413 125.245 20.5353 125.245 19.634C125.245 18.7327 125.557 17.9267 126.181 17.216C126.822 16.5053 127.732 15.942 128.911 15.526C130.09 15.11 131.468 14.902 133.045 14.902C134.622 14.902 136 15.11 137.179 15.526C138.358 15.942 139.259 16.5053 139.883 17.216C140.524 17.9267 140.845 18.7327 140.845 19.634C140.845 20.5353 140.524 21.3413 139.883 22.052C139.259 22.7627 138.358 23.326 137.179 23.742C136 24.158 134.622 24.366 133.045 24.366ZM134.865 13.03C133.6 12.5447 132.412 11.8513 131.303 10.95C130.211 10.0487 129.37 9.06933 128.781 8.012C128.278 9.08667 127.464 10.144 126.337 11.184C125.228 12.224 123.954 13.082 122.515 13.758L121.137 12.172C123.026 11.3227 124.569 10.1873 125.765 8.766C126.978 7.32733 127.585 5.776 127.585 4.112V3.67H122.593V1.824H134.865V3.67H129.873V4.086C129.873 5.698 130.462 7.154 131.641 8.454C132.82 9.73667 134.276 10.7073 136.009 11.366L134.865 13.03ZM133.045 16.774C131.277 16.774 129.899 17.034 128.911 17.554C127.923 18.0567 127.429 18.75 127.429 19.634C127.429 20.518 127.923 21.22 128.911 21.74C129.899 22.2427 131.277 22.494 133.045 22.494C134.813 22.494 136.191 22.2427 137.179 21.74C138.167 21.22 138.661 20.518 138.661 19.634C138.661 18.75 138.167 18.0567 137.179 17.554C136.191 17.034 134.813 16.774 133.045 16.774ZM138.245 0.732H140.429V5.958H143.679V7.882H140.429V14.512H138.245V0.732ZM157.457 19.504H167.155V21.376H145.523V19.504H155.221V14.07H157.457V19.504ZM156.339 7.856C155.576 9.312 154.432 10.6207 152.907 11.782C151.382 12.926 149.692 13.8013 147.837 14.408L146.589 12.692C148.132 12.224 149.562 11.5393 150.879 10.638C152.196 9.73667 153.245 8.70533 154.025 7.544C154.822 6.38267 155.221 5.18667 155.221 3.956V2.032H157.457V3.956C157.457 5.18667 157.847 6.38267 158.627 7.544C159.424 8.70533 160.482 9.73667 161.799 10.638C163.116 11.5393 164.546 12.224 166.089 12.692L164.841 14.408C162.986 13.8013 161.296 12.926 159.771 11.782C158.246 10.6207 157.102 9.312 156.339 7.856ZM172.457 18.386H185.873V16.8H172.457V15.032H188.057V20.102H174.641V21.844H188.577V23.638H172.457V18.386ZM172.457 4.632H185.743V3.02H172.457V1.252H187.927V6.348H174.641V7.986H188.447V9.78H172.457V4.632ZM169.441 11.47H191.073V13.238H169.441V11.47ZM211.54 4.97C211.696 5.78467 212.173 6.57333 212.97 7.336C213.767 8.08133 214.79 8.74 216.038 9.312C217.286 9.884 218.638 10.3 220.094 10.56L218.898 12.276C217.095 11.9293 215.414 11.314 213.854 10.43C212.294 9.546 211.133 8.532 210.37 7.388C209.607 8.532 208.446 9.546 206.886 10.43C205.326 11.314 203.645 11.9293 201.842 12.276L200.646 10.56C202.085 10.3 203.428 9.884 204.676 9.312C205.924 8.74 206.947 8.08133 207.744 7.336C208.559 6.57333 209.044 5.78467 209.2 4.97H202.154V3.124H209.278V0.445999H211.462V3.124H218.586V4.97H211.54ZM209.278 16.228H199.554V14.356H221.186V16.228H211.462V23.898H209.278V16.228ZM239.852 0.732H242.036V9.728H245.546V11.704H242.036V23.898H239.852V0.732ZM223.888 18.464C225.743 17.528 227.355 16.332 228.724 14.876C230.093 13.42 231.159 11.834 231.922 10.118C232.702 8.38467 233.161 6.634 233.3 4.866H225.084V2.994H235.588C235.553 5.57667 235.085 7.97733 234.184 10.196C233.283 12.3973 232.061 14.33 230.518 15.994C228.993 17.6407 227.259 18.9753 225.318 19.998L223.888 18.464ZM254.748 20.024C253.552 20.024 252.486 19.7553 251.55 19.218C250.631 18.6807 249.921 17.9613 249.418 17.06C248.915 16.1587 248.664 15.1793 248.664 14.122C248.664 13.0647 248.915 12.0853 249.418 11.184C249.921 10.2827 250.631 9.56333 251.55 9.026C252.486 8.48867 253.552 8.22 254.748 8.22C255.944 8.22 257.001 8.48867 257.92 9.026C258.856 9.56333 259.575 10.2827 260.078 11.184C260.581 12.0853 260.832 13.0647 260.832 14.122C260.832 15.1793 260.581 16.1587 260.078 17.06C259.575 17.9613 258.856 18.6807 257.92 19.218C257.001 19.7553 255.944 20.024 254.748 20.024ZM263.77 0.732H265.954V10.378H269.464V12.354H265.954V23.898H263.77V0.732ZM254.748 10.04C253.552 10.04 252.599 10.43 251.888 11.21C251.195 11.9727 250.848 12.9433 250.848 14.122C250.848 15.3007 251.195 16.28 251.888 17.06C252.599 17.8227 253.552 18.204 254.748 18.204C255.944 18.204 256.889 17.8227 257.582 17.06C258.293 16.28 258.648 15.3007 258.648 14.122C258.648 12.9433 258.293 11.9727 257.582 11.21C256.889 10.43 255.944 10.04 254.748 10.04ZM247.676 4.84H253.656V1.538H255.84V4.84H261.82V6.712H247.676V4.84ZM288.468 12.068H283.58V10.144H288.468V0.732H290.652V23.898H288.468V12.068ZM271.984 18.464C273.839 17.528 275.451 16.332 276.82 14.876C278.189 13.42 279.255 11.834 280.018 10.118C280.798 8.38467 281.257 6.634 281.396 4.866H273.18V2.994H283.684C283.649 5.57667 283.181 7.97733 282.28 10.196C281.379 12.3973 280.157 14.33 278.614 15.994C277.089 17.6407 275.355 18.9753 273.414 19.998L271.984 18.464ZM311.606 0.732H313.79V8.948H317.3V10.924H313.79V23.898H311.606V0.732ZM310.306 17.528C309.006 17.8227 307.472 18.0393 305.704 18.178C303.953 18.2993 302.177 18.36 300.374 18.36H296.838V2.604H299.022V16.462H300.374C304.309 16.462 307.619 16.202 310.306 15.682V17.528ZM4.46194 55.762H17.0979V53.63H4.46194V51.81H19.2819V57.53H6.64594V59.792H19.8019V61.638H4.46194V55.762ZM19.3339 38.732V50.666H17.1499V38.732H19.3339ZM6.82794 50.068C5.64927 50.068 4.59194 49.8253 3.65594 49.34C2.73727 48.8373 2.01794 48.17 1.49794 47.338C0.995271 46.4887 0.743938 45.57 0.743938 44.582C0.743938 43.594 0.995271 42.684 1.49794 41.852C2.01794 41.0027 2.73727 40.3353 3.65594 39.85C4.59194 39.3473 5.64927 39.096 6.82794 39.096C8.0066 39.096 9.05527 39.3473 9.97394 39.85C10.9099 40.3353 11.6293 41.0027 12.1319 41.852C12.6519 42.684 12.9119 43.594 12.9119 44.582C12.9119 45.57 12.6519 46.4887 12.1319 47.338C11.6293 48.17 10.9099 48.8373 9.97394 49.34C9.05527 49.8253 8.0066 50.068 6.82794 50.068ZM6.82794 40.916C6.0306 40.916 5.33727 41.0807 4.74794 41.41C4.1586 41.7393 3.70794 42.19 3.39594 42.762C3.08394 43.3167 2.92794 43.9233 2.92794 44.582C2.92794 45.2407 3.08394 45.856 3.39594 46.428C3.70794 46.9827 4.1586 47.4247 4.74794 47.754C5.33727 48.0833 6.0306 48.248 6.82794 48.248C7.62527 48.248 8.3186 48.0833 8.90794 47.754C9.49727 47.4247 9.94794 46.9827 10.2599 46.428C10.5719 45.856 10.7279 45.2407 10.7279 44.582C10.7279 43.9233 10.5719 43.3167 10.2599 42.762C9.94794 42.19 9.49727 41.7393 8.90794 41.41C8.3186 41.0807 7.62527 40.916 6.82794 40.916ZM35.7379 62.366C34.1432 62.366 32.7392 62.158 31.5259 61.742C30.3299 61.3433 29.4112 60.7887 28.7699 60.078C28.1286 59.3673 27.8079 58.57 27.8079 57.686C27.8079 56.802 28.1286 56.0047 28.7699 55.294C29.4112 54.5833 30.3299 54.0287 31.5259 53.63C32.7392 53.214 34.1432 53.006 35.7379 53.006C37.3326 53.006 38.7279 53.214 39.9239 53.63C41.1372 54.0287 42.0646 54.5833 42.7059 55.294C43.3472 56.0047 43.6679 56.802 43.6679 57.686C43.6679 58.57 43.3472 59.3673 42.7059 60.078C42.0646 60.7887 41.1372 61.3433 39.9239 61.742C38.7279 62.158 37.3326 62.366 35.7379 62.366ZM37.1679 51.29C35.9026 50.8047 34.7152 50.1113 33.6059 49.21C32.5139 48.3087 31.6732 47.3293 31.0839 46.272C30.5812 47.3467 29.7666 48.404 28.6399 49.444C27.5306 50.484 26.2566 51.342 24.8179 52.018L23.4399 50.432C25.3292 49.5827 26.8719 48.4473 28.0679 47.026C29.2812 45.5873 29.8879 44.036 29.8879 42.372V41.67H24.8959V39.824H37.1679V41.67H32.1759V42.346C32.1759 43.958 32.7652 45.414 33.9439 46.714C35.1226 47.9967 36.5786 48.9673 38.3119 49.626L37.1679 51.29ZM35.7379 54.878C33.9179 54.878 32.5052 55.1293 31.4999 55.632C30.4946 56.1347 29.9919 56.8193 29.9919 57.686C29.9919 58.5527 30.4946 59.2373 31.4999 59.74C32.5052 60.2427 33.9179 60.494 35.7379 60.494C37.5579 60.494 38.9706 60.2427 39.9759 59.74C40.9812 59.2373 41.4839 58.5527 41.4839 57.686C41.4839 56.8193 40.9812 56.1347 39.9759 55.632C38.9706 55.1293 37.5579 54.878 35.7379 54.878ZM41.0679 46.012H36.7779V44.14H41.0679V38.732H43.2519V52.616H41.0679V46.012ZM66.0592 57.036H63.8752V52.278H53.7612V50.432H75.3932V52.278H66.0592V57.036ZM56.7772 54.462H58.9872V59.636H73.1572V61.508H56.7772V54.462ZM65.6952 38.888V40.136C65.6952 41.0373 66.0765 41.93 66.8392 42.814C67.6192 43.698 68.6419 44.478 69.9072 45.154C71.1899 45.83 72.5679 46.324 74.0412 46.636L72.9232 48.326C71.1552 47.9273 69.5172 47.2773 68.0092 46.376C66.5012 45.4573 65.3572 44.3827 64.5772 43.152C63.7972 44.3827 62.6532 45.4573 61.1452 46.376C59.6372 47.2773 57.9992 47.9273 56.2312 48.326L55.1132 46.636C56.5865 46.324 57.9559 45.83 59.2212 45.154C60.5039 44.478 61.5265 43.698 62.2892 42.814C63.0692 41.93 63.4592 41.0373 63.4592 40.136V38.888H65.6952ZM91.0952 56.724C89.7258 55.944 88.4692 54.93 87.3252 53.682C86.1812 52.434 85.3232 51.1513 84.7512 49.834C84.2138 51.2553 83.3732 52.6333 82.2292 53.968C81.1025 55.3027 79.7765 56.4293 78.2512 57.348L76.7952 55.84C78.7712 54.7133 80.3918 53.1707 81.6572 51.212C82.9225 49.2533 83.5552 47.0953 83.5552 44.738V40.474H85.8432V44.79C85.8432 47.13 86.4672 49.1927 87.7152 50.978C88.9632 52.746 90.5058 54.124 92.3432 55.112L91.0952 56.724ZM94.8392 47.832H89.8992V45.908H94.8392V38.732H97.0232V61.898H94.8392V47.832ZM104.613 56.386H118.029V54.8H104.613V53.032H120.213V58.102H106.797V59.844H120.733V61.638H104.613V56.386ZM104.613 42.632H117.899V41.02H104.613V39.252H120.083V44.348H106.797V45.986H120.603V47.78H104.613V42.632ZM101.597 49.47H123.229V51.238H101.597V49.47ZM133.114 40.734H135.298V46.74H141.642V40.734H143.826V56.646H133.114V40.734ZM135.298 48.586V54.774H141.642V48.586H135.298ZM148.09 38.732H150.274V47.728H153.784V49.704H150.274V61.898H148.09V38.732ZM167.562 51.524H174.244V57.374H160.828V59.818H174.764V61.638H158.644V55.632H172.06V53.318H158.644V51.524H165.326V48.456H155.628V46.662H162.284C162.77 44.7207 163.064 42.9007 163.168 41.202H157.916V39.408H165.404C165.318 41.7827 164.988 44.2007 164.416 46.662H171.644C172.026 45.102 172.286 43.282 172.424 41.202H166.236V39.408H174.66C174.556 42.1467 174.262 44.5647 173.776 46.662H177.26V48.456H167.562V51.524ZM195.466 53.864H185.742V51.992H207.374V53.864H197.65V61.898H195.466V53.864ZM197.676 39.2V40.448C197.676 41.5053 198.066 42.5367 198.846 43.542C199.626 44.5473 200.674 45.4313 201.992 46.194C203.326 46.9393 204.782 47.4853 206.36 47.832L205.164 49.6C203.344 49.1667 201.636 48.4387 200.042 47.416C198.447 46.376 197.286 45.1973 196.558 43.88C195.83 45.1973 194.668 46.376 193.074 47.416C191.479 48.4387 189.772 49.1667 187.952 49.6L186.756 47.832C188.333 47.4853 189.78 46.9393 191.098 46.194C192.432 45.4313 193.49 44.5473 194.27 43.542C195.05 42.5367 195.44 41.5053 195.44 40.448V39.2H197.676ZM212.728 40.552H228.354V42.424H214.912V49.912H228.744V51.784H221.854V57.504H231.292V59.376H209.66V57.504H219.618V51.784H212.728V40.552ZM257.193 38.732H259.377V51.914H257.193V38.732ZM251.577 61.95C250.71 61.43 249.904 60.754 249.159 59.922C248.414 59.09 247.842 58.2147 247.443 57.296C247.114 58.1627 246.55 59.0207 245.753 59.87C244.956 60.702 244.046 61.3953 243.023 61.95L241.775 60.494C243.075 59.87 244.167 58.9687 245.051 57.79C245.935 56.6113 246.377 55.424 246.377 54.228V53.058H248.509V54.228C248.509 54.8693 248.656 55.554 248.951 56.282C249.263 57.01 249.653 57.686 250.121 58.31C250.606 58.9167 251.092 59.3847 251.577 59.714C252.062 59.3847 252.539 58.9167 253.007 58.31C253.492 57.686 253.882 57.01 254.177 56.282C254.489 55.554 254.645 54.8693 254.645 54.228V53.058H256.777V54.228C256.777 55.424 257.219 56.6113 258.103 57.79C258.987 58.9687 260.079 59.87 261.379 60.494L260.131 61.95C259.108 61.3953 258.198 60.702 257.401 59.87C256.604 59.0207 256.04 58.1627 255.711 57.296C255.312 58.2147 254.74 59.09 253.995 59.922C253.25 60.754 252.444 61.43 251.577 61.95ZM246.845 51.004C245.649 51.004 244.583 50.744 243.647 50.224C242.711 49.6867 241.983 48.9673 241.463 48.066C240.943 47.1647 240.683 46.1853 240.683 45.128C240.683 44.0707 240.943 43.0913 241.463 42.19C241.983 41.2887 242.711 40.578 243.647 40.058C244.583 39.5207 245.649 39.252 246.845 39.252C248.041 39.252 249.107 39.5207 250.043 40.058C250.979 40.578 251.707 41.2887 252.227 42.19C252.747 43.0913 253.007 44.0707 253.007 45.128C253.007 46.1853 252.747 47.1647 252.227 48.066C251.707 48.9673 250.979 49.6867 250.043 50.224C249.107 50.744 248.041 51.004 246.845 51.004ZM246.845 41.124C245.632 41.124 244.661 41.514 243.933 42.294C243.222 43.0567 242.867 44.0013 242.867 45.128C242.867 45.856 243.023 46.5233 243.335 47.13C243.664 47.7367 244.124 48.222 244.713 48.586C245.32 48.95 246.03 49.132 246.845 49.132C247.66 49.132 248.362 48.95 248.951 48.586C249.558 48.222 250.017 47.7367 250.329 47.13C250.658 46.5233 250.823 45.856 250.823 45.128C250.823 44.0013 250.459 43.0567 249.731 42.294C249.02 41.514 248.058 41.124 246.845 41.124ZM280.851 49.418H276.223C276.171 51.1513 275.885 52.6247 275.365 53.838C274.862 55.0513 274.186 55.97 273.337 56.594C272.488 57.218 271.534 57.53 270.477 57.53C269.385 57.53 268.406 57.2007 267.539 56.542C266.672 55.8833 265.988 54.904 265.485 53.604C264.982 52.2867 264.731 50.7093 264.731 48.872C264.731 47.0347 264.982 45.466 265.485 44.166C265.988 42.8487 266.672 41.8607 267.539 41.202C268.406 40.5433 269.385 40.214 270.477 40.214C271.465 40.214 272.366 40.4913 273.181 41.046C273.996 41.6007 274.663 42.424 275.183 43.516C275.72 44.608 276.05 45.934 276.171 47.494H280.851V38.732H283.035V61.898H280.851V49.418ZM270.477 42.086C269.402 42.086 268.527 42.6667 267.851 43.828C267.192 44.9893 266.863 46.6707 266.863 48.872C266.863 51.0733 267.192 52.7547 267.851 53.916C268.527 55.0773 269.402 55.658 270.477 55.658C271.552 55.658 272.418 55.0773 273.077 53.916C273.753 52.7547 274.091 51.0733 274.091 48.872C274.091 46.6707 273.753 44.9893 273.077 43.828C272.418 42.6667 271.552 42.086 270.477 42.086ZM298.451 52.2C296.891 52.2 295.487 51.9227 294.239 51.368C292.991 50.8133 292.012 50.0593 291.301 49.106C290.608 48.1527 290.261 47.0953 290.261 45.934C290.261 44.7727 290.608 43.7153 291.301 42.762C292.012 41.8087 292.991 41.0547 294.239 40.5C295.487 39.9453 296.891 39.668 298.451 39.668C300.011 39.668 301.415 39.9453 302.663 40.5C303.911 41.0547 304.882 41.8087 305.575 42.762C306.286 43.7153 306.641 44.7727 306.641 45.934C306.641 47.0953 306.286 48.1527 305.575 49.106C304.882 50.0593 303.911 50.8133 302.663 51.368C301.415 51.9227 300.011 52.2 298.451 52.2ZM298.451 41.54C297.29 41.54 296.25 41.7307 295.331 42.112C294.43 42.4933 293.719 43.022 293.199 43.698C292.696 44.3567 292.445 45.102 292.445 45.934C292.445 46.766 292.696 47.52 293.199 48.196C293.719 48.8547 294.43 49.3747 295.331 49.756C296.25 50.1373 297.29 50.328 298.451 50.328C299.612 50.328 300.644 50.1373 301.545 49.756C302.464 49.3747 303.174 48.8547 303.677 48.196C304.197 47.52 304.457 46.766 304.457 45.934C304.457 45.102 304.197 44.3567 303.677 43.698C303.174 43.022 302.464 42.4933 301.545 42.112C300.644 41.7307 299.612 41.54 298.451 41.54ZM292.705 52.954H294.837V57.504H302.013V52.954H304.145V57.504H309.241V59.376H287.609V57.504H292.705V52.954ZM314.205 60.026C313.702 60.026 313.277 59.8527 312.931 59.506C312.584 59.1593 312.411 58.7347 312.411 58.232C312.411 57.7293 312.584 57.3047 312.931 56.958C313.277 56.6113 313.702 56.438 314.205 56.438C314.707 56.438 315.132 56.6113 315.479 56.958C315.843 57.3047 316.025 57.7293 316.025 58.232C316.025 58.7347 315.843 59.1593 315.479 59.506C315.132 59.8527 314.707 60.026 314.205 60.026Z" fill="#818181"/>
</svg>
