<svg width="365" height="63" viewBox="0 0 365 63" fill="none" xmlns="http://www.w3.org/2000/svg">
<path d="M4.876 17.762H17.512V15.63H4.876V13.81H19.696V19.53H7.06V21.792H20.216V23.638H4.876V17.762ZM19.748 0.732V12.666H17.564V0.732H19.748ZM7.242 12.068C6.06333 12.068 5.006 11.8253 4.07 11.34C3.15133 10.8373 2.432 10.17 1.912 9.338C1.40933 8.48867 1.158 7.57 1.158 6.582C1.158 5.594 1.40933 4.684 1.912 3.852C2.432 3.00267 3.15133 2.33533 4.07 1.85C5.006 1.34733 6.06333 1.096 7.242 1.096C8.42067 1.096 9.46933 1.34733 10.388 1.85C11.324 2.33533 12.0433 3.00267 12.546 3.852C13.066 4.684 13.326 5.594 13.326 6.582C13.326 7.57 13.066 8.48867 12.546 9.338C12.0433 10.17 11.324 10.8373 10.388 11.34C9.46933 11.8253 8.42067 12.068 7.242 12.068ZM7.242 2.916C6.44467 2.916 5.75133 3.08067 5.162 3.41C4.57267 3.73933 4.122 4.19 3.81 4.762C3.498 5.31667 3.342 5.92333 3.342 6.582C3.342 7.24067 3.498 7.856 3.81 8.428C4.122 8.98267 4.57267 9.42467 5.162 9.754C5.75133 10.0833 6.44467 10.248 7.242 10.248C8.03933 10.248 8.73267 10.0833 9.322 9.754C9.91133 9.42467 10.362 8.98267 10.674 8.428C10.986 7.856 11.142 7.24067 11.142 6.582C11.142 5.92333 10.986 5.31667 10.674 4.762C10.362 4.19 9.91133 3.73933 9.322 3.41C8.73267 3.08067 8.03933 2.916 7.242 2.916ZM36.152 24.366C34.5573 24.366 33.1533 24.158 31.94 23.742C30.744 23.3433 29.8253 22.7887 29.184 22.078C28.5426 21.3673 28.222 20.57 28.222 19.686C28.222 18.802 28.5426 18.0047 29.184 17.294C29.8253 16.5833 30.744 16.0287 31.94 15.63C33.1533 15.214 34.5573 15.006 36.152 15.006C37.7466 15.006 39.142 15.214 40.338 15.63C41.5513 16.0287 42.4786 16.5833 43.12 17.294C43.7613 18.0047 44.082 18.802 44.082 19.686C44.082 20.57 43.7613 21.3673 43.12 22.078C42.4786 22.7887 41.5513 23.3433 40.338 23.742C39.142 24.158 37.7466 24.366 36.152 24.366ZM37.582 13.29C36.3166 12.8047 35.1293 12.1113 34.02 11.21C32.928 10.3087 32.0873 9.32933 31.498 8.272C30.9953 9.34667 30.1806 10.404 29.054 11.444C27.9446 12.484 26.6706 13.342 25.232 14.018L23.854 12.432C25.7433 11.5827 27.286 10.4473 28.482 9.026C29.6953 7.58733 30.302 6.036 30.302 4.372V3.67H25.31V1.824H37.582V3.67H32.59V4.346C32.59 5.958 33.1793 7.414 34.358 8.714C35.5366 9.99667 36.9926 10.9673 38.726 11.626L37.582 13.29ZM36.152 16.878C34.332 16.878 32.9193 17.1293 31.914 17.632C30.9086 18.1347 30.406 18.8193 30.406 19.686C30.406 20.5527 30.9086 21.2373 31.914 21.74C32.9193 22.2427 34.332 22.494 36.152 22.494C37.972 22.494 39.3846 22.2427 40.39 21.74C41.3953 21.2373 41.898 20.5527 41.898 19.686C41.898 18.8193 41.3953 18.1347 40.39 17.632C39.3846 17.1293 37.972 16.878 36.152 16.878ZM41.482 8.012H37.192V6.14H41.482V0.732H43.666V14.616H41.482V8.012ZM58.7959 9.052C57.1319 9.052 55.6759 8.87 54.4279 8.506C53.1973 8.142 52.2526 7.63933 51.5939 6.998C50.9353 6.35667 50.6059 5.62 50.6059 4.788C50.6059 3.956 50.9353 3.21933 51.5939 2.578C52.2526 1.93667 53.1973 1.434 54.4279 1.07C55.6759 0.705999 57.1319 0.523999 58.7959 0.523999C60.4599 0.523999 61.9073 0.705999 63.1379 1.07C64.3859 1.434 65.3393 1.93667 65.9979 2.578C66.6566 3.21933 66.9859 3.956 66.9859 4.788C66.9859 5.62 66.6566 6.35667 65.9979 6.998C65.3393 7.63933 64.3859 8.142 63.1379 8.506C61.9073 8.87 60.4599 9.052 58.7959 9.052ZM58.7959 2.318C56.9933 2.318 55.5373 2.53467 54.4279 2.968C53.3359 3.40133 52.7899 4.008 52.7899 4.788C52.7899 5.568 53.3359 6.17467 54.4279 6.608C55.5373 7.04133 56.9933 7.258 58.7959 7.258C60.5986 7.258 62.0459 7.04133 63.1379 6.608C64.2473 6.17467 64.8019 5.568 64.8019 4.788C64.8019 4.008 64.2473 3.40133 63.1379 2.968C62.0459 2.53467 60.5986 2.318 58.7959 2.318ZM47.9799 10.56H69.6119V12.354H47.9799V10.56ZM50.9959 18.048H64.4119V16.15H50.9959V14.356H66.5959V19.79H53.1799V21.818H67.1159V23.638H50.9959V18.048ZM99.7252 21.116H78.0932V19.244H99.7252V21.116ZM81.1612 2.552H96.9172V4.424H83.3452V11.912H97.1772V13.784H81.1612V2.552ZM119.821 11.626H116.805V22.806H114.673V1.122H116.805V9.598H119.821V0.732H121.979V23.898H119.821V11.626ZM113.503 18.334C111.718 18.6287 109.447 18.776 106.691 18.776H103.571V9.702H109.837V4.684H103.571V2.838H111.943V11.522H105.651V16.904H106.691C109.621 16.904 111.891 16.7653 113.503 16.488V18.334ZM140.619 19.114C141.122 17.1033 141.555 14.72 141.919 11.964C142.3 9.19067 142.534 6.712 142.621 4.528H128.529V2.656H144.857C144.77 5.39467 144.536 8.26333 144.155 11.262C143.791 14.2607 143.34 16.878 142.803 19.114H147.561V20.986H125.929V19.114H140.619ZM167.917 12.146H165.031V22.806H162.899V1.122H165.031V10.118H167.917V0.732H170.075V23.898H167.917V12.146ZM155.905 19.374C154.934 19.374 154.068 19.1313 153.305 18.646C152.542 18.1433 151.944 17.4587 151.511 16.592C151.095 15.7253 150.887 14.7547 150.887 13.68C150.887 12.6053 151.095 11.6347 151.511 10.768C151.944 9.90133 152.542 9.22533 153.305 8.74C154.068 8.23733 154.934 7.986 155.905 7.986C156.876 7.986 157.742 8.23733 158.505 8.74C159.268 9.22533 159.857 9.90133 160.273 10.768C160.706 11.6347 160.923 12.6053 160.923 13.68C160.923 14.7547 160.706 15.7253 160.273 16.592C159.857 17.4587 159.268 18.1433 158.505 18.646C157.742 19.1313 156.876 19.374 155.905 19.374ZM155.905 9.806C154.952 9.806 154.224 10.1613 153.721 10.872C153.218 11.5653 152.967 12.5013 152.967 13.68C152.967 14.8587 153.218 15.8033 153.721 16.514C154.224 17.2073 154.952 17.554 155.905 17.554C156.858 17.554 157.586 17.2073 158.089 16.514C158.592 15.8033 158.843 14.8587 158.843 13.68C158.843 12.5013 158.592 11.5653 158.089 10.872C157.586 10.1613 156.858 9.806 155.905 9.806ZM150.185 4.814H154.813V1.746H156.945V4.814H161.573V6.686H150.185V4.814ZM187.181 18.724C185.812 17.944 184.555 16.93 183.411 15.682C182.267 14.434 181.409 13.1513 180.837 11.834C180.3 13.2553 179.459 14.6333 178.315 15.968C177.188 17.3027 175.862 18.4293 174.337 19.348L172.881 17.84C174.857 16.7133 176.478 15.1707 177.743 13.212C179.008 11.2533 179.641 9.09533 179.641 6.738V2.474H181.929V6.79C181.929 9.13 182.553 11.1927 183.801 12.978C185.049 14.746 186.592 16.124 188.429 17.112L187.181 18.724ZM190.925 9.832H185.985V7.908H190.925V0.732H193.109V23.898H190.925V9.832ZM12.442 57.036H10.258V52.278H0.144V50.432H21.776V52.278H12.442V57.036ZM3.16 54.462H5.37V59.636H19.54V61.508H3.16V54.462ZM12.078 38.888V40.136C12.078 41.0373 12.4593 41.93 13.222 42.814C14.002 43.698 15.0247 44.478 16.29 45.154C17.5727 45.83 18.9507 46.324 20.424 46.636L19.306 48.326C17.538 47.9273 15.9 47.2773 14.392 46.376C12.884 45.4573 11.74 44.3827 10.96 43.152C10.18 44.3827 9.036 45.4573 7.528 46.376C6.02 47.2773 4.382 47.9273 2.614 48.326L1.496 46.636C2.96933 46.324 4.33867 45.83 5.604 45.154C6.88667 44.478 7.90933 43.698 8.672 42.814C9.452 41.93 9.842 41.0373 9.842 40.136V38.888H12.078ZM37.478 56.724C36.1086 55.944 34.852 54.93 33.708 53.682C32.564 52.434 31.706 51.1513 31.134 49.834C30.5966 51.2553 29.756 52.6333 28.612 53.968C27.4853 55.3027 26.1593 56.4293 24.634 57.348L23.178 55.84C25.154 54.7133 26.7746 53.1707 28.04 51.212C29.3053 49.2533 29.938 47.0953 29.938 44.738V40.474H32.226V44.79C32.226 47.13 32.85 49.1927 34.098 50.978C35.346 52.746 36.8886 54.124 38.726 55.112L37.478 56.724ZM41.222 47.832H36.282V45.908H41.222V38.732H43.406V61.898H41.222V47.832ZM50.9959 56.386H64.4119V54.8H50.9959V53.032H66.5959V58.102H53.1799V59.844H67.1159V61.638H50.9959V56.386ZM50.9959 42.632H64.2819V41.02H50.9959V39.252H66.4659V44.348H53.1799V45.986H66.9859V47.78H50.9959V42.632ZM47.9799 49.47H69.6119V51.238H47.9799V49.47ZM79.4972 40.734H81.6812V46.74H88.0252V40.734H90.2092V56.646H79.4972V40.734ZM81.6812 48.586V54.774H88.0252V48.586H81.6812ZM94.4732 38.732H96.6572V47.728H100.167V49.704H96.6572V61.898H94.4732V38.732ZM111.735 52.044H102.011V50.172H108.485C108.728 48.9413 108.945 47.5113 109.135 45.882C109.343 44.2353 109.473 42.8053 109.525 41.592H104.247V39.72H111.813C111.761 41.3493 111.631 43.1347 111.423 45.076C111.215 47 110.964 48.6987 110.669 50.172H117.871C118.114 48.9413 118.331 47.5113 118.521 45.882C118.729 44.2353 118.859 42.8053 118.911 41.592H112.749V39.72H121.199C121.147 41.3493 121.017 43.1347 120.809 45.076C120.601 47 120.35 48.6987 120.055 50.172H123.643V52.044H113.919V61.898H111.735V52.044ZM143.089 50.068H138.201V48.144H143.089V38.732H145.273V61.898H143.089V50.068ZM126.605 56.464C128.46 55.528 130.072 54.332 131.441 52.876C132.81 51.42 133.876 49.834 134.639 48.118C135.419 46.3847 135.878 44.634 136.017 42.866H127.801V40.994H138.305C138.27 43.5767 137.802 45.9773 136.901 48.196C136 50.3973 134.778 52.33 133.235 53.994C131.71 55.6407 129.976 56.9753 128.035 57.998L126.605 56.464ZM166.227 38.732H168.411V46.948H171.921V48.924H168.411V61.898H166.227V38.732ZM164.927 55.528C163.627 55.8227 162.093 56.0393 160.325 56.178C158.574 56.2993 156.798 56.36 154.995 56.36H151.459V40.604H153.643V54.462H154.995C158.93 54.462 162.24 54.202 164.927 53.682V55.528ZM196.6 38.732H198.784V44.088H202.034V46.012H198.784V52.434H196.6V38.732ZM196.548 55.45H183.652V53.578H198.732V62.028H196.548V55.45ZM192.96 50.926C191.712 50.4407 190.534 49.7387 189.424 48.82C188.332 47.884 187.483 46.8787 186.876 45.804C186.374 46.896 185.55 47.988 184.406 49.08C183.28 50.1547 182.014 51.0127 180.61 51.654L179.232 50.068C181.139 49.236 182.69 48.0833 183.886 46.61C185.082 45.1193 185.68 43.4987 185.68 41.748V39.304H187.968V41.722C187.968 43.4553 188.54 44.972 189.684 46.272C190.846 47.572 192.319 48.5687 194.104 49.262L192.96 50.926ZM214.772 56.854C213.646 55.9873 212.658 54.982 211.808 53.838C210.976 52.694 210.326 51.4807 209.858 50.198C209.477 51.5327 208.818 52.8587 207.882 54.176C206.964 55.476 205.863 56.6113 204.58 57.582L203.046 56.152C204.104 55.424 205.057 54.4707 205.906 53.292C206.773 52.1133 207.449 50.8047 207.934 49.366C208.437 47.9273 208.688 46.4713 208.688 44.998V42.866H204.788V40.994H214.824V42.866H210.924V44.998C210.924 47.1473 211.418 49.1493 212.406 51.004C213.394 52.8413 214.608 54.28 216.046 55.32L214.772 56.854ZM217.58 60.806V48.82H214.174V46.896H217.58V39.122H219.712V60.806H217.58ZM224.106 38.732V61.898H221.948V38.732H224.106ZM232.008 56.152H244.384V54.358H232.008V52.59H246.568V57.868H234.192V59.844H247.088V61.638H232.008V56.152ZM235.414 51.082C234.27 51.082 233.248 50.9173 232.346 50.588C231.445 50.2413 230.743 49.7733 230.24 49.184C229.738 48.5947 229.486 47.9447 229.486 47.234C229.486 46.5233 229.738 45.8733 230.24 45.284C230.743 44.6947 231.445 44.2353 232.346 43.906C233.248 43.5593 234.27 43.386 235.414 43.386C236.558 43.386 237.581 43.5593 238.482 43.906C239.384 44.2353 240.086 44.6947 240.588 45.284C241.091 45.8733 241.342 46.5233 241.342 47.234C241.342 47.9447 241.091 48.5947 240.588 49.184C240.086 49.7733 239.384 50.2413 238.482 50.588C237.581 50.9173 236.558 51.082 235.414 51.082ZM246.62 38.732V44.27H249.87V46.142H246.62V51.446H244.436V38.732H246.62ZM228.368 40.63H234.296V38.42H236.48V40.63H242.408V42.424H228.368V40.63ZM235.414 45.128C234.253 45.128 233.334 45.3273 232.658 45.726C232 46.1073 231.67 46.61 231.67 47.234C231.67 47.858 232 48.3693 232.658 48.768C233.334 49.1493 234.253 49.34 235.414 49.34C236.576 49.34 237.486 49.1493 238.144 48.768C238.82 48.3693 239.158 47.858 239.158 47.234C239.158 46.61 238.82 46.1073 238.144 45.726C237.486 45.3273 236.576 45.128 235.414 45.128ZM267.634 53.864H257.91V51.992H279.542V53.864H269.818V61.898H267.634V53.864ZM269.844 39.2V40.448C269.844 41.5053 270.234 42.5367 271.014 43.542C271.794 44.5473 272.842 45.4313 274.16 46.194C275.494 46.9393 276.95 47.4853 278.528 47.832L277.332 49.6C275.512 49.1667 273.804 48.4387 272.21 47.416C270.615 46.376 269.454 45.1973 268.726 43.88C267.998 45.1973 266.836 46.376 265.242 47.416C263.647 48.4387 261.94 49.1667 260.12 49.6L258.924 47.832C260.501 47.4853 261.948 46.9393 263.266 46.194C264.6 45.4313 265.658 44.5473 266.438 43.542C267.218 42.5367 267.608 41.5053 267.608 40.448V39.2H269.844ZM305.443 38.732H307.627V51.914H305.443V38.732ZM299.827 61.95C298.96 61.43 298.154 60.754 297.409 59.922C296.664 59.09 296.092 58.2147 295.693 57.296C295.364 58.1627 294.8 59.0207 294.003 59.87C293.206 60.702 292.296 61.3953 291.273 61.95L290.025 60.494C291.325 59.87 292.417 58.9687 293.301 57.79C294.185 56.6113 294.627 55.424 294.627 54.228V53.058H296.759V54.228C296.759 54.8693 296.906 55.554 297.201 56.282C297.513 57.01 297.903 57.686 298.371 58.31C298.856 58.9167 299.342 59.3847 299.827 59.714C300.312 59.3847 300.789 58.9167 301.257 58.31C301.742 57.686 302.132 57.01 302.427 56.282C302.739 55.554 302.895 54.8693 302.895 54.228V53.058H305.027V54.228C305.027 55.424 305.469 56.6113 306.353 57.79C307.237 58.9687 308.329 59.87 309.629 60.494L308.381 61.95C307.358 61.3953 306.448 60.702 305.651 59.87C304.854 59.0207 304.29 58.1627 303.961 57.296C303.562 58.2147 302.99 59.09 302.245 59.922C301.5 60.754 300.694 61.43 299.827 61.95ZM295.095 51.004C293.899 51.004 292.833 50.744 291.897 50.224C290.961 49.6867 290.233 48.9673 289.713 48.066C289.193 47.1647 288.933 46.1853 288.933 45.128C288.933 44.0707 289.193 43.0913 289.713 42.19C290.233 41.2887 290.961 40.578 291.897 40.058C292.833 39.5207 293.899 39.252 295.095 39.252C296.291 39.252 297.357 39.5207 298.293 40.058C299.229 40.578 299.957 41.2887 300.477 42.19C300.997 43.0913 301.257 44.0707 301.257 45.128C301.257 46.1853 300.997 47.1647 300.477 48.066C299.957 48.9673 299.229 49.6867 298.293 50.224C297.357 50.744 296.291 51.004 295.095 51.004ZM295.095 41.124C293.882 41.124 292.911 41.514 292.183 42.294C291.472 43.0567 291.117 44.0013 291.117 45.128C291.117 45.856 291.273 46.5233 291.585 47.13C291.914 47.7367 292.374 48.222 292.963 48.586C293.57 48.95 294.28 49.132 295.095 49.132C295.91 49.132 296.612 48.95 297.201 48.586C297.808 48.222 298.267 47.7367 298.579 47.13C298.908 46.5233 299.073 45.856 299.073 45.128C299.073 44.0013 298.709 43.0567 297.981 42.294C297.27 41.514 296.308 41.124 295.095 41.124ZM329.101 49.418H324.473C324.421 51.1513 324.135 52.6247 323.615 53.838C323.112 55.0513 322.436 55.97 321.587 56.594C320.738 57.218 319.784 57.53 318.727 57.53C317.635 57.53 316.656 57.2007 315.789 56.542C314.922 55.8833 314.238 54.904 313.735 53.604C313.232 52.2867 312.981 50.7093 312.981 48.872C312.981 47.0347 313.232 45.466 313.735 44.166C314.238 42.8487 314.922 41.8607 315.789 41.202C316.656 40.5433 317.635 40.214 318.727 40.214C319.715 40.214 320.616 40.4913 321.431 41.046C322.246 41.6007 322.913 42.424 323.433 43.516C323.97 44.608 324.3 45.934 324.421 47.494H329.101V38.732H331.285V61.898H329.101V49.418ZM318.727 42.086C317.652 42.086 316.777 42.6667 316.101 43.828C315.442 44.9893 315.113 46.6707 315.113 48.872C315.113 51.0733 315.442 52.7547 316.101 53.916C316.777 55.0773 317.652 55.658 318.727 55.658C319.802 55.658 320.668 55.0773 321.327 53.916C322.003 52.7547 322.341 51.0733 322.341 48.872C322.341 46.6707 322.003 44.9893 321.327 43.828C320.668 42.6667 319.802 42.086 318.727 42.086ZM346.701 52.2C345.141 52.2 343.737 51.9227 342.489 51.368C341.241 50.8133 340.262 50.0593 339.551 49.106C338.858 48.1527 338.511 47.0953 338.511 45.934C338.511 44.7727 338.858 43.7153 339.551 42.762C340.262 41.8087 341.241 41.0547 342.489 40.5C343.737 39.9453 345.141 39.668 346.701 39.668C348.261 39.668 349.665 39.9453 350.913 40.5C352.161 41.0547 353.132 41.8087 353.825 42.762C354.536 43.7153 354.891 44.7727 354.891 45.934C354.891 47.0953 354.536 48.1527 353.825 49.106C353.132 50.0593 352.161 50.8133 350.913 51.368C349.665 51.9227 348.261 52.2 346.701 52.2ZM346.701 41.54C345.54 41.54 344.5 41.7307 343.581 42.112C342.68 42.4933 341.969 43.022 341.449 43.698C340.946 44.3567 340.695 45.102 340.695 45.934C340.695 46.766 340.946 47.52 341.449 48.196C341.969 48.8547 342.68 49.3747 343.581 49.756C344.5 50.1373 345.54 50.328 346.701 50.328C347.862 50.328 348.894 50.1373 349.795 49.756C350.714 49.3747 351.424 48.8547 351.927 48.196C352.447 47.52 352.707 46.766 352.707 45.934C352.707 45.102 352.447 44.3567 351.927 43.698C351.424 43.022 350.714 42.4933 349.795 42.112C348.894 41.7307 347.862 41.54 346.701 41.54ZM340.955 52.954H343.087V57.504H350.263V52.954H352.395V57.504H357.491V59.376H335.859V57.504H340.955V52.954ZM362.455 60.026C361.952 60.026 361.527 59.8527 361.181 59.506C360.834 59.1593 360.661 58.7347 360.661 58.232C360.661 57.7293 360.834 57.3047 361.181 56.958C361.527 56.6113 361.952 56.438 362.455 56.438C362.957 56.438 363.382 56.6113 363.729 56.958C364.093 57.3047 364.275 57.7293 364.275 58.232C364.275 58.7347 364.093 59.1593 363.729 59.506C363.382 59.8527 362.957 60.026 362.455 60.026Z" fill="#818181"/>
</svg>
