<svg width="253" height="101" viewBox="0 0 253 101" fill="none" xmlns="http://www.w3.org/2000/svg">
<path d="M14.4546 12.484C11.8893 11.8427 9.98264 10.8287 8.73464 9.442C8.11064 10.222 7.25264 10.9327 6.16064 11.574C5.06864 12.198 3.93331 12.6747 2.75464 13.004L1.14264 10.716C2.68531 10.352 3.97664 9.832 5.01664 9.156C6.07397 8.46267 6.74131 7.66533 7.01864 6.764H2.31264V4.216H15.0266V6.764H10.3466C10.6413 7.544 11.274 8.22867 12.2446 8.818C13.2326 9.39 14.4286 9.82333 15.8326 10.118L14.4546 12.484ZM17.5226 0.679999H20.4866V23.95H17.5226V0.679999ZM6.81064 16.358H0.908641V13.706H7.56464C11.4993 13.706 14.5153 13.5327 16.6126 13.186V15.786C14.9486 16.098 12.704 16.28 9.87864 16.332V23.43H6.81064V16.358ZM5.14664 0.836H12.5826V3.384H5.14664V0.836ZM43.0951 19.946C43.0951 21.2113 42.6531 22.156 41.7691 22.78C40.9024 23.4213 39.8884 23.82 38.7271 23.976C37.5831 24.132 36.2744 24.21 34.8011 24.21C33.3277 24.21 32.0104 24.132 30.8491 23.976C29.7051 23.82 28.6911 23.4213 27.8071 22.78C26.9404 22.156 26.5071 21.2113 26.5071 19.946C26.5071 18.6807 26.9404 17.736 27.8071 17.112C28.6911 16.4707 29.7051 16.072 30.8491 15.916C32.0104 15.76 33.3277 15.682 34.8011 15.682C36.2744 15.682 37.5831 15.76 38.7271 15.916C39.8884 16.072 40.9024 16.4707 41.7691 17.112C42.6531 17.736 43.0951 18.6807 43.0951 19.946ZM37.0631 11.054C37.0631 11.7993 36.8031 12.4667 36.2831 13.056C35.7804 13.6453 35.0611 14.1047 34.1251 14.434C33.2064 14.7633 32.1491 14.928 30.9531 14.928C29.7571 14.928 28.6997 14.7633 27.7811 14.434C26.8624 14.1047 26.1517 13.6453 25.6491 13.056C25.1464 12.4667 24.8951 11.7993 24.8951 11.054C24.8951 10.3087 25.1464 9.64133 25.6491 9.052C26.1517 8.46267 26.8624 8.00333 27.7811 7.674C28.6997 7.34467 29.7571 7.18 30.9531 7.18C32.1491 7.18 33.2064 7.34467 34.1251 7.674C35.0611 8.00333 35.7804 8.46267 36.2831 9.052C36.8031 9.64133 37.0631 10.3087 37.0631 11.054ZM39.7151 0.679999H42.6791V4.424H45.6171V7.076H42.6791V9.832H45.6171V12.484H42.6791V15.552H39.7151V0.679999ZM23.7771 3.904H37.9731V6.374H23.7771V3.904ZM40.1311 19.946C40.1311 19.4607 39.8364 19.062 39.2471 18.75C38.6577 18.438 37.7044 18.256 36.3871 18.204C36.0751 18.1867 35.5464 18.178 34.8011 18.178C34.0731 18.178 33.5444 18.1867 33.2151 18.204C31.8977 18.256 30.9444 18.438 30.3551 18.75C29.7657 19.062 29.4711 19.4607 29.4711 19.946C29.4711 20.4313 29.7657 20.83 30.3551 21.142C30.9444 21.454 31.8977 21.636 33.2151 21.688L34.8011 21.714L36.3871 21.688C37.7044 21.636 38.6577 21.454 39.2471 21.142C39.8364 20.83 40.1311 20.4313 40.1311 19.946ZM27.1571 0.497999H34.6971V2.968H27.1571V0.497999ZM34.0471 11.054C34.0471 10.5687 33.7697 10.1787 33.2151 9.884C32.6604 9.572 31.9064 9.416 30.9531 9.416C29.9997 9.416 29.2544 9.572 28.7171 9.884C28.1797 10.1787 27.9111 10.5687 27.9111 11.054C27.9111 11.5393 28.1797 11.938 28.7171 12.25C29.2544 12.5447 29.9997 12.692 30.9531 12.692C31.9064 12.692 32.6604 12.5447 33.2151 12.25C33.7697 11.938 34.0471 11.5393 34.0471 11.054ZM53.1741 1.59H64.6921V11.73H53.1741V1.59ZM71.2701 23.898C69.5888 23.5513 68.0115 22.9967 66.5381 22.234C65.0648 21.4887 63.9815 20.6307 63.2881 19.66C62.5948 20.6307 61.5115 21.4887 60.0381 22.234C58.5648 22.9967 56.9875 23.5513 55.3061 23.898L53.9801 21.532C55.8348 21.168 57.4728 20.5787 58.8941 19.764C60.3328 18.932 61.2341 18.048 61.5981 17.112H55.3581V14.538H71.4781V17.112H64.9781C65.3421 18.048 66.2348 18.932 67.6561 19.764C69.0948 20.5787 70.7415 21.168 72.5961 21.532L71.2701 23.898ZM68.2541 0.679999H71.2181V5.178H74.2861V7.882H71.2181V13.394H68.2541V0.679999ZM56.1381 4.19V9.13H61.7281V4.19H56.1381ZM77.9925 16.202H84.6225V14.564H75.2105V12.068H97.1545V14.564H87.7425V16.202H94.3725V23.69H77.9925V16.202ZM94.7105 11.444C93.0292 11.2187 91.3912 10.8027 89.7965 10.196C88.2192 9.572 87.0145 8.844 86.1825 8.012C85.3505 8.844 84.1372 9.572 82.5425 10.196C80.9652 10.8027 79.3359 11.2187 77.6545 11.444L76.3285 9.182C78.0445 8.95667 79.5959 8.584 80.9825 8.064C82.3865 7.52667 83.4005 6.92867 84.0245 6.27H77.6805V3.722H94.6845V6.27H88.3405C88.9472 6.92867 89.9439 7.52667 91.3305 8.064C92.7345 8.584 94.3032 8.95667 96.0365 9.182L94.7105 11.444ZM80.9825 0.0819986H91.3825V2.734H80.9825V0.0819986ZM80.9565 18.724V21.142H91.4085V18.724H80.9565ZM115.762 16.826H108.56L106.948 21.74H103.36L110.016 2.734H114.306L120.962 21.74H117.374L115.762 16.826ZM114.904 14.2L112.148 5.828L109.418 14.2H114.904ZM123.283 2.734H126.585V21.74H123.283V2.734ZM151.421 16.722H146.923C146.455 17.918 145.761 18.854 144.843 19.53C143.941 20.1887 142.832 20.518 141.515 20.518C139.591 20.518 138.109 19.8333 137.069 18.464C136.046 17.0947 135.483 15.3007 135.379 13.082C135.361 12.6833 135.353 12.0507 135.353 11.184C135.353 10.3 135.361 9.66733 135.379 9.286C135.483 7.06733 136.046 5.27333 137.069 3.904C138.109 2.53467 139.591 1.85 141.515 1.85C142.867 1.85 144.002 2.20533 144.921 2.916C145.839 3.60933 146.533 4.58 147.001 5.828H151.421V0.679999H154.385V23.95H151.421V16.722ZM141.515 17.866C142.451 17.866 143.196 17.4673 143.751 16.67C144.305 15.8553 144.617 14.6593 144.687 13.082C144.721 12.2847 144.739 11.652 144.739 11.184C144.739 10.6813 144.721 10.0487 144.687 9.286C144.617 7.70867 144.305 6.52133 143.751 5.724C143.196 4.90933 142.451 4.502 141.515 4.502C140.579 4.502 139.833 4.90933 139.279 5.724C138.724 6.52133 138.412 7.70867 138.343 9.286C138.325 9.66733 138.317 10.3 138.317 11.184C138.317 12.0507 138.325 12.6833 138.343 13.082C138.412 14.6593 138.724 15.8553 139.279 16.67C139.833 17.4673 140.579 17.866 141.515 17.866ZM147.599 8.48L147.651 9.286C147.685 10.0487 147.703 10.6813 147.703 11.184C147.703 11.652 147.685 12.2847 147.651 13.082L147.573 14.07H151.421V8.48H147.599ZM178.657 19.972C178.657 21.22 178.18 22.156 177.227 22.78C176.291 23.404 175.216 23.794 174.003 23.95C172.79 24.1233 171.446 24.21 169.973 24.21C168.5 24.21 167.156 24.1233 165.943 23.95C164.73 23.794 163.646 23.404 162.693 22.78C161.757 22.156 161.289 21.22 161.289 19.972C161.289 18.7067 161.757 17.762 162.693 17.138C163.629 16.4967 164.704 16.098 165.917 15.942C167.148 15.7687 168.5 15.682 169.973 15.682C171.446 15.682 172.79 15.7687 174.003 15.942C175.234 16.098 176.317 16.4967 177.253 17.138C178.189 17.762 178.657 18.7067 178.657 19.972ZM175.303 9.806H173.457V14.746H170.597V0.913999H173.457V7.05H175.303V0.679999H178.215V15.734H175.303V9.806ZM169.271 11.262C169.271 11.99 169.046 12.6487 168.595 13.238C168.162 13.81 167.555 14.2607 166.775 14.59C165.995 14.902 165.12 15.058 164.149 15.058C163.178 15.058 162.303 14.902 161.523 14.59C160.743 14.2607 160.128 13.81 159.677 13.238C159.244 12.6487 159.027 11.99 159.027 11.262C159.027 10.534 159.244 9.884 159.677 9.312C160.128 8.72267 160.743 8.272 161.523 7.96C162.303 7.63067 163.178 7.466 164.149 7.466C165.12 7.466 165.995 7.63067 166.775 7.96C167.555 8.272 168.162 8.72267 168.595 9.312C169.046 9.884 169.271 10.534 169.271 11.262ZM175.693 19.972C175.693 19.504 175.346 19.1053 174.653 18.776C173.977 18.4467 172.946 18.256 171.559 18.204L169.973 18.178L168.387 18.204C167 18.256 165.96 18.4467 165.267 18.776C164.591 19.1053 164.253 19.504 164.253 19.972C164.253 20.44 164.591 20.83 165.267 21.142C165.943 21.454 166.983 21.636 168.387 21.688L169.973 21.714L171.559 21.688C172.963 21.636 174.003 21.454 174.679 21.142C175.355 20.83 175.693 20.44 175.693 19.972ZM158.403 4.19H169.687V6.66H158.403V4.19ZM160.665 0.783999H167.607V3.254H160.665V0.783999ZM166.411 11.262C166.411 10.8113 166.212 10.4387 165.813 10.144C165.414 9.84933 164.86 9.702 164.149 9.702C163.438 9.702 162.884 9.84933 162.485 10.144C162.086 10.4387 161.887 10.8113 161.887 11.262C161.887 11.7127 162.086 12.0853 162.485 12.38C162.884 12.6747 163.438 12.822 164.149 12.822C164.86 12.822 165.414 12.6747 165.813 12.38C166.212 12.0853 166.411 11.7127 166.411 11.262ZM186.396 10.404H208.34V12.9H186.396V10.404ZM189.178 17.788H202.594V16.696H189.178V14.252H205.558V20.076H192.142V21.22H206.078V23.69H189.178V17.788ZM188.19 6.608H191.622L191.492 3.774H188.71V1.304H206.026V3.774H203.244L203.14 6.608H206.546V9.104H188.19V6.608ZM194.456 3.774L194.56 6.608H200.202L200.28 3.774H194.456ZM227.075 12.25H224.969V22.988H222.109V0.939998H224.969V9.442H227.075V0.679999H229.987V23.95H227.075V12.25ZM221.173 19.244C219.561 19.5213 217.55 19.66 215.141 19.66H210.981V9.572H217.143V5.1H210.981V2.474H220.003V12.172H213.841V17.008H215.141C217.602 17.008 219.613 16.8867 221.173 16.644V19.244ZM249.657 10.638H243.235V7.934H249.657V0.679999H252.621V23.95H249.657V10.638ZM248.045 18.542C245.67 19.01 242.481 19.244 238.477 19.244H234.525V2.24H237.489V16.566H238.477C242.256 16.566 245.445 16.3493 248.045 15.916V18.542ZM67.4064 43.594H61.2964V59.74H57.9944V43.594H51.8584V40.734H67.4064V43.594ZM69.7433 45.466H72.8893V47.104C73.236 46.4627 73.7127 45.9687 74.3193 45.622C74.9433 45.2753 75.6193 45.102 76.3473 45.102H76.3733C77.1707 45.102 77.89 45.284 78.5313 45.648C79.1727 46.012 79.684 46.5493 80.0653 47.26C80.4467 47.9533 80.6373 48.7767 80.6373 49.73V49.99H77.6473V49.938C77.6473 49.1753 77.4307 48.6033 76.9973 48.222C76.564 47.8233 76.0093 47.624 75.3333 47.624H75.3073C74.5967 47.624 74.016 47.91 73.5653 48.482C73.1147 49.054 72.8893 49.8513 72.8893 50.874V59.74H69.7433V45.466ZM95.8165 45.492V59.74H92.6705V57.686C92.2025 58.4833 91.5698 59.09 90.7725 59.506C89.9751 59.922 89.0998 60.13 88.1465 60.13H88.1205C87.0111 60.13 86.0145 59.8873 85.1305 59.402C84.2465 58.8993 83.5445 58.1627 83.0245 57.192C82.5045 56.204 82.2445 55.0167 82.2445 53.63V51.602C82.2445 50.2153 82.5045 49.028 83.0245 48.04C83.5445 47.052 84.2465 46.3067 85.1305 45.804C86.0145 45.3013 87.0111 45.05 88.1205 45.05H88.1465C89.1171 45.05 89.9925 45.2407 90.7725 45.622C91.5698 46.0033 92.2025 46.5753 92.6705 47.338V45.492H95.8165ZM88.9785 57.504C89.6198 57.504 90.2178 57.3393 90.7725 57.01C91.3445 56.6633 91.8038 56.152 92.1505 55.476C92.4971 54.8 92.6705 53.994 92.6705 53.058V52.174C92.6705 51.2207 92.4971 50.406 92.1505 49.73C91.8038 49.054 91.3445 48.5513 90.7725 48.222C90.2178 47.8753 89.6198 47.702 88.9785 47.702H88.9265C87.8865 47.702 87.0371 48.066 86.3785 48.794C85.7198 49.5047 85.3905 50.562 85.3905 51.966V53.266C85.3905 54.6527 85.7198 55.71 86.3785 56.438C87.0371 57.1487 87.8865 57.504 88.9265 57.504H88.9785ZM112.42 45.492L107.324 59.74H103.06L97.9641 45.492H101.396L105.192 57.14L109.014 45.492H112.42ZM120.589 60.156C119.393 60.156 118.283 59.896 117.261 59.376C116.238 58.856 115.423 58.0847 114.817 57.062C114.21 56.0393 113.907 54.8087 113.907 53.37V51.862C113.907 50.4233 114.21 49.1927 114.817 48.17C115.423 47.13 116.238 46.35 117.261 45.83C118.283 45.31 119.393 45.05 120.589 45.05H120.641C121.854 45.05 122.963 45.31 123.969 45.83C124.991 46.35 125.806 47.13 126.413 48.17C127.019 49.1927 127.323 50.4233 127.323 51.862V53.37C127.323 54.8087 127.019 56.0393 126.413 57.062C125.806 58.0847 124.991 58.856 123.969 59.376C122.963 59.896 121.854 60.156 120.641 60.156H120.589ZM120.641 57.504C121.265 57.504 121.845 57.3567 122.383 57.062C122.92 56.7673 123.353 56.334 123.683 55.762C124.012 55.1727 124.177 54.4707 124.177 53.656V51.55C124.177 50.7353 124.012 50.042 123.683 49.47C123.353 48.8807 122.92 48.4387 122.383 48.144C121.845 47.8493 121.265 47.702 120.641 47.702H120.589C119.965 47.702 119.384 47.8493 118.847 48.144C118.309 48.4387 117.876 48.8807 117.547 49.47C117.217 50.0593 117.053 50.7527 117.053 51.55V53.656C117.053 54.4533 117.217 55.1467 117.547 55.736C117.876 56.3253 118.309 56.7673 118.847 57.062C119.384 57.3567 119.965 57.504 120.589 57.504H120.641ZM144.544 57.738C142.464 58.1193 139.448 58.31 135.496 58.31H129.386V55.658H135.34V52.044C134.369 51.836 133.485 51.4287 132.688 50.822C131.908 50.2153 131.292 49.4787 130.842 48.612C130.391 47.7453 130.166 46.8353 130.166 45.882C130.166 44.79 130.46 43.7587 131.05 42.788C131.639 41.8173 132.436 41.046 133.442 40.474C134.447 39.8847 135.539 39.59 136.718 39.59C137.896 39.59 138.988 39.8847 139.994 40.474C140.999 41.046 141.796 41.8173 142.386 42.788C142.975 43.7587 143.27 44.79 143.27 45.882C143.27 46.8007 143.053 47.6847 142.62 48.534C142.204 49.366 141.623 50.0853 140.878 50.692C140.132 51.2987 139.292 51.7233 138.356 51.966V55.632C141.112 55.5453 143.174 55.3807 144.544 55.138V57.738ZM145.454 38.68H148.418V47.546H151.642V50.302H148.418V61.95H145.454V38.68ZM136.718 49.522C137.411 49.522 138.026 49.3573 138.564 49.028C139.118 48.6813 139.543 48.2307 139.838 47.676C140.15 47.104 140.306 46.506 140.306 45.882C140.306 45.258 140.15 44.6687 139.838 44.114C139.543 43.542 139.118 43.0913 138.564 42.762C138.026 42.4153 137.411 42.242 136.718 42.242C136.024 42.242 135.4 42.4153 134.846 42.762C134.308 43.0913 133.884 43.542 133.572 44.114C133.277 44.6687 133.13 45.258 133.13 45.882C133.13 46.506 133.277 47.104 133.572 47.676C133.884 48.2307 134.308 48.6813 134.846 49.028C135.4 49.3573 136.024 49.522 136.718 49.522ZM161.409 53.838H176.931V61.69H161.409V53.838ZM171.367 48.898C171.367 49.6433 171.107 50.302 170.587 50.874C170.084 51.446 169.365 51.8967 168.429 52.226C167.51 52.5553 166.453 52.72 165.257 52.72C164.061 52.72 163.003 52.564 162.085 52.252C161.166 51.9227 160.455 51.472 159.953 50.9C159.45 50.3107 159.199 49.6433 159.199 48.898C159.199 48.1527 159.45 47.494 159.953 46.922C160.455 46.3327 161.166 45.882 162.085 45.57C163.003 45.2407 164.061 45.076 165.257 45.076C166.453 45.076 167.51 45.2407 168.429 45.57C169.365 45.8993 170.084 46.35 170.587 46.922C171.107 47.494 171.367 48.1527 171.367 48.898ZM174.019 38.68H176.983V44.608H180.051V47.312H176.983V52.902H174.019V38.68ZM158.081 41.852H172.277V44.322H158.081V41.852ZM164.373 56.308V59.194H173.967V56.308H164.373ZM161.461 38.498H169.001V40.968H161.461V38.498ZM168.351 48.898C168.351 48.4127 168.073 48.0313 167.519 47.754C166.964 47.4593 166.21 47.312 165.257 47.312C164.303 47.312 163.558 47.4593 163.021 47.754C162.483 48.0313 162.215 48.4127 162.215 48.898C162.215 49.3833 162.483 49.7733 163.021 50.068C163.558 50.3453 164.303 50.484 165.257 50.484C166.21 50.484 166.964 50.3453 167.519 50.068C168.073 49.7733 168.351 49.3833 168.351 48.898ZM195.067 50.328H192.441C192.112 52.0093 191.661 53.5953 191.089 55.086C190.517 56.5593 189.772 58.0413 188.853 59.532L186.279 58.206C187.683 55.9873 188.689 53.6907 189.295 51.316C189.919 48.9413 190.257 46.2807 190.309 43.334H187.683V40.734H193.169C193.169 43.3513 193.057 45.648 192.831 47.624H195.067V38.94H197.875V60.988H195.067V50.328ZM198.889 38.68H201.749V61.95H198.889V38.68ZM180.143 56.698C181.513 54.7047 182.518 52.616 183.159 50.432C183.818 48.2307 184.199 45.8647 184.303 43.334H181.677V40.734H187.111C187.094 44.5647 186.747 47.7887 186.071 50.406C185.395 53.006 184.26 55.5453 182.665 58.024L180.143 56.698ZM20.8239 92.722H16.3259C15.8579 93.918 15.1646 94.854 14.2459 95.53C13.3446 96.1887 12.2353 96.518 10.9179 96.518C8.99393 96.518 7.51193 95.8333 6.47193 94.464C5.44926 93.0947 4.88593 91.3007 4.78193 89.082C4.7646 88.6833 4.75593 88.0507 4.75593 87.184C4.75593 86.3 4.7646 85.6673 4.78193 85.286C4.88593 83.0673 5.44926 81.2733 6.47193 79.904C7.51193 78.5347 8.99393 77.85 10.9179 77.85C12.2699 77.85 13.4053 78.2053 14.3239 78.916C15.2426 79.6093 15.9359 80.58 16.4039 81.828H20.8239V76.68H23.7879V99.95H20.8239V92.722ZM10.9179 93.866C11.8539 93.866 12.5993 93.4673 13.1539 92.67C13.7086 91.8553 14.0206 90.6593 14.0899 89.082C14.1246 88.2847 14.1419 87.652 14.1419 87.184C14.1419 86.6813 14.1246 86.0487 14.0899 85.286C14.0206 83.7087 13.7086 82.5213 13.1539 81.724C12.5993 80.9093 11.8539 80.502 10.9179 80.502C9.98193 80.502 9.2366 80.9093 8.68193 81.724C8.12726 82.5213 7.81526 83.7087 7.74593 85.286C7.7286 85.6673 7.71993 86.3 7.71993 87.184C7.71993 88.0507 7.7286 88.6833 7.74593 89.082C7.81526 90.6593 8.12726 91.8553 8.68193 92.67C9.2366 93.4673 9.98193 93.866 10.9179 93.866ZM17.0019 84.48L17.0539 85.286C17.0886 86.0487 17.1059 86.6813 17.1059 87.184C17.1059 87.652 17.0886 88.2847 17.0539 89.082L16.9759 90.07H20.8239V84.48H17.0019ZM48.0604 95.972C48.0604 97.22 47.5837 98.156 46.6304 98.78C45.6944 99.404 44.6197 99.794 43.4064 99.95C42.193 100.123 40.8497 100.21 39.3764 100.21C37.903 100.21 36.5597 100.123 35.3464 99.95C34.133 99.794 33.0497 99.404 32.0964 98.78C31.1604 98.156 30.6924 97.22 30.6924 95.972C30.6924 94.7067 31.1604 93.762 32.0964 93.138C33.0324 92.4967 34.107 92.098 35.3204 91.942C36.551 91.7687 37.903 91.682 39.3764 91.682C40.8497 91.682 42.193 91.7687 43.4064 91.942C44.637 92.098 45.7204 92.4967 46.6564 93.138C47.5924 93.762 48.0604 94.7067 48.0604 95.972ZM44.7064 85.806H42.8604V90.746H40.0004V76.914H42.8604V83.05H44.7064V76.68H47.6184V91.734H44.7064V85.806ZM38.6744 87.262C38.6744 87.99 38.449 88.6487 37.9984 89.238C37.565 89.81 36.9584 90.2607 36.1784 90.59C35.3984 90.902 34.523 91.058 33.5524 91.058C32.5817 91.058 31.7064 90.902 30.9264 90.59C30.1464 90.2607 29.531 89.81 29.0804 89.238C28.647 88.6487 28.4304 87.99 28.4304 87.262C28.4304 86.534 28.647 85.884 29.0804 85.312C29.531 84.7227 30.1464 84.272 30.9264 83.96C31.7064 83.6307 32.5817 83.466 33.5524 83.466C34.523 83.466 35.3984 83.6307 36.1784 83.96C36.9584 84.272 37.565 84.7227 37.9984 85.312C38.449 85.884 38.6744 86.534 38.6744 87.262ZM45.0964 95.972C45.0964 95.504 44.7497 95.1053 44.0564 94.776C43.3804 94.4467 42.349 94.256 40.9624 94.204L39.3764 94.178L37.7904 94.204C36.4037 94.256 35.3637 94.4467 34.6704 94.776C33.9944 95.1053 33.6564 95.504 33.6564 95.972C33.6564 96.44 33.9944 96.83 34.6704 97.142C35.3464 97.454 36.3864 97.636 37.7904 97.688L39.3764 97.714L40.9624 97.688C42.3664 97.636 43.4064 97.454 44.0824 97.142C44.7584 96.83 45.0964 96.44 45.0964 95.972ZM27.8064 80.19H39.0904V82.66H27.8064V80.19ZM30.0684 76.784H37.0104V79.254H30.0684V76.784ZM35.8144 87.262C35.8144 86.8113 35.615 86.4387 35.2164 86.144C34.8177 85.8493 34.263 85.702 33.5524 85.702C32.8417 85.702 32.287 85.8493 31.8884 86.144C31.4897 86.4387 31.2904 86.8113 31.2904 87.262C31.2904 87.7127 31.4897 88.0853 31.8884 88.38C32.287 88.6747 32.8417 88.822 33.5524 88.822C34.263 88.822 34.8177 88.6747 35.2164 88.38C35.615 88.0853 35.8144 87.7127 35.8144 87.262ZM68.9294 91.968H65.5754V89.316H68.9294V85.286H66.3554V82.634H68.9294V76.94H71.7894V98.988H68.9294V91.968ZM55.2534 94.802C57.6454 93.0687 59.5087 91.0147 60.8434 88.64C62.1954 86.248 62.9754 83.83 63.1834 81.386H56.8394V78.734H66.1994C66.2341 82.582 65.4541 86.0487 63.8594 89.134C62.2647 92.2193 60.0807 94.776 57.3074 96.804L55.2534 94.802ZM73.2454 76.68H76.1574V99.95H73.2454V76.68ZM95.4378 91.76C93.2885 92.1067 90.2725 92.28 86.3898 92.28H79.7338V89.784H86.2078V88.796C84.6998 88.6573 83.5472 88.3193 82.7498 87.782C81.9525 87.2447 81.5538 86.5687 81.5538 85.754C81.5538 84.818 82.0738 84.0727 83.1138 83.518C84.1712 82.946 85.6618 82.66 87.5858 82.66C89.5098 82.66 90.9918 82.946 92.0318 83.518C93.0892 84.0727 93.6178 84.818 93.6178 85.754C93.6178 86.534 93.2365 87.1927 92.4738 87.73C91.7285 88.2673 90.6452 88.614 89.2238 88.77V89.758C91.6332 89.706 93.7045 89.5587 95.4378 89.316V91.76ZM96.2958 95.738H82.6978V93.242H99.2598V100.08H96.2958V95.738ZM96.3478 76.68H99.3118V92.306H96.3478V76.68ZM80.3058 79.488H94.5798V82.036H80.3058V79.488ZM83.8678 76.108H91.4078V78.656H83.8678V76.108ZM90.6538 85.754C90.6538 85.5287 90.3852 85.3553 89.8478 85.234C89.3278 85.1127 88.5738 85.052 87.5858 85.052C86.5978 85.052 85.8352 85.1127 85.2978 85.234C84.7778 85.3553 84.5178 85.5287 84.5178 85.754C84.5178 85.9793 84.7778 86.1527 85.2978 86.274C85.8352 86.3953 86.5978 86.456 87.5858 86.456C88.5738 86.456 89.3278 86.3953 89.8478 86.274C90.3852 86.1527 90.6538 85.9793 90.6538 85.754ZM102.264 86.04H124.208V88.536H102.264V86.04ZM105.046 93.658H118.462V92.436H105.046V89.992H121.426V95.946H108.01V97.22H121.946V99.69H105.046V93.658ZM121.582 80.632C121.582 81.88 121.132 82.816 120.23 83.44C119.346 84.064 118.324 84.454 117.162 84.61C116.001 84.766 114.692 84.844 113.236 84.844C111.78 84.844 110.472 84.766 109.31 84.61C108.149 84.454 107.118 84.064 106.216 83.44C105.332 82.816 104.89 81.88 104.89 80.632C104.89 79.384 105.332 78.448 106.216 77.824C107.118 77.2 108.149 76.81 109.31 76.654C110.472 76.498 111.78 76.42 113.236 76.42C114.692 76.42 116.001 76.498 117.162 76.654C118.324 76.81 119.346 77.2 120.23 77.824C121.132 78.448 121.582 79.384 121.582 80.632ZM118.514 80.632C118.514 80.112 118.237 79.7133 117.682 79.436C117.128 79.1587 116.122 78.994 114.666 78.942C114.354 78.9247 113.878 78.916 113.236 78.916C112.612 78.916 112.136 78.9247 111.806 78.942C110.35 78.994 109.345 79.1587 108.79 79.436C108.236 79.7133 107.958 80.112 107.958 80.632C107.958 80.9787 108.054 81.2733 108.244 81.516C108.435 81.7413 108.808 81.9233 109.362 82.062C109.934 82.2007 110.749 82.2873 111.806 82.322L113.236 82.348L114.666 82.322C116.122 82.27 117.128 82.1053 117.682 81.828C118.237 81.5507 118.514 81.152 118.514 80.632ZM141.671 95.712C140.545 94.8627 139.565 93.9093 138.733 92.852C137.901 91.7947 137.295 90.7113 136.913 89.602C136.532 90.7807 135.882 91.9593 134.963 93.138C134.045 94.3167 132.944 95.4087 131.661 96.414L129.581 94.438C131.297 93.2247 132.684 91.6387 133.741 89.68C134.816 87.7213 135.353 85.598 135.353 83.31V78.214H138.369V83.31C138.369 84.766 138.595 86.17 139.045 87.522C139.496 88.8567 140.094 90.0527 140.839 91.11C141.602 92.15 142.443 92.9993 143.361 93.658L141.671 95.712ZM144.297 86.69H140.891V83.934H144.297V76.94H147.157V98.988H144.297V86.69ZM148.509 76.68H151.421V99.95H148.509V76.68ZM168.518 82.218C168.518 83.2753 168.232 84.2113 167.66 85.026C167.088 85.8407 166.316 86.482 165.346 86.95C164.375 87.4007 163.309 87.626 162.148 87.626C160.986 87.626 159.92 87.4007 158.95 86.95C157.979 86.482 157.208 85.8407 156.636 85.026C156.064 84.2113 155.778 83.2753 155.778 82.218C155.778 81.1607 156.064 80.2247 156.636 79.41C157.208 78.5953 157.979 77.9627 158.95 77.512C159.92 77.044 160.986 76.81 162.148 76.81C163.309 76.81 164.375 77.044 165.346 77.512C166.316 77.9627 167.088 78.5953 167.66 79.41C168.232 80.2247 168.518 81.1607 168.518 82.218ZM171.352 95.764H166.516V93.164H171.352V76.68H174.316V99.95H171.352V95.764ZM160.458 91.318H154.738V88.666H161.394C165.328 88.666 168.344 88.4927 170.442 88.146V90.746C168.76 91.0753 166.455 91.266 163.526 91.318V99.43H160.458V91.318ZM165.554 82.218C165.554 81.4033 165.242 80.7447 164.618 80.242C163.994 79.722 163.17 79.462 162.148 79.462C161.125 79.462 160.302 79.722 159.678 80.242C159.054 80.7447 158.742 81.4033 158.742 82.218C158.742 83.0327 159.054 83.7 159.678 84.22C160.302 84.7227 161.125 84.974 162.148 84.974C163.17 84.974 163.994 84.7227 164.618 84.22C165.242 83.7 165.554 83.0327 165.554 82.218ZM182.575 95.244H191.987V91.032H185.409V77.954H188.373V81.75H198.721V77.954H201.685V91.032H195.107V95.244H204.519V97.896H182.575V95.244ZM188.373 84.35V88.38H198.721V84.35H188.373ZM216.675 95.712C215.549 94.8627 214.569 93.9093 213.737 92.852C212.905 91.7947 212.299 90.7113 211.917 89.602C211.536 90.7807 210.886 91.9593 209.967 93.138C209.049 94.3167 207.948 95.4087 206.665 96.414L204.585 94.438C206.301 93.2247 207.688 91.6387 208.745 89.68C209.82 87.7213 210.357 85.598 210.357 83.31V78.214H213.373V83.31C213.373 84.766 213.599 86.17 214.049 87.522C214.5 88.8567 215.098 90.0527 215.843 91.11C216.606 92.15 217.447 92.9993 218.365 93.658L216.675 95.712ZM219.301 86.69H215.895V83.934H219.301V76.94H222.161V98.988H219.301V86.69ZM223.513 76.68H226.425V99.95H223.513V76.68ZM248.644 83.96C248.644 85.1907 248.34 86.2913 247.734 87.262C247.144 88.2153 246.304 88.978 245.212 89.55C244.137 90.122 242.898 90.4513 241.494 90.538C241.199 90.5553 240.705 90.564 240.012 90.564C239.318 90.564 238.824 90.5553 238.53 90.538C237.126 90.4513 235.878 90.122 234.786 89.55C233.711 88.978 232.87 88.2153 232.264 87.262C231.674 86.2913 231.38 85.1907 231.38 83.96C231.38 82.7293 231.674 81.6373 232.264 80.684C232.87 79.7133 233.711 78.942 234.786 78.37C235.878 77.798 237.126 77.4687 238.53 77.382C239.119 77.3473 239.613 77.33 240.012 77.33C240.41 77.33 240.904 77.3473 241.494 77.382C242.898 77.4687 244.137 77.798 245.212 78.37C246.304 78.942 247.144 79.7133 247.734 80.684C248.34 81.6373 248.644 82.7293 248.644 83.96ZM229.04 95.036H233.642V90.954H236.658V95.036H243.366V90.954H246.382V95.036H250.984V97.688H229.04V95.036ZM245.576 83.96C245.576 82.9373 245.212 82.0533 244.484 81.308C243.756 80.5627 242.759 80.138 241.494 80.034C241.199 79.9993 240.705 79.982 240.012 79.982C239.318 79.982 238.824 79.9993 238.53 80.034C237.264 80.138 236.268 80.5627 235.54 81.308C234.812 82.0533 234.448 82.9373 234.448 83.96C234.448 84.9827 234.812 85.8667 235.54 86.612C236.268 87.3573 237.264 87.782 238.53 87.886L240.012 87.938L241.494 87.886C242.759 87.782 243.756 87.3573 244.484 86.612C245.212 85.8667 245.576 84.9827 245.576 83.96Z" fill="#030045"/>
</svg>
