<svg width="257" height="230" viewBox="0 0 257 230" fill="none" xmlns="http://www.w3.org/2000/svg">
<path d="M27.8438 6.24H29.8958V14.43H27.8438V6.24ZM21.0938 14.16C20.2538 14.16 19.5038 13.992 18.8438 13.656C18.1958 13.308 17.6918 12.84 17.3318 12.252C16.9838 11.664 16.8098 11.016 16.8098 10.308C16.8098 9.6 16.9838 8.952 17.3318 8.364C17.6918 7.776 18.1958 7.314 18.8438 6.978C19.5038 6.63 20.2538 6.456 21.0938 6.456C21.9338 6.456 22.6778 6.63 23.3258 6.978C23.9858 7.314 24.4898 7.776 24.8378 8.364C25.1978 8.952 25.3778 9.6 25.3778 10.308C25.3778 11.016 25.1978 11.664 24.8378 12.252C24.4898 12.84 23.9858 13.308 23.3258 13.656C22.6778 13.992 21.9338 14.16 21.0938 14.16ZM21.0938 8.184C20.3858 8.184 19.8338 8.388 19.4378 8.796C19.0538 9.192 18.8618 9.696 18.8618 10.308C18.8618 10.92 19.0538 11.43 19.4378 11.838C19.8338 12.234 20.3858 12.432 21.0938 12.432C21.8018 12.432 22.3478 12.234 22.7318 11.838C23.1278 11.43 23.3258 10.92 23.3258 10.308C23.3258 9.696 23.1278 9.192 22.7318 8.796C22.3478 8.388 21.8018 8.184 21.0938 8.184ZM19.3838 17.814H27.8078V16.878H19.3838V15.15H29.8598V19.434H21.4358V20.424H30.2198V22.17H19.3838V17.814ZM41.1444 22.674C39.9924 22.674 38.9904 22.536 38.1384 22.26C37.2984 21.984 36.6564 21.594 36.2124 21.09C35.7684 20.598 35.5464 20.028 35.5464 19.38C35.5464 18.732 35.7684 18.162 36.2124 17.67C36.6564 17.166 37.2984 16.776 38.1384 16.5C38.9904 16.224 39.9924 16.086 41.1444 16.086C42.2964 16.086 43.2924 16.224 44.1324 16.5C44.9844 16.776 45.6324 17.166 46.0764 17.67C46.5204 18.162 46.7424 18.732 46.7424 19.38C46.7424 20.028 46.5204 20.598 46.0764 21.09C45.6324 21.594 44.9844 21.984 44.1324 22.26C43.2924 22.536 42.2964 22.674 41.1444 22.674ZM41.8284 15.15C41.0124 14.814 40.2624 14.37 39.5784 13.818C38.9064 13.266 38.3604 12.654 37.9404 11.982C37.6044 12.69 37.0764 13.374 36.3564 14.034C35.6364 14.682 34.7964 15.222 33.8364 15.654L32.5404 14.178C33.8964 13.602 34.9464 12.84 35.6904 11.892C36.4464 10.932 36.8244 9.906 36.8244 8.814V8.76H33.5304V6.96H42.2424V8.76H38.9484V8.814C38.9484 9.858 39.3084 10.794 40.0284 11.622C40.7484 12.438 41.7144 13.08 42.9264 13.548L41.8284 15.15ZM44.4024 9.84V6.24H46.4544V15.888H44.4024V11.676H41.7924V9.84H44.4024ZM41.1444 20.874C42.2604 20.874 43.1184 20.748 43.7184 20.496C44.3184 20.232 44.6184 19.86 44.6184 19.38C44.6184 18.9 44.3184 18.534 43.7184 18.282C43.1184 18.018 42.2604 17.886 41.1444 17.886C40.0284 17.886 39.1704 18.018 38.5704 18.282C37.9704 18.534 37.6704 18.9 37.6704 19.38C37.6704 19.86 37.9704 20.232 38.5704 20.496C39.1704 20.748 40.0284 20.874 41.1444 20.874ZM60.1008 17.076H53.6388V15.24H68.6868V17.076H62.2248V22.35H60.1008V17.076ZM62.2068 7.248C62.2068 7.956 62.4648 8.646 62.9808 9.318C63.4968 9.99 64.2048 10.584 65.1048 11.1C66.0048 11.616 67.0128 11.994 68.1288 12.234L66.9768 13.89C65.7528 13.602 64.6188 13.128 63.5748 12.468C62.5308 11.796 61.7268 11.016 61.1628 10.128C60.5988 11.016 59.7948 11.796 58.7508 12.468C57.7068 13.128 56.5728 13.602 55.3488 13.89L54.1968 12.234C55.3128 11.994 56.3208 11.616 57.2208 11.1C58.1208 10.584 58.8288 9.99 59.3448 9.318C59.8608 8.646 60.1188 7.956 60.1188 7.248V6.528H62.2068V7.248ZM78.6034 22.674C77.4514 22.674 76.4494 22.536 75.5974 22.26C74.7574 21.984 74.1154 21.594 73.6714 21.09C73.2274 20.598 73.0054 20.028 73.0054 19.38C73.0054 18.732 73.2274 18.162 73.6714 17.67C74.1154 17.166 74.7574 16.776 75.5974 16.5C76.4494 16.224 77.4514 16.086 78.6034 16.086C79.7554 16.086 80.7514 16.224 81.5914 16.5C82.4434 16.776 83.0914 17.166 83.5354 17.67C83.9794 18.162 84.2014 18.732 84.2014 19.38C84.2014 20.028 83.9794 20.598 83.5354 21.09C83.0914 21.594 82.4434 21.984 81.5914 22.26C80.7514 22.536 79.7554 22.674 78.6034 22.674ZM79.2874 15.15C78.4714 14.814 77.7214 14.37 77.0374 13.818C76.3654 13.266 75.8194 12.654 75.3994 11.982C75.0634 12.69 74.5354 13.374 73.8154 14.034C73.0954 14.682 72.2554 15.222 71.2954 15.654L69.9994 14.178C71.3554 13.602 72.4054 12.84 73.1494 11.892C73.9054 10.932 74.2834 9.906 74.2834 8.814V8.76H70.9894V6.96H79.7014V8.76H76.4074V8.814C76.4074 9.858 76.7674 10.794 77.4874 11.622C78.2074 12.438 79.1734 13.08 80.3854 13.548L79.2874 15.15ZM81.8614 9.84V6.24H83.9134V15.888H81.8614V11.676H79.2514V9.84H81.8614ZM78.6034 20.874C79.7194 20.874 80.5774 20.748 81.1774 20.496C81.7774 20.232 82.0774 19.86 82.0774 19.38C82.0774 18.9 81.7774 18.534 81.1774 18.282C80.5774 18.018 79.7194 17.886 78.6034 17.886C77.4874 17.886 76.6294 18.018 76.0294 18.282C75.4294 18.534 75.1294 18.9 75.1294 19.38C75.1294 19.86 75.4294 20.232 76.0294 20.496C76.6294 20.748 77.4874 20.874 78.6034 20.874ZM95.54 18.948H101.804V20.784H86.756V18.948H93.38V15.528H88.808V7.464H99.842V9.282H90.86V13.692H100.112V15.528H95.54V18.948ZM119.5 22.35V6.24H121.552V22.35H119.5ZM118.87 16.266C117.73 16.482 116.212 16.608 114.316 16.644V21.99H112.192V16.662H108.088V14.826H112.606C115.33 14.826 117.418 14.706 118.87 14.466V16.266ZM117.412 13.566C116.584 13.278 115.816 12.858 115.108 12.306C114.412 11.754 113.86 11.13 113.452 10.434C113.044 11.154 112.462 11.82 111.706 12.432C110.962 13.032 110.122 13.53 109.186 13.926L107.98 12.396C108.832 12.072 109.588 11.646 110.248 11.118C110.908 10.59 111.424 10.008 111.796 9.372C112.168 8.736 112.354 8.106 112.354 7.482V6.672H114.442V7.482C114.442 8.418 114.82 9.294 115.576 10.11C116.344 10.914 117.31 11.52 118.474 11.928L117.412 13.566ZM129.777 13.818C128.973 13.818 128.247 13.662 127.599 13.35C126.951 13.026 126.441 12.588 126.069 12.036C125.697 11.472 125.511 10.848 125.511 10.164C125.511 9.48 125.697 8.862 126.069 8.31C126.441 7.746 126.951 7.308 127.599 6.996C128.247 6.672 128.973 6.51 129.777 6.51C130.581 6.51 131.307 6.672 131.955 6.996C132.603 7.308 133.113 7.746 133.485 8.31C133.857 8.862 134.043 9.48 134.043 10.164C134.043 10.848 133.857 11.472 133.485 12.036C133.113 12.588 132.603 13.026 131.955 13.35C131.307 13.662 130.581 13.818 129.777 13.818ZM136.059 22.35V19.542H132.819V17.742H136.059V6.24H138.111V22.35H136.059ZM135.429 16.158C134.277 16.374 132.729 16.5 130.785 16.536V21.99H128.661V16.554H124.647V14.718H129.165C131.889 14.718 133.977 14.598 135.429 14.358V16.158ZM129.777 8.346C129.093 8.346 128.553 8.52 128.157 8.868C127.761 9.204 127.563 9.636 127.563 10.164C127.563 10.692 127.761 11.13 128.157 11.478C128.553 11.814 129.093 11.982 129.777 11.982C130.461 11.982 131.001 11.814 131.397 11.478C131.793 11.13 131.991 10.692 131.991 10.164C131.991 9.636 131.793 9.204 131.397 8.868C131.001 8.52 130.461 8.346 129.777 8.346ZM148.316 15.816C147.212 15.816 146.222 15.624 145.346 15.24C144.47 14.844 143.78 14.304 143.276 13.62C142.784 12.936 142.538 12.174 142.538 11.334C142.538 10.494 142.784 9.732 143.276 9.048C143.78 8.364 144.47 7.83 145.346 7.446C146.222 7.05 147.212 6.852 148.316 6.852C149.42 6.852 150.41 7.05 151.286 7.446C152.162 7.83 152.846 8.364 153.338 9.048C153.842 9.732 154.094 10.494 154.094 11.334C154.094 12.174 153.842 12.936 153.338 13.62C152.846 14.304 152.162 14.844 151.286 15.24C150.41 15.624 149.42 15.816 148.316 15.816ZM140.774 20.784V18.948H143.996V16.122H146.084V18.948H150.512V16.122H152.6V18.948H155.822V20.784H140.774ZM148.316 8.688C147.224 8.688 146.342 8.934 145.67 9.426C144.998 9.906 144.662 10.542 144.662 11.334C144.662 12.126 144.998 12.768 145.67 13.26C146.342 13.74 147.224 13.98 148.316 13.98C149.408 13.98 150.29 13.74 150.962 13.26C151.634 12.768 151.97 12.126 151.97 11.334C151.97 10.542 151.634 9.906 150.962 9.426C150.29 8.934 149.408 8.688 148.316 8.688Z" fill="#030045"/>
<g filter="url(#filter0_d_641_356)">
<rect x="7" y="54" width="241" height="166.136" rx="10.2553" fill="white"/>
<rect x="7.25638" y="54.2564" width="240.487" height="165.623" rx="9.99894" stroke="#D9D9D9" stroke-width="0.512766"/>
<rect x="15.0269" y="79.8947" width="225.025" height="30.766" rx="4.87128" fill="white"/>
<rect x="15.0269" y="79.8947" width="225.025" height="30.766" rx="4.87128" stroke="#D9D9D9" stroke-width="0.512766"/>
<path d="M222.184 96.0255C222.597 96.0255 222.932 95.6907 222.932 95.2777C222.932 94.8647 222.597 94.5299 222.184 94.5299C221.771 94.5299 221.437 94.8647 221.437 95.2777C221.437 95.6907 221.771 96.0255 222.184 96.0255Z" stroke="#B0B0B0" stroke-width="2.05106" stroke-linecap="round" stroke-linejoin="round"/>
<path d="M227.419 96.0255C227.832 96.0255 228.167 95.6907 228.167 95.2777C228.167 94.8647 227.832 94.5299 227.419 94.5299C227.006 94.5299 226.671 94.8647 226.671 95.2777C226.671 95.6907 227.006 96.0255 227.419 96.0255Z" stroke="#B0B0B0" stroke-width="2.05106" stroke-linecap="round" stroke-linejoin="round"/>
<path d="M216.95 96.0255C217.363 96.0255 217.698 95.6907 217.698 95.2777C217.698 94.8647 217.363 94.5299 216.95 94.5299C216.537 94.5299 216.202 94.8647 216.202 95.2777C216.202 95.6907 216.537 96.0255 216.95 96.0255Z" stroke="#B0B0B0" stroke-width="2.05106" stroke-linecap="round" stroke-linejoin="round"/>
<path d="M50.7578 93.6238C50.3578 93.3161 50.0071 92.9593 49.7056 92.5531C49.4102 92.147 49.1795 91.7163 49.0133 91.261C48.878 91.7348 48.6441 92.2055 48.3119 92.6731C47.9858 93.1346 47.595 93.5377 47.1397 93.8822L46.5951 93.3746C46.9705 93.1162 47.3089 92.7777 47.6104 92.3593C47.9181 91.9409 48.158 91.4763 48.3303 90.9656C48.5088 90.4549 48.598 89.938 48.598 89.415V88.6582H47.2135V87.9936H50.7762V88.6582H49.3918V89.415C49.3918 90.178 49.5671 90.8887 49.9179 91.5471C50.2686 92.1993 50.6993 92.71 51.21 93.0792L50.7578 93.6238ZM51.7546 95.0267V90.7718H50.5455V90.0888H51.7546V87.3291H52.5114V95.0267H51.7546ZM54.0713 87.1906V95.4144H53.3052V87.1906H54.0713ZM56.3411 87.5414H62.1005V88.2059H59.6453C59.6453 88.5136 59.7838 88.8274 60.0607 89.1473C60.3376 89.4673 60.7098 89.7534 61.1775 90.0057C61.6513 90.2518 62.1589 90.4334 62.7004 90.5503L62.2758 91.1779C61.6359 91.0364 61.0329 90.7933 60.4668 90.4487C59.9007 90.098 59.4853 89.695 59.2208 89.2396C58.9562 89.695 58.5408 90.098 57.9747 90.4487C57.4086 90.7933 56.8056 91.0364 56.1657 91.1779L55.7411 90.5503C56.2826 90.4334 56.7872 90.2518 57.2548 90.0057C57.7286 89.7534 58.104 89.4673 58.3808 89.1473C58.6577 88.8274 58.7962 88.5136 58.7962 88.2059H56.3411V87.5414ZM58.8331 92.6547H55.3812V91.9901H63.0604V92.6547H59.6084V95.4144H58.8331V92.6547ZM68.0622 92.5347H70.4804V95.4605H69.7051V93.1992H64.8133V92.5347H67.2684V91.0579H63.8719V90.4026H69.4928C69.5728 90.0457 69.6405 89.6581 69.6958 89.2396C69.7574 88.8151 69.7974 88.4305 69.8158 88.0859H64.7764V87.4306H70.6096C70.5788 88.4336 70.4588 89.4242 70.2496 90.4026H71.551V91.0579H68.0622V92.5347ZM76.2298 93.6238C75.8299 93.3161 75.4791 92.9593 75.1776 92.5531C74.8823 92.147 74.6515 91.7163 74.4854 91.261C74.35 91.7348 74.1162 92.2055 73.7839 92.6731C73.4578 93.1346 73.0671 93.5377 72.6117 93.8822L72.0672 93.3746C72.4425 93.1162 72.781 92.7777 73.0825 92.3593C73.3901 91.9409 73.6301 91.4763 73.8024 90.9656C73.9808 90.4549 74.07 89.938 74.07 89.415V88.6582H72.6856V87.9936H76.2483V88.6582H74.8638V89.415C74.8638 90.178 75.0392 90.8887 75.3899 91.5471C75.7406 92.1993 76.1714 92.71 76.6821 93.0792L76.2298 93.6238ZM77.2266 95.0267V90.7718H76.0175V90.0888H77.2266V87.3291H77.9835V95.0267H77.2266ZM79.5433 87.1906V95.4144H78.7772V87.1906H79.5433ZM84.6928 95.5805C84.0775 95.5805 83.5452 95.5067 83.0961 95.359C82.653 95.2175 82.3115 95.0206 82.0715 94.7683C81.8377 94.516 81.7208 94.2299 81.7208 93.9099C81.7208 93.59 81.8377 93.3038 82.0715 93.0515C82.3115 92.7993 82.653 92.6024 83.0961 92.4608C83.5452 92.3132 84.0775 92.2393 84.6928 92.2393C85.3081 92.2393 85.8373 92.3132 86.2803 92.4608C86.7295 92.6024 87.071 92.7993 87.3048 93.0515C87.5448 93.3038 87.6648 93.59 87.6648 93.9099C87.6648 94.2299 87.5448 94.516 87.3048 94.7683C87.071 95.0206 86.7295 95.2175 86.2803 95.359C85.8373 95.5067 85.3081 95.5805 84.6928 95.5805ZM84.6928 92.8946C84.0037 92.8946 83.4652 92.9869 83.0776 93.1715C82.6899 93.35 82.4961 93.5961 82.4961 93.9099C82.4961 94.2237 82.6899 94.4729 83.0776 94.6575C83.4652 94.836 84.0037 94.9252 84.6928 94.9252C85.382 94.9252 85.9204 94.836 86.308 94.6575C86.6957 94.4729 86.8895 94.2237 86.8895 93.9099C86.8895 93.5961 86.6957 93.35 86.308 93.1715C85.9204 92.9869 85.382 92.8946 84.6928 92.8946ZM80.8532 90.7718H83.899V89.1012H84.6928V90.7718H88.5324V91.4271H80.8532V90.7718ZM86.5203 90.2365C86.6803 89.6088 86.7726 88.892 86.7972 88.0859H81.7577V87.4306H87.591C87.5725 88.5936 87.4679 89.5288 87.2771 90.2365H86.5203ZM93.405 95.5805C92.8451 95.5805 92.3559 95.5128 91.9375 95.3775C91.5191 95.2482 91.196 95.0698 90.9683 94.8421C90.7468 94.6206 90.6361 94.3683 90.6361 94.0853C90.6361 93.8022 90.7468 93.55 90.9683 93.3284C91.196 93.1008 91.5191 92.9223 91.9375 92.7931C92.3559 92.6577 92.8451 92.5901 93.405 92.5901C93.9649 92.5901 94.4541 92.6577 94.8725 92.7931C95.291 92.9223 95.6109 93.1008 95.8324 93.3284C96.0601 93.55 96.1739 93.8022 96.1739 94.0853C96.1739 94.3683 96.0601 94.6206 95.8324 94.8421C95.6109 95.0698 95.291 95.2482 94.8725 95.3775C94.4541 95.5128 93.9649 95.5805 93.405 95.5805ZM94.1618 90.541C94.1618 90.8241 94.0726 91.0825 93.8942 91.3163C93.7157 91.5502 93.4665 91.7348 93.1466 91.8701C92.8266 92.0055 92.4605 92.0732 92.0482 92.0732C91.636 92.0732 91.2698 92.0055 90.9499 91.8701C90.6361 91.7348 90.3899 91.5502 90.2115 91.3163C90.0331 91.0825 89.9438 90.8241 89.9438 90.541C89.9438 90.258 90.0331 89.9996 90.2115 89.7657C90.3899 89.5319 90.6391 89.3473 90.9591 89.212C91.2791 89.0766 91.6421 89.0089 92.0482 89.0089C92.4605 89.0089 92.8266 89.0766 93.1466 89.212C93.4665 89.3473 93.7157 89.5319 93.8942 89.7657C94.0726 89.9996 94.1618 90.258 94.1618 90.541ZM93.405 93.2361C92.7774 93.2361 92.2882 93.3131 91.9375 93.4669C91.5867 93.6146 91.4114 93.8207 91.4114 94.0853C91.4114 94.3499 91.5867 94.5591 91.9375 94.7129C92.2882 94.8606 92.7774 94.9344 93.405 94.9344C94.0326 94.9344 94.5218 94.8606 94.8725 94.7129C95.2233 94.5591 95.3986 94.3499 95.3986 94.0853C95.3986 93.8207 95.2233 93.6146 94.8725 93.4669C94.5218 93.3131 94.0326 93.2361 93.405 93.2361ZM95.251 87.1906H96.0263V89.415H97.18V90.098H96.0263V92.4516H95.251V87.1906ZM93.3865 90.541C93.3865 90.2703 93.2666 90.0519 93.0266 89.8857C92.7866 89.7196 92.4605 89.6365 92.0482 89.6365C91.636 89.6365 91.3098 89.7196 91.0699 89.8857C90.836 90.0519 90.7191 90.2703 90.7191 90.541C90.7191 90.8118 90.836 91.0302 91.0699 91.1964C91.3098 91.3625 91.636 91.4456 92.0482 91.4456C92.4605 91.4456 92.7866 91.3625 93.0266 91.1964C93.2666 91.0302 93.3865 90.8118 93.3865 90.541ZM89.547 88.0029H91.6513V87.1168H92.4266V88.0029H94.531V88.6489H89.547V88.0029Z" fill="black"/>
<path d="M49.4124 104.353C49.1458 104.148 48.9119 103.91 48.7109 103.64C48.514 103.369 48.3602 103.082 48.2495 102.778C48.1592 103.094 48.0033 103.408 47.7818 103.72C47.5644 104.027 47.3039 104.296 47.0004 104.526L46.6373 104.187C46.8875 104.015 47.1132 103.789 47.3142 103.51C47.5193 103.232 47.6793 102.922 47.7941 102.581C47.9131 102.241 47.9726 101.896 47.9726 101.548V101.043H47.0496V100.6H49.4247V101.043H48.5017V101.548C48.5017 102.056 48.6186 102.53 48.8525 102.969C49.0863 103.404 49.3734 103.744 49.7139 103.99L49.4124 104.353ZM50.0769 105.289V102.452H49.2709V101.997H50.0769V100.157H50.5815V105.289H50.0769ZM51.6214 100.065V105.547H51.1107V100.065H51.6214ZM53.1346 100.299H56.9742V100.742H55.3374C55.3374 100.947 55.4297 101.156 55.6143 101.369C55.7989 101.582 56.0471 101.773 56.3589 101.941C56.6747 102.106 57.0132 102.227 57.3742 102.304L57.0911 102.723C56.6645 102.629 56.2625 102.467 55.8851 102.237C55.5077 102.003 55.2308 101.734 55.0544 101.431C54.878 101.734 54.6011 102.003 54.2237 102.237C53.8463 102.467 53.4443 102.629 53.0177 102.723L52.7346 102.304C53.0956 102.227 53.432 102.106 53.7438 101.941C54.0596 101.773 54.3099 101.582 54.4945 101.369C54.6791 101.156 54.7714 100.947 54.7714 100.742H53.1346V100.299ZM54.796 103.707H52.4947V103.264H57.6141V103.707H55.3128V105.547H54.796V103.707ZM62.2162 100.065H62.7331V105.547H62.2162V100.065ZM61.3548 104.323C61.0307 104.138 60.7313 103.898 60.4564 103.603C60.1816 103.307 59.9765 103.004 59.8411 102.692C59.7139 103.024 59.5129 103.351 59.2381 103.67C58.9673 103.986 58.6515 104.253 58.2905 104.47L57.9459 104.114C58.4136 103.847 58.7992 103.482 59.1027 103.018C59.4063 102.551 59.5581 102.04 59.5581 101.486V100.477H60.0995V101.498C60.0995 102.048 60.2493 102.534 60.5487 102.957C60.8482 103.379 61.2153 103.707 61.6501 103.941L61.3548 104.323ZM67.8415 105.658C67.4313 105.658 67.0765 105.609 66.777 105.51C66.4816 105.416 66.254 105.285 66.094 105.116C65.9381 104.948 65.8602 104.758 65.8602 104.544C65.8602 104.331 65.9381 104.14 66.094 103.972C66.254 103.804 66.4816 103.673 66.777 103.578C67.0765 103.48 67.4313 103.431 67.8415 103.431C68.2517 103.431 68.6045 103.48 68.8999 103.578C69.1993 103.673 69.427 103.804 69.5829 103.972C69.7428 104.14 69.8228 104.331 69.8228 104.544C69.8228 104.758 69.7428 104.948 69.5829 105.116C69.427 105.285 69.1993 105.416 68.8999 105.51C68.6045 105.609 68.2517 105.658 67.8415 105.658ZM67.8415 103.867C67.3821 103.867 67.0231 103.929 66.7647 104.052C66.5063 104.171 66.377 104.335 66.377 104.544C66.377 104.753 66.5063 104.92 66.7647 105.043C67.0231 105.162 67.3821 105.221 67.8415 105.221C68.3009 105.221 68.6599 105.162 68.9183 105.043C69.1767 104.92 69.306 104.753 69.306 104.544C69.306 104.335 69.1767 104.171 68.9183 104.052C68.6599 103.929 68.3009 103.867 67.8415 103.867ZM65.2818 102.452H67.3123V101.338H67.8415V102.452H70.4012V102.889H65.2818V102.452ZM69.0598 102.095C69.1665 101.677 69.228 101.199 69.2444 100.662H65.8848V100.225H69.7736C69.7613 101 69.6916 101.624 69.5644 102.095H69.0598ZM73.6496 105.658C73.2763 105.658 72.9502 105.613 72.6713 105.523C72.3923 105.436 72.177 105.317 72.0252 105.166C71.8775 105.018 71.8037 104.85 71.8037 104.661C71.8037 104.472 71.8775 104.304 72.0252 104.157C72.177 104.005 72.3923 103.886 72.6713 103.8C72.9502 103.709 73.2763 103.664 73.6496 103.664C74.0229 103.664 74.349 103.709 74.628 103.8C74.9069 103.886 75.1202 104.005 75.2679 104.157C75.4197 104.304 75.4956 104.472 75.4956 104.661C75.4956 104.85 75.4197 105.018 75.2679 105.166C75.1202 105.317 74.9069 105.436 74.628 105.523C74.349 105.613 74.0229 105.658 73.6496 105.658ZM74.1542 102.298C74.1542 102.487 74.0947 102.659 73.9758 102.815C73.8568 102.971 73.6907 103.094 73.4773 103.184C73.264 103.275 73.02 103.32 72.7451 103.32C72.4703 103.32 72.2262 103.275 72.0129 103.184C71.8037 103.094 71.6396 102.971 71.5206 102.815C71.4017 102.659 71.3422 102.487 71.3422 102.298C71.3422 102.11 71.4017 101.937 71.5206 101.781C71.6396 101.626 71.8057 101.503 72.019 101.412C72.2323 101.322 72.4744 101.277 72.7451 101.277C73.02 101.277 73.264 101.322 73.4773 101.412C73.6907 101.503 73.8568 101.626 73.9758 101.781C74.0947 101.937 74.1542 102.11 74.1542 102.298ZM73.6496 104.095C73.2312 104.095 72.9051 104.146 72.6713 104.249C72.4375 104.347 72.3205 104.485 72.3205 104.661C72.3205 104.838 72.4375 104.977 72.6713 105.08C72.9051 105.178 73.2312 105.227 73.6496 105.227C74.068 105.227 74.3942 105.178 74.628 105.08C74.8618 104.977 74.9787 104.838 74.9787 104.661C74.9787 104.485 74.8618 104.347 74.628 104.249C74.3942 104.146 74.068 104.095 73.6496 104.095ZM74.8803 100.065H75.3971V101.548H76.1663V102.003H75.3971V103.572H74.8803V100.065ZM73.6373 102.298C73.6373 102.118 73.5573 101.972 73.3974 101.861C73.2374 101.751 73.02 101.695 72.7451 101.695C72.4703 101.695 72.2529 101.751 72.0929 101.861C71.937 101.972 71.8591 102.118 71.8591 102.298C71.8591 102.479 71.937 102.624 72.0929 102.735C72.2529 102.846 72.4703 102.901 72.7451 102.901C73.02 102.901 73.2374 102.846 73.3974 102.735C73.5573 102.624 73.6373 102.479 73.6373 102.298ZM71.0776 100.606H72.4805V100.015H72.9974V100.606H74.4003V101.037H71.0776V100.606ZM79.4578 104.507H81.7221V104.95H76.6027V104.507H78.9286V103.523H77.3288V101.757H80.4484V100.895H77.3288V100.459H80.9653V102.188H77.8456V103.08H81.0884V103.523H79.4578V104.507ZM84.0616 104.735C84.0616 104.312 84.1477 103.97 84.32 103.707C84.4923 103.445 84.7754 103.209 85.1692 103L85.6984 102.723C85.965 102.579 86.1701 102.434 86.3137 102.286C86.4613 102.134 86.5352 101.95 86.5352 101.732C86.5352 101.507 86.449 101.324 86.2768 101.185C86.1045 101.045 85.8891 100.975 85.6307 100.975C85.3353 100.975 85.0933 101.057 84.9046 101.222C84.72 101.386 84.6277 101.605 84.6277 101.88H84.0678C84.0678 101.589 84.1354 101.336 84.2708 101.123C84.4062 100.91 84.5928 100.746 84.8308 100.631C85.0687 100.516 85.3353 100.459 85.6307 100.459C85.9055 100.459 86.1557 100.514 86.3814 100.625C86.607 100.731 86.7834 100.881 86.9105 101.074C87.0418 101.267 87.1074 101.482 87.1074 101.72C87.1074 101.954 87.0562 102.157 86.9536 102.329C86.8511 102.501 86.7157 102.649 86.5475 102.772C86.3834 102.895 86.1742 103.026 85.9199 103.166L85.3968 103.443C85.1261 103.582 84.9313 103.738 84.8123 103.91C84.6933 104.079 84.6277 104.282 84.6154 104.52H87.1074V105.036H84.0616V104.735Z" fill="#B0B0B0"/>
<path d="M34.848 87.9868H26.9963C26.4013 87.9868 25.8307 88.2232 25.41 88.6439C24.9893 89.0646 24.7529 89.6352 24.7529 90.2302V99.2036C24.7529 99.7985 24.9893 100.369 25.41 100.79C25.8307 101.211 26.4013 101.447 26.9963 101.447H27.5571L26.5476 102.793C26.5034 102.852 26.4713 102.919 26.453 102.99C26.4347 103.062 26.4307 103.136 26.4411 103.209C26.4515 103.282 26.4762 103.352 26.5137 103.415C26.5512 103.479 26.6009 103.534 26.6598 103.578C26.7187 103.622 26.7857 103.654 26.8571 103.673C26.9284 103.691 27.0027 103.695 27.0756 103.685C27.1485 103.674 27.2186 103.65 27.282 103.612C27.3454 103.574 27.4008 103.525 27.445 103.466L28.9592 101.447H32.8851L34.3993 103.466C34.4886 103.585 34.6214 103.664 34.7687 103.685C34.9159 103.706 35.0655 103.667 35.1845 103.578C35.3035 103.489 35.3822 103.356 35.4032 103.209C35.4242 103.062 35.3859 102.912 35.2967 102.793L34.2872 101.447H34.848C35.443 101.447 36.0136 101.211 36.4343 100.79C36.855 100.369 37.0914 99.7985 37.0914 99.2036V90.2302C37.0914 89.6352 36.855 89.0646 36.4343 88.6439C36.0136 88.2232 35.443 87.9868 34.848 87.9868ZM25.8746 94.7169V91.9127H30.3613V94.7169H25.8746ZM31.483 91.9127H35.9697V94.7169H31.483V91.9127ZM26.9963 89.1085H34.848C35.1455 89.1085 35.4308 89.2267 35.6412 89.437C35.8515 89.6474 35.9697 89.9327 35.9697 90.2302V90.791H25.8746V90.2302C25.8746 89.9327 25.9928 89.6474 26.2031 89.437C26.4135 89.2267 26.6988 89.1085 26.9963 89.1085ZM34.848 100.325H26.9963C26.6988 100.325 26.4135 100.207 26.2031 99.9967C25.9928 99.7864 25.8746 99.5011 25.8746 99.2036V95.8385H35.9697V99.2036C35.9697 99.5011 35.8515 99.7864 35.6412 99.9967C35.4308 100.207 35.1455 100.325 34.848 100.325ZM28.6788 98.3623C28.6788 98.5287 28.6295 98.6913 28.537 98.8297C28.4446 98.968 28.3132 99.0759 28.1595 99.1395C28.0058 99.2032 27.8366 99.2199 27.6734 99.1874C27.5102 99.1549 27.3603 99.0748 27.2427 98.9572C27.125 98.8395 27.0449 98.6896 27.0124 98.5264C26.98 98.3632 26.9966 98.1941 27.0603 98.0404C27.124 97.8867 27.2318 97.7553 27.3702 97.6628C27.5085 97.5704 27.6712 97.5211 27.8375 97.5211C28.0607 97.5211 28.2746 97.6097 28.4324 97.7675C28.5902 97.9252 28.6788 98.1392 28.6788 98.3623ZM34.848 98.3623C34.848 98.5287 34.7987 98.6913 34.7062 98.8297C34.6138 98.968 34.4824 99.0759 34.3287 99.1395C34.175 99.2032 34.0058 99.2199 33.8426 99.1874C33.6794 99.1549 33.5295 99.0748 33.4119 98.9572C33.2942 98.8395 33.2141 98.6896 33.1817 98.5264C33.1492 98.3632 33.1659 98.1941 33.2295 98.0404C33.2932 97.8867 33.401 97.7553 33.5394 97.6628C33.6777 97.5704 33.8404 97.5211 34.0068 97.5211C34.2299 97.5211 34.4438 97.6097 34.6016 97.7675C34.7594 97.9252 34.848 98.1392 34.848 98.3623Z" fill="#B0B0B0"/>
<g clip-path="url(#clip0_641_356)">
<line x1="31.4361" y1="110.917" x2="31.4361" y2="126.3" stroke="#D9D9D9" stroke-width="0.512766"/>
<path d="M41.3402 121.07C40.9797 121.07 40.6583 121.008 40.3761 120.884C40.0957 120.76 39.8726 120.588 39.7069 120.368C39.543 120.146 39.4538 119.888 39.4392 119.595H40.1275C40.1421 119.775 40.204 119.931 40.3132 120.062C40.4225 120.191 40.5654 120.292 40.7421 120.363C40.9187 120.434 41.1144 120.469 41.3293 120.469C41.5697 120.469 41.7827 120.427 41.9684 120.343C42.1542 120.26 42.2999 120.143 42.4055 119.994C42.5111 119.845 42.5639 119.672 42.5639 119.475C42.5639 119.269 42.5129 119.088 42.4109 118.931C42.309 118.773 42.1596 118.649 41.963 118.56C41.7663 118.471 41.526 118.426 41.2419 118.426H40.794V117.825H41.2419C41.4641 117.825 41.6589 117.785 41.8264 117.705C41.9958 117.625 42.1278 117.512 42.2225 117.366C42.319 117.221 42.3672 117.049 42.3672 116.853C42.3672 116.663 42.3253 116.499 42.2416 116.358C42.1578 116.218 42.0395 116.109 41.8865 116.031C41.7354 115.952 41.5569 115.913 41.3512 115.913C41.1581 115.913 40.9761 115.949 40.8049 116.02C40.6355 116.089 40.4972 116.19 40.3897 116.323C40.2823 116.454 40.224 116.612 40.2149 116.798H39.5594C39.5703 116.505 39.6586 116.248 39.8243 116.028C39.99 115.806 40.2067 115.633 40.4744 115.509C40.7439 115.385 41.0398 115.323 41.3621 115.323C41.7081 115.323 42.0049 115.393 42.2525 115.534C42.5002 115.672 42.6904 115.855 42.8234 116.083C42.9563 116.31 43.0228 116.556 43.0228 116.82C43.0228 117.135 42.9399 117.404 42.7742 117.626C42.6103 117.848 42.3873 118.002 42.105 118.087V118.131C42.4583 118.189 42.7341 118.34 42.9326 118.582C43.1311 118.822 43.2303 119.12 43.2303 119.475C43.2303 119.779 43.1475 120.052 42.9818 120.294C42.8179 120.535 42.5939 120.724 42.3099 120.862C42.0258 121.001 41.7026 121.07 41.3402 121.07ZM46.2376 121.07C45.877 121.07 45.5556 121.008 45.2734 120.884C44.993 120.76 44.7699 120.588 44.6042 120.368C44.4403 120.146 44.3511 119.888 44.3365 119.595H45.0248C45.0394 119.775 45.1013 119.931 45.2106 120.062C45.3198 120.191 45.4628 120.292 45.6394 120.363C45.816 120.434 46.0118 120.469 46.2266 120.469C46.467 120.469 46.68 120.427 46.8658 120.343C47.0515 120.26 47.1972 120.143 47.3028 119.994C47.4084 119.845 47.4612 119.672 47.4612 119.475C47.4612 119.269 47.4102 119.088 47.3082 118.931C47.2063 118.773 47.057 118.649 46.8603 118.56C46.6636 118.471 46.4233 118.426 46.1392 118.426H45.6913V117.825H46.1392C46.3614 117.825 46.5562 117.785 46.7237 117.705C46.8931 117.625 47.0251 117.512 47.1198 117.366C47.2163 117.221 47.2645 117.049 47.2645 116.853C47.2645 116.663 47.2227 116.499 47.1389 116.358C47.0551 116.218 46.9368 116.109 46.7838 116.031C46.6327 115.952 46.4542 115.913 46.2485 115.913C46.0555 115.913 45.8734 115.949 45.7022 116.02C45.5329 116.089 45.3945 116.19 45.287 116.323C45.1796 116.454 45.1213 116.612 45.1122 116.798H44.4567C44.4676 116.505 44.5559 116.248 44.7217 116.028C44.8874 115.806 45.104 115.633 45.3717 115.509C45.6412 115.385 45.9371 115.323 46.2594 115.323C46.6054 115.323 46.9022 115.393 47.1498 115.534C47.3975 115.672 47.5878 115.855 47.7207 116.083C47.8536 116.31 47.9201 116.556 47.9201 116.82C47.9201 117.135 47.8372 117.404 47.6715 117.626C47.5076 117.848 47.2846 118.002 47.0023 118.087V118.131C47.3556 118.189 47.6315 118.34 47.8299 118.582C48.0284 118.822 48.1276 119.12 48.1276 119.475C48.1276 119.779 48.0448 120.052 47.8791 120.294C47.7152 120.535 47.4912 120.724 47.2072 120.862C46.9231 121.001 46.5999 121.07 46.2376 121.07ZM49.0426 118.309H55.3496V118.825H49.0426V118.309ZM51.9192 118.571H52.5576V120.171H51.9192V118.571ZM49.8425 120.917H54.6497V121.44H49.8425V120.917ZM49.8425 119.548H50.4732V121.109H49.8425V119.548ZM49.881 114.856H50.5117V115.74H53.8806V114.856H54.5113V117.64H49.881V114.856ZM50.5117 116.232V117.125H53.8806V116.232H50.5117Z" fill="#B0B0B0"/>
</g>
<rect x="15.0269" y="127.069" width="225.025" height="30.766" rx="4.87128" fill="white"/>
<rect x="15.0269" y="127.069" width="225.025" height="30.766" rx="4.87128" stroke="#D9D9D9" stroke-width="0.512766"/>
<path d="M222.184 143.2C222.597 143.2 222.932 142.865 222.932 142.452C222.932 142.039 222.597 141.704 222.184 141.704C221.771 141.704 221.437 142.039 221.437 142.452C221.437 142.865 221.771 143.2 222.184 143.2Z" stroke="#B0B0B0" stroke-width="2.05106" stroke-linecap="round" stroke-linejoin="round"/>
<path d="M227.419 143.2C227.832 143.2 228.167 142.865 228.167 142.452C228.167 142.039 227.832 141.704 227.419 141.704C227.006 141.704 226.671 142.039 226.671 142.452C226.671 142.865 227.006 143.2 227.419 143.2Z" stroke="#B0B0B0" stroke-width="2.05106" stroke-linecap="round" stroke-linejoin="round"/>
<path d="M216.95 143.2C217.363 143.2 217.698 142.865 217.698 142.452C217.698 142.039 217.363 141.704 216.95 141.704C216.537 141.704 216.202 142.039 216.202 142.452C216.202 142.865 216.537 143.2 216.95 143.2Z" stroke="#B0B0B0" stroke-width="2.05106" stroke-linecap="round" stroke-linejoin="round"/>
<path d="M51.6531 140.807C51.167 140.543 50.7208 140.192 50.3147 139.755C49.9086 139.312 49.604 138.854 49.401 138.38C49.2041 138.891 48.9057 139.377 48.5057 139.838C48.1119 140.294 47.6443 140.69 47.1028 141.029L46.5767 140.484C47.2781 140.078 47.8535 139.531 48.3026 138.841C48.7518 138.146 48.9764 137.383 48.9764 136.552V135.832H47.2043V135.168H51.5608V135.832H49.7886V136.571C49.7886 137.389 50.0071 138.118 50.444 138.758C50.887 139.398 51.4377 139.891 52.0961 140.235L51.6531 140.807ZM52.7053 134.365H53.4806V137.466H54.7266V138.168H53.4806V142.589H52.7053V134.365ZM56.6733 135.869V140.023H58.2609V135.869H56.6733ZM55.935 135.205H58.9992V140.687H55.935V135.205ZM61.7036 138.186H60.6329V142.201H59.8761V134.503H60.6329V137.466H61.7036V134.365H62.4696V142.589H61.7036V138.186ZM68.0622 139.709H70.4804V142.635H69.7051V140.374H64.8133V139.709H67.2684V138.232H63.8719V137.577H69.4928C69.5728 137.22 69.6405 136.832 69.6958 136.414C69.7574 135.989 69.7974 135.605 69.8158 135.26H64.7764V134.605H70.6096C70.5788 135.608 70.4588 136.599 70.2496 137.577H71.551V138.232H68.0622V139.709ZM75.8145 139.737H72.3625V139.072H80.0417V139.737H76.5898V142.589H75.8145V139.737ZM76.599 134.531V134.974C76.599 135.349 76.7375 135.716 77.0143 136.072C77.2912 136.429 77.6635 136.743 78.1312 137.014C78.6049 137.278 79.1218 137.472 79.6818 137.595L79.2572 138.223C78.6111 138.069 78.005 137.811 77.4389 137.448C76.8728 137.079 76.4606 136.66 76.2021 136.192C75.9437 136.66 75.5314 137.079 74.9653 137.448C74.3992 137.811 73.7932 138.069 73.1471 138.223L72.7225 137.595C73.2824 137.472 73.7962 137.278 74.2639 137.014C74.7377 136.743 75.113 136.429 75.3899 136.072C75.6668 135.716 75.8052 135.349 75.8052 134.974V134.531H76.599Z" fill="black"/>
<path d="M49.4124 151.528C49.1458 151.323 48.9119 151.085 48.7109 150.814C48.514 150.543 48.3602 150.256 48.2495 149.953C48.1592 150.268 48.0033 150.582 47.7818 150.894C47.5644 151.202 47.3039 151.47 47.0004 151.7L46.6373 151.362C46.8875 151.189 47.1132 150.964 47.3142 150.685C47.5193 150.406 47.6793 150.096 47.7941 149.756C47.9131 149.415 47.9726 149.071 47.9726 148.722V148.217H47.0496V147.774H49.4247V148.217H48.5017V148.722C48.5017 149.231 48.6186 149.704 48.8525 150.143C49.0863 150.578 49.3734 150.919 49.7139 151.165L49.4124 151.528ZM50.0769 152.463V149.626H49.2709V149.171H50.0769V147.331H50.5815V152.463H50.0769ZM51.6214 147.239V152.722H51.1107V147.239H51.6214ZM53.1346 147.473H56.9742V147.916H55.3374C55.3374 148.121 55.4297 148.33 55.6143 148.544C55.7989 148.757 56.0471 148.948 56.3589 149.116C56.6747 149.28 57.0132 149.401 57.3742 149.479L57.0911 149.897C56.6645 149.803 56.2625 149.641 55.8851 149.411C55.5077 149.177 55.2308 148.909 55.0544 148.605C54.878 148.909 54.6011 149.177 54.2237 149.411C53.8463 149.641 53.4443 149.803 53.0177 149.897L52.7346 149.479C53.0956 149.401 53.432 149.28 53.7438 149.116C54.0596 148.948 54.3099 148.757 54.4945 148.544C54.6791 148.33 54.7714 148.121 54.7714 147.916H53.1346V147.473ZM54.796 150.882H52.4947V150.439H57.6141V150.882H55.3128V152.722H54.796V150.882ZM62.2162 147.239H62.7331V152.722H62.2162V147.239ZM61.3548 151.497C61.0307 151.312 60.7313 151.072 60.4564 150.777C60.1816 150.482 59.9765 150.178 59.8411 149.866C59.7139 150.199 59.5129 150.525 59.2381 150.845C58.9673 151.161 58.6515 151.427 58.2905 151.645L57.9459 151.288C58.4136 151.021 58.7992 150.656 59.1027 150.193C59.4063 149.725 59.5581 149.214 59.5581 148.66V147.651H60.0995V148.673C60.0995 149.222 60.2493 149.709 60.5487 150.131C60.8482 150.554 61.2153 150.882 61.6501 151.116L61.3548 151.497ZM67.9892 152.832C67.6159 152.832 67.2898 152.787 67.0108 152.697C66.7319 152.611 66.5165 152.492 66.3647 152.34C66.2171 152.192 66.1432 152.024 66.1432 151.835C66.1432 151.647 66.2171 151.479 66.3647 151.331C66.5165 151.179 66.7319 151.06 67.0108 150.974C67.2898 150.884 67.6159 150.839 67.9892 150.839C68.3625 150.839 68.6886 150.884 68.9675 150.974C69.2465 151.06 69.4598 151.179 69.6075 151.331C69.7592 151.479 69.8351 151.647 69.8351 151.835C69.8351 152.024 69.7592 152.192 69.6075 152.34C69.4598 152.492 69.2465 152.611 68.9675 152.697C68.6886 152.787 68.3625 152.832 67.9892 152.832ZM68.4937 149.473C68.4937 149.661 68.4343 149.834 68.3153 149.99C68.1963 150.145 68.0302 150.268 67.8169 150.359C67.6036 150.449 67.3595 150.494 67.0847 150.494C66.8098 150.494 66.5657 150.449 66.3524 150.359C66.1432 150.268 65.9791 150.145 65.8602 149.99C65.7412 149.834 65.6817 149.661 65.6817 149.473C65.6817 149.284 65.7412 149.112 65.8602 148.956C65.9791 148.8 66.1453 148.677 66.3586 148.587C66.5719 148.496 66.8139 148.451 67.0847 148.451C67.3595 148.451 67.6036 148.496 67.8169 148.587C68.0302 148.677 68.1963 148.8 68.3153 148.956C68.4343 149.112 68.4937 149.284 68.4937 149.473ZM67.9892 151.269C67.5708 151.269 67.2446 151.321 67.0108 151.423C66.777 151.522 66.6601 151.659 66.6601 151.835C66.6601 152.012 66.777 152.151 67.0108 152.254C67.2446 152.352 67.5708 152.402 67.9892 152.402C68.4076 152.402 68.7337 152.352 68.9675 152.254C69.2014 152.151 69.3183 152.012 69.3183 151.835C69.3183 151.659 69.2014 151.522 68.9675 151.423C68.7337 151.321 68.4076 151.269 67.9892 151.269ZM69.2198 147.239H69.7367V148.722H70.5058V149.177H69.7367V150.746H69.2198V147.239ZM67.9769 149.473C67.9769 149.292 67.8969 149.147 67.7369 149.036C67.5769 148.925 67.3595 148.87 67.0847 148.87C66.8098 148.87 66.5924 148.925 66.4324 149.036C66.2765 149.147 66.1986 149.292 66.1986 149.473C66.1986 149.653 66.2765 149.799 66.4324 149.91C66.5924 150.02 66.8098 150.076 67.0847 150.076C67.3595 150.076 67.5769 150.02 67.7369 149.91C67.8969 149.799 67.9769 149.653 67.9769 149.473ZM65.4171 147.781H66.8201V147.19H67.3369V147.781H68.7399V148.211H65.4171V147.781ZM71.656 151.269H74.831V150.753H71.656V150.328H75.3479V151.682H72.1729V152.229H75.471V152.66H71.656V151.269ZM70.9422 149.362H72.9728V148.377H73.502V149.362H76.0617V149.786H70.9422V149.362ZM74.7326 149.023C74.831 148.683 74.8885 148.283 74.9049 147.824H71.5452V147.399H75.4341C75.4218 148.043 75.3561 148.585 75.2372 149.023H74.7326ZM80.5407 147.239H81.0576V148.26H81.8267V148.716H81.0576V150.26H80.5407V147.239ZM77.5995 150.531H81.0453V152.66H77.5995V150.531ZM80.5284 152.223V150.968H78.1164V152.223H80.5284ZM76.9842 147.405H77.501V149.337H77.9564C78.8876 149.337 79.6465 149.288 80.2331 149.19V149.626C79.6957 149.733 78.9368 149.786 77.9564 149.786H76.9842V147.405ZM83.383 151.269H86.3735V150.765H83.383V150.334H86.8903V151.688H83.8999V152.223H87.0134V152.66H83.383V151.269ZM86.9026 147.239V150.063H86.3858V147.239H86.9026ZM82.3431 149.725C82.7492 149.639 83.1246 149.508 83.4692 149.331C83.8178 149.151 84.1029 148.939 84.3245 148.697C84.5501 148.455 84.6875 148.201 84.7367 147.934H82.7185V147.497H85.3274C85.3192 147.965 85.1777 148.381 84.9029 148.747C84.628 149.112 84.2855 149.409 83.8753 149.639C83.4692 149.864 83.0508 150.026 82.62 150.125L82.3431 149.725ZM92.9956 151.319H92.3741V152.211H91.8326V151.319H89.5005V151.097C89.5005 150.941 89.519 150.81 89.5559 150.703C89.5928 150.597 89.6523 150.478 89.7344 150.346L91.2357 148.082C91.326 147.947 91.4224 147.854 91.5249 147.805C91.6275 147.752 91.7526 147.725 91.9003 147.725H92.3741V150.826H92.9956V151.319ZM91.8326 148.254C91.7547 148.258 91.6931 148.299 91.648 148.377L90.3189 150.383C90.1918 150.576 90.1118 150.724 90.0789 150.826H91.8326V148.254ZM95.5534 149.294C95.8036 149.294 96.0395 149.356 96.261 149.479C96.4825 149.598 96.6609 149.772 96.7963 150.002C96.9317 150.227 96.9994 150.492 96.9994 150.796V150.802C96.9994 151.101 96.9296 151.366 96.7902 151.595C96.6507 151.821 96.4599 151.995 96.2179 152.119C95.98 152.242 95.7154 152.303 95.4241 152.303H95.418C94.938 152.303 94.5442 152.149 94.2366 151.842C93.933 151.53 93.7812 151.048 93.7812 150.396V149.626C93.7812 148.941 93.9433 148.439 94.2673 148.119C94.5914 147.795 95.0037 147.633 95.5041 147.633H95.5103C95.7851 147.633 96.0374 147.69 96.2671 147.805C96.4969 147.916 96.6814 148.072 96.8209 148.273C96.9645 148.47 97.0486 148.693 97.0732 148.943H96.5194C96.4702 148.714 96.3512 148.525 96.1625 148.377C95.9779 148.226 95.7503 148.15 95.4795 148.15H95.4734C95.1411 148.15 94.8704 148.258 94.6611 148.476C94.4519 148.693 94.3473 149.021 94.3473 149.46V150.168C94.4212 149.889 94.5668 149.674 94.7842 149.522C95.0016 149.37 95.256 149.294 95.5472 149.294H95.5534ZM95.3995 151.792C95.58 151.792 95.7482 151.751 95.9041 151.669C96.0641 151.583 96.1912 151.464 96.2856 151.312C96.384 151.157 96.4333 150.982 96.4333 150.789C96.4333 150.597 96.384 150.424 96.2856 150.273C96.1912 150.121 96.0641 150.004 95.9041 149.922C95.7482 149.836 95.58 149.793 95.3995 149.793H95.3934C95.2088 149.793 95.0365 149.834 94.8765 149.916C94.7165 149.994 94.5873 150.108 94.4889 150.26C94.3945 150.408 94.3473 150.58 94.3473 150.777C94.3473 150.974 94.3945 151.15 94.4889 151.306C94.5832 151.458 94.7104 151.577 94.8704 151.663C95.0303 151.749 95.2047 151.792 95.3934 151.792H95.3995Z" fill="#B0B0B0"/>
<path d="M26.9966 141.186V137.821C26.9966 137.672 27.0557 137.53 27.1608 137.425C27.266 137.319 27.4087 137.26 27.5574 137.26C27.7062 137.26 27.8488 137.319 27.954 137.425C28.0592 137.53 28.1183 137.672 28.1183 137.821V141.186C28.1183 141.335 28.0592 141.478 27.954 141.583C27.8488 141.688 27.7062 141.747 27.5574 141.747C27.4087 141.747 27.266 141.688 27.1608 141.583C27.0557 141.478 26.9966 141.335 26.9966 141.186ZM37.0917 137.821V150.72C37.0917 150.869 37.0326 151.012 36.9274 151.117C36.8222 151.222 36.6796 151.281 36.5308 151.281C36.3821 151.281 36.2394 151.222 36.1342 151.117C36.0291 151.012 35.97 150.869 35.97 150.72V147.355H32.605C32.4562 147.355 32.3136 147.296 32.2084 147.191C32.1032 147.086 32.0441 146.943 32.0441 146.795C32.0702 145.451 32.2398 144.114 32.5503 142.807C33.2359 139.968 34.5356 138.066 36.31 137.306C36.3953 137.269 36.4883 137.255 36.5807 137.263C36.6731 137.271 36.762 137.302 36.8395 137.353C36.917 137.404 36.9805 137.474 37.0245 137.555C37.0686 137.637 37.0916 137.728 37.0917 137.821ZM35.97 138.796C33.7147 140.518 33.2731 144.714 33.1868 146.234H35.97V138.796ZM30.3539 137.729C30.3429 137.656 30.3174 137.585 30.2788 137.521C30.2402 137.458 30.1893 137.402 30.1291 137.358C30.0688 137.315 30.0005 137.283 29.928 137.266C29.8556 137.249 29.7804 137.247 29.707 137.259C29.6335 137.271 29.5633 137.298 29.5003 137.338C29.4373 137.377 29.3828 137.429 29.3401 137.49C29.2973 137.551 29.2671 137.62 29.2512 137.693C29.2354 137.765 29.2341 137.84 29.2476 137.914L29.8008 141.23C29.8008 141.825 29.5644 142.396 29.1437 142.817C28.723 143.237 28.1524 143.474 27.5574 143.474C26.9624 143.474 26.3918 143.237 25.9711 142.817C25.5504 142.396 25.3141 141.825 25.3141 141.23L25.8665 137.914C25.88 137.84 25.8788 137.765 25.8629 137.693C25.847 137.62 25.8168 137.551 25.7741 137.49C25.7313 137.429 25.6769 137.377 25.6139 137.338C25.5509 137.298 25.4806 137.271 25.4071 137.259C25.3337 137.247 25.2585 137.249 25.1861 137.266C25.1136 137.283 25.0453 137.315 24.9851 137.358C24.9249 137.402 24.874 137.458 24.8354 137.521C24.7968 137.585 24.7712 137.656 24.7602 137.729L24.1994 141.094C24.1946 141.125 24.1923 141.155 24.1924 141.186C24.1935 141.981 24.4756 142.75 24.9887 143.357C25.5018 143.964 26.213 144.37 26.9966 144.504V150.72C26.9966 150.869 27.0557 151.012 27.1608 151.117C27.266 151.222 27.4087 151.281 27.5574 151.281C27.7062 151.281 27.8488 151.222 27.954 151.117C28.0592 151.012 28.1183 150.869 28.1183 150.72V144.504C28.9018 144.37 29.613 143.964 30.1261 143.357C30.6393 142.75 30.9213 141.981 30.9224 141.186C30.9223 141.155 30.9198 141.125 30.9147 141.094L30.3539 137.729Z" fill="#B0B0B0"/>
<g clip-path="url(#clip1_641_356)">
<line x1="31.4361" y1="158.092" x2="31.4361" y2="173.475" stroke="#D9D9D9" stroke-width="0.512766"/>
<path d="M39.4501 168.168V167.676L41.2965 165.655C41.5132 165.419 41.6917 165.213 41.8319 165.038C41.9721 164.861 42.0759 164.696 42.1433 164.541C42.2124 164.384 42.247 164.22 42.247 164.049C42.247 163.853 42.1997 163.682 42.105 163.538C42.0121 163.395 41.8847 163.284 41.7226 163.205C41.5606 163.127 41.3785 163.088 41.1764 163.088C40.9615 163.088 40.7739 163.132 40.6137 163.222C40.4553 163.309 40.3324 163.432 40.245 163.59C40.1594 163.749 40.1166 163.934 40.1166 164.148H39.472C39.472 163.82 39.5476 163.532 39.6987 163.284C39.8498 163.037 40.0556 162.844 40.316 162.705C40.5782 162.567 40.8723 162.498 41.1982 162.498C41.526 162.498 41.8164 162.567 42.0695 162.705C42.3226 162.844 42.5211 163.03 42.6649 163.265C42.8088 163.5 42.8807 163.762 42.8807 164.049C42.8807 164.255 42.8434 164.456 42.7687 164.653C42.6959 164.848 42.5684 165.065 42.3863 165.306C42.2061 165.544 41.9557 165.836 41.6352 166.18L40.3788 167.523V167.567H42.979V168.168H39.4501ZM44.2819 168.168L46.7838 163.219V163.175H43.8995V162.574H47.483V163.208L44.9921 168.168H44.2819ZM48.299 165.484H54.606V165.999H48.299V165.484ZM51.1756 165.745H51.814V167.345H51.1756V165.745ZM49.0989 168.091H53.9061V168.614H49.0989V168.091ZM49.0989 166.722H49.7296V168.283H49.0989V166.722ZM49.1374 162.03H49.7681V162.915H53.1369V162.03H53.7676V164.815H49.1374V162.03ZM49.7681 163.407V164.299H53.1369V163.407H49.7681Z" fill="#B0B0B0"/>
</g>
<rect x="15.0269" y="174.244" width="225.025" height="30.766" rx="4.87128" fill="white"/>
<rect x="15.0269" y="174.244" width="225.025" height="30.766" rx="4.87128" stroke="#D9D9D9" stroke-width="0.512766"/>
<path d="M222.184 190.374C222.597 190.374 222.932 190.04 222.932 189.627C222.932 189.214 222.597 188.879 222.184 188.879C221.771 188.879 221.437 189.214 221.437 189.627C221.437 190.04 221.771 190.374 222.184 190.374Z" stroke="#B0B0B0" stroke-width="2.05106" stroke-linecap="round" stroke-linejoin="round"/>
<path d="M227.419 190.374C227.832 190.374 228.167 190.04 228.167 189.627C228.167 189.214 227.832 188.879 227.419 188.879C227.006 188.879 226.671 189.214 226.671 189.627C226.671 190.04 227.006 190.374 227.419 190.374Z" stroke="#B0B0B0" stroke-width="2.05106" stroke-linecap="round" stroke-linejoin="round"/>
<path d="M216.95 190.374C217.363 190.374 217.698 190.04 217.698 189.627C217.698 189.214 217.363 188.879 216.95 188.879C216.537 188.879 216.202 189.214 216.202 189.627C216.202 190.04 216.537 190.374 216.95 190.374Z" stroke="#B0B0B0" stroke-width="2.05106" stroke-linecap="round" stroke-linejoin="round"/>
<path d="M48.8287 184.354C48.5026 184.213 48.2534 184.031 48.0811 183.81C47.9088 183.588 47.8227 183.345 47.8227 183.081C47.8227 182.767 47.9396 182.49 48.1734 182.25C48.4072 182.004 48.7426 181.813 49.1795 181.678C49.6225 181.536 50.1394 181.466 50.7301 181.466C51.3208 181.466 51.8346 181.536 52.2715 181.678C52.7145 181.813 53.0529 182.004 53.2867 182.25C53.5205 182.49 53.6375 182.767 53.6375 183.081C53.6375 183.345 53.5513 183.588 53.379 183.81C53.2067 184.031 52.9575 184.213 52.6314 184.354V185.527H54.5697V186.182H46.8905V185.527H48.8287V184.354ZM50.7301 189.929C50.1148 189.929 49.5825 189.862 49.1333 189.726C48.6903 189.591 48.3488 189.403 48.1088 189.163C47.875 188.923 47.7581 188.652 47.7581 188.351C47.7581 188.049 47.875 187.779 48.1088 187.539C48.3488 187.299 48.6903 187.111 49.1333 186.976C49.5825 186.84 50.1148 186.773 50.7301 186.773C51.3454 186.773 51.8746 186.84 52.3176 186.976C52.7668 187.111 53.1083 187.299 53.3421 187.539C53.5821 187.779 53.7021 188.049 53.7021 188.351C53.7021 188.652 53.5821 188.923 53.3421 189.163C53.1083 189.403 52.7668 189.591 52.3176 189.726C51.8746 189.862 51.3454 189.929 50.7301 189.929ZM52.8622 183.081C52.8622 182.779 52.6653 182.545 52.2715 182.379C51.8838 182.207 51.37 182.121 50.7301 182.121C50.0901 182.121 49.5733 182.207 49.1795 182.379C48.7918 182.545 48.598 182.779 48.598 183.081C48.598 183.382 48.7918 183.619 49.1795 183.791C49.5733 183.958 50.0901 184.041 50.7301 184.041C51.37 184.041 51.8838 183.958 52.2715 183.791C52.6653 183.619 52.8622 183.382 52.8622 183.081ZM50.7301 187.428C50.0409 187.428 49.5025 187.511 49.1149 187.677C48.7272 187.837 48.5334 188.062 48.5334 188.351C48.5334 188.64 48.7272 188.868 49.1149 189.034C49.5025 189.194 50.0409 189.274 50.7301 189.274C51.4192 189.274 51.9576 189.194 52.3453 189.034C52.7329 188.868 52.9268 188.64 52.9268 188.351C52.9268 188.062 52.7329 187.837 52.3453 187.677C51.9576 187.511 51.4192 187.428 50.7301 187.428ZM50.7301 184.696C50.324 184.696 49.9425 184.662 49.5856 184.594V185.527H51.8746V184.594C51.5177 184.662 51.1362 184.696 50.7301 184.696ZM56.4703 181.89H62.0174V182.555H57.2456V184.438H62.1558V185.102H56.4703V181.89ZM58.8331 186.911H55.3812V186.247H63.0604V186.911H59.6084V189.763H58.8331V186.911ZM69.7789 181.539H70.5542V183.348H71.7079V184.031H70.5542V186.219H69.7789V181.539ZM65.3671 186.625H70.5358V189.671H65.3671V186.625ZM69.7605 189.016V187.28H66.1424V189.016H69.7605ZM66.2624 185.748C65.8439 185.748 65.4686 185.659 65.1363 185.481C64.8102 185.296 64.5549 185.05 64.3703 184.742C64.1918 184.428 64.1026 184.09 64.1026 183.727C64.1026 183.358 64.1918 183.019 64.3703 182.712C64.5549 182.404 64.8102 182.161 65.1363 181.982C65.4686 181.798 65.8439 181.706 66.2624 181.706C66.6808 181.706 67.0531 181.798 67.3792 181.982C67.7114 182.161 67.9668 182.404 68.1452 182.712C68.3298 183.019 68.4221 183.358 68.4221 183.727C68.4221 184.09 68.3298 184.428 68.1452 184.742C67.9668 185.05 67.7114 185.296 67.3792 185.481C67.0531 185.659 66.6808 185.748 66.2624 185.748ZM66.2624 182.37C65.8378 182.37 65.4994 182.502 65.2471 182.767C65.001 183.025 64.8779 183.345 64.8779 183.727C64.8779 184.108 65.001 184.431 65.2471 184.696C65.4994 184.954 65.8378 185.084 66.2624 185.084C66.6869 185.084 67.0223 184.954 67.2684 184.696C67.5207 184.431 67.6468 184.108 67.6468 183.727C67.6468 183.345 67.5207 183.025 67.2684 182.767C67.0223 182.502 66.6869 182.37 66.2624 182.37Z" fill="black"/>
<path d="M49.4124 198.702C49.1458 198.497 48.9119 198.259 48.7109 197.988C48.514 197.718 48.3602 197.431 48.2495 197.127C48.1592 197.443 48.0033 197.757 47.7818 198.068C47.5644 198.376 47.3039 198.645 47.0004 198.875L46.6373 198.536C46.8875 198.364 47.1132 198.138 47.3142 197.859C47.5193 197.58 47.6793 197.271 47.7941 196.93C47.9131 196.59 47.9726 196.245 47.9726 195.896V195.392H47.0496V194.949H49.4247V195.392H48.5017V195.896C48.5017 196.405 48.6186 196.879 48.8525 197.318C49.0863 197.753 49.3734 198.093 49.7139 198.339L49.4124 198.702ZM50.0769 199.638V196.801H49.2709V196.346H50.0769V194.506H50.5815V199.638H50.0769ZM51.6214 194.413V199.896H51.1107V194.413H51.6214ZM53.1346 194.647H56.9742V195.09H55.3374C55.3374 195.295 55.4297 195.505 55.6143 195.718C55.7989 195.931 56.0471 196.122 56.3589 196.29C56.6747 196.454 57.0132 196.575 57.3742 196.653L57.0911 197.072C56.6645 196.977 56.2625 196.815 55.8851 196.586C55.5077 196.352 55.2308 196.083 55.0544 195.779C54.878 196.083 54.6011 196.352 54.2237 196.586C53.8463 196.815 53.4443 196.977 53.0177 197.072L52.7346 196.653C53.0956 196.575 53.432 196.454 53.7438 196.29C54.0596 196.122 54.3099 195.931 54.4945 195.718C54.6791 195.505 54.7714 195.295 54.7714 195.09H53.1346V194.647ZM54.796 198.056H52.4947V197.613H57.6141V198.056H55.3128V199.896H54.796V198.056ZM62.2162 194.413H62.7331V199.896H62.2162V194.413ZM61.3548 198.671C61.0307 198.487 60.7313 198.247 60.4564 197.952C60.1816 197.656 59.9765 197.353 59.8411 197.041C59.7139 197.373 59.5129 197.699 59.2381 198.019C58.9673 198.335 58.6515 198.602 58.2905 198.819L57.9459 198.462C58.4136 198.196 58.7992 197.831 59.1027 197.367C59.4063 196.899 59.5581 196.389 59.5581 195.835V194.826H60.0995V195.847C60.0995 196.397 60.2493 196.883 60.5487 197.305C60.8482 197.728 61.2153 198.056 61.6501 198.29L61.3548 198.671ZM67.9892 200.007C67.6159 200.007 67.2898 199.962 67.0108 199.871C66.7319 199.785 66.5165 199.666 66.3647 199.514C66.2171 199.367 66.1432 199.199 66.1432 199.01C66.1432 198.821 66.2171 198.653 66.3647 198.505C66.5165 198.354 66.7319 198.235 67.0108 198.148C67.2898 198.058 67.6159 198.013 67.9892 198.013C68.3625 198.013 68.6886 198.058 68.9675 198.148C69.2465 198.235 69.4598 198.354 69.6075 198.505C69.7592 198.653 69.8351 198.821 69.8351 199.01C69.8351 199.199 69.7592 199.367 69.6075 199.514C69.4598 199.666 69.2465 199.785 68.9675 199.871C68.6886 199.962 68.3625 200.007 67.9892 200.007ZM68.4937 196.647C68.4937 196.836 68.4343 197.008 68.3153 197.164C68.1963 197.32 68.0302 197.443 67.8169 197.533C67.6036 197.623 67.3595 197.669 67.0847 197.669C66.8098 197.669 66.5657 197.623 66.3524 197.533C66.1432 197.443 65.9791 197.32 65.8602 197.164C65.7412 197.008 65.6817 196.836 65.6817 196.647C65.6817 196.458 65.7412 196.286 65.8602 196.13C65.9791 195.974 66.1453 195.851 66.3586 195.761C66.5719 195.671 66.8139 195.626 67.0847 195.626C67.3595 195.626 67.6036 195.671 67.8169 195.761C68.0302 195.851 68.1963 195.974 68.3153 196.13C68.4343 196.286 68.4937 196.458 68.4937 196.647ZM67.9892 198.444C67.5708 198.444 67.2446 198.495 67.0108 198.598C66.777 198.696 66.6601 198.834 66.6601 199.01C66.6601 199.186 66.777 199.326 67.0108 199.428C67.2446 199.527 67.5708 199.576 67.9892 199.576C68.4076 199.576 68.7337 199.527 68.9675 199.428C69.2014 199.326 69.3183 199.186 69.3183 199.01C69.3183 198.834 69.2014 198.696 68.9675 198.598C68.7337 198.495 68.4076 198.444 67.9892 198.444ZM69.2198 194.413H69.7367V195.896H70.5058V196.352H69.7367V197.921H69.2198V194.413ZM67.9769 196.647C67.9769 196.467 67.8969 196.321 67.7369 196.21C67.5769 196.099 67.3595 196.044 67.0847 196.044C66.8098 196.044 66.5924 196.099 66.4324 196.21C66.2765 196.321 66.1986 196.467 66.1986 196.647C66.1986 196.828 66.2765 196.973 66.4324 197.084C66.5924 197.195 66.8098 197.25 67.0847 197.25C67.3595 197.25 67.5769 197.195 67.7369 197.084C67.8969 196.973 67.9769 196.828 67.9769 196.647ZM65.4171 194.955H66.8201V194.364H67.3369V194.955H68.7399V195.386H65.4171V194.955ZM71.656 198.444H74.831V197.927H71.656V197.502H75.3479V198.856H72.1729V199.404H75.471V199.834H71.656V198.444ZM70.9422 196.536H72.9728V195.552H73.502V196.536H76.0617V196.961H70.9422V196.536ZM74.7326 196.198C74.831 195.857 74.8885 195.457 74.9049 194.998H71.5452V194.573H75.4341C75.4218 195.217 75.3561 195.759 75.2372 196.198H74.7326ZM80.5407 194.413H81.0576V195.435H81.8267V195.89H81.0576V197.435H80.5407V194.413ZM77.5995 197.705H81.0453V199.834H77.5995V197.705ZM80.5284 199.398V198.142H78.1164V199.398H80.5284ZM76.9842 194.58H77.501V196.512H77.9564C78.8876 196.512 79.6465 196.462 80.2331 196.364V196.801C79.6957 196.908 78.9368 196.961 77.9564 196.961H76.9842V194.58ZM83.383 198.444H86.3735V197.939H83.383V197.509H86.8903V198.862H83.8999V199.398H87.0134V199.834H83.383V198.444ZM86.9026 194.413V197.238H86.3858V194.413H86.9026ZM82.3431 196.899C82.7492 196.813 83.1246 196.682 83.4692 196.506C83.8178 196.325 84.1029 196.114 84.3245 195.872C84.5501 195.63 84.6875 195.375 84.7367 195.109H82.7185V194.672H85.3274C85.3192 195.14 85.1777 195.556 84.9029 195.921C84.628 196.286 84.2855 196.583 83.8753 196.813C83.4692 197.039 83.0508 197.201 82.62 197.299L82.3431 196.899ZM92.9956 198.493H92.3741V199.385H91.8326V198.493H89.5005V198.272C89.5005 198.116 89.519 197.984 89.5559 197.878C89.5928 197.771 89.6523 197.652 89.7344 197.521L91.2357 195.256C91.326 195.121 91.4224 195.029 91.5249 194.98C91.6275 194.926 91.7526 194.9 91.9003 194.9H92.3741V198.001H92.9956V198.493ZM91.8326 195.429C91.7547 195.433 91.6931 195.474 91.648 195.552L90.3189 197.558C90.1918 197.751 90.1118 197.898 90.0789 198.001H91.8326V195.429ZM95.5534 196.469C95.8036 196.469 96.0395 196.53 96.261 196.653C96.4825 196.772 96.6609 196.947 96.7963 197.176C96.9317 197.402 96.9994 197.666 96.9994 197.97V197.976C96.9994 198.276 96.9296 198.54 96.7902 198.77C96.6507 198.996 96.4599 199.17 96.2179 199.293C95.98 199.416 95.7154 199.478 95.4241 199.478H95.418C94.938 199.478 94.5442 199.324 94.2366 199.016C93.933 198.704 93.7812 198.222 93.7812 197.57V196.801C93.7812 196.116 93.9433 195.613 94.2673 195.293C94.5914 194.969 95.0037 194.807 95.5041 194.807H95.5103C95.7851 194.807 96.0374 194.865 96.2671 194.98C96.4969 195.09 96.6814 195.246 96.8209 195.447C96.9645 195.644 97.0486 195.868 97.0732 196.118H96.5194C96.4702 195.888 96.3512 195.699 96.1625 195.552C95.9779 195.4 95.7503 195.324 95.4795 195.324H95.4734C95.1411 195.324 94.8704 195.433 94.6611 195.65C94.4519 195.868 94.3473 196.196 94.3473 196.635V197.342C94.4212 197.063 94.5668 196.848 94.7842 196.696C95.0016 196.545 95.256 196.469 95.5472 196.469H95.5534ZM95.3995 198.967C95.58 198.967 95.7482 198.926 95.9041 198.844C96.0641 198.758 96.1912 198.639 96.2856 198.487C96.384 198.331 96.4333 198.157 96.4333 197.964C96.4333 197.771 96.384 197.599 96.2856 197.447C96.1912 197.295 96.0641 197.178 95.9041 197.096C95.7482 197.01 95.58 196.967 95.3995 196.967H95.3934C95.2088 196.967 95.0365 197.008 94.8765 197.09C94.7165 197.168 94.5873 197.283 94.4889 197.435C94.3945 197.582 94.3473 197.755 94.3473 197.952C94.3473 198.148 94.3945 198.325 94.4889 198.481C94.5832 198.633 94.7104 198.751 94.8704 198.838C95.0303 198.924 95.2047 198.967 95.3934 198.967H95.3995Z" fill="#B0B0B0"/>
<path d="M24.1924 184.435V185.557M24.1924 185.557L26.2637 185.038C27.8224 184.649 29.469 184.83 30.906 185.548L30.9867 185.589C32.3947 186.293 34.0047 186.481 35.537 186.12L37.8626 185.573C37.5799 188.182 37.5812 190.815 37.8664 193.424L35.5378 193.971C34.0053 194.332 32.395 194.144 30.9867 193.44L30.906 193.4C29.469 192.681 27.8224 192.501 26.2637 192.89L24.1924 193.408M24.1924 185.557V193.408M24.1924 197.895V193.408" stroke="#B0B0B0" stroke-width="1.12168" stroke-linecap="round" stroke-linejoin="round"/>
<path d="M193.393 69.0898H190.675V71.8716H189.496V69.0898H186.778V68.0387H189.496V65.2569H190.675V68.0387H193.393V69.0898ZM201.95 73.4294C201.39 73.4294 200.9 73.3555 200.482 73.2079C200.064 73.0602 199.741 72.8602 199.513 72.6079C199.291 72.3557 199.181 72.0695 199.181 71.7496C199.181 71.4296 199.291 71.1435 199.513 70.8912C199.741 70.6389 200.064 70.4389 200.482 70.2913C200.9 70.1436 201.39 70.0697 201.95 70.0697C202.509 70.0697 202.999 70.1436 203.417 70.2913C203.835 70.4389 204.155 70.6389 204.377 70.8912C204.605 71.1435 204.718 71.4296 204.718 71.7496C204.718 72.0695 204.605 72.3557 204.377 72.6079C204.155 72.8602 203.835 73.0602 203.417 73.2079C202.999 73.3555 202.509 73.4294 201.95 73.4294ZM202.596 69.4052C202.146 69.2329 201.725 68.9868 201.331 68.6668C200.943 68.3469 200.645 67.9992 200.436 67.6239C200.257 68.0053 199.968 68.3807 199.568 68.7499C199.174 69.1191 198.722 69.4237 198.211 69.6636L197.722 69.1006C198.393 68.7991 198.941 68.3961 199.365 67.8915C199.796 67.3808 200.011 66.8301 200.011 66.2394V66.0825H198.239V65.4272H202.596V66.0825H200.824V66.2302C200.824 66.8024 201.033 67.3193 201.451 67.7808C201.87 68.2361 202.386 68.5807 203.002 68.8145L202.596 69.4052ZM201.95 70.7343C201.322 70.7343 200.833 70.8266 200.482 71.0112C200.131 71.1896 199.956 71.4358 199.956 71.7496C199.956 72.0634 200.131 72.3126 200.482 72.4972C200.833 72.6756 201.322 72.7648 201.95 72.7648C202.577 72.7648 203.066 72.6756 203.417 72.4972C203.768 72.3126 203.943 72.0634 203.943 71.7496C203.943 71.4358 203.768 71.1896 203.417 71.0112C203.066 70.8266 202.577 70.7343 201.95 70.7343ZM203.795 65.0395H204.571V66.8947H205.725V67.5777H204.571V69.9313H203.795V65.0395ZM210.616 71.7034H214.058V72.368H206.379V71.7034H209.822V69.7744H210.616V71.7034ZM210.219 67.5685C209.948 68.0853 209.542 68.5499 209 68.9622C208.459 69.3683 207.859 69.679 207.201 69.8944L206.758 69.2852C207.305 69.1191 207.813 68.876 208.28 68.5561C208.748 68.2361 209.12 67.87 209.397 67.4577C209.68 67.0455 209.822 66.6209 209.822 66.184V65.501H210.616V66.184C210.616 66.6209 210.754 67.0455 211.031 67.4577C211.314 67.87 211.689 68.2361 212.157 68.5561C212.625 68.876 213.132 69.1191 213.68 69.2852L213.237 69.8944C212.578 69.679 211.979 69.3683 211.437 68.9622C210.896 68.5499 210.489 68.0853 210.219 67.5685ZM221.324 66.544C221.379 66.8332 221.549 67.1131 221.832 67.3839C222.115 67.6485 222.478 67.8823 222.921 68.0853C223.364 68.2884 223.844 68.4361 224.361 68.5284L223.936 69.1375C223.296 69.0145 222.699 68.796 222.145 68.4822C221.592 68.1684 221.179 67.8084 220.909 67.4023C220.638 67.8084 220.226 68.1684 219.672 68.4822C219.118 68.796 218.521 69.0145 217.881 69.1375L217.457 68.5284C217.967 68.4361 218.444 68.2884 218.887 68.0853C219.33 67.8823 219.693 67.6485 219.976 67.3839C220.266 67.1131 220.438 66.8332 220.493 66.544H217.992V65.8887H220.521V64.938H221.296V65.8887H223.825V66.544H221.324ZM220.521 70.5405H217.069V69.8759H224.748V70.5405H221.296V73.2633H220.521V70.5405ZM231.375 65.0395H232.15V68.233H233.396V68.9345H232.15V73.2633H231.375V65.0395ZM225.707 71.3342C226.366 71.002 226.938 70.5774 227.424 70.0605C227.91 69.5436 228.289 68.9806 228.559 68.3715C228.836 67.7561 228.999 67.1347 229.049 66.507H226.132V65.8425H229.861C229.849 66.7593 229.682 67.6115 229.362 68.3992C229.042 69.1806 228.609 69.8667 228.061 70.4574C227.52 71.0419 226.904 71.5157 226.215 71.8788L225.707 71.3342Z" fill="#B0B0B0"/>
<path d="M24.8196 66.2568L24.7812 66.2825C24.6701 66.2825 24.559 66.3039 24.4479 66.3466L22.3071 67.4106L22.0763 65.9236L24.0889 64.9237C24.3539 64.7955 24.6017 64.7143 24.8325 64.6801C25.0717 64.6374 25.3751 64.616 25.7426 64.616H26.6015V73.9996H24.8196V66.2568ZM37.3774 63.6161H38.8388V69.4488H37.3774V63.6161ZM32.5702 69.2565C31.972 69.2565 31.4379 69.1369 30.9678 68.8976C30.5063 68.6498 30.1474 68.3165 29.891 67.8977C29.6432 67.4789 29.5193 67.0175 29.5193 66.5132C29.5193 66.009 29.6432 65.5475 29.891 65.1288C30.1474 64.71 30.5063 64.381 30.9678 64.1417C31.4379 63.8939 31.972 63.7699 32.5702 63.7699C33.1684 63.7699 33.6983 63.8939 34.1598 64.1417C34.6298 64.381 34.9888 64.71 35.2366 65.1288C35.493 65.5475 35.6212 66.009 35.6212 66.5132C35.6212 67.0175 35.493 67.4789 35.2366 67.8977C34.9888 68.3165 34.6298 68.6498 34.1598 68.8976C33.6983 69.1369 33.1684 69.2565 32.5702 69.2565ZM32.5702 65.0006C32.066 65.0006 31.6729 65.1459 31.3909 65.4364C31.1174 65.7184 30.9806 66.0774 30.9806 66.5132C30.9806 66.9491 31.1174 67.3123 31.3909 67.6029C31.6729 67.8849 32.066 68.0259 32.5702 68.0259C33.0744 68.0259 33.4633 67.8849 33.7368 67.6029C34.0188 67.3123 34.1598 66.9491 34.1598 66.5132C34.1598 66.0774 34.0188 65.7184 33.7368 65.4364C33.4633 65.1459 33.0744 65.0006 32.5702 65.0006ZM31.3524 71.8588H37.3518V71.1922H31.3524V69.9616H38.8131V73.0125H32.8138V73.7176H39.0695V74.9611H31.3524V71.8588ZM45.1448 67.0004C45.1448 68.0515 45.4225 68.9702 45.978 69.7565C46.5421 70.5427 47.2813 71.1666 48.1958 71.6281L47.3369 72.7433C46.6874 72.3929 46.1148 71.9742 45.6191 71.4871C45.1234 70.9914 44.726 70.4402 44.4269 69.8334C44.1876 70.4402 43.8073 71.0213 43.286 71.5768C42.7733 72.1237 42.1451 72.6151 41.4016 73.051L40.4145 72.0126C41.4144 71.4657 42.2007 70.7692 42.7733 69.9231C43.3458 69.0771 43.6321 68.0943 43.6321 66.9747V66.9234H41.2221V65.6159H43.6578V63.9879H45.1192V65.6159H47.5548V66.9234H45.1448V67.0004ZM48.6572 63.6161H50.1186V67.8849H51.7979V69.2437H50.1186V75.0892H48.6572V63.6161Z" fill="#B563E8"/>
</g>
<defs>
<filter id="filter0_d_641_356" x="0.334043" y="48.3596" width="256.383" height="181.519" filterUnits="userSpaceOnUse" color-interpolation-filters="sRGB">
<feFlood flood-opacity="0" result="BackgroundImageFix"/>
<feColorMatrix in="SourceAlpha" type="matrix" values="0 0 0 0 0 0 0 0 0 0 0 0 0 0 0 0 0 0 127 0" result="hardAlpha"/>
<feOffset dx="1.02553" dy="2.05106"/>
<feGaussianBlur stdDeviation="3.84574"/>
<feComposite in2="hardAlpha" operator="out"/>
<feColorMatrix type="matrix" values="0 0 0 0 0 0 0 0 0 0 0 0 0 0 0 0 0 0 0.1 0"/>
<feBlend mode="normal" in2="BackgroundImageFix" result="effect1_dropShadow_641_356"/>
<feBlend mode="normal" in="SourceGraphic" in2="effect1_dropShadow_641_356" result="shape"/>
</filter>
<clipPath id="clip0_641_356">
<rect width="225.538" height="15.8957" fill="white" transform="translate(14.7705 110.917)"/>
</clipPath>
<clipPath id="clip1_641_356">
<rect width="225.538" height="15.8957" fill="white" transform="translate(14.7705 158.092)"/>
</clipPath>
</defs>
</svg>
