<svg width="140" height="17" viewBox="0 0 140 17" fill="none" xmlns="http://www.w3.org/2000/svg">
<path d="M11.8438 0.239999H13.8958V8.43H11.8438V0.239999ZM5.09383 8.16C4.25383 8.16 3.50383 7.992 2.84383 7.656C2.19583 7.308 1.69183 6.84 1.33183 6.252C0.983828 5.664 0.809828 5.016 0.809828 4.308C0.809828 3.6 0.983828 2.952 1.33183 2.364C1.69183 1.776 2.19583 1.314 2.84383 0.977999C3.50383 0.629999 4.25383 0.455999 5.09383 0.455999C5.93383 0.455999 6.67783 0.629999 7.32583 0.977999C7.98583 1.314 8.48983 1.776 8.83783 2.364C9.19783 2.952 9.37783 3.6 9.37783 4.308C9.37783 5.016 9.19783 5.664 8.83783 6.252C8.48983 6.84 7.98583 7.308 7.32583 7.656C6.67783 7.992 5.93383 8.16 5.09383 8.16ZM5.09383 2.184C4.38583 2.184 3.83383 2.388 3.43783 2.796C3.05383 3.192 2.86183 3.696 2.86183 4.308C2.86183 4.92 3.05383 5.43 3.43783 5.838C3.83383 6.234 4.38583 6.432 5.09383 6.432C5.80183 6.432 6.34783 6.234 6.73183 5.838C7.12783 5.43 7.32583 4.92 7.32583 4.308C7.32583 3.696 7.12783 3.192 6.73183 2.796C6.34783 2.388 5.80183 2.184 5.09383 2.184ZM3.38383 11.814H11.8078V10.878H3.38383V9.15H13.8598V13.434H5.43583V14.424H14.2198V16.17H3.38383V11.814ZM25.1444 16.674C23.9924 16.674 22.9904 16.536 22.1384 16.26C21.2984 15.984 20.6564 15.594 20.2124 15.09C19.7684 14.598 19.5464 14.028 19.5464 13.38C19.5464 12.732 19.7684 12.162 20.2124 11.67C20.6564 11.166 21.2984 10.776 22.1384 10.5C22.9904 10.224 23.9924 10.086 25.1444 10.086C26.2964 10.086 27.2924 10.224 28.1324 10.5C28.9844 10.776 29.6324 11.166 30.0764 11.67C30.5204 12.162 30.7424 12.732 30.7424 13.38C30.7424 14.028 30.5204 14.598 30.0764 15.09C29.6324 15.594 28.9844 15.984 28.1324 16.26C27.2924 16.536 26.2964 16.674 25.1444 16.674ZM25.8284 9.15C25.0124 8.814 24.2624 8.37 23.5784 7.818C22.9064 7.266 22.3604 6.654 21.9404 5.982C21.6044 6.69 21.0764 7.374 20.3564 8.034C19.6364 8.682 18.7964 9.222 17.8364 9.654L16.5404 8.178C17.8964 7.602 18.9464 6.84 19.6904 5.892C20.4464 4.932 20.8244 3.906 20.8244 2.814V2.76H17.5304V0.959999H26.2424V2.76H22.9484V2.814C22.9484 3.858 23.3084 4.794 24.0284 5.622C24.7484 6.438 25.7144 7.08 26.9264 7.548L25.8284 9.15ZM28.4024 3.84V0.239999H30.4544V9.888H28.4024V5.676H25.7924V3.84H28.4024ZM25.1444 14.874C26.2604 14.874 27.1184 14.748 27.7184 14.496C28.3184 14.232 28.6184 13.86 28.6184 13.38C28.6184 12.9 28.3184 12.534 27.7184 12.282C27.1184 12.018 26.2604 11.886 25.1444 11.886C24.0284 11.886 23.1704 12.018 22.5704 12.282C21.9704 12.534 21.6704 12.9 21.6704 13.38C21.6704 13.86 21.9704 14.232 22.5704 14.496C23.1704 14.748 24.0284 14.874 25.1444 14.874ZM44.1008 11.076H37.6388V9.24H52.6868V11.076H46.2248V16.35H44.1008V11.076ZM46.2068 1.248C46.2068 1.956 46.4648 2.646 46.9808 3.318C47.4968 3.99 48.2048 4.584 49.1048 5.1C50.0048 5.616 51.0128 5.994 52.1288 6.234L50.9768 7.89C49.7528 7.602 48.6188 7.128 47.5748 6.468C46.5308 5.796 45.7268 5.016 45.1628 4.128C44.5988 5.016 43.7948 5.796 42.7508 6.468C41.7068 7.128 40.5728 7.602 39.3488 7.89L38.1968 6.234C39.3128 5.994 40.3208 5.616 41.2208 5.1C42.1208 4.584 42.8288 3.99 43.3448 3.318C43.8608 2.646 44.1188 1.956 44.1188 1.248V0.528H46.2068V1.248ZM62.6034 16.674C61.4514 16.674 60.4494 16.536 59.5974 16.26C58.7574 15.984 58.1154 15.594 57.6714 15.09C57.2274 14.598 57.0054 14.028 57.0054 13.38C57.0054 12.732 57.2274 12.162 57.6714 11.67C58.1154 11.166 58.7574 10.776 59.5974 10.5C60.4494 10.224 61.4514 10.086 62.6034 10.086C63.7554 10.086 64.7514 10.224 65.5914 10.5C66.4434 10.776 67.0914 11.166 67.5354 11.67C67.9794 12.162 68.2014 12.732 68.2014 13.38C68.2014 14.028 67.9794 14.598 67.5354 15.09C67.0914 15.594 66.4434 15.984 65.5914 16.26C64.7514 16.536 63.7554 16.674 62.6034 16.674ZM63.2874 9.15C62.4714 8.814 61.7214 8.37 61.0374 7.818C60.3654 7.266 59.8194 6.654 59.3994 5.982C59.0634 6.69 58.5354 7.374 57.8154 8.034C57.0954 8.682 56.2554 9.222 55.2954 9.654L53.9994 8.178C55.3554 7.602 56.4054 6.84 57.1494 5.892C57.9054 4.932 58.2834 3.906 58.2834 2.814V2.76H54.9894V0.959999H63.7014V2.76H60.4074V2.814C60.4074 3.858 60.7674 4.794 61.4874 5.622C62.2074 6.438 63.1734 7.08 64.3854 7.548L63.2874 9.15ZM65.8614 3.84V0.239999H67.9134V9.888H65.8614V5.676H63.2514V3.84H65.8614ZM62.6034 14.874C63.7194 14.874 64.5774 14.748 65.1774 14.496C65.7774 14.232 66.0774 13.86 66.0774 13.38C66.0774 12.9 65.7774 12.534 65.1774 12.282C64.5774 12.018 63.7194 11.886 62.6034 11.886C61.4874 11.886 60.6294 12.018 60.0294 12.282C59.4294 12.534 59.1294 12.9 59.1294 13.38C59.1294 13.86 59.4294 14.232 60.0294 14.496C60.6294 14.748 61.4874 14.874 62.6034 14.874ZM79.54 12.948H85.804V14.784H70.756V12.948H77.38V9.528H72.808V1.464H83.842V3.282H74.86V7.692H84.112V9.528H79.54V12.948ZM103.5 16.35V0.239999H105.552V16.35H103.5ZM102.87 10.266C101.73 10.482 100.212 10.608 98.3164 10.644V15.99H96.1924V10.662H92.0884V8.826H96.6064C99.3304 8.826 101.418 8.706 102.87 8.466V10.266ZM101.412 7.566C100.584 7.278 99.8164 6.858 99.1084 6.306C98.4124 5.754 97.8604 5.13 97.4524 4.434C97.0444 5.154 96.4624 5.82 95.7064 6.432C94.9624 7.032 94.1224 7.53 93.1864 7.926L91.9804 6.396C92.8324 6.072 93.5884 5.646 94.2484 5.118C94.9084 4.59 95.4244 4.008 95.7964 3.372C96.1684 2.736 96.3544 2.106 96.3544 1.482V0.671999H98.4424V1.482C98.4424 2.418 98.8204 3.294 99.5764 4.11C100.344 4.914 101.31 5.52 102.474 5.928L101.412 7.566ZM113.777 7.818C112.973 7.818 112.247 7.662 111.599 7.35C110.951 7.026 110.441 6.588 110.069 6.036C109.697 5.472 109.511 4.848 109.511 4.164C109.511 3.48 109.697 2.862 110.069 2.31C110.441 1.746 110.951 1.308 111.599 0.995999C112.247 0.671999 112.973 0.509999 113.777 0.509999C114.581 0.509999 115.307 0.671999 115.955 0.995999C116.603 1.308 117.113 1.746 117.485 2.31C117.857 2.862 118.043 3.48 118.043 4.164C118.043 4.848 117.857 5.472 117.485 6.036C117.113 6.588 116.603 7.026 115.955 7.35C115.307 7.662 114.581 7.818 113.777 7.818ZM120.059 16.35V13.542H116.819V11.742H120.059V0.239999H122.111V16.35H120.059ZM119.429 10.158C118.277 10.374 116.729 10.5 114.785 10.536V15.99H112.661V10.554H108.647V8.718H113.165C115.889 8.718 117.977 8.598 119.429 8.358V10.158ZM113.777 2.346C113.093 2.346 112.553 2.52 112.157 2.868C111.761 3.204 111.563 3.636 111.563 4.164C111.563 4.692 111.761 5.13 112.157 5.478C112.553 5.814 113.093 5.982 113.777 5.982C114.461 5.982 115.001 5.814 115.397 5.478C115.793 5.13 115.991 4.692 115.991 4.164C115.991 3.636 115.793 3.204 115.397 2.868C115.001 2.52 114.461 2.346 113.777 2.346ZM132.316 9.816C131.212 9.816 130.222 9.624 129.346 9.24C128.47 8.844 127.78 8.304 127.276 7.62C126.784 6.936 126.538 6.174 126.538 5.334C126.538 4.494 126.784 3.732 127.276 3.048C127.78 2.364 128.47 1.83 129.346 1.446C130.222 1.05 131.212 0.852 132.316 0.852C133.42 0.852 134.41 1.05 135.286 1.446C136.162 1.83 136.846 2.364 137.338 3.048C137.842 3.732 138.094 4.494 138.094 5.334C138.094 6.174 137.842 6.936 137.338 7.62C136.846 8.304 136.162 8.844 135.286 9.24C134.41 9.624 133.42 9.816 132.316 9.816ZM124.774 14.784V12.948H127.996V10.122H130.084V12.948H134.512V10.122H136.6V12.948H139.822V14.784H124.774ZM132.316 2.688C131.224 2.688 130.342 2.934 129.67 3.426C128.998 3.906 128.662 4.542 128.662 5.334C128.662 6.126 128.998 6.768 129.67 7.26C130.342 7.74 131.224 7.98 132.316 7.98C133.408 7.98 134.29 7.74 134.962 7.26C135.634 6.768 135.97 6.126 135.97 5.334C135.97 4.542 135.634 3.906 134.962 3.426C134.29 2.934 133.408 2.688 132.316 2.688Z" fill="#030045"/>
</svg>
